<svg xmlns="http://www.w3.org/2000/svg" viewBox="0 0 173 38.61"><title>pujol</title><g id="Capa_2" data-name="Capa 2"><g id="Capa_1-2" data-name="Capa 1"><path d="M173,37.87V33.52H155.11V.68h-4.67V37.87ZM132.35,19.3c0,3.89-.16,8.92-3.2,12.07a9.63,9.63,0,0,1-13.54,0c-3-3.15-3.2-8.18-3.2-12.07s.16-8.91,3.2-12.06a9.63,9.63,0,0,1,13.54,0c3,3.15,3.2,8.18,3.2,12.06m4.82,0c0-5.92-.73-11.38-4.77-15.31a14.58,14.58,0,0,0-20,0c-4,3.93-4.77,9.39-4.77,15.31s.73,11.39,4.77,15.32a14.58,14.58,0,0,0,20,0c4-3.93,4.77-9.39,4.77-15.32M95.36,27.49V.68H90.7V27.49c0,4.09-1.58,6.71-5.83,6.71a5.7,5.7,0,0,1-4.09-1.52c-1.57-1.47-1.94-3.51-1.94-6.08H74.12c0,3.77.84,6.61,3,8.81a10.38,10.38,0,0,0,7.76,3.15c6.72,0,10.49-4.41,10.49-11.07m-31.1-3.26V.68H59.59V24.34c0,5.93-2.47,9.86-8.92,9.86s-8.91-3.93-8.91-9.86V.68H37.09V24.23c0,9.29,5.24,14.33,13.58,14.33s13.59-5,13.59-14.33m-43-12.32c0,5-2.51,7.29-7.5,7.29H4.67V4.93h9c4.62,0,7.55,2.26,7.55,7m4.83,0A11.37,11.37,0,0,0,23.24,4C21.24,1.89,18.15.68,13.8.68H0V37.87H4.67V23.45h9.18c4.09,0,7.13-1.1,9.13-3.1a11.49,11.49,0,0,0,3.09-8.44"/></g></g></svg>