<?xml version="1.0" standalone="no"?>
<!DOCTYPE svg PUBLIC "-//W3C//DTD SVG 1.1//EN" "http://www.w3.org/Graphics/SVG/1.1/DTD/svg11.dtd" >
<svg xmlns="http://www.w3.org/2000/svg" xmlns:xlink="http://www.w3.org/1999/xlink" version="1.1">
<metadata>
Created by FontForge 20170731 at Fri Feb 14 00:57:34 2014
 By Aleksey,,,
Copyright (c) 2014 by Commercial Type, Inc.. All rights reserved.
</metadata>
<defs>
<font id="CaponiText-Medium" horiz-adv-x="630" >
  <font-face 
    font-family="CaponiText"
    font-weight="500"
    font-variant="small-caps"
    font-stretch="normal"
    units-per-em="1000"
    panose-1="0 0 0 0 0 0 0 0 0 0"
    ascent="764"
    descent="-236"
    x-height="470"
    cap-height="659"
    bbox="-188 -291 1104 1119"
    underline-thickness="47"
    underline-position="81"
    unicode-range="U+000D-FB04"
  />
<missing-glyph horiz-adv-x="213" 
 />
    <glyph glyph-name="f_b" unicode="fb" horiz-adv-x="844" 
d="M466 -7l-154 11v47l55 -2v503q-32 12 -32 46q0 18 12 32.5t12 19.5q0 20 -41 20q-120 0 -120 -147v-52h127v-54h-127l2 -366l55 -4v-47h-236v47l68 4v366h-66v42q45 7 66 20v3q0 108 65 173t161 65q66 0 106 -31l52 22l10 -5v-276q64 57 145 57q90 0 139.5 -67t49.5 -192
q0 -111 -59 -176t-142 -65q-46 0 -75.5 12.5t-57.5 40.5v-4h-4v-43h-11zM580 420q-47 0 -99 -33v-301q42 -36 95 -36q121 0 121 184q0 90 -30 138t-87 48z" />
    <glyph glyph-name="f_f_b" unicode="ffb" horiz-adv-x="1125" 
d="M21 417v42q45 7 66 20q2 101 69 162t159 61q81 0 117 -48q66 66 163 66q65 0 105 -31l52 22l10 -5v-276q65 57 146 57q90 0 139 -66.5t49 -192.5q0 -111 -58.5 -176t-141.5 -65q-81 0 -134 53v-4h-3v-43h-11l-155 11v47l56 -2v503q-34 13 -34 46q0 18 13 32.5t13 19.5
q0 20 -41 20q-120 0 -120 -147v-52h127v-54h-127l1 -366l55 -4v-47h-224v47l55 4v366h-168l1 -366l55 -4v-47h-236v47l68 4v366h-66zM861 420q-49 0 -99 -33v-300q40 -37 95 -37q121 0 121 184q0 90 -30 138t-87 48zM317 653q-54 0 -86 -36.5t-32 -108.5v-37h168v11
q0 25 5 53q-37 9 -37 45q0 18 13 32.5t13 18.5q0 9 -12 15.5t-32 6.5z" />
    <glyph glyph-name="f_f_h" unicode="ffh" horiz-adv-x="1120" 
d="M21 417v42q45 7 66 20q2 101 69 162t159 61q81 0 117 -48q66 66 163 66q65 0 105 -31l52 22l10 -5v-312q26 32 63 59q45 36 92 36q128 0 128 -137v-303l59 -2v-47h-230v47l58 3v290q0 63 -69 63q-48 0 -101 -40v-312l55 -4v-47h-224v47l56 3v502q-34 13 -34 46
q0 18 13 32.5t13 19.5q0 20 -41 20q-120 0 -120 -147v-52h127v-54h-127l1 -366l55 -4v-47h-224v47l55 4v366h-168l1 -366l55 -4v-47h-236v47l68 4v366h-66zM317 653q-54 0 -86 -36.5t-32 -108.5v-37h168v11q0 25 5 53q-37 9 -37 45q0 18 13 32.5t13 18.5q0 9 -12 15.5
t-32 6.5z" />
    <glyph glyph-name="f_f_j" unicode="ffj" horiz-adv-x="839" 
d="M21 417v42q45 7 66 20q2 101 69 162t159 61q83 0 119 -50q66 68 166 68q68 0 108 -28.5t40 -76.5q0 -35 -19.5 -53.5t-49.5 -18.5q-26 0 -43.5 13.5t-17.5 38.5q0 19 15 33.5t15 18.5q0 23 -46 23q-57 0 -89.5 -39t-32.5 -113v-47h225l47 10l10 -5v-516
q0 -100 -57 -175.5t-144 -75.5q-32 0 -52.5 17.5t-20.5 42.5t12.5 39.5t33.5 14.5q41 0 72 -48q44 24 44 109v533h-170l1 -366l76 -4v-47h-245v47l55 4v366h-168l1 -366l55 -4v-47h-236v47l68 4v366h-66zM317 653q-54 0 -86 -36.5t-32 -108.5v-37h168v6q0 31 6 58
q-38 9 -38 45q0 18 13 32.5t13 18.5q0 9 -12 15.5t-32 6.5z" />
    <glyph glyph-name="f_f_k" unicode="ffk" horiz-adv-x="1109" 
d="M21 417v42q45 7 66 20q2 101 69 162t159 61q81 0 117 -48q66 66 163 66q65 0 105 -31l52 22l10 -5v-655l54 -4v-47h-223v47l56 5v500q-34 13 -34 46q0 18 13 32.5t13 19.5q0 20 -41 20q-120 0 -120 -147v-52h127v-54h-127l1 -366l55 -4v-47h-224v47l55 4v366h-168l1 -366
l55 -4v-47h-236v47l68 4v366h-66zM877 0v47l45 3l-152 189v15l159 158l-59 13v46h195v-46l-69 -11l-130 -129l189 -235l44 -3v-47h-222zM317 653q-54 0 -86 -36.5t-32 -108.5v-37h168v11q0 25 5 53q-37 9 -37 45q0 18 13 32.5t13 18.5q0 9 -12 15.5t-32 6.5z" />
    <glyph glyph-name="f_h" unicode="fh" horiz-adv-x="840" 
d="M312 0v47l55 3v502q-32 12 -32 46q0 18 12 32.5t12 19.5q0 20 -41 20q-119 0 -119 -147v-52h126v-54h-126l1 -366l55 -4v-47h-236v47l68 4v366h-66v42q45 7 66 20v3q0 108 65 173t161 65q66 0 106 -31l52 22l10 -5v-311q28 33 63 58q44 36 92 36q64 0 95.5 -33t31.5 -104
v-303l61 -2v-47h-232v47l59 3v290q0 63 -69 63q-46 0 -101 -40v-312l55 -4v-47h-224z" />
    <glyph glyph-name="f_j" unicode="fj" horiz-adv-x="557" 
d="M21 417v42q45 7 66 20q0 109 67.5 175t164.5 66q68 0 108 -28.5t40 -76.5q0 -35 -20 -53.5t-50 -18.5q-26 0 -43.5 13.5t-17.5 38.5q0 19 15.5 33.5t15.5 18.5q0 23 -46 23q-57 0 -89.5 -39t-32.5 -113v-47h225l47 10l10 -5v-476q0 -101 -57 -176.5t-144 -75.5
q-32 0 -53 18t-21 43t13 39.5t33 14.5q43 0 73 -49q44 24 44 109v494h-170l1 -366l77 -4v-47h-258v47l68 4v366h-66z" />
    <glyph glyph-name="f_k" unicode="fk" horiz-adv-x="828" 
d="M312 0v47l55 5v500q-32 12 -32 46q0 18 12 32.5t12 19.5q0 20 -41 20q-119 0 -119 -147v-52h126v-54h-126l1 -366l55 -4v-47h-236v47l68 4v366h-66v42q45 7 66 20v3q0 108 65 173t161 65q66 0 106 -31l52 22l10 -5v-655l54 -4v-47h-223zM596 0v47l46 3l-154 189v15
l160 158l-60 13v46h195v-46l-68 -11l-130 -128l189 -236l44 -3v-47h-222z" />
    <glyph glyph-name="f_f" unicode="ff" horiz-adv-x="626" 
d="M21 417v42q45 7 66 20q2 101 69 162t159 61q79 0 115 -44q60 62 148 62q58 0 94 -26.5t36 -72.5q0 -33 -18.5 -51.5t-45.5 -18.5q-24 0 -41 13.5t-17 37.5q0 19 14.5 33t14.5 19q0 16 -35 16q-48 0 -74 -37.5t-26 -108.5v-53h125v-54h-125l1 -366l77 -4v-47h-246v47l55 4
v366h-168l1 -366l55 -4v-47h-236v47l68 4v366h-66zM317 653q-54 0 -86 -36.5t-32 -108.5v-37h168v13q0 30 4 51q-36 9 -36 45q0 18 13 32.5t13 18.5q0 9 -12 15.5t-32 6.5z" />
    <glyph glyph-name="f_i" unicode="fi" horiz-adv-x="563" 
d="M21 417v42q45 7 66 20q0 109 67 175t163 66q68 0 108 -28.5t40 -76.5q0 -35 -20 -53.5t-50 -18.5q-26 0 -43.5 13.5t-17.5 38.5q0 19 15 33.5t15 18.5q0 23 -44 23q-57 0 -89 -39t-32 -113v-47h224l48 10l10 -5v-425l64 -4v-47h-233v47l55 4v366h-168l1 -366l55 -4v-47
h-236v47l68 4v366h-66z" />
    <glyph glyph-name="f_l" unicode="fl" horiz-adv-x="565" 
d="M21 417v42q45 7 66 20v3q0 108 65 173t161 65q66 0 106 -31l52 22l10 -5v-655l67 -4v-47h-236v47l55 4v366h-168l1 -366l55 -4v-47h-236v47l68 4v366h-66zM318 670q-119 0 -119 -147v-52h168v81q-32 12 -32 46q0 18 12 32.5t12 19.5q0 20 -41 20z" />
    <glyph glyph-name="f_f_i" unicode="ffi" horiz-adv-x="844" 
d="M21 417v42q45 7 66 20q2 101 69 162t159 61q83 0 119 -49q67 67 164 67q69 0 108.5 -28.5t39.5 -76.5q0 -35 -20 -53.5t-49 -18.5q-26 0 -44 13.5t-18 38.5q0 19 15.5 33.5t15.5 18.5q0 23 -45 23q-58 0 -89.5 -39t-31.5 -113v-47h225l47 10l10 -5v-425l64 -4v-47h-233
v47l56 4v366h-169l1 -366l55 -4v-47h-224v47l55 4v366h-168l1 -366l55 -4v-47h-236v47l68 4v366h-66zM317 653q-54 0 -86 -36.5t-32 -108.5v-37h168v6q0 31 6 58q-38 9 -38 45q0 18 13 32.5t13 18.5q0 9 -12 15.5t-32 6.5z" />
    <glyph glyph-name="f_f_l" unicode="ffl" horiz-adv-x="847" 
d="M21 417v42q45 7 66 20q2 101 69 162t159 61q81 0 117 -48q66 66 163 66q65 0 105 -31l52 22l10 -5v-655l68 -4v-47h-237v47l56 4v366h-169l1 -366l55 -4v-47h-224v47l55 4v366h-168l1 -366l55 -4v-47h-236v47l68 4v366h-66zM600 670q-120 0 -120 -147v-52h169v81
q-34 13 -34 46q0 18 13 32.5t13 19.5q0 20 -41 20zM317 653q-54 0 -86 -36.5t-32 -108.5v-37h168v11q0 25 5 53q-37 9 -37 45q0 18 13 32.5t13 18.5q0 9 -12 15.5t-32 6.5z" />
    <glyph glyph-name=".notdef" horiz-adv-x="213" 
 />
    <glyph glyph-name=".null" horiz-adv-x="0" 
 />
    <glyph glyph-name="nonmarkingreturn" horiz-adv-x="333" 
 />
    <glyph glyph-name="NULL" horiz-adv-x="0" 
 />
    <glyph glyph-name="NULL" horiz-adv-x="0" 
 />
    <glyph glyph-name="CR" unicode="&#xd;" horiz-adv-x="213" 
 />
    <glyph glyph-name="space" unicode=" " horiz-adv-x="213" 
 />
    <glyph glyph-name="exclam" unicode="!" horiz-adv-x="243" 
d="M102 208l-52 374q-9 40 13.5 65.5t57.5 25.5q36 0 57.5 -25.5t13.5 -65.5l-52 -374h-38zM121 -17q-31 0 -51 20.5t-20 51.5q0 32 20 52t51 20t51 -20t20 -52q0 -31 -20 -51.5t-51 -20.5z" />
    <glyph glyph-name="quotedbl" unicode="&#x22;" horiz-adv-x="359" 
d="M83 419l-42 169q-11 43 6 67t51 24q35 0 50.5 -22.5t4.5 -68.5l-41 -169h-29zM247 419l-42 169q-11 43 7 67t51 24q35 0 50.5 -22.5t3.5 -68.5l-40 -169h-30z" />
    <glyph glyph-name="numbersign" unicode="#" horiz-adv-x="463" 
d="M60 370l16 86h85l33 165h53l-33 -165h92l33 165h54l-33 -165h82l-16 -86h-83l-21 -104h82l-16 -86h-83l-36 -180h-54l36 180h-92l-36 -180h-53l36 180h-85l17 86h85l21 104h-84zM197 370l-21 -104h92l21 104h-92z" />
    <glyph glyph-name="dollar" unicode="$" horiz-adv-x="510" 
d="M224 -110v99q-92 4 -142.5 43.5t-50.5 97.5q0 36 18.5 55.5t46.5 19.5q26 0 41.5 -14t15.5 -36q0 -20 -17 -38t-17 -20q0 -53 105 -58v233q-94 32 -137 74t-43 117q0 84 53.5 133.5t133.5 55.5v57h45v-57q72 -4 123 -37t51 -86q0 -32 -16.5 -51t-42.5 -19
q-25 0 -41.5 14.5t-16.5 35.5q0 19 13 33t13 19q0 17 -23.5 28.5t-59.5 13.5v-214q49 -17 78 -31.5t58.5 -37.5t42.5 -55t13 -75q0 -91 -57.5 -142.5t-141.5 -58.5v-99h-45zM376 144q0 41 -26 66t-81 47v-217q50 6 78.5 32t28.5 72zM132 504q0 -37 21.5 -57.5t77.5 -41.5
v197q-99 -12 -99 -98z" />
    <glyph glyph-name="percent" unicode="%" horiz-adv-x="719" 
d="M81 -11l510 659l35 -26l-512 -659zM181 349q63 0 63 125q0 127 -63 127q-61 0 -61 -127q0 -125 61 -125zM181 307q-62 0 -109 47t-47 120t47 121.5t109 48.5q64 0 110 -49t46 -121q0 -73 -45.5 -120t-110.5 -47zM538 30q62 0 62 126t-62 126t-62 -126t62 -126zM538 -12
q-63 0 -109.5 47.5t-46.5 120.5q0 72 46.5 120.5t109.5 48.5q65 0 110 -48.5t45 -120.5q0 -74 -44.5 -121t-110.5 -47z" />
    <glyph glyph-name="ampersand" unicode="&#x26;" horiz-adv-x="742" 
d="M235 -18q-95 0 -150 51t-55 128q0 70 44 121.5t121 80.5q-39 37 -57 70t-18 80q0 63 47 110t131 47q66 0 107.5 -35.5t41.5 -101.5q0 -85 -116 -139q79 -73 158 -173q40 70 76 151l-60 10v47h182v-47l-59 -9q-20 -31 -55.5 -94.5t-56.5 -94.5q32 -42 50.5 -64.5t42 -42
t40.5 -19.5q36 0 73 16l12 -35q-57 -57 -141 -57q-77 0 -152 103q-94 -103 -206 -103zM415 120q-120 150 -195 221q-82 -48 -82 -136q0 -60 41 -104t109 -46q70 -1 129 62q0 1 -1 1zM297 424l8 -7q69 46 69 119q0 37 -20 59.5t-53 22.5q-34 0 -55 -21t-21 -53
q0 -36 15.5 -60.5t56.5 -59.5z" />
    <glyph glyph-name="quotesingle" unicode="'" horiz-adv-x="194" 
d="M83 419l-42 169q-11 43 6 67t51 24q35 0 50.5 -22.5t4.5 -68.5l-41 -169h-29z" />
    <glyph glyph-name="parenleft" unicode="(" horiz-adv-x="358" 
d="M332 -161l-35 -29q-51 53 -85.5 96.5t-70.5 103.5t-54 129.5t-18 146.5t18 146t54 129t70.5 103.5t85.5 96.5l35 -29q-79 -101 -122 -206.5t-43 -239.5t43 -239.5t122 -207.5z" />
    <glyph glyph-name="parenright" unicode=")" horiz-adv-x="358" 
d="M56 -190l-35 29q79 102 122 207.5t43 239.5t-43 239.5t-122 206.5l35 29q51 -53 85.5 -96.5t70.5 -103.5t54 -129t18 -146t-18 -146.5t-54 -129.5t-70.5 -103.5t-85.5 -96.5z" />
    <glyph glyph-name="asterisk" unicode="*" horiz-adv-x="357" 
d="M92 373l-25 22l57 96l-92 57l13 31l98 -28l18 108h35l17 -108l98 28l14 -31l-93 -57l58 -97l-26 -21l-86 80z" />
    <glyph glyph-name="plus" unicode="+" horiz-adv-x="461" 
d="M38 262v56h164v171h58v-171h164v-56h-164v-170h-58v170h-164z" />
    <glyph glyph-name="comma" unicode="," horiz-adv-x="266" 
d="M74 -175l-19 34q98 50 98 123q0 29 -17 29q-3 0 -15 -8t-25 -8q-57 0 -57 61q0 30 23.5 51t57.5 21q48 0 75 -31.5t27 -88.5q0 -66 -41 -112.5t-107 -70.5z" />
    <glyph glyph-name="hyphen" unicode="-" horiz-adv-x="326" 
d="M59 214v89h207v-89h-207z" />
    <glyph glyph-name="period" unicode="." horiz-adv-x="221" 
d="M111 -16q-32 0 -52 20.5t-20 51.5t20 51t52 20q31 0 51 -20t20 -51t-20 -51.5t-51 -20.5z" />
    <glyph glyph-name="slash" unicode="/" horiz-adv-x="380" 
d="M-13 -181l315 932h60l-317 -932h-58z" />
    <glyph glyph-name="zero" unicode="0" horiz-adv-x="583" 
d="M291 34q134 0 134 252t-134 252q-132 0 -132 -252t132 -252zM291 -19q-105 0 -183 84.5t-78 220.5q0 134 78.5 219.5t182.5 85.5q106 0 184 -85.5t78 -219.5q0 -136 -77.5 -220.5t-184.5 -84.5z" />
    <glyph glyph-name="one" unicode="1" horiz-adv-x="360" 
d="M23 430v55l175 104h48v-534l88 -7v-48h-300v48l91 7v420z" />
    <glyph glyph-name="two" unicode="2" horiz-adv-x="496" 
d="M33 0l-6 72q13 10 48.5 36t49 36.5t43 34t42 36.5t34.5 35t31 38.5l21 38.5t16 44t4 45q0 61 -26.5 92.5t-72.5 31.5q-40 0 -62.5 -17t-22.5 -40q0 -14 18.5 -33t18.5 -40t-18 -36.5t-44 -15.5q-33 0 -52.5 20t-19.5 58q0 66 58 111t144 45q104 0 157 -50.5t53 -127.5
q0 -144 -313 -319h199q38 0 52 7.5t22 27.5l16 51h41l-27 -181h-404z" />
    <glyph glyph-name="three" unicode="3" horiz-adv-x="496" 
d="M217 -88q-90 0 -145.5 39.5t-55.5 102.5q0 33 19.5 51.5t47.5 18.5t44 -14.5t16 -37.5q0 -24 -18.5 -40.5t-18.5 -20.5q0 -18 25.5 -33t61.5 -15q71 0 105.5 35t34.5 117q0 64 -37 95.5t-105 31.5h-54v51h53q55 0 88 36.5t33 102.5q0 108 -99 108q-28 0 -50 -10t-22 -22
q0 -4 15.5 -19t15.5 -36t-16.5 -36t-40.5 -15q-28 0 -46 18t-18 47q0 56 56 90.5t126 34.5q94 0 148 -44t54 -110q0 -57 -42 -101t-106 -59v-5q89 -11 133.5 -54.5t44.5 -111.5q0 -87 -70.5 -141t-176.5 -54z" />
    <glyph glyph-name="four" unicode="4" horiz-adv-x="567" 
d="M308 -84v201h-283v28l266 459l71 1l-256 -435h202v246l117 13v-259h113v-53h-113v-201h-117z" />
    <glyph glyph-name="five" unicode="5" horiz-adv-x="487" 
d="M204 -88q-81 0 -134 36t-53 99q0 33 19 51.5t49 18.5q22 0 39.5 -14.5t17.5 -37.5t-18.5 -40.5t-18.5 -21.5q0 -16 25 -28t55 -12q64 0 101.5 43t37.5 129q0 75 -32 103.5t-89 28.5q-58 0 -98 -33l-29 13v331h286l16 56h40l-18 -158h-265v-177q44 29 111 29
q98 0 152.5 -47t54.5 -140q0 -108 -74 -168.5t-175 -60.5z" />
    <glyph glyph-name="six" unicode="6" horiz-adv-x="552" 
d="M284 -18q-115 0 -182 78t-67 203q0 203 120 317.5t316 114.5v-53q-141 -11 -214.5 -79.5t-89.5 -203.5q70 49 154 49q88 0 145 -48t57 -150q0 -92 -64.5 -160t-174.5 -68zM278 349q-65 0 -115 -37q-1 -15 -1 -42q0 -123 29.5 -179.5t92.5 -56.5q60 0 87.5 46t27.5 123
q0 71 -31.5 108.5t-89.5 37.5z" />
    <glyph glyph-name="seven" unicode="7" horiz-adv-x="485" 
d="M233 -99q-44 0 -67.5 24t-23.5 63q0 52 45 121l192 365h-182q-60 0 -76 -8.5t-28 -45.5l-19 -57h-43l31 215h413v-40l-236 -449q-26 -44 -26 -73q0 -25 29 -25q18 0 39 19q34 -9 34 -46q0 -29 -23 -46t-59 -17z" />
    <glyph glyph-name="eight" unicode="8" horiz-adv-x="535" 
d="M267 -18q-103 0 -169.5 54t-66.5 140q0 63 41 108.5t102 60.5q-54 19 -85 59.5t-31 94.5q0 74 58.5 126t150.5 52q91 0 148 -52t57 -126q0 -56 -31.5 -97.5t-77.5 -56.5q61 -14 100.5 -59.5t39.5 -109.5q0 -86 -66.5 -140t-169.5 -54zM267 32q57 0 84.5 39t27.5 106
q0 142 -112 142t-112 -142q0 -145 112 -145zM267 365q92 0 92 134q0 60 -24 94t-68 34q-45 0 -69.5 -34t-24.5 -94q0 -66 24.5 -100t69.5 -34z" />
    <glyph glyph-name="nine" unicode="9" horiz-adv-x="551" 
d="M76 -117v53q145 15 219 78.5t90 197.5q-74 -50 -154 -50q-88 0 -145.5 49t-57.5 150q0 93 64.5 162t174.5 69q116 0 182.5 -80.5t66.5 -212.5q0 -201 -120.5 -308.5t-319.5 -107.5zM274 222q66 0 115 36q1 13 1 40q0 125 -29.5 183t-91.5 58q-116 0 -116 -171
q0 -146 121 -146z" />
    <glyph glyph-name="colon" unicode=":" horiz-adv-x="229" 
d="M115 -16q-31 0 -51.5 20.5t-20.5 51.5t20.5 51t51.5 20q30 0 50.5 -20t20.5 -51t-20.5 -51.5t-50.5 -20.5zM115 303q-31 0 -51.5 20.5t-20.5 51.5q0 30 20.5 50.5t51.5 20.5q30 0 50.5 -20.5t20.5 -50.5q0 -31 -20.5 -51.5t-50.5 -20.5z" />
    <glyph glyph-name="semicolon" unicode=";" horiz-adv-x="272" 
d="M132 303q-32 0 -51.5 20.5t-19.5 51.5t19.5 51t51.5 20q30 0 50 -20.5t20 -50.5q0 -31 -19.5 -51.5t-50.5 -20.5zM78 -175l-19 34q98 48 98 123q0 29 -17 29q-2 0 -14.5 -8t-25.5 -8q-56 0 -56 61q0 30 23 51t57 21q48 0 75.5 -31.5t27.5 -88.5q0 -65 -42 -112t-107 -71z
" />
    <glyph glyph-name="less" unicode="&#x3c;" horiz-adv-x="426" 
d="M385 100l-350 159v49l350 159v-63l-273 -120l273 -121v-63z" />
    <glyph glyph-name="equal" unicode="=" horiz-adv-x="461" 
d="M38 324v56h385v-56h-385zM38 179v55h385v-55h-385z" />
    <glyph glyph-name="greater" unicode="&#x3e;" horiz-adv-x="426" 
d="M41 100v63l273 120l-273 121v63l350 -159v-49z" />
    <glyph glyph-name="question" unicode="?" horiz-adv-x="414" 
d="M172 -16q-31 0 -51.5 20.5t-20.5 51.5t20.5 51t51.5 20t51 -20t20 -51t-20 -51.5t-51 -20.5zM188 208h-49q-9 27 -7 55q3 38 25.5 75.5t48 63t46.5 61t21 71.5q0 84 -89 84q-70 0 -70 -54q0 -27 29 -33q9 -21 9 -33q0 -21 -14.5 -35t-39.5 -14q-33 0 -54 23t-21 61
q0 62 50.5 101t125.5 39q83 0 135.5 -42.5t52.5 -117.5q0 -31 -8.5 -57t-26.5 -47t-33 -35t-39.5 -33.5t-35.5 -29.5q-21 -18 -32.5 -30.5t-19.5 -32t-4 -40.5z" />
    <glyph glyph-name="at" unicode="@" horiz-adv-x="910" 
d="M630 50q72 0 131 68t59 187q0 125 -77.5 201.5t-212.5 76.5q-123 0 -220 -59t-148.5 -156t-51.5 -211q0 -145 91 -235t242 -90q163 0 277 93l28 -35q-135 -111 -321 -111q-173 0 -285.5 101t-112.5 263q0 131 65.5 243.5t181.5 180t254 67.5q159 0 256.5 -93t97.5 -232
q0 -99 -43 -172t-105.5 -106.5t-131.5 -33.5q-106 0 -112 81h-2q-27 -34 -64.5 -58t-75.5 -24q-45 0 -75.5 32.5t-30.5 98.5q0 113 77 207t179 94q60 0 86 -42l11 28h103l-99 -307q-17 -57 29 -57zM404 68q48 0 89 56l67 214q-15 37 -55 37q-59 0 -102.5 -80t-43.5 -157
q0 -70 45 -70z" />
    <glyph glyph-name="A" unicode="A" horiz-adv-x="661" 
d="M377 0v48l75 5l-57 163h-206l-50 -145l94 -23v-48h-215v48l58 17l213 603h83l217 -617l54 -3v-48h-266zM291 510l-86 -247h174l-87 247h-1z" />
    <glyph glyph-name="B" unicode="B" horiz-adv-x="580" 
d="M29 0v48l65 7v549l-65 5v50h273q104 0 162 -41.5t58 -114.5q0 -123 -138 -158v-3q80 -15 122.5 -56.5t42.5 -104.5q0 -83 -60.5 -132t-170.5 -49h-289zM293 317h-71v-263h72q73 0 101.5 29t28.5 101t-33 102.5t-98 30.5zM285 605h-63v-241h65q60 0 86.5 29.5t26.5 98.5
q0 64 -27.5 88.5t-87.5 24.5z" />
    <glyph glyph-name="C" unicode="C" horiz-adv-x="634" 
d="M343 -18q-141 0 -225.5 92t-84.5 248q0 153 93.5 250.5t222.5 97.5q114 0 182 -85l16 65h40v-206h-46q-22 86 -67 128.5t-119 42.5q-82 0 -133.5 -74.5t-51.5 -214.5q0 -280 196 -280q126 0 190 131l42 -19q-32 -84 -98.5 -130t-156.5 -46z" />
    <glyph glyph-name="D" unicode="D" horiz-adv-x="660" 
d="M29 0v48l65 6v550l-65 5v50h274q51 0 97 -10.5t88.5 -35t73 -62t48.5 -94t18 -127.5q0 -85 -26.5 -150.5t-72 -103.5t-101.5 -57t-119 -19h-280zM297 605h-75v-550h76q93 0 143 62.5t50 212.5q0 154 -49.5 214.5t-144.5 60.5z" />
    <glyph glyph-name="E" unicode="E" horiz-adv-x="602" 
d="M487 470l-18 87q-6 31 -19 39.5t-50 8.5h-178v-247h80q40 0 45 33l8 76h40v-265h-40l-9 73q-2 22 -11.5 28.5t-33.5 6.5h-79v-256h186q56 0 70.5 8t20.5 47l19 101h44v-210h-533v48l65 8v548l-65 5v50h500v-189h-42z" />
    <glyph glyph-name="F" unicode="F" horiz-adv-x="550" 
d="M483 451l-16 84q-6 45 -23 57.5t-73 12.5h-149v-243h76q24 0 30.5 6.5t10.5 37.5l9 66h40v-266h-40l-9 68q-4 25 -11.5 32.5t-31.5 7.5h-74v-260l82 -6v-48h-275v48l65 7v549l-65 5v50h497v-208h-43z" />
    <glyph glyph-name="G" unicode="G" horiz-adv-x="681" 
d="M352 -18q-144 0 -232 93t-88 247q0 151 96.5 249.5t223.5 98.5q117 0 181 -77l13 55h40v-191h-45q-21 82 -62.5 119.5t-114.5 37.5q-85 0 -140 -74t-55 -214q0 -150 46 -220t147 -70q80 0 115 53q15 23 15 83v43l-76 6v50h253v-50l-58 -5v-111q-105 -123 -259 -123z" />
    <glyph glyph-name="H" unicode="H" horiz-adv-x="687" 
d="M395 0v48l71 6v263h-245v-263l71 -6v-48h-263v48l65 7v550l-65 4v50h263v-50l-71 -5v-238h245v236l-71 7v50h263v-50l-65 -5v-552l65 -4v-48h-263z" />
    <glyph glyph-name="I" unicode="I" horiz-adv-x="315" 
d="M29 0v48l65 7v547l-65 7v50h257v-50l-65 -6v-547l65 -8v-48h-257z" />
    <glyph glyph-name="J" unicode="J" horiz-adv-x="439" 
d="M152 -62q-63 0 -96.5 28t-33.5 72q0 35 19 55t49 20q25 0 41.5 -14.5t16.5 -38.5q0 -16 -8 -27t-15.5 -17.5t-7.5 -10.5q0 -17 29 -17q72 0 72 115v499l-74 7v50h270v-50l-69 -7v-428q0 -116 -53 -176t-140 -60z" />
    <glyph glyph-name="K" unicode="K" horiz-adv-x="656" 
d="M29 0v48l65 7v549l-65 5v50h266v-50l-73 -5v-549l70 -7v-48h-263zM382 0v48l61 5l-199 282v19l215 238l-67 17v50h216v-50l-82 -16l-175 -197l236 -344l47 -4v-48h-252z" />
    <glyph glyph-name="L" unicode="L" horiz-adv-x="570" 
d="M29 0v48l65 6v551l-65 4v50h274v-50l-81 -6v-548h163q51 0 67 16.5t24 84.5l16 75h44v-231h-507z" />
    <glyph glyph-name="M" unicode="M" horiz-adv-x="768" 
d="M370 0h-45l-172 545v-481l75 -16v-48h-199v48l65 15v538l-65 8v50h213l140 -448l146 448h210v-50l-64 -4v-553l64 -4v-48h-263v48l77 6v501z" />
    <glyph glyph-name="N" unicode="N" horiz-adv-x="656" 
d="M29 0v48l64 10v545l-64 6v50h208l274 -426v362l-76 14v50h192v-50l-55 -13v-596h-60l-358 559v-496l97 -15v-48h-222z" />
    <glyph glyph-name="O" unicode="O" horiz-adv-x="689" 
d="M345 37q175 0 175 288q0 290 -175 290q-86 0 -131 -73.5t-45 -216.5q0 -288 176 -288zM345 -18q-128 0 -220.5 95t-92.5 248q0 152 93 248.5t220 96.5q126 0 219 -96.5t93 -248.5q0 -153 -92.5 -248t-219.5 -95z" />
    <glyph glyph-name="P" unicode="P" horiz-adv-x="560" 
d="M29 0v48l65 5v551l-65 5v50h265q118 0 182.5 -50t64.5 -138q0 -95 -66 -145t-175 -50q-38 0 -78 6v-228l80 -6v-48h-273zM282 605h-60v-276q10 -2 57 -2q72 0 101 30t29 109q0 75 -30 107t-97 32z" />
    <glyph glyph-name="Q" unicode="Q" horiz-adv-x="689" 
d="M496 -198q-85 0 -138.5 45t-84.5 144q-104 25 -172.5 114.5t-68.5 219.5q0 152 93 248.5t220 96.5q126 0 219 -96.5t93 -248.5q0 -131 -69.5 -220.5t-173.5 -114.5q20 -70 50 -98.5t74 -28.5t78 15l13 -46q-58 -30 -133 -30zM345 37q175 0 175 288q0 290 -175 290
q-86 0 -131 -73.5t-45 -216.5q0 -288 176 -288z" />
    <glyph glyph-name="R" unicode="R" horiz-adv-x="634" 
d="M29 0v48l65 6v550l-65 5v50h261q109 0 177 -43.5t68 -122.5q0 -65 -45.5 -106.5t-114.5 -57.5v-4q63 -9 94 -44t46 -102q22 -92 34 -110q13 -18 37 -18q19 0 39 11l17 -36q-49 -35 -111 -35q-76 0 -105.5 45.5t-43.5 143.5q-12 77 -31.5 102.5t-70.5 25.5h-58v-252l71 -8
v-48h-264zM282 605h-60v-250h72q62 0 85.5 27.5t23.5 96.5q0 74 -32.5 100t-88.5 26z" />
    <glyph glyph-name="S" unicode="S" horiz-adv-x="528" 
d="M277 -18q-120 0 -178 80l-17 -50h-44v205l47 -2q17 -98 66 -139t114 -41q59 0 96 27.5t37 79.5q0 51 -38 80t-122 55q-96 32 -143.5 75.5t-47.5 124.5q0 90 57.5 141.5t143.5 51.5q103 0 152 -66l15 42h41v-170h-45q-16 67 -58 104.5t-104 37.5q-53 0 -83 -25.5
t-30 -68.5q0 -47 33.5 -69.5t124.5 -52.5q97 -33 149.5 -80t52.5 -133q0 -99 -62 -153t-157 -54z" />
    <glyph glyph-name="T" unicode="T" horiz-adv-x="600" 
d="M160 0v48l77 8v549h-56q-48 0 -66 -14.5t-26 -69.5l-13 -85h-45v223h538v-223h-44l-14 85q-9 56 -26.5 70t-66.5 14h-54v-549l77 -8v-48h-281z" />
    <glyph glyph-name="U" unicode="U" horiz-adv-x="644" 
d="M334 -13q-124 0 -186.5 59.5t-62.5 159.5v399l-57 4v50h265v-50l-82 -5v-384q0 -85 33 -127.5t111 -42.5q76 0 109 42t33 129v374l-75 14v50h194v-50l-58 -14v-384q0 -101 -53.5 -162.5t-170.5 -61.5z" />
    <glyph glyph-name="V" unicode="V" horiz-adv-x="638" 
d="M276 -9l-203 614l-54 4v50h257v-50l-70 -5l147 -466h2l142 450l-79 21v50h200v-50l-58 -18l-199 -600h-85z" />
    <glyph glyph-name="W" unicode="W" horiz-adv-x="896" 
d="M568 -9l-113 386l-125 -386h-87l-170 614l-48 4v50h237v-50l-55 -5l117 -455h1l101 322l-40 134l-47 4v50h219v-50l-47 -4l127 -455h1l117 438l-74 21v50h190v-50l-53 -17l-164 -601h-87z" />
    <glyph glyph-name="X" unicode="X" horiz-adv-x="641" 
d="M357 0v48l63 5l-135 226l-126 -213l78 -18v-48h-214v48l72 21l160 261l-163 274l-52 5v50h258v-50l-63 -4l117 -196l109 181l-69 19v50h200v-50l-69 -20l-142 -230l183 -306l54 -5v-48h-261z" />
    <glyph glyph-name="Y" unicode="Y" horiz-adv-x="594" 
d="M161 0v48l78 8v254l-177 295l-43 4v50h252v-50l-64 -5l135 -238l119 222l-67 21v50h181v-50l-55 -22l-153 -283v-249l76 -7v-48h-282z" />
    <glyph glyph-name="Z" unicode="Z" horiz-adv-x="584" 
d="M69 443v216h468v-34l-346 -571h157q77 0 99.5 12.5t28.5 56.5l22 111h43v-234h-501v32l345 573h-147q-63 0 -81.5 -12t-26.5 -60l-18 -90h-43z" />
    <glyph glyph-name="bracketleft" unicode="[" horiz-adv-x="348" 
d="M90 -181v932h232v-49l-135 -5v-823l135 -8v-47h-232z" />
    <glyph glyph-name="backslash" unicode="\" horiz-adv-x="380" 
d="M333 -181l-315 932h59l316 -932h-60z" />
    <glyph glyph-name="bracketright" unicode="]" horiz-adv-x="348" 
d="M258 751v-932h-232v47l135 8v823l-135 5v49h232z" />
    <glyph glyph-name="asciicircum" unicode="^" horiz-adv-x="399" 
d="M334 417l-136 141l-133 -141h-41l132 242h86l133 -242h-41z" />
    <glyph glyph-name="underscore" unicode="_" horiz-adv-x="390" 
d="M-2 -220v53h394v-53h-394z" />
    <glyph glyph-name="grave" unicode="`" horiz-adv-x="481" 
d="M276 539l-95 90q-25 24 -25 47q0 22 16 36t34 14q39 0 52 -43l49 -144h-31z" />
    <glyph glyph-name="a" unicode="a" horiz-adv-x="499" 
d="M160 -12q-58 0 -97 32t-39 92q0 69 52 107t134 38q44 0 81 -13v117q0 75 -77 75q-30 0 -54 -11q-16 -6 -16 -15q0 -2 14.5 -15t14.5 -36q0 -21 -16 -35t-40 -14q-26 0 -42.5 17t-16.5 44q0 54 55 81.5t126 27.5q80 0 122 -27t42 -94v-265q0 -35 32 -35q24 0 44 15l18 -25
q-43 -59 -110 -59q-71 0 -91 67q-61 -69 -136 -69zM214 53q38 0 77 31v121q-36 9 -67 9q-37 0 -61.5 -20.5t-24.5 -62.5q0 -37 20.5 -57.5t55.5 -20.5z" />
    <glyph glyph-name="b" unicode="b" horiz-adv-x="566" 
d="M187 -7l-167 11v48l68 -3v583l-70 -6v50l172 35l10 -5v-278q67 59 147 59q91 0 140.5 -67t49.5 -192q0 -111 -59.5 -176t-142.5 -65q-46 0 -76.5 13.5t-58.5 41.5v-6h-3v-43h-10zM301 420q-51 0 -101 -35v-297q41 -38 97 -38q120 0 120 184q0 90 -29.5 138t-86.5 48z" />
    <glyph glyph-name="c" unicode="c" horiz-adv-x="466" 
d="M252 -18q-103 0 -163.5 65t-60.5 173q0 120 73 193.5t175 73.5q69 0 112.5 -29t43.5 -79q0 -25 -17 -39t-44 -14q-44 0 -49 39q-1 5 -2 20t-2.5 21t-6 15t-14 12.5t-23.5 3.5q-60 0 -92.5 -52.5t-32.5 -146.5q0 -188 126 -188q50 0 83 29.5t48 74.5l37 -12
q-17 -71 -65.5 -115.5t-125.5 -44.5z" />
    <glyph glyph-name="d" unicode="d" horiz-adv-x="563" 
d="M231 -18q-91 0 -147 70t-56 181q0 117 67 185.5t155 68.5q68 0 114 -34v179l-83 -5v50l184 34l11 -5v-641l71 1v-45l-170 -28l-11 4l3 53q-58 -68 -138 -68zM279 52q50 0 85 35v311q-39 30 -83 30q-60 0 -96.5 -49t-36.5 -147q0 -83 36 -131.5t95 -48.5z" />
    <glyph glyph-name="e" unicode="e" horiz-adv-x="486" 
d="M262 -18q-109 0 -171.5 70.5t-62.5 178.5q0 111 70 183.5t166 72.5q84 0 138.5 -54.5t54.5 -169.5l-5 -7h-304v-16q0 -89 37 -139.5t101 -50.5q51 0 84.5 23.5t53.5 75.5l38 -17q-49 -150 -200 -150zM258 438q-88 0 -106 -137h192q-1 72 -21.5 104.5t-64.5 32.5z" />
    <glyph glyph-name="f" unicode="f" horiz-adv-x="346" 
d="M21 417v42q45 7 66 20v5q0 108 60.5 172t149.5 64q58 0 94.5 -26.5t36.5 -73.5q0 -32 -19 -51t-45 -19q-25 0 -42 13.5t-17 37.5q0 20 15 34t15 19q0 16 -37 16q-47 0 -73 -37.5t-26 -108.5v-53h125v-54h-125v-366l78 -4v-47h-258v47l68 4v366h-66z" />
    <glyph glyph-name="g" unicode="g" horiz-adv-x="541" 
d="M245 142q-57 0 -96 19q-35 -17 -35 -49q0 -44 79 -44q35 0 83 1.5t56 1.5q86 0 131 -30t45 -101q0 -89 -75 -139.5t-198 -50.5q-111 0 -173 31.5t-62 83.5q0 37 31 62.5t82 38.5q-79 26 -79 99q0 77 88 110q-76 50 -76 138q0 74 58.5 124t140.5 50q59 0 105 -25t66 -78h2
q1 51 24 76t54 25q25 0 40.5 -14.5t15.5 -38.5q0 -32 -35 -52q-13 19 -33 19q-17 0 -29 -15t-12 -42q0 -3 0.5 -15t0.5 -19q0 -73 -58 -119.5t-141 -46.5zM176 -43q-10 0 -28 2q-53 -26 -53 -77q0 -84 145 -84q80 0 130 25.5t50 75.5q0 63 -95 63q-33 0 -84 -2.5t-65 -2.5z
M245 185q92 0 92 128q0 127 -92 127q-89 0 -89 -127q0 -128 89 -128z" />
    <glyph glyph-name="h" unicode="h" horiz-adv-x="559" 
d="M19 0v47l68 4v581l-71 -6v50l174 35l9 -5v-312q31 34 64 59q45 36 92 36q128 0 128 -137v-303l60 -2v-47h-232v47l59 3v290q0 63 -68 63q-49 0 -103 -41v-311l56 -4v-47h-236z" />
    <glyph glyph-name="i" unicode="i" horiz-adv-x="285" 
d="M19 0v47l71 4v348l-75 -9v51l177 40l10 -5v-425l65 -4v-47h-248zM145 563q-28 0 -47.5 19t-19.5 45q0 27 19.5 45.5t47.5 18.5t48 -18.5t20 -45.5q0 -26 -20 -45t-48 -19z" />
    <glyph glyph-name="j" unicode="j" horiz-adv-x="280" 
d="M3 -245q-33 0 -53.5 17.5t-20.5 43.5q0 24 12.5 38.5t33.5 14.5q41 0 72 -48q44 24 44 109v469l-75 -9v51l176 40l11 -5v-470q0 -100 -56.5 -175.5t-143.5 -75.5zM146 565q-27 0 -46.5 18.5t-19.5 45.5t19.5 45.5t46.5 18.5q28 0 48 -18.5t20 -45.5t-20 -45.5t-48 -18.5z
" />
    <glyph glyph-name="k" unicode="k" horiz-adv-x="542" 
d="M19 0v47l68 6v578l-69 -10v51l171 39l10 -5v-655l54 -4v-47h-234zM315 0v47l45 3l-153 189v15l160 158l-60 13v46h195v-46l-69 -11l-130 -130l190 -234l39 -3v-47h-217z" />
    <glyph glyph-name="l" unicode="l" horiz-adv-x="289" 
d="M19 0v47l73 5v580l-78 -9v51l180 37l10 -5v-655l68 -4v-47h-253z" />
    <glyph glyph-name="m" unicode="m" horiz-adv-x="826" 
d="M19 0v47l71 5v350l-70 -7v52l172 34l10 -5v-77q27 31 60 57q49 33 91 33q94 0 116 -86q25 28 62 54q47 32 94 32q123 0 123 -137v-303l60 -2v-47h-221v47l50 2v291q0 63 -64 63q-51 0 -98 -34v-319l55 -3v-47h-216v47l49 2v291q0 63 -64 63q-51 0 -97 -34v-319l55 -3v-47
h-238z" />
    <glyph glyph-name="n" unicode="n" horiz-adv-x="563" 
d="M19 0v47l71 5v347l-70 -11v51l172 42l10 -5v-82q25 30 64 59q44 36 91 36q128 0 128 -137v-303l60 -2v-47h-226v47l54 2v291q0 63 -69 63q-48 0 -102 -41v-311l60 -4v-47h-243z" />
    <glyph glyph-name="o" unicode="o" horiz-adv-x="534" 
d="M268 32q118 0 118 202q0 94 -29 148t-89 54q-61 0 -90.5 -54t-29.5 -148q0 -95 29.5 -148.5t90.5 -53.5zM268 -18q-97 0 -168.5 69.5t-71.5 182.5t72 183t168 70q95 0 167 -70.5t72 -182.5q0 -113 -72 -182.5t-167 -69.5z" />
    <glyph glyph-name="p" unicode="p" horiz-adv-x="568" 
d="M23 -233v45l67 5v582l-71 -12v51l172 43l10 -5v-61q67 72 152 72q83 0 134 -67t51 -178q0 -119 -64 -187t-147 -68q-73 0 -125 33v-203l75 -5v-45h-254zM299 416q-56 0 -97 -38v-303q45 -30 90 -30q59 0 92.5 47t33.5 146q0 85 -31 131.5t-88 46.5z" />
    <glyph glyph-name="q" unicode="q" horiz-adv-x="561" 
d="M290 -233v45l74 5v228q-60 -58 -131 -58q-92 0 -148.5 67t-56.5 178q0 121 60 188t147 67q79 0 133 -56v44l10 7l155 -15v-50l-57 3v-604l68 -4v-45h-254zM274 53q43 0 90 32v305q-40 33 -93 33q-55 0 -88.5 -44.5t-33.5 -142.5q0 -87 32.5 -135t92.5 -48z" />
    <glyph glyph-name="r" unicode="r" horiz-adv-x="426" 
d="M19 0v47l71 5v346l-75 -13v51l177 45l10 -5v-86q86 97 144 97q31 0 49.5 -19t18.5 -52q0 -32 -19 -52t-51 -20q-28 0 -40 12q2 44 -24 44q-10 0 -34 -13.5t-44 -30.5v-305l81 -4v-47h-264z" />
    <glyph glyph-name="s" unicode="s" horiz-adv-x="403" 
d="M188 -15q-75 0 -119 30t-44 71q0 24 13.5 38.5t37.5 14.5q30 0 43 -10q-8 -98 77 -98q33 0 57 17.5t24 48.5q0 33 -21.5 52t-73.5 39q-73 23 -106 56t-33 94q0 62 50 104t121 42q67 0 106.5 -26t39.5 -66q0 -45 -50 -45q-26 0 -39 12q-2 41 -17 60t-51 19
q-31 0 -51.5 -16t-20.5 -47q0 -27 21.5 -45.5t73.5 -37.5q79 -28 115 -63.5t36 -91.5q-1 -71 -51 -111.5t-138 -40.5z" />
    <glyph glyph-name="t" unicode="t" horiz-adv-x="351" 
d="M198 -13q-62 0 -90.5 26.5t-28.5 81.5v324l-60 -2v45q50 8 79 34.5t48 80.5l45 -1v-105h129v-54h-129v-300q0 -34 13.5 -48.5t50.5 -14.5q27 0 75 17l10 -34q-58 -50 -142 -50z" />
    <glyph glyph-name="u" unicode="u" horiz-adv-x="554" 
d="M208 -16q-132 0 -132 131v305l-59 3v47h171v-341q0 -68 65 -68q51 0 105 39v318l-56 5v47h167v-409l70 2v-45l-168 -26l-10 5l3 78q-29 -35 -59 -55q-49 -36 -97 -36z" />
    <glyph glyph-name="v" unicode="v" horiz-adv-x="499" 
d="M222 -8l-173 429l-39 3v47h233v-47l-66 -4l100 -279h3l106 266l-65 17v47h168v-47l-45 -15l-167 -417h-55z" />
    <glyph glyph-name="w" unicode="w" horiz-adv-x="731" 
d="M486 -8l-113 307h-2l-126 -307h-54l-142 429l-37 3v47h214v-47l-54 -4l81 -268h2l91 220l-17 48l-45 4v47h212v-47l-53 -4l93 -268h2l82 259l-60 13v47h159v-47l-39 -8l-140 -424h-54z" />
    <glyph glyph-name="x" unicode="x" horiz-adv-x="495" 
d="M255 0v45l58 4l-95 142l-92 -133l62 -13v-45h-175v47l51 10l126 176l-134 188l-39 3v47h226v-46l-53 -3l88 -133l84 123l-57 13v46h158v-47l-40 -9l-117 -166l141 -200l36 -2v-47h-228z" />
    <glyph glyph-name="y" unicode="y" horiz-adv-x="511" 
d="M118 -242q-39 0 -61.5 21t-22.5 48q0 26 15.5 41t37.5 15q20 0 31 -11q-2 -22 7 -33.5t23 -11.5q19 0 38 27.5t45 96.5l9 26l-190 444l-40 3v47h231v-47l-60 -4l113 -293h1l103 281l-63 16v47h166v-47l-44 -13l-174 -467q-39 -104 -74 -145t-91 -41z" />
    <glyph glyph-name="z" unicode="z" horiz-adv-x="459" 
d="M48 329v142h367v-36l-248 -387h92q61 0 83 14.5t26 63.5l3 29h42v-155h-379v36l253 390h-71q-71 0 -93 -11t-28 -54l-5 -32h-42z" />
    <glyph glyph-name="braceleft" unicode="{" horiz-adv-x="361" 
d="M335 -180h-64q-186 0 -159 176l20 162q9 54 -15.5 74.5t-97.5 26.5v53q74 8 98 27t15 73l-20 163q-27 176 159 176h64v-47l-43 -3q-54 -4 -71 -23.5t-13 -89.5l7 -151q2 -74 -20.5 -104t-84.5 -45v-5q63 -15 85 -44.5t20 -104.5l-7 -151q-4 -69 13 -90t71 -23l43 -2v-48z
" />
    <glyph glyph-name="bar" unicode="|" horiz-adv-x="226" 
d="M85 -181v932h56v-932h-56z" />
    <glyph glyph-name="braceright" unicode="}" horiz-adv-x="361" 
d="M86 -180h-64v48l43 2q54 2 71 23t13 90l-7 151q-2 75 20 104.5t85 44.5v5q-62 15 -84.5 45t-20.5 104l7 151q2 71 -13.5 90t-70.5 23l-43 3v47h64q186 0 159 -176l-20 -163q-10 -55 13.5 -73t99.5 -27v-53q-74 -6 -98.5 -26.5t-14.5 -74.5l20 -162q27 -176 -159 -176z
" />
    <glyph glyph-name="asciitilde" unicode="~" horiz-adv-x="382" 
d="M74 180h-40q12 63 39.5 100.5t68.5 37.5q21 0 64.5 -8t57.5 -8q32 2 45 43h41q-12 -63 -39 -100t-67 -38q-21 0 -65.5 8t-58.5 8q-32 -1 -46 -43z" />
    <glyph glyph-name="Zcaron" horiz-adv-x="584" 
d="M175 852h34l104 -67l103 67h34l-95 -139h-85zM69 443v216h468v-34l-346 -571h157q77 0 99.5 12.5t28.5 56.5l22 111h43v-234h-501v32l345 573h-147q-63 0 -81.5 -12t-26.5 -60l-18 -90h-43z" />
    <glyph glyph-name="Zcaron" unicode="&#x17d;" horiz-adv-x="584" 
d="M175 852h34l104 -67l103 67h34l-95 -139h-85zM69 443v216h468v-34l-346 -571h157q77 0 99.5 12.5t28.5 56.5l22 111h43v-234h-501v32l345 573h-147q-63 0 -81.5 -12t-26.5 -60l-18 -90h-43z" />
    <glyph glyph-name="zcaron" horiz-adv-x="459" 
d="M102 706h35l96 -83l96 83h34l-91 -159h-79zM48 329v142h367v-36l-248 -387h92q61 0 83 14.5t26 63.5l3 29h42v-155h-379v36l253 390h-71q-71 0 -93 -11t-28 -54l-5 -32h-42z" />
    <glyph glyph-name="zcaron" unicode="&#x17e;" horiz-adv-x="459" 
d="M102 706h35l96 -83l96 83h34l-91 -159h-79zM48 329v142h367v-36l-248 -387h92q61 0 83 14.5t26 63.5l3 29h42v-155h-379v36l253 390h-71q-71 0 -93 -11t-28 -54l-5 -32h-42z" />
    <glyph glyph-name="uni00A0" unicode="&#xa0;" horiz-adv-x="213" 
 />
    <glyph glyph-name="exclamdown" unicode="&#xa1;" horiz-adv-x="243" 
d="M140 271l52 -374q9 -40 -13.5 -65.5t-57.5 -25.5q-36 0 -57.5 25.5t-13.5 65.5l52 374h38zM121 496q31 0 51 -20.5t20 -51.5q0 -32 -20 -52t-51 -20t-51 20t-20 52q0 31 20 51.5t51 20.5z" />
    <glyph glyph-name="cent" unicode="&#xa2;" horiz-adv-x="465" 
d="M234 -113v96q-96 6 -151.5 70t-55.5 167q0 107 59 177.5t148 85.5v83h46v-79q67 -2 109 -31t42 -77q0 -26 -15.5 -39.5t-42.5 -13.5q-41 0 -46 39q-1 5 -2 16.5t-2 17t-4 14.5t-7.5 13t-12.5 7.5t-19 4.5v-388q90 4 125 104l37 -12q-38 -143 -162 -158v-97h-46zM144 238
q0 -157 90 -183v376q-90 -32 -90 -193z" />
    <glyph glyph-name="sterling" unicode="&#xa3;" horiz-adv-x="534" 
d="M60 280v45h70q-28 72 -28 121q0 93 58.5 150t158.5 57q77 0 127.5 -39t50.5 -104q0 -40 -19 -60.5t-50 -20.5q-27 0 -46 16t-19 37t19.5 40.5t19.5 33.5q0 18 -21 32t-50 14q-43 0 -71.5 -33.5t-28.5 -91.5q0 -56 18 -152h156v-45h-148q10 -46 10 -97q0 -36 -6 -66
q79 -25 130 -25q43 0 62 18.5t28 61.5l36 -6q-7 -88 -38 -136t-97 -48q-30 0 -59 10.5t-45.5 21.5t-43.5 31q-39 -63 -115 -63q-47 0 -72.5 22t-25.5 60q0 42 27.5 64.5t72.5 22.5q29 0 72 -12q-7 45 -45 141h-88zM120 27q55 0 71 49q-40 28 -74 28q-44 0 -44 -40
q0 -37 47 -37z" />
    <glyph glyph-name="yen" unicode="&#xa5;" horiz-adv-x="537" 
d="M68 306v42h131l-139 242l-41 4v48h239v-48l-63 -5l116 -211l100 196l-67 20v48h172v-48l-47 -20l-119 -226h128v-42h-142v-64h142v-43h-142v-145l75 -7v-47h-274v47l77 8v144h-146v43h146v64h-146z" />
    <glyph glyph-name="brokenbar" unicode="&#xa6;" horiz-adv-x="225" 
d="M85 -181v431h56v-431h-56zM85 337v414h56v-414h-56z" />
    <glyph glyph-name="section" unicode="&#xa7;" horiz-adv-x="498" 
d="M233 -158q-89 0 -139.5 35.5t-50.5 84.5q0 30 15.5 46t43.5 16q35 0 48 -25q-20 -53 5.5 -80.5t82.5 -27.5q44 0 71 22t27 65q0 21 -8 36.5t-30 30t-40.5 24t-58.5 26.5q-94 39 -134 74.5t-40 99.5q0 46 27 79t66 51q-42 39 -42 109q0 77 52.5 121t130.5 44
q75 0 123.5 -31t48.5 -79q0 -27 -15.5 -41t-40.5 -14q-32 0 -44 26q14 44 -7 67t-70 23q-42 0 -67.5 -21t-25.5 -58q0 -38 22 -57.5t93 -51.5q56 -24 85 -39t58 -37t40.5 -49t11.5 -64q0 -78 -94 -124q53 -44 53 -112q0 -81 -55.5 -125t-141.5 -44zM248 326q-74 33 -103 51
q-36 -28 -36 -69q0 -32 25 -52.5t103 -55.5q76 -33 110 -55q35 23 35 64q0 38 -29 61t-105 56z" />
    <glyph glyph-name="dieresis" unicode="&#xa8;" horiz-adv-x="481" 
d="M150 564q-26 0 -43 16.5t-17 42.5t17 42.5t43 16.5q25 0 43 -16.5t18 -42.5t-18 -42.5t-43 -16.5zM334 564q-25 0 -42.5 16.5t-17.5 42.5t17.5 42.5t42.5 16.5q26 0 43.5 -16.5t17.5 -42.5t-17.5 -42.5t-43.5 -16.5z" />
    <glyph glyph-name="copyright" unicode="&#xa9;" horiz-adv-x="737" 
d="M368 -19q-87 0 -163.5 40.5t-125 120.5t-48.5 182q0 152 101 249t236 97q87 0 164 -41.5t125.5 -122t48.5 -182.5q0 -153 -101 -248t-237 -95zM368 25q117 0 202 82t85 217q0 134 -85 218t-202 84t-201.5 -84t-84.5 -218q0 -135 84 -217t202 -82zM369 127
q-86 0 -134.5 52.5t-48.5 145.5q0 89 53.5 144t128.5 55q69 0 103 -47l11 36h33v-126h-43q-20 89 -90 89q-44 0 -69 -37.5t-25 -112.5q0 -145 100 -145q64 0 95 70l40 -17q-44 -107 -154 -107z" />
    <glyph glyph-name="ordfeminine" unicode="&#xaa;" horiz-adv-x="444" 
d="M143 235q-52 0 -85 27.5t-33 81.5q0 60 44.5 92.5t117.5 32.5q43 0 70 -10v97q0 65 -66 65q-27 0 -44 -10q-14 -6 -14 -12q0 -2 12 -13.5t12 -29.5q0 -20 -13.5 -32t-34.5 -12q-25 0 -40 14.5t-15 38.5q0 48 49.5 75.5t110.5 27.5q147 0 147 -112v-228q0 -30 27 -30
q18 0 38 12l16 -22q-36 -52 -99 -52t-81 58q-55 -59 -119 -59zM194 297q38 0 63 23v101q-27 8 -55 8q-32 0 -52 -16.5t-20 -51.5q0 -64 64 -64z" />
    <glyph glyph-name="guillemotleft" unicode="&#xab;" horiz-adv-x="431" 
d="M199 412l23 -23l-98 -151l98 -149l-23 -24l-169 152v44zM371 412l23 -23l-98 -151l98 -149l-23 -24l-169 152v44z" />
    <glyph glyph-name="registered" unicode="&#xae;" horiz-adv-x="509" 
d="M255 218q-92 0 -159.5 64t-67.5 166q0 101 68 165.5t159 64.5t158.5 -64.5t67.5 -165.5q0 -102 -67.5 -166t-158.5 -64zM255 253q76 0 131.5 53t55.5 142q0 87 -55.5 141t-131.5 54q-77 0 -132.5 -53.5t-55.5 -141.5q0 -89 55 -142t133 -53zM146 333v32l21 2v168l-21 1
v33h113q41 0 66.5 -16t25.5 -46q0 -45 -57 -59v-1q22 -4 33 -14.5t18 -33.5q1 -3 2 -8q11 -28 19 -30q1 0 10 3l8 -20q-17 -15 -43 -15q-30 0 -43 15.5t-19 46.5q-3 20 -4.5 26.5t-7.5 12.5t-18 6h-18v-68l23 -3v-32h-108zM252 537h-21v-75h23q18 0 25 8.5t7 29.5
q0 37 -34 37z" />
    <glyph glyph-name="overscore" unicode="&#xaf;" horiz-adv-x="481" 
d="M115 591v61h251v-61h-251z" />
    <glyph glyph-name="degree" unicode="&#xb0;" horiz-adv-x="362" 
d="M180 430q40 0 64.5 27.5t24.5 69.5q0 41 -24.5 69.5t-64.5 28.5t-63.5 -28.5t-23.5 -69.5q0 -42 23.5 -69.5t63.5 -27.5zM180 385q-61 0 -101.5 40t-40.5 102q0 60 41 101.5t101 41.5q61 0 102.5 -41.5t41.5 -101.5q0 -62 -41.5 -102t-102.5 -40z" />
    <glyph glyph-name="plusminus" unicode="&#xb1;" horiz-adv-x="461" 
d="M38 262v56h164v171h58v-171h163v-56h-163v-138h-58v138h-164zM38 0v56h385v-56h-385z" />
    <glyph glyph-name="acute" unicode="&#xb4;" horiz-adv-x="481" 
d="M176 539l49 144q13 43 51 43q19 0 35 -14t16 -36q0 -26 -25 -47l-95 -90h-31z" />
    <glyph glyph-name="paragraph" unicode="&#xb6;" horiz-adv-x="527" 
d="M498 609l-65 -7v-783h-59v786h-86v-786h-59v470h-9q-94 0 -148 50t-54 137q0 84 54 133.5t153 49.5h273v-50z" />
    <glyph glyph-name="middot" unicode="&#xb7;" horiz-adv-x="221" 
d="M111 198q-32 0 -52 20.5t-20 51.5t20 51t52 20q31 0 51 -20t20 -51t-20 -51.5t-51 -20.5z" />
    <glyph glyph-name="cedilla" unicode="&#xb8;" horiz-adv-x="481" 
d="M216 -237q-53 0 -92 18l10 36q27 -10 59 -10q52 0 52 41q0 51 -72 37v136h48v-89q47 4 80 -17t33 -62t-33 -65.5t-85 -24.5z" />
    <glyph glyph-name="ordmasculine" unicode="&#xba;" horiz-adv-x="475" 
d="M238 280q98 0 98 169q0 170 -98 170q-100 0 -100 -170q0 -169 100 -169zM238 230q-85 0 -148 60t-63 159t63 159t148 60t147.5 -60.5t62.5 -158.5q0 -99 -62.5 -159t-147.5 -60z" />
    <glyph glyph-name="guillemotright" unicode="&#xbb;" horiz-adv-x="431" 
d="M37 389l23 23l169 -151v-44l-169 -152l-23 24l98 150zM209 389l23 23l169 -151v-44l-169 -152l-23 24l98 150z" />
    <glyph glyph-name="onequarter" unicode="&#xbc;" horiz-adv-x="712" 
d="M56 -17l547 694l34 -27l-548 -694zM552 0v83h-151v21l134 248h58l-135 -232h94v119l86 11v-130h52v-37h-52v-83h-86zM19 555v46l108 64h48v-312l56 -4v-42h-207v42l59 4v228z" />
    <glyph glyph-name="onehalf" unicode="&#xbd;" horiz-adv-x="716" 
d="M48 -17l547 694l34 -27l-548 -694zM426 0l-3 51q99 79 125 109q44 49 44 96q0 63 -53 63q-42 0 -42 -26q0 -5 10 -17t10 -24q0 -15 -11.5 -26t-29.5 -11q-50 0 -50 52q0 40 37 65.5t90 25.5q67 0 100 -30.5t33 -73.5q0 -28 -15 -53.5t-46 -50t-59 -42.5t-72 -42h105
q27 0 37 5.5t15 22.5l5 16h34l-12 -110h-252zM19 555v46l108 64h48v-312l56 -4v-42h-207v42l59 4v228z" />
    <glyph glyph-name="threequarters" unicode="&#xbe;" horiz-adv-x="728" 
d="M71 -20l547 694l34 -27l-548 -694zM568 -3v83h-151v21l134 248h58l-135 -232h94v119l86 11v-130h52v-37h-52v-83h-86zM139 297q-61 0 -93 24t-32 60q0 23 14.5 37t33.5 14t29.5 -10.5t10.5 -25.5q0 -13 -10.5 -22.5t-10.5 -12.5q0 -10 11.5 -17.5t32.5 -7.5q70 0 70 73
q0 62 -74 62h-29v35h28q65 0 65 70q0 50 -51 50q-15 0 -25.5 -5.5t-10.5 -11.5q0 -2 7.5 -11t7.5 -20q0 -14 -10.5 -23.5t-27.5 -9.5q-20 0 -31 12.5t-11 31.5q0 37 35 56.5t84 19.5q58 0 91 -23.5t33 -62.5q0 -30 -22.5 -53t-59.5 -31v-3q48 -6 73 -28.5t25 -58.5
q0 -49 -41 -78.5t-112 -29.5z" />
    <glyph glyph-name="questiondown" unicode="&#xbf;" horiz-adv-x="414" 
d="M237 496q31 0 51.5 -20.5t20.5 -51.5t-20.5 -51t-51.5 -20t-51 20t-20 51t20 51.5t51 20.5zM221 272h49q9 -27 7 -55q-3 -38 -25.5 -75.5t-48 -63t-46.5 -61t-21 -71.5q0 -84 89 -84q70 0 70 54q0 27 -29 33q-9 21 -9 33q0 21 14.5 35t39.5 14q33 0 54 -23t21 -61
q0 -62 -50.5 -101t-125.5 -39q-83 0 -135.5 42.5t-52.5 117.5q0 31 8.5 57t26.5 47t33 35t39.5 33.5t35.5 29.5q21 18 32.5 30.5t19.5 32t4 40.5z" />
    <glyph glyph-name="Agrave" unicode="&#xc0;" horiz-adv-x="661" 
d="M377 0v48l75 5l-57 163h-206l-50 -145l94 -23v-48h-215v48l58 17l213 603h83l217 -617l54 -3v-48h-266zM291 510l-86 -247h174l-87 247h-1zM390 713h-33l-87 56q-37 22 -37 53q0 25 17 40t39 15q21 0 33.5 -11.5t20.5 -40.5z" />
    <glyph glyph-name="Aacute" unicode="&#xc1;" horiz-adv-x="661" 
d="M377 0v48l75 5l-57 163h-206l-50 -145l94 -23v-48h-215v48l58 17l213 603h83l217 -617l54 -3v-48h-266zM291 510l-86 -247h174l-87 247h-1zM331 713h-32l46 112q15 52 55 52q20 0 38 -15.5t18 -39.5q0 -31 -37 -53z" />
    <glyph glyph-name="Acircumflex" unicode="&#xc2;" horiz-adv-x="661" 
d="M377 0v48l75 5l-57 163h-206l-50 -145l94 -23v-48h-215v48l58 17l213 603h83l217 -617l54 -3v-48h-266zM291 510l-86 -247h174l-87 247h-1zM236 713h-34l95 139h85l95 -139h-34l-104 65z" />
    <glyph glyph-name="Atilde" unicode="&#xc3;" horiz-adv-x="661" 
d="M377 0v48l75 5l-57 163h-206l-50 -145l94 -23v-48h-215v48l58 17l213 603h83l217 -617l54 -3v-48h-266zM291 510l-86 -247h174l-87 247h-1zM405 735q-20 0 -68 13.5t-63 13.5q-32 0 -46 -42h-41q11 55 37.5 91.5t67.5 36.5q20 0 68 -13.5t62 -13.5q30 0 44 42h42
q-11 -55 -37.5 -91.5t-65.5 -36.5z" />
    <glyph glyph-name="Adieresis" unicode="&#xc4;" horiz-adv-x="661" 
d="M377 0v48l75 5l-57 163h-206l-50 -145l94 -23v-48h-215v48l58 17l213 603h83l217 -617l54 -3v-48h-266zM291 510l-86 -247h174l-87 247h-1zM239 717q-26 0 -44 17t-18 43t18 43t44 17t43.5 -17t17.5 -43t-17.5 -43t-43.5 -17zM439 717q-25 0 -43 17t-18 43t18 43t43 17
q26 0 44 -17t18 -43t-18 -43t-44 -17z" />
    <glyph glyph-name="Aring" unicode="&#xc5;" horiz-adv-x="661" 
d="M377 0v48l75 5l-57 163h-206l-50 -145l94 -23v-48h-215v48l58 17l213 603h83l217 -617l54 -3v-48h-266zM291 510l-86 -247h174l-87 247h-1zM340 748q23 0 37.5 16t14.5 40t-14.5 40t-37.5 16q-24 0 -38.5 -16t-14.5 -40t14.5 -40t38.5 -16zM340 712q-39 0 -66 26.5
t-27 65.5t27 65.5t66 26.5t65.5 -26.5t26.5 -65.5q0 -40 -26.5 -66t-65.5 -26z" />
    <glyph glyph-name="AE" unicode="&#xc6;" horiz-adv-x="889" 
d="M16 0v48l66 20l265 534l-85 7v50h553v-189h-43l-17 87q-6 31 -18.5 39.5t-49.5 8.5h-157v-255h58q41 0 44 34l9 75h41v-264h-41l-9 73q-2 21 -12 27.5t-32 6.5h-58v-248h163q56 0 70.5 8.5t20.5 46.5l20 101h44v-210h-510v48l65 8v243h-145l-114 -231l91 -20v-48h-219z
M401 590l-120 -243h122v243h-2z" />
    <glyph glyph-name="Ccedilla" unicode="&#xc7;" horiz-adv-x="634" 
d="M316 -237q-53 0 -92 18l10 36q28 -10 59 -10q52 0 52 41q0 51 -72 37v104q-27 4 -58 16q-86 36 -134 118.5t-48 198.5q0 153 93.5 250.5t222.5 97.5q114 0 182 -85l16 65h40v-206h-46q-22 86 -67 128.5t-119 42.5q-82 0 -133.5 -74.5t-51.5 -214.5q0 -280 196 -280
q126 0 190 131l42 -19q-32 -84 -98.5 -130t-156.5 -46q-15 0 -22 1v-51q47 4 80 -17t33 -62t-33 -65.5t-85 -24.5z" />
    <glyph glyph-name="Egrave" unicode="&#xc8;" horiz-adv-x="602" 
d="M359 713h-33l-87 56q-37 22 -37 53q0 25 17 40t39 15q21 0 33.5 -11.5t20.5 -40.5zM487 470l-18 87q-6 31 -19 39.5t-50 8.5h-178v-247h80q40 0 45 33l8 76h40v-265h-40l-9 73q-2 22 -11.5 28.5t-33.5 6.5h-79v-256h186q56 0 70.5 8t20.5 47l19 101h44v-210h-533v48l65 8
v548l-65 5v50h500v-189h-42z" />
    <glyph glyph-name="Eacute" unicode="&#xc9;" horiz-adv-x="602" 
d="M303 713h-32l46 112q15 52 55 52q20 0 38 -15.5t18 -39.5q0 -31 -37 -53zM487 470l-18 87q-6 31 -19 39.5t-50 8.5h-178v-247h80q40 0 45 33l8 76h40v-265h-40l-9 73q-2 22 -11.5 28.5t-33.5 6.5h-79v-256h186q56 0 70.5 8t20.5 47l19 101h44v-210h-533v48l65 8v548
l-65 5v50h500v-189h-42z" />
    <glyph glyph-name="Ecircumflex" unicode="&#xca;" horiz-adv-x="602" 
d="M205 713h-34l95 139h85l95 -139h-34l-104 65zM487 470l-18 87q-6 31 -19 39.5t-50 8.5h-178v-247h80q40 0 45 33l8 76h40v-265h-40l-9 73q-2 22 -11.5 28.5t-33.5 6.5h-79v-256h186q56 0 70.5 8t20.5 47l19 101h44v-210h-533v48l65 8v548l-65 5v50h500v-189h-42z" />
    <glyph glyph-name="Edieresis" unicode="&#xcb;" horiz-adv-x="602" 
d="M487 470l-18 87q-6 31 -19 39.5t-50 8.5h-178v-247h80q40 0 45 33l8 76h40v-265h-40l-9 73q-2 22 -11.5 28.5t-33.5 6.5h-79v-256h186q56 0 70.5 8t20.5 47l19 101h44v-210h-533v48l65 8v548l-65 5v50h500v-189h-42zM209 717q-26 0 -44 17t-18 43t18 43t44 17t43.5 -17
t17.5 -43t-17.5 -43t-43.5 -17zM409 717q-25 0 -43 17t-18 43t18 43t43 17q26 0 44 -17t18 -43t-18 -43t-44 -17z" />
    <glyph glyph-name="Igrave" unicode="&#xcc;" horiz-adv-x="315" 
d="M29 0v48l65 7v547l-65 7v50h257v-50l-65 -6v-547l65 -8v-48h-257zM210 713h-33l-87 56q-37 22 -37 53q0 25 17 40t39 15q21 0 33.5 -11.5t20.5 -40.5z" />
    <glyph glyph-name="Iacute" unicode="&#xcd;" horiz-adv-x="315" 
d="M29 0v48l65 7v547l-65 7v50h257v-50l-65 -6v-547l65 -8v-48h-257zM137 713h-32l46 112q15 52 55 52q20 0 38 -15.5t18 -39.5q0 -31 -37 -53z" />
    <glyph glyph-name="Icircumflex" unicode="&#xce;" horiz-adv-x="315" 
d="M29 0v48l65 7v547l-65 7v50h257v-50l-65 -6v-547l65 -8v-48h-257zM49 713h-34l95 139h85l95 -139h-34l-104 65z" />
    <glyph glyph-name="Idieresis" unicode="&#xcf;" horiz-adv-x="315" 
d="M29 0v48l65 7v547l-65 7v50h257v-50l-65 -6v-547l65 -8v-48h-257zM53 717q-26 0 -44 17t-18 43t18 43t44 17t43.5 -17t17.5 -43t-17.5 -43t-43.5 -17zM253 717q-25 0 -43 17t-18 43t18 43t43 17q26 0 44 -17t18 -43t-18 -43t-44 -17z" />
    <glyph glyph-name="Eth" unicode="&#xd0;" horiz-adv-x="660" 
d="M20 313v45h74v246l-65 5v50h274q51 0 97 -10.5t88.5 -35t73 -62t48.5 -94t18 -127.5q0 -85 -26.5 -150.5t-72 -103.5t-101.5 -57t-119 -19h-280v48l65 6v259h-74zM297 605h-75v-247h145v-45h-145v-258h76q93 0 143 62.5t50 212.5q0 154 -49.5 214.5t-144.5 60.5z" />
    <glyph glyph-name="Ntilde" unicode="&#xd1;" horiz-adv-x="656" 
d="M425 735q-20 0 -68 13.5t-63 13.5q-32 0 -46 -42h-41q11 55 37.5 91.5t67.5 36.5q20 0 68 -13.5t62 -13.5q30 0 44 42h42q-11 -55 -37.5 -91.5t-65.5 -36.5zM29 0v48l64 10v545l-64 6v50h208l274 -426v362l-76 14v50h192v-50l-55 -13v-596h-60l-358 559v-496l97 -15v-48
h-222z" />
    <glyph glyph-name="Ograve" unicode="&#xd2;" horiz-adv-x="689" 
d="M407 713h-33l-87 56q-37 22 -37 53q0 25 17 40t39 15q21 0 33.5 -11.5t20.5 -40.5zM345 37q175 0 175 288q0 290 -175 290q-86 0 -131 -73.5t-45 -216.5q0 -288 176 -288zM345 -18q-128 0 -220.5 95t-92.5 248q0 152 93 248.5t220 96.5q126 0 219 -96.5t93 -248.5
q0 -153 -92.5 -248t-219.5 -95z" />
    <glyph glyph-name="Oacute" unicode="&#xd3;" horiz-adv-x="689" 
d="M350 713h-32l46 112q15 52 55 52q20 0 38 -15.5t18 -39.5q0 -31 -37 -53zM345 37q175 0 175 288q0 290 -175 290q-86 0 -131 -73.5t-45 -216.5q0 -288 176 -288zM345 -18q-128 0 -220.5 95t-92.5 248q0 152 93 248.5t220 96.5q126 0 219 -96.5t93 -248.5
q0 -153 -92.5 -248t-219.5 -95z" />
    <glyph glyph-name="Ocircumflex" unicode="&#xd4;" horiz-adv-x="689" 
d="M253 713h-34l95 139h85l95 -139h-34l-104 65zM345 37q175 0 175 288q0 290 -175 290q-86 0 -131 -73.5t-45 -216.5q0 -288 176 -288zM345 -18q-128 0 -220.5 95t-92.5 248q0 152 93 248.5t220 96.5q126 0 219 -96.5t93 -248.5q0 -153 -92.5 -248t-219.5 -95z" />
    <glyph glyph-name="Otilde" unicode="&#xd5;" horiz-adv-x="689" 
d="M423 735q-20 0 -68 13.5t-63 13.5q-32 0 -46 -42h-41q11 55 37.5 91.5t67.5 36.5q20 0 68 -13.5t62 -13.5q30 0 44 42h42q-11 -55 -37.5 -91.5t-65.5 -36.5zM345 37q175 0 175 288q0 290 -175 290q-86 0 -131 -73.5t-45 -216.5q0 -288 176 -288zM345 -18
q-128 0 -220.5 95t-92.5 248q0 152 93 248.5t220 96.5q126 0 219 -96.5t93 -248.5q0 -153 -92.5 -248t-219.5 -95z" />
    <glyph glyph-name="Odieresis" unicode="&#xd6;" horiz-adv-x="689" 
d="M256 717q-26 0 -44 17t-18 43t18 43t44 17t43.5 -17t17.5 -43t-17.5 -43t-43.5 -17zM456 717q-25 0 -43 17t-18 43t18 43t43 17q26 0 44 -17t18 -43t-18 -43t-44 -17zM345 37q175 0 175 288q0 290 -175 290q-86 0 -131 -73.5t-45 -216.5q0 -288 176 -288zM345 -18
q-128 0 -220.5 95t-92.5 248q0 152 93 248.5t220 96.5q126 0 219 -96.5t93 -248.5q0 -153 -92.5 -248t-219.5 -95z" />
    <glyph glyph-name="multiply" unicode="&#xd7;" horiz-adv-x="446" 
d="M86 104l-39 39l136 138l-136 138l39 39l136 -138l137 138l40 -39l-137 -138l137 -138l-40 -39l-137 137z" />
    <glyph glyph-name="Oslash" unicode="&#xd8;" horiz-adv-x="689" 
d="M82 -26l-37 28l69 86q-82 95 -82 236q0 153 93 249.5t220 96.5q103 0 184 -66l64 79l37 -30l-65 -81q92 -99 92 -248q0 -153 -92.5 -248t-219.5 -95q-111 0 -198 73zM345 36q176 0 176 288q0 101 -20 169l-300 -371q44 -86 144 -86zM168 324q0 -90 15 -150l296 368
q-42 73 -134 73q-87 0 -132 -74t-45 -217z" />
    <glyph glyph-name="Ugrave" unicode="&#xd9;" horiz-adv-x="644" 
d="M418 713h-33l-87 56q-37 22 -37 53q0 25 17 40t39 15q21 0 33.5 -11.5t20.5 -40.5zM334 -13q-124 0 -186.5 59.5t-62.5 159.5v399l-57 4v50h265v-50l-82 -5v-384q0 -85 33 -127.5t111 -42.5q76 0 109 42t33 129v374l-75 14v50h194v-50l-58 -14v-384q0 -101 -53.5 -162.5
t-170.5 -61.5z" />
    <glyph glyph-name="Uacute" unicode="&#xda;" horiz-adv-x="644" 
d="M359 713h-32l46 112q15 52 55 52q20 0 38 -15.5t18 -39.5q0 -31 -37 -53zM334 -13q-124 0 -186.5 59.5t-62.5 159.5v399l-57 4v50h265v-50l-82 -5v-384q0 -85 33 -127.5t111 -42.5q76 0 109 42t33 129v374l-75 14v50h194v-50l-58 -14v-384q0 -101 -53.5 -162.5
t-170.5 -61.5z" />
    <glyph glyph-name="Ucircumflex" unicode="&#xdb;" horiz-adv-x="644" 
d="M263 713h-34l95 139h85l95 -139h-34l-104 65zM334 -13q-124 0 -186.5 59.5t-62.5 159.5v399l-57 4v50h265v-50l-82 -5v-384q0 -85 33 -127.5t111 -42.5q76 0 109 42t33 129v374l-75 14v50h194v-50l-58 -14v-384q0 -101 -53.5 -162.5t-170.5 -61.5z" />
    <glyph glyph-name="Udieresis" unicode="&#xdc;" horiz-adv-x="644" 
d="M334 -13q-124 0 -186.5 59.5t-62.5 159.5v399l-57 4v50h265v-50l-82 -5v-384q0 -85 33 -127.5t111 -42.5q76 0 109 42t33 129v374l-75 14v50h194v-50l-58 -14v-384q0 -101 -53.5 -162.5t-170.5 -61.5zM266 717q-26 0 -44 17t-18 43t18 43t44 17t43.5 -17t17.5 -43
t-17.5 -43t-43.5 -17zM466 717q-25 0 -43 17t-18 43t18 43t43 17q26 0 44 -17t18 -43t-18 -43t-44 -17z" />
    <glyph glyph-name="Yacute" unicode="&#xdd;" horiz-adv-x="594" 
d="M161 0v48l78 8v254l-177 295l-43 4v50h252v-50l-64 -5l135 -238l119 222l-67 21v50h181v-50l-55 -22l-153 -283v-249l76 -7v-48h-282zM334 713h-32l46 112q15 52 55 52q20 0 38 -15.5t18 -39.5q0 -31 -37 -53z" />
    <glyph glyph-name="Thorn" unicode="&#xde;" horiz-adv-x="552" 
d="M29 0v48l65 7v547l-65 7v50h257v-50l-65 -6v-92h75q117 0 181 -45t64 -126q0 -86 -65 -133t-174 -47q-41 0 -81 6v-110l65 -8v-48h-257zM281 460h-60v-248q24 -3 57 -3q71 0 100.5 28t29.5 98q0 67 -30 96t-97 29z" />
    <glyph glyph-name="germandbls" unicode="&#xdf;" horiz-adv-x="561" 
d="M21 417v42q44 8 62 18v25q0 102 60 160t158 58q87 0 136 -43t49 -107q0 -48 -31 -82.5t-78 -47.5v-3q70 -21 113 -81.5t43 -154.5q0 -102 -51 -160t-130 -58q-55 0 -85.5 21t-30.5 52q0 50 44 50q21 0 32 -11q-2 -32 6.5 -46t30.5 -14q30 0 46.5 37t16.5 136
q0 108 -34 152t-99 44h-24v54h27q48 0 72.5 25t24.5 84q0 102 -80 102q-102 0 -102 -150v-519h-178v48l64 2v367h-62z" />
    <glyph glyph-name="agrave" unicode="&#xe0;" horiz-adv-x="499" 
d="M160 -12q-58 0 -97 32t-39 92q0 69 52 107t134 38q44 0 81 -13v117q0 75 -77 75q-30 0 -54 -11q-16 -6 -16 -15q0 -2 14.5 -15t14.5 -36q0 -21 -16 -35t-40 -14q-26 0 -42.5 17t-16.5 44q0 54 55 81.5t126 27.5q80 0 122 -27t42 -94v-265q0 -35 32 -35q24 0 44 15l18 -25
q-43 -59 -110 -59q-71 0 -91 67q-61 -69 -136 -69zM214 53q38 0 77 31v121q-36 9 -67 9q-37 0 -61.5 -20.5t-24.5 -62.5q0 -37 20.5 -57.5t55.5 -20.5zM246 539l-95 90q-25 24 -25 47q0 22 16 36t34 14q39 0 52 -43l49 -144h-31z" />
    <glyph glyph-name="aacute" unicode="&#xe1;" horiz-adv-x="499" 
d="M160 -12q-58 0 -97 32t-39 92q0 69 52 107t134 38q44 0 81 -13v117q0 75 -77 75q-30 0 -54 -11q-16 -6 -16 -15q0 -2 14.5 -15t14.5 -36q0 -21 -16 -35t-40 -14q-26 0 -42.5 17t-16.5 44q0 54 55 81.5t126 27.5q80 0 122 -27t42 -94v-265q0 -35 32 -35q24 0 44 15l18 -25
q-43 -59 -110 -59q-71 0 -91 67q-61 -69 -136 -69zM214 53q38 0 77 31v121q-36 9 -67 9q-37 0 -61.5 -20.5t-24.5 -62.5q0 -37 20.5 -57.5t55.5 -20.5zM203 539l49 144q13 43 51 43q19 0 35 -14t16 -36q0 -26 -25 -47l-95 -90h-31z" />
    <glyph glyph-name="acircumflex" unicode="&#xe2;" horiz-adv-x="499" 
d="M160 -12q-58 0 -97 32t-39 92q0 69 52 107t134 38q44 0 81 -13v117q0 75 -77 75q-30 0 -54 -11q-16 -6 -16 -15q0 -2 14.5 -15t14.5 -36q0 -21 -16 -35t-40 -14q-26 0 -42.5 17t-16.5 44q0 54 55 81.5t126 27.5q80 0 122 -27t42 -94v-265q0 -35 32 -35q24 0 44 15l18 -25
q-43 -59 -110 -59q-71 0 -91 67q-61 -69 -136 -69zM214 53q38 0 77 31v121q-36 9 -67 9q-37 0 -61.5 -20.5t-24.5 -62.5q0 -37 20.5 -57.5t55.5 -20.5zM137 540h-34l91 160h78l91 -160h-33l-98 84z" />
    <glyph glyph-name="atilde" unicode="&#xe3;" horiz-adv-x="499" 
d="M160 -12q-58 0 -97 32t-39 92q0 69 52 107t134 38q44 0 81 -13v117q0 75 -77 75q-30 0 -54 -11q-16 -6 -16 -15q0 -2 14.5 -15t14.5 -36q0 -21 -16 -35t-40 -14q-26 0 -42.5 17t-16.5 44q0 54 55 81.5t126 27.5q80 0 122 -27t42 -94v-265q0 -35 32 -35q24 0 44 15l18 -25
q-43 -59 -110 -59q-71 0 -91 67q-61 -69 -136 -69zM214 53q38 0 77 31v121q-36 9 -67 9q-37 0 -61.5 -20.5t-24.5 -62.5q0 -37 20.5 -57.5t55.5 -20.5zM295 568q-21 0 -63 14t-56 14q-32 0 -46 -42h-41q30 125 103 125q21 0 62.5 -14.5t55.5 -14.5q31 4 44 43h42
q-29 -125 -101 -125z" />
    <glyph glyph-name="adieresis" unicode="&#xe4;" horiz-adv-x="499" 
d="M160 -12q-58 0 -97 32t-39 92q0 69 52 107t134 38q44 0 81 -13v117q0 75 -77 75q-30 0 -54 -11q-16 -6 -16 -15q0 -2 14.5 -15t14.5 -36q0 -21 -16 -35t-40 -14q-26 0 -42.5 17t-16.5 44q0 54 55 81.5t126 27.5q80 0 122 -27t42 -94v-265q0 -35 32 -35q24 0 44 15l18 -25
q-43 -59 -110 -59q-71 0 -91 67q-61 -69 -136 -69zM214 53q38 0 77 31v121q-36 9 -67 9q-37 0 -61.5 -20.5t-24.5 -62.5q0 -37 20.5 -57.5t55.5 -20.5zM146 564q-26 0 -43 16.5t-17 42.5t17 42.5t43 16.5q25 0 43 -16.5t18 -42.5t-18 -42.5t-43 -16.5zM330 564
q-25 0 -42.5 16.5t-17.5 42.5t17.5 42.5t42.5 16.5q26 0 43.5 -16.5t17.5 -42.5t-17.5 -42.5t-43.5 -16.5z" />
    <glyph glyph-name="aring" unicode="&#xe5;" horiz-adv-x="499" 
d="M160 -12q-58 0 -97 32t-39 92q0 69 52 107t134 38q44 0 81 -13v117q0 75 -77 75q-30 0 -54 -11q-16 -6 -16 -15q0 -2 14.5 -15t14.5 -36q0 -21 -16 -35t-40 -14q-26 0 -42.5 17t-16.5 44q0 54 55 81.5t126 27.5q80 0 122 -27t42 -94v-265q0 -35 32 -35q24 0 44 15l18 -25
q-43 -59 -110 -59q-71 0 -91 67q-61 -69 -136 -69zM214 53q38 0 77 31v121q-36 9 -67 9q-37 0 -61.5 -20.5t-24.5 -62.5q0 -37 20.5 -57.5t55.5 -20.5zM239 575q23 1 37.5 17t14.5 39q0 24 -14.5 40t-37.5 16q-24 0 -38.5 -16t-14.5 -40t14.5 -39.5t38.5 -16.5zM239 539
q-39 0 -66 26.5t-27 65.5t27 65.5t66 26.5t65.5 -26.5t26.5 -65.5t-26.5 -65.5t-65.5 -26.5z" />
    <glyph glyph-name="ae" unicode="&#xe6;" horiz-adv-x="751" 
d="M177 -11q-65 0 -108 36t-43 99q0 70 51.5 109t146.5 39h72v89q0 75 -80 75q-30 0 -54 -11q-17 -8 -17 -15q0 -2 15 -15t15 -36q0 -21 -16 -35t-40 -14q-25 0 -42 17t-17 44q0 54 55 85.5t118 31.5q116 0 145 -74q57 73 151 73q40 0 73.5 -12t62.5 -39t44 -78t12 -121
l-5 -8h-300q2 -86 36 -132.5t96 -46.5q51 0 84.5 23.5t53.5 75.5l37 -17q-49 -150 -200 -150q-125 0 -188 97q-63 -90 -158 -90zM523 438q-94 0 -106 -164h194q0 93 -20.5 128.5t-67.5 35.5zM217 55q58 0 102 55q-21 50 -23 117h-61q-96 0 -96 -85q0 -39 21.5 -63t56.5 -24z
" />
    <glyph glyph-name="ccedilla" unicode="&#xe7;" horiz-adv-x="466" 
d="M221 -237q-53 0 -92 18l10 36q28 -10 59 -10q52 0 52 41q0 51 -72 37v107q-11 3 -20 7q-62 26 -96 84t-34 137q0 120 73 193.5t175 73.5q69 0 112.5 -29t43.5 -79q0 -25 -17 -39t-44 -14q-44 0 -49 39q-1 5 -2 20t-2.5 21t-6 15t-14 12.5t-23.5 3.5q-60 0 -92.5 -52.5
t-32.5 -146.5q0 -188 126 -188q50 0 83 29.5t48 74.5l37 -12q-17 -71 -65.5 -115.5t-125.5 -44.5q-18 0 -26 1v-51q47 4 80 -17t33 -62t-33 -65.5t-85 -24.5z" />
    <glyph glyph-name="egrave" unicode="&#xe8;" horiz-adv-x="486" 
d="M262 -18q-109 0 -171.5 70.5t-62.5 178.5q0 111 70 183.5t166 72.5q84 0 138.5 -54.5t54.5 -169.5l-5 -7h-304v-16q0 -89 37 -139.5t101 -50.5q51 0 84.5 23.5t53.5 75.5l38 -17q-49 -150 -200 -150zM258 438q-88 0 -106 -137h192q-1 72 -21.5 104.5t-64.5 32.5zM265 539
l-95 90q-25 24 -25 47q0 22 16 36t34 14q39 0 52 -43l49 -144h-31z" />
    <glyph glyph-name="eacute" unicode="&#xe9;" horiz-adv-x="486" 
d="M228 539l49 144q13 43 51 43q19 0 35 -14t16 -36q0 -26 -25 -47l-95 -90h-31zM262 -18q-109 0 -171.5 70.5t-62.5 178.5q0 111 70 183.5t166 72.5q84 0 138.5 -54.5t54.5 -169.5l-5 -7h-304v-16q0 -89 37 -139.5t101 -50.5q51 0 84.5 23.5t53.5 75.5l38 -17
q-49 -150 -200 -150zM258 438q-88 0 -106 -137h192q-1 72 -21.5 104.5t-64.5 32.5z" />
    <glyph glyph-name="ecircumflex" unicode="&#xea;" horiz-adv-x="486" 
d="M161 540h-34l91 160h78l91 -160h-33l-98 84zM262 -18q-109 0 -171.5 70.5t-62.5 178.5q0 111 70 183.5t166 72.5q84 0 138.5 -54.5t54.5 -169.5l-5 -7h-304v-16q0 -89 37 -139.5t101 -50.5q51 0 84.5 23.5t53.5 75.5l38 -17q-49 -150 -200 -150zM258 438q-88 0 -106 -137
h192q-1 72 -21.5 104.5t-64.5 32.5z" />
    <glyph glyph-name="edieresis" unicode="&#xeb;" horiz-adv-x="486" 
d="M169 564q-26 0 -43 16.5t-17 42.5t17 42.5t43 16.5q25 0 43 -16.5t18 -42.5t-18 -42.5t-43 -16.5zM353 564q-25 0 -42.5 16.5t-17.5 42.5t17.5 42.5t42.5 16.5q26 0 43.5 -16.5t17.5 -42.5t-17.5 -42.5t-43.5 -16.5zM262 -18q-109 0 -171.5 70.5t-62.5 178.5
q0 111 70 183.5t166 72.5q84 0 138.5 -54.5t54.5 -169.5l-5 -7h-304v-16q0 -89 37 -139.5t101 -50.5q51 0 84.5 23.5t53.5 75.5l38 -17q-49 -150 -200 -150zM258 438q-88 0 -106 -137h192q-1 72 -21.5 104.5t-64.5 32.5z" />
    <glyph glyph-name="igrave" unicode="&#xec;" horiz-adv-x="285" 
d="M19 0v47l71 4v348l-75 -9v51l178 40l10 -5v-425l64 -4v-47h-248zM138 539l-95 90q-25 24 -25 47q0 22 16 36t34 14q39 0 52 -43l49 -144h-31z" />
    <glyph glyph-name="iacute" unicode="&#xed;" horiz-adv-x="285" 
d="M99 539l49 144q13 43 51 43q19 0 35 -14t16 -36q0 -26 -25 -47l-95 -90h-31zM19 0v47l71 4v348l-75 -9v51l178 40l10 -5v-425l64 -4v-47h-248z" />
    <glyph glyph-name="icircumflex" unicode="&#xee;" horiz-adv-x="285" 
d="M29 540h-34l91 160h78l91 -160h-33l-98 84zM19 0v47l71 4v348l-75 -9v51l178 40l10 -5v-425l64 -4v-47h-248z" />
    <glyph glyph-name="idieresis" unicode="&#xef;" horiz-adv-x="285" 
d="M39 564q-26 0 -43 16.5t-17 42.5t17 42.5t43 16.5q25 0 43 -16.5t18 -42.5t-18 -42.5t-43 -16.5zM223 564q-25 0 -42.5 16.5t-17.5 42.5t17.5 42.5t42.5 16.5q26 0 43.5 -16.5t17.5 -42.5t-17.5 -42.5t-43.5 -16.5zM19 0v47l71 4v348l-75 -9v51l178 40l10 -5v-425l64 -4
v-47h-248z" />
    <glyph glyph-name="eth" unicode="&#xf0;" horiz-adv-x="534" 
d="M116 511l-21 35l114 68q-33 27 -94 69l26 35q81 -39 128 -68l107 64l22 -35l-91 -54q94 -68 145 -154.5t51 -208.5q0 -125 -67.5 -202.5t-170.5 -77.5q-95 0 -166.5 69.5t-71.5 181.5q0 109 66.5 180t149.5 71q56 0 100 -29q-31 69 -101 131zM383 250q0 81 -16 138
q-37 39 -102 39q-59 0 -87.5 -52t-28.5 -140q0 -91 29 -147t90 -56q115 0 115 218z" />
    <glyph glyph-name="ntilde" unicode="&#xf1;" horiz-adv-x="563" 
d="M19 0v47l71 5v347l-70 -11v51l172 42l10 -5v-82q25 30 64 59q44 36 91 36q128 0 128 -137v-303l60 -2v-47h-226v47l54 2v291q0 63 -69 63q-48 0 -102 -41v-311l60 -4v-47h-243zM347 568q-21 0 -63 14t-56 14q-32 0 -46 -42h-41q30 125 103 125q21 0 62.5 -14.5
t55.5 -14.5q31 4 44 43h42q-29 -125 -101 -125z" />
    <glyph glyph-name="ograve" unicode="&#xf2;" horiz-adv-x="534" 
d="M268 32q118 0 118 202q0 94 -29 148t-89 54q-61 0 -90.5 -54t-29.5 -148q0 -95 29.5 -148.5t90.5 -53.5zM268 -18q-97 0 -168.5 69.5t-71.5 182.5t72 183t168 70q95 0 167 -70.5t72 -182.5q0 -113 -72 -182.5t-167 -69.5zM277 539l-95 90q-25 24 -25 47q0 22 16 36t34 14
q39 0 52 -43l49 -144h-31z" />
    <glyph glyph-name="oacute" unicode="&#xf3;" horiz-adv-x="534" 
d="M235 539l49 144q13 43 51 43q19 0 35 -14t16 -36q0 -26 -25 -47l-95 -90h-31zM268 32q118 0 118 202q0 94 -29 148t-89 54q-61 0 -90.5 -54t-29.5 -148q0 -95 29.5 -148.5t90.5 -53.5zM268 -18q-97 0 -168.5 69.5t-71.5 182.5t72 183t168 70q95 0 167 -70.5t72 -182.5
q0 -113 -72 -182.5t-167 -69.5z" />
    <glyph glyph-name="ocircumflex" unicode="&#xf4;" horiz-adv-x="534" 
d="M169 540h-34l91 160h78l91 -160h-33l-98 84zM268 32q118 0 118 202q0 94 -29 148t-89 54q-61 0 -90.5 -54t-29.5 -148q0 -95 29.5 -148.5t90.5 -53.5zM268 -18q-97 0 -168.5 69.5t-71.5 182.5t72 183t168 70q95 0 167 -70.5t72 -182.5q0 -113 -72 -182.5t-167 -69.5z" />
    <glyph glyph-name="otilde" unicode="&#xf5;" horiz-adv-x="534" 
d="M268 32q118 0 118 202q0 94 -29 148t-89 54q-61 0 -90.5 -54t-29.5 -148q0 -95 29.5 -148.5t90.5 -53.5zM268 -18q-97 0 -168.5 69.5t-71.5 182.5t72 183t168 70q95 0 167 -70.5t72 -182.5q0 -113 -72 -182.5t-167 -69.5zM324 568q-21 0 -63 14t-56 14q-32 0 -46 -42h-41
q30 125 103 125q21 0 62.5 -14.5t55.5 -14.5q31 4 44 43h42q-29 -125 -101 -125z" />
    <glyph glyph-name="odieresis" unicode="&#xf6;" horiz-adv-x="534" 
d="M175 564q-26 0 -43 16.5t-17 42.5t17 42.5t43 16.5q25 0 43 -16.5t18 -42.5t-18 -42.5t-43 -16.5zM359 564q-25 0 -42.5 16.5t-17.5 42.5t17.5 42.5t42.5 16.5q26 0 43.5 -16.5t17.5 -42.5t-17.5 -42.5t-43.5 -16.5zM268 32q118 0 118 202q0 94 -29 148t-89 54
q-61 0 -90.5 -54t-29.5 -148q0 -95 29.5 -148.5t90.5 -53.5zM268 -18q-97 0 -168.5 69.5t-71.5 182.5t72 183t168 70q95 0 167 -70.5t72 -182.5q0 -113 -72 -182.5t-167 -69.5z" />
    <glyph glyph-name="divide" unicode="&#xf7;" horiz-adv-x="461" 
d="M38 262v56h385v-56h-385zM231 66q-30 0 -49 19t-19 48t19 48t49 19q29 0 48.5 -19t19.5 -48t-19.5 -48t-48.5 -19zM231 380q-30 0 -49 18.5t-19 48.5q0 29 19 48t49 19q29 0 48.5 -19t19.5 -48q0 -30 -19 -48.5t-49 -18.5z" />
    <glyph glyph-name="oslash" unicode="&#xf8;" horiz-adv-x="534" 
d="M66 -38l-35 29l58 70q-62 68 -62 173q0 113 72 183t169 70q77 0 138 -47l53 63l35 -28l-54 -65q67 -72 67 -176q0 -113 -72 -182.5t-167 -69.5q-82 0 -145 48zM268 31q119 0 119 203q0 60 -9 102l-207 -249q29 -56 97 -56zM146 234q0 -65 8 -96l207 248q-28 52 -93 52
q-62 0 -92 -54t-30 -150z" />
    <glyph glyph-name="ugrave" unicode="&#xf9;" horiz-adv-x="554" 
d="M208 -16q-132 0 -132 131v305l-59 3v47h171v-341q0 -68 65 -68q51 0 105 39v318l-56 5v47h167v-409l70 2v-45l-168 -26l-10 5l3 78q-29 -35 -59 -55q-49 -36 -97 -36zM277 539l-95 90q-25 24 -25 47q0 22 16 36t34 14q39 0 52 -43l49 -144h-31z" />
    <glyph glyph-name="uacute" unicode="&#xfa;" horiz-adv-x="554" 
d="M236 539l49 144q13 43 51 43q19 0 35 -14t16 -36q0 -26 -25 -47l-95 -90h-31zM208 -16q-132 0 -132 131v305l-59 3v47h171v-341q0 -68 65 -68q51 0 105 39v318l-56 5v47h167v-409l70 2v-45l-168 -26l-10 5l3 78q-29 -35 -59 -55q-49 -36 -97 -36z" />
    <glyph glyph-name="ucircumflex" unicode="&#xfb;" horiz-adv-x="554" 
d="M169 540h-34l91 160h78l91 -160h-33l-98 84zM208 -16q-132 0 -132 131v305l-59 3v47h171v-341q0 -68 65 -68q51 0 105 39v318l-56 5v47h167v-409l70 2v-45l-168 -26l-10 5l3 78q-29 -35 -59 -55q-49 -36 -97 -36z" />
    <glyph glyph-name="udieresis" unicode="&#xfc;" horiz-adv-x="554" 
d="M176 564q-26 0 -43 16.5t-17 42.5t17 42.5t43 16.5q25 0 43 -16.5t18 -42.5t-18 -42.5t-43 -16.5zM360 564q-25 0 -42.5 16.5t-17.5 42.5t17.5 42.5t42.5 16.5q26 0 43.5 -16.5t17.5 -42.5t-17.5 -42.5t-43.5 -16.5zM208 -16q-132 0 -132 131v305l-59 3v47h171v-341
q0 -68 65 -68q51 0 105 39v318l-56 5v47h167v-409l70 2v-45l-168 -26l-10 5l3 78q-29 -35 -59 -55q-49 -36 -97 -36z" />
    <glyph glyph-name="yacute" unicode="&#xfd;" horiz-adv-x="511" 
d="M118 -242q-39 0 -61.5 21t-22.5 48q0 26 15.5 41t37.5 15q20 0 31 -11q-2 -22 7 -33.5t23 -11.5q19 0 38 27.5t45 96.5l9 26l-190 444l-40 3v47h231v-47l-60 -4l113 -293h1l103 281l-63 16v47h166v-47l-44 -13l-174 -467q-39 -104 -74 -145t-91 -41zM256 539l49 144
q13 43 51 43q19 0 35 -14t16 -36q0 -26 -25 -47l-95 -90h-31z" />
    <glyph glyph-name="thorn" unicode="&#xfe;" horiz-adv-x="560" 
d="M16 -233v45l67 5v815l-71 -6v50l173 35l10 -5v-290q67 71 152 71q82 0 132.5 -66.5t50.5 -178.5q0 -119 -63 -187t-146 -68q-73 0 -126 40v-210l76 -5v-45h-255zM293 416q-56 0 -98 -39v-302q41 -30 91 -30q125 0 125 193q0 85 -30.5 131.5t-87.5 46.5z" />
    <glyph glyph-name="ydieresis" unicode="&#xff;" horiz-adv-x="511" 
d="M118 -242q-39 0 -61.5 21t-22.5 48q0 26 15.5 41t37.5 15q20 0 31 -11q-2 -22 7 -33.5t23 -11.5q19 0 38 27.5t45 96.5l9 26l-190 444l-40 3v47h231v-47l-60 -4l113 -293h1l103 281l-63 16v47h166v-47l-44 -13l-174 -467q-39 -104 -74 -145t-91 -41zM192 564
q-26 0 -43 16.5t-17 42.5t17 42.5t43 16.5q25 0 43 -16.5t18 -42.5t-18 -42.5t-43 -16.5zM376 564q-25 0 -42.5 16.5t-17.5 42.5t17.5 42.5t42.5 16.5q26 0 43.5 -16.5t17.5 -42.5t-17.5 -42.5t-43.5 -16.5z" />
    <glyph glyph-name="Amacron" unicode="&#x100;" horiz-adv-x="661" 
d="M377 0v48l75 5l-57 163h-206l-50 -145l94 -23v-48h-215v48l58 17l213 603h83l217 -617l54 -3v-48h-266zM291 510l-86 -247h174l-87 247h-1zM202 740v61h275v-61h-275z" />
    <glyph glyph-name="amacron" unicode="&#x101;" horiz-adv-x="499" 
d="M160 -12q-58 0 -97 32t-39 92q0 69 52 107t134 38q44 0 81 -13v117q0 75 -77 75q-30 0 -54 -11q-16 -6 -16 -15q0 -2 14.5 -15t14.5 -36q0 -21 -16 -35t-40 -14q-26 0 -42.5 17t-16.5 44q0 54 55 81.5t126 27.5q80 0 122 -27t42 -94v-265q0 -35 32 -35q24 0 44 15l18 -25
q-43 -59 -110 -59q-71 0 -91 67q-61 -69 -136 -69zM214 53q38 0 77 31v121q-36 9 -67 9q-37 0 -61.5 -20.5t-24.5 -62.5q0 -37 20.5 -57.5t55.5 -20.5zM113 591v61h251v-61h-251z" />
    <glyph glyph-name="Abreve" unicode="&#x102;" horiz-adv-x="661" 
d="M377 0v48l75 5l-57 163h-206l-50 -145l94 -23v-48h-215v48l58 17l213 603h83l217 -617l54 -3v-48h-266zM291 510l-86 -247h174l-87 247h-1zM340 710q-60 0 -93.5 42t-37.5 100h40q13 -64 91 -64q77 0 90 64h40q-4 -56 -37.5 -99t-92.5 -43z" />
    <glyph glyph-name="abreve" unicode="&#x103;" horiz-adv-x="499" 
d="M160 -12q-58 0 -97 32t-39 92q0 69 52 107t134 38q44 0 81 -13v117q0 75 -77 75q-30 0 -54 -11q-16 -6 -16 -15q0 -2 14.5 -15t14.5 -36q0 -21 -16 -35t-40 -14q-26 0 -42.5 17t-16.5 44q0 54 55 81.5t126 27.5q80 0 122 -27t42 -94v-265q0 -35 32 -35q24 0 44 15l18 -25
q-43 -59 -110 -59q-71 0 -91 67q-61 -69 -136 -69zM214 53q38 0 77 31v121q-36 9 -67 9q-37 0 -61.5 -20.5t-24.5 -62.5q0 -37 20.5 -57.5t55.5 -20.5zM239 546q-59 0 -91.5 47.5t-36.5 116.5h39q13 -85 89 -85t89 85h39q-4 -69 -37 -116.5t-91 -47.5z" />
    <glyph glyph-name="Aogonek" unicode="&#x104;" horiz-adv-x="661" 
d="M13 0v48l61 18l209 602h83l218 -617l53 -3v-48h-153q-70 -86 -70 -144q0 -45 41 -45q23 0 45 22l24 -23q-38 -59 -107 -59q-47 0 -77 24t-30 67q0 39 36 80t110 100l-67 194h-203l-49 -146l91 -22v-48h-215zM286 511l-84 -248h171l-86 248h-1z" />
    <glyph glyph-name="aogonek" unicode="&#x105;" horiz-adv-x="499" 
d="M392 -8q-75 -2 -96 66q-61 -69 -136 -69q-58 0 -97 32t-39 92q0 69 52 106.5t134 37.5q42 0 81 -12v116q0 75 -77 75q-30 0 -54 -11q-16 -6 -16 -15q0 -2 14.5 -15t14.5 -36q0 -21 -16 -35t-40 -14q-25 0 -42 17t-17 44q0 54 56 85.5t125 31.5q164 0 164 -129v-265
q0 -35 32 -35q24 0 44 15l18 -25q-122 -122 -122 -193q0 -45 41 -45q24 0 46 22l22 -23q-38 -59 -107 -59q-46 0 -76 24t-30 65q0 26 21.5 56.5t41.5 48t58 47.5zM214 55q40 0 77 30v120q-36 9 -67 9q-37 0 -61.5 -20t-24.5 -62q0 -37 20.5 -57t55.5 -20z" />
    <glyph glyph-name="Cacute" unicode="&#x106;" horiz-adv-x="634" 
d="M343 -18q-141 0 -225.5 92t-84.5 248q0 153 93.5 250.5t222.5 97.5q114 0 182 -85l16 65h40v-206h-46q-22 86 -67 128.5t-119 42.5q-82 0 -133.5 -74.5t-51.5 -214.5q0 -280 196 -280q126 0 190 131l42 -19q-32 -84 -98.5 -130t-156.5 -46zM349 713h-32l46 112
q15 52 55 52q20 0 38 -15.5t18 -39.5q0 -31 -37 -53z" />
    <glyph glyph-name="cacute" unicode="&#x107;" horiz-adv-x="466" 
d="M226 539l49 144q13 43 51 43q19 0 35 -14t16 -36q0 -26 -25 -47l-95 -90h-31zM252 -18q-103 0 -163.5 65t-60.5 173q0 120 73 193.5t175 73.5q69 0 112.5 -29t43.5 -79q0 -25 -17 -39t-44 -14q-44 0 -49 39q-1 5 -2 20t-2.5 21t-6 15t-14 12.5t-23.5 3.5
q-60 0 -92.5 -52.5t-32.5 -146.5q0 -188 126 -188q50 0 83 29.5t48 74.5l37 -12q-17 -71 -65.5 -115.5t-125.5 -44.5z" />
    <glyph glyph-name="Ccircumflex" unicode="&#x108;" horiz-adv-x="634" 
d="M252 713h-34l95 139h85l95 -139h-34l-104 65zM343 -18q-141 0 -225.5 92t-84.5 248q0 153 93.5 250.5t222.5 97.5q114 0 182 -85l16 65h40v-206h-46q-22 86 -67 128.5t-119 42.5q-82 0 -133.5 -74.5t-51.5 -214.5q0 -280 196 -280q126 0 190 131l42 -19
q-32 -84 -98.5 -130t-156.5 -46z" />
    <glyph glyph-name="ccircumflex" unicode="&#x109;" horiz-adv-x="466" 
d="M160 540h-34l91 160h78l91 -160h-33l-98 84zM252 -18q-103 0 -163.5 65t-60.5 173q0 120 73 193.5t175 73.5q69 0 112.5 -29t43.5 -79q0 -25 -17 -39t-44 -14q-44 0 -49 39q-1 5 -2 20t-2.5 21t-6 15t-14 12.5t-23.5 3.5q-60 0 -92.5 -52.5t-32.5 -146.5q0 -188 126 -188
q50 0 83 29.5t48 74.5l37 -12q-17 -71 -65.5 -115.5t-125.5 -44.5z" />
    <glyph glyph-name="Cdotaccent" unicode="&#x10a;" horiz-adv-x="634" 
d="M343 -18q-141 0 -225.5 92t-84.5 248q0 153 93.5 250.5t222.5 97.5q114 0 182 -85l16 65h40v-206h-46q-22 86 -67 128.5t-119 42.5q-82 0 -133.5 -74.5t-51.5 -214.5q0 -280 196 -280q126 0 190 131l42 -19q-32 -84 -98.5 -130t-156.5 -46zM352 717q-26 0 -45.5 18.5
t-19.5 44.5t19.5 44.5t45.5 18.5q27 0 46 -18.5t19 -44.5t-19 -44.5t-46 -18.5z" />
    <glyph glyph-name="cdotaccent" unicode="&#x10b;" horiz-adv-x="466" 
d="M252 -18q-103 0 -163.5 65t-60.5 173q0 120 73 193.5t175 73.5q69 0 112.5 -29t43.5 -79q0 -25 -17 -39t-44 -14q-44 0 -49 39q-1 5 -2 20t-2.5 21t-6 15t-14 12.5t-23.5 3.5q-60 0 -92.5 -52.5t-32.5 -146.5q0 -188 126 -188q50 0 83 29.5t48 74.5l37 -12
q-17 -71 -65.5 -115.5t-125.5 -44.5zM260 565q-28 0 -47 18.5t-19 44.5q0 27 19 45t47 18q27 0 46.5 -18t19.5 -45q0 -26 -19.5 -44.5t-46.5 -18.5z" />
    <glyph glyph-name="Ccaron" unicode="&#x10c;" horiz-adv-x="634" 
d="M218 852h34l104 -67l103 67h34l-95 -139h-85zM343 -18q-141 0 -225.5 92t-84.5 248q0 153 93.5 250.5t222.5 97.5q114 0 182 -85l16 65h40v-206h-46q-22 86 -67 128.5t-119 42.5q-82 0 -133.5 -74.5t-51.5 -214.5q0 -280 196 -280q126 0 190 131l42 -19
q-32 -84 -98.5 -130t-156.5 -46z" />
    <glyph glyph-name="ccaron" unicode="&#x10d;" horiz-adv-x="466" 
d="M129 706h35l96 -83l96 83h34l-91 -159h-79zM252 -18q-103 0 -163.5 65t-60.5 173q0 120 73 193.5t175 73.5q69 0 112.5 -29t43.5 -79q0 -25 -17 -39t-44 -14q-44 0 -49 39q-1 5 -2 20t-2.5 21t-6 15t-14 12.5t-23.5 3.5q-60 0 -92.5 -52.5t-32.5 -146.5q0 -188 126 -188
q50 0 83 29.5t48 74.5l37 -12q-17 -71 -65.5 -115.5t-125.5 -44.5z" />
    <glyph glyph-name="Dcaron" unicode="&#x10e;" horiz-adv-x="660" 
d="M185 852h34l104 -67l103 67h34l-95 -139h-85zM29 0v48l65 6v550l-65 5v50h274q51 0 97 -10.5t88.5 -35t73 -62t48.5 -94t18 -127.5q0 -85 -26.5 -150.5t-72 -103.5t-101.5 -57t-119 -19h-280zM297 605h-75v-550h76q93 0 143 62.5t50 212.5q0 154 -49.5 214.5t-144.5 60.5
z" />
    <glyph glyph-name="dcaron" unicode="&#x10f;" horiz-adv-x="563" 
d="M543 498l-23 19q29 44 29 86q0 36 -26 62q7 46 47 46q23 0 37.5 -19t14.5 -49q0 -73 -79 -145zM231 -18q-91 0 -147 70t-56 181q0 117 67 185.5t155 68.5q68 0 114 -34v179l-83 -5v50l184 34l11 -5v-641l71 1v-45l-170 -28l-11 4l3 53q-58 -68 -138 -68zM279 52
q50 0 85 35v311q-39 30 -83 30q-60 0 -96.5 -49t-36.5 -147q0 -83 36 -131.5t95 -48.5z" />
    <glyph glyph-name="Dcroat" unicode="&#x110;" horiz-adv-x="660" 
d="M20 313v45h74v246l-65 5v50h274q51 0 97 -10.5t88.5 -35t73 -62t48.5 -94t18 -127.5q0 -85 -26.5 -150.5t-72 -103.5t-101.5 -57t-119 -19h-280v48l65 6v259h-74zM297 605h-75v-247h145v-45h-145v-258h76q93 0 143 62.5t50 212.5q0 154 -49.5 214.5t-144.5 60.5z" />
    <glyph glyph-name="dslash" unicode="&#x111;" horiz-adv-x="563" 
d="M193 562v47h171v85l101 17l11 -5v-97h76v-47h-76v-497l71 1v-45l-170 -28l-11 4l3 53q-58 -68 -138 -68q-91 0 -147 70t-56 181q0 117 67 185.5t155 68.5q68 0 114 -34v109h-171zM279 52q50 0 85 35v311q-39 30 -83 30q-60 0 -96.5 -49t-36.5 -147q0 -83 36 -131.5
t95 -48.5z" />
    <glyph glyph-name="Emacron" unicode="&#x112;" horiz-adv-x="602" 
d="M487 470l-18 87q-6 31 -19 39.5t-50 8.5h-178v-247h80q40 0 45 33l8 76h40v-265h-40l-9 73q-2 22 -11.5 28.5t-33.5 6.5h-79v-256h186q56 0 70.5 8t20.5 47l19 101h44v-210h-533v48l65 8v548l-65 5v50h500v-189h-42zM171 740v61h275v-61h-275z" />
    <glyph glyph-name="emacron" unicode="&#x113;" horiz-adv-x="486" 
d="M262 -18q-109 0 -171.5 70.5t-62.5 178.5q0 111 70 183.5t166 72.5q84 0 138.5 -54.5t54.5 -169.5l-5 -7h-304v-16q0 -89 37 -139.5t101 -50.5q51 0 84.5 23.5t53.5 75.5l38 -17q-49 -150 -200 -150zM258 438q-88 0 -106 -137h192q-1 72 -21.5 104.5t-64.5 32.5zM135 591
v61h251v-61h-251z" />
    <glyph glyph-name="Ebreve" unicode="&#x114;" horiz-adv-x="602" 
d="M487 470l-18 87q-6 31 -19 39.5t-50 8.5h-178v-247h80q40 0 45 33l8 76h40v-265h-40l-9 73q-2 22 -11.5 28.5t-33.5 6.5h-79v-256h186q56 0 70.5 8t20.5 47l19 101h44v-210h-533v48l65 8v548l-65 5v50h500v-189h-42zM309 710q-60 0 -93.5 42t-37.5 100h40q13 -64 91 -64
q77 0 90 64h40q-4 -56 -37.5 -99t-92.5 -43z" />
    <glyph glyph-name="ebreve" unicode="&#x115;" horiz-adv-x="486" 
d="M262 -18q-109 0 -171.5 70.5t-62.5 178.5q0 111 70 183.5t166 72.5q84 0 138.5 -54.5t54.5 -169.5l-5 -7h-304v-16q0 -89 37 -139.5t101 -50.5q51 0 84.5 23.5t53.5 75.5l38 -17q-49 -150 -200 -150zM258 438q-88 0 -106 -137h192q-1 72 -21.5 104.5t-64.5 32.5zM261 546
q-59 0 -91.5 47.5t-36.5 116.5h39q13 -85 89 -85t89 85h39q-4 -69 -37 -116.5t-91 -47.5z" />
    <glyph glyph-name="Edotaccent" unicode="&#x116;" horiz-adv-x="602" 
d="M309 717q-26 0 -45.5 18.5t-19.5 44.5t19.5 44.5t45.5 18.5q27 0 46 -18.5t19 -44.5t-19 -44.5t-46 -18.5zM487 470l-18 87q-6 31 -19 39.5t-50 8.5h-178v-247h80q40 0 45 33l8 76h40v-265h-40l-9 73q-2 22 -11.5 28.5t-33.5 6.5h-79v-256h186q56 0 70.5 8t20.5 47
l19 101h44v-210h-533v48l65 8v548l-65 5v50h500v-189h-42z" />
    <glyph glyph-name="edotaccent" unicode="&#x117;" horiz-adv-x="486" 
d="M262 -18q-109 0 -171.5 70.5t-62.5 178.5q0 111 70 183.5t166 72.5q84 0 138.5 -54.5t54.5 -169.5l-5 -7h-304v-16q0 -89 37 -139.5t101 -50.5q51 0 84.5 23.5t53.5 75.5l38 -17q-49 -150 -200 -150zM258 438q-88 0 -106 -137h192q-1 72 -21.5 104.5t-64.5 32.5zM261 565
q-28 0 -47 18.5t-19 44.5q0 27 19 45t47 18q27 0 46.5 -18t19.5 -45q0 -26 -19.5 -44.5t-46.5 -18.5z" />
    <glyph glyph-name="Eogonek" unicode="&#x118;" horiz-adv-x="602" 
d="M487 470l-18 87q-6 31 -19 39.5t-50 8.5h-178v-247h80q40 0 45 33l8 76h40v-265h-40l-9 73q-2 22 -11.5 28.5t-33.5 6.5h-79v-256h186q56 0 70.5 8t20.5 47l19 101h44v-210h-82q-51 -74 -51 -137q0 -51 42 -51q22 0 44 22l22 -23q-35 -60 -105 -60q-46 0 -77 26t-31 70
q0 60 99 153h-394v48l65 8v548l-65 5v50h500v-189h-42z" />
    <glyph glyph-name="eogonek" unicode="&#x119;" horiz-adv-x="486" 
d="M424 149l38 -17q-16 -50 -49 -88q-6 -7 -27 -30.5t-28.5 -32t-22.5 -28.5t-20.5 -33t-11 -30.5t-5.5 -34.5q0 -44 41 -44q25 0 45 22l23 -24q-38 -58 -106 -58q-46 0 -76.5 24t-30.5 65q0 60 114 147q-25 -5 -46 -5q-109 0 -171.5 70.5t-62.5 178.5q0 111 70 183.5
t166 72.5q84 0 139.5 -54.5t53.5 -169.5l-5 -7h-303v-16q0 -90 36.5 -140t100.5 -50q51 0 84.5 23.5t53.5 75.5zM258 438q-88 0 -106 -137h192q-1 72 -21.5 104.5t-64.5 32.5z" />
    <glyph glyph-name="Ecaron" unicode="&#x11a;" horiz-adv-x="602" 
d="M171 852h34l104 -67l103 67h34l-95 -139h-85zM487 470l-18 87q-6 31 -19 39.5t-50 8.5h-178v-247h80q40 0 45 33l8 76h40v-265h-40l-9 73q-2 22 -11.5 28.5t-33.5 6.5h-79v-256h186q56 0 70.5 8t20.5 47l19 101h44v-210h-533v48l65 8v548l-65 5v50h500v-189h-42z" />
    <glyph glyph-name="ecaron" unicode="&#x11b;" horiz-adv-x="486" 
d="M129 706h35l96 -83l96 83h34l-91 -159h-79zM262 -18q-109 0 -171.5 70.5t-62.5 178.5q0 111 70 183.5t166 72.5q84 0 138.5 -54.5t54.5 -169.5l-5 -7h-304v-16q0 -89 37 -139.5t101 -50.5q51 0 84.5 23.5t53.5 75.5l38 -17q-49 -150 -200 -150zM258 438q-88 0 -106 -137
h192q-1 72 -21.5 104.5t-64.5 32.5z" />
    <glyph glyph-name="Gcircumflex" unicode="&#x11c;" horiz-adv-x="681" 
d="M257 713h-34l95 139h85l95 -139h-34l-104 65zM352 -18q-144 0 -232 93t-88 247q0 151 96.5 249.5t223.5 98.5q117 0 181 -77l13 55h40v-191h-45q-21 82 -62.5 119.5t-114.5 37.5q-85 0 -140 -74t-55 -214q0 -150 46 -220t147 -70q80 0 115 53q15 23 15 83v43l-76 6v50
h253v-50l-58 -5v-111q-105 -123 -259 -123z" />
    <glyph glyph-name="gcircumflex" unicode="&#x11d;" horiz-adv-x="541" 
d="M159 540h-34l91 160h78l91 -160h-33l-98 84zM245 142q-57 0 -96 19q-35 -17 -35 -49q0 -44 79 -44q35 0 83 1.5t56 1.5q86 0 131 -30t45 -101q0 -89 -75 -139.5t-198 -50.5q-111 0 -173 31.5t-62 83.5q0 37 31 62.5t82 38.5q-79 26 -79 99q0 77 88 110q-76 50 -76 138
q0 74 58.5 124t140.5 50q59 0 105 -25t66 -78h2q1 51 24 76t54 25q25 0 40.5 -14.5t15.5 -38.5q0 -32 -35 -52q-13 19 -33 19q-17 0 -29 -15t-12 -42q0 -3 0.5 -15t0.5 -19q0 -73 -58 -119.5t-141 -46.5zM176 -43q-10 0 -28 2q-53 -26 -53 -77q0 -84 145 -84q80 0 130 25.5
t50 75.5q0 63 -95 63q-33 0 -84 -2.5t-65 -2.5zM245 185q92 0 92 128q0 127 -92 127q-89 0 -89 -127q0 -128 89 -128z" />
    <glyph glyph-name="Gbreve" unicode="&#x11e;" horiz-adv-x="681" 
d="M361 710q-60 0 -93.5 42t-37.5 100h40q13 -64 91 -64q77 0 90 64h40q-4 -56 -37.5 -99t-92.5 -43zM352 -18q-144 0 -232 93t-88 247q0 151 96.5 249.5t223.5 98.5q117 0 181 -77l13 55h40v-191h-45q-21 82 -62.5 119.5t-114.5 37.5q-85 0 -140 -74t-55 -214
q0 -150 46 -220t147 -70q80 0 115 53q15 23 15 83v43l-76 6v50h253v-50l-58 -5v-111q-105 -123 -259 -123z" />
    <glyph glyph-name="gbreve" unicode="&#x11f;" horiz-adv-x="541" 
d="M245 142q-57 0 -96 19q-35 -17 -35 -49q0 -44 79 -44q35 0 83 1.5t56 1.5q86 0 131 -30t45 -101q0 -89 -75 -139.5t-198 -50.5q-111 0 -173 31.5t-62 83.5q0 37 31 62.5t82 38.5q-79 26 -79 99q0 77 88 110q-76 50 -76 138q0 74 58.5 124t140.5 50q59 0 105 -25t66 -78h2
q1 51 24 76t54 25q25 0 40.5 -14.5t15.5 -38.5q0 -32 -35 -52q-13 19 -33 19q-17 0 -29 -15t-12 -42q0 -3 0.5 -15t0.5 -19q0 -73 -58 -119.5t-141 -46.5zM176 -43q-10 0 -28 2q-53 -26 -53 -77q0 -84 145 -84q80 0 130 25.5t50 75.5q0 63 -95 63q-33 0 -84 -2.5t-65 -2.5z
M245 185q92 0 92 128q0 127 -92 127q-89 0 -89 -127q0 -128 89 -128zM258 546q-59 0 -91.5 47.5t-36.5 116.5h39q13 -85 89 -85t89 85h39q-4 -69 -37 -116.5t-91 -47.5z" />
    <glyph glyph-name="Gdotaccent" unicode="&#x120;" horiz-adv-x="681" 
d="M361 717q-26 0 -45.5 18.5t-19.5 44.5t19.5 44.5t45.5 18.5q27 0 46 -18.5t19 -44.5t-19 -44.5t-46 -18.5zM352 -18q-144 0 -232 93t-88 247q0 151 96.5 249.5t223.5 98.5q117 0 181 -77l13 55h40v-191h-45q-21 82 -62.5 119.5t-114.5 37.5q-85 0 -140 -74t-55 -214
q0 -150 46 -220t147 -70q80 0 115 53q15 23 15 83v43l-76 6v50h253v-50l-58 -5v-111q-105 -123 -259 -123z" />
    <glyph glyph-name="gdotaccent" unicode="&#x121;" horiz-adv-x="541" 
d="M245 142q-57 0 -96 19q-35 -17 -35 -49q0 -44 79 -44q35 0 83 1.5t56 1.5q86 0 131 -30t45 -101q0 -89 -75 -139.5t-198 -50.5q-111 0 -173 31.5t-62 83.5q0 37 31 62.5t82 38.5q-79 26 -79 99q0 77 88 110q-76 50 -76 138q0 74 58.5 124t140.5 50q59 0 105 -25t66 -78h2
q1 51 24 76t54 25q25 0 40.5 -14.5t15.5 -38.5q0 -32 -35 -52q-13 19 -33 19q-17 0 -29 -15t-12 -42q0 -3 0.5 -15t0.5 -19q0 -73 -58 -119.5t-141 -46.5zM176 -43q-10 0 -28 2q-53 -26 -53 -77q0 -84 145 -84q80 0 130 25.5t50 75.5q0 63 -95 63q-33 0 -84 -2.5t-65 -2.5z
M245 185q92 0 92 128q0 127 -92 127q-89 0 -89 -127q0 -128 89 -128zM257 565q-28 0 -47 18.5t-19 44.5q0 27 19 45t47 18q27 0 46.5 -18t19.5 -45q0 -26 -19.5 -44.5t-46.5 -18.5z" />
    <glyph glyph-name="Gcommaaccent" unicode="&#x122;" horiz-adv-x="681" 
d="M305 -271l-13 34q83 28 83 76q0 18 -11 18q-3 0 -13.5 -6t-22.5 -6q-21 0 -32.5 13.5t-11.5 34.5q0 24 19.5 39.5t47.5 15.5q38 0 62 -23.5t24 -62.5q0 -52 -37 -86t-95 -47zM352 -18q-144 0 -232 93t-88 247q0 151 96.5 249.5t223.5 98.5q117 0 181 -77l13 55h40v-191
h-45q-21 82 -62.5 119.5t-114.5 37.5q-85 0 -140 -74t-55 -214q0 -150 46 -220t147 -70q80 0 115 53q15 23 15 83v43l-76 6v50h253v-50l-58 -5v-111q-105 -123 -259 -123z" />
    <glyph glyph-name="gcommaaccent" unicode="&#x123;" horiz-adv-x="541" 
d="M311 755l13 -35q-85 -24 -85 -75q0 -19 11 -19q4 0 15 6.5t22 6.5q45 0 45 -48q0 -24 -19.5 -39t-49.5 -15q-40 0 -64 23t-24 62q0 52 38 86t98 47zM245 142q-57 0 -96 19q-35 -17 -35 -49q0 -44 79 -44q35 0 83 1.5t56 1.5q86 0 131 -30t45 -101q0 -89 -75 -139.5
t-198 -50.5q-111 0 -173 31.5t-62 83.5q0 37 31 62.5t82 38.5q-79 26 -79 99q0 77 88 110q-76 50 -76 138q0 74 58.5 124t140.5 50q59 0 105 -25t66 -78h2q1 51 24 76t54 25q25 0 40.5 -14.5t15.5 -38.5q0 -32 -35 -52q-13 19 -33 19q-17 0 -29 -15t-12 -42q0 -3 0.5 -15
t0.5 -19q0 -73 -58 -119.5t-141 -46.5zM176 -43q-10 0 -28 2q-53 -26 -53 -77q0 -84 145 -84q80 0 130 25.5t50 75.5q0 63 -95 63q-33 0 -84 -2.5t-65 -2.5zM245 185q92 0 92 128q0 127 -92 127q-89 0 -89 -127q0 -128 89 -128z" />
    <glyph glyph-name="Hcircumflex" unicode="&#x124;" horiz-adv-x="687" 
d="M395 0v48l71 6v263h-245v-263l71 -6v-48h-263v48l65 7v550l-65 4v50h263v-50l-71 -5v-238h245v236l-71 7v50h263v-50l-65 -5v-552l65 -4v-48h-263zM253 713h-34l95 139h85l95 -139h-34l-104 65z" />
    <glyph glyph-name="hcircumflex" unicode="&#x125;" horiz-adv-x="559" 
d="M19 0v47l68 4v581l-71 -6v50l174 35l9 -5v-312q31 34 64 59q45 36 92 36q128 0 128 -137v-303l60 -2v-47h-232v47l59 3v290q0 63 -68 63q-49 0 -103 -41v-311l56 -4v-47h-236zM180 752h-34l95 139h85l95 -139h-34l-104 65z" />
    <glyph glyph-name="Hbar" unicode="&#x126;" horiz-adv-x="687" 
d="M12 466v42h82v98l-65 4v49h263v-49l-71 -5v-97h246v95l-73 7v49h263v-49l-64 -5v-97h80v-42h-80v-414l64 -4v-48h-263v48l73 6v259h-246v-259l71 -6v-48h-263v48l65 7v411h-82zM221 466v-106h246v106h-246z" />
    <glyph glyph-name="hbar" unicode="&#x127;" horiz-adv-x="559" 
d="M7 562v47h80v82l103 20l9 -5v-97h167v-47h-167v-168q31 34 64 59q45 36 92 36q128 0 128 -137v-303l60 -2v-47h-232v47l59 3v290q0 63 -68 63q-49 0 -103 -41v-311l56 -4v-47h-236v47l68 4v511h-80z" />
    <glyph glyph-name="Itilde" unicode="&#x128;" horiz-adv-x="315" 
d="M29 0v48l65 7v547l-65 7v50h257v-50l-65 -6v-547l65 -8v-48h-257zM218 735q-20 0 -68 13.5t-63 13.5q-33 0 -46 -42h-41q11 55 37.5 91.5t67.5 36.5q20 0 68 -13.5t62 -13.5q31 0 44 42h42q-11 -55 -37.5 -91.5t-65.5 -36.5z" />
    <glyph glyph-name="itilde" unicode="&#x129;" horiz-adv-x="285" 
d="M19 0v47l71 4v348l-75 -9v51l178 40l10 -5v-425l64 -4v-47h-248zM189 568q-21 0 -63 14t-56 14q-32 0 -46 -42h-41q30 125 103 125q21 0 62.5 -14.5t55.5 -14.5q31 4 44 43h42q-29 -125 -101 -125z" />
    <glyph glyph-name="Imacron" unicode="&#x12a;" horiz-adv-x="315" 
d="M29 0v48l65 7v547l-65 7v50h257v-50l-65 -6v-547l65 -8v-48h-257zM15 740v61h275v-61h-275z" />
    <glyph glyph-name="imacron" unicode="&#x12b;" horiz-adv-x="285" 
d="M19 0v47l71 4v348l-75 -9v51l178 40l10 -5v-425l64 -4v-47h-248zM20 591v61h230v-61h-230z" />
    <glyph glyph-name="Ibreve" unicode="&#x12c;" horiz-adv-x="315" 
d="M29 0v48l65 7v547l-65 7v50h257v-50l-65 -6v-547l65 -8v-48h-257zM154 710q-60 0 -93.5 42t-37.5 100h40q13 -64 91 -64q77 0 90 64h40q-4 -56 -37.5 -99t-92.5 -43z" />
    <glyph glyph-name="ibreve" unicode="&#x12d;" horiz-adv-x="285" 
d="M19 0v47l71 4v348l-75 -9v51l178 40l10 -5v-425l64 -4v-47h-248zM131 546q-59 0 -91.5 47.5t-36.5 116.5h39q13 -85 89 -85t89 85h39q-4 -69 -37 -116.5t-91 -47.5z" />
    <glyph glyph-name="Iogonek" unicode="&#x12e;" horiz-adv-x="315" 
d="M158 -244q-46 0 -77 26t-31 70q0 55 76 131l18 17h-115v48l65 7v547l-65 7v50h257v-50l-65 -6v-547l65 -8v-48h-84q-11 -18 -29 -54q-18 -39 -18 -77q0 -52 42 -52q22 0 45 23l21 -23q-34 -61 -105 -61z" />
    <glyph glyph-name="iogonek" unicode="&#x12f;" horiz-adv-x="285" 
d="M19 0v47l71 4v348l-75 -9v51l177 40l10 -5v-425l65 -4v-47h-74q-26 -35 -43 -72q-17 -42 -17 -72q0 -45 41 -45q26 0 46 22l23 -23q-38 -59 -107 -59q-46 0 -76 24t-30 65q0 56 84 133l29 27h-124zM145 563q-28 0 -47.5 19t-19.5 45q0 27 19.5 45.5t47.5 18.5t48 -18.5
t20 -45.5q0 -26 -20 -45t-48 -19z" />
    <glyph glyph-name="Idot" unicode="&#x130;" horiz-adv-x="315" 
d="M29 0v48l65 7v547l-65 7v50h257v-50l-65 -6v-547l65 -8v-48h-257zM153 717q-26 0 -45.5 18.5t-19.5 44.5t19.5 44.5t45.5 18.5q27 0 46 -18.5t19 -44.5t-19 -44.5t-46 -18.5z" />
    <glyph glyph-name="dotlessi" unicode="&#x131;" horiz-adv-x="285" 
d="M19 0v47l71 4v348l-75 -9v51l178 40l10 -5v-425l64 -4v-47h-248z" />
    <glyph glyph-name="IJ" unicode="&#x132;" horiz-adv-x="743" 
d="M455 -17q-63 0 -96 28t-33 72q0 32 19.5 53t47.5 21q25 0 42.5 -14.5t17.5 -37.5q0 -16 -8 -27t-16 -17.5t-8 -11.5q0 -17 29 -17q73 0 73 114v456l-74 7v50h268v-50l-68 -7v-385q0 -116 -53 -175t-141 -59zM29 0v48l65 7v547l-65 7v50h257v-50l-65 -6v-547l65 -8v-48
h-257z" />
    <glyph glyph-name="ij" unicode="&#x133;" horiz-adv-x="551" 
d="M275 -245q-32 0 -53 17.5t-21 43.5q0 24 13 38.5t33 14.5q42 0 73 -48q44 24 44 109v469l-75 -9v51l176 40l10 -5v-470q0 -100 -57 -175.5t-143 -75.5zM19 0v47l71 4v348l-75 -9v51l178 40l10 -5v-425l64 -4v-47h-248zM145 563q-28 0 -47.5 19t-19.5 45q0 27 19.5 45.5
t47.5 18.5t48 -18.5t20 -45.5q0 -26 -20 -45t-48 -19zM419 563q-27 0 -46.5 19t-19.5 45q0 27 19.5 45.5t46.5 18.5q28 0 48.5 -18.5t20.5 -45.5q0 -26 -20.5 -45t-48.5 -19z" />
    <glyph glyph-name="Jcircumflex" unicode="&#x134;" horiz-adv-x="439" 
d="M185 713h-34l95 139h85l95 -139h-34l-104 65zM152 -62q-63 0 -96.5 28t-33.5 72q0 35 19 55t49 20q25 0 41.5 -14.5t16.5 -38.5q0 -16 -8 -27t-15.5 -17.5t-7.5 -10.5q0 -17 29 -17q72 0 72 115v499l-74 7v50h270v-50l-69 -7v-428q0 -116 -53 -176t-140 -60z" />
    <glyph glyph-name="jcircumflex" unicode="&#x135;" horiz-adv-x="280" 
d="M3 -245q-33 0 -53.5 17.5t-20.5 43.5q0 24 12.5 38.5t33.5 14.5q41 0 72 -48q44 24 44 109v469l-75 -9v51l177 40l10 -5v-470q0 -100 -56.5 -175.5t-143.5 -75.5zM22 540h-34l91 160h78l91 -160h-33l-98 84z" />
    <glyph glyph-name="Kcommaaccent" unicode="&#x136;" horiz-adv-x="656" 
d="M285 -271l-13 34q83 28 83 76q0 18 -11 18q-3 0 -13.5 -6t-22.5 -6q-21 0 -32.5 13.5t-11.5 34.5q0 24 19.5 39.5t47.5 15.5q38 0 62 -23.5t24 -62.5q0 -52 -37 -86t-95 -47zM29 0v48l65 7v549l-65 5v50h266v-50l-73 -5v-549l70 -7v-48h-263zM382 0v48l61 5l-199 282v19
l215 238l-67 17v50h216v-50l-82 -16l-175 -197l236 -344l47 -4v-48h-252z" />
    <glyph glyph-name="kcommaaccent" unicode="&#x137;" horiz-adv-x="542" 
d="M218 -271l-13 34q83 28 83 76q0 18 -11 18q-3 0 -13.5 -6t-22.5 -6q-21 0 -32.5 13.5t-11.5 34.5q0 24 19.5 39.5t47.5 15.5q38 0 62 -23.5t24 -62.5q0 -52 -37 -86t-95 -47zM19 0v47l68 6v578l-69 -10v51l171 39l10 -5v-655l54 -4v-47h-234zM315 0v47l45 3l-153 189v15
l160 158l-60 13v46h195v-46l-69 -11l-130 -130l190 -234l39 -3v-47h-217z" />
    <glyph glyph-name="Lacute" unicode="&#x139;" horiz-adv-x="570" 
d="M143 713h-32l46 112q15 52 55 52q20 0 38 -15.5t18 -39.5q0 -31 -37 -53zM29 0v48l65 6v551l-65 4v50h274v-50l-81 -6v-548h163q51 0 67 16.5t24 84.5l16 75h44v-231h-507z" />
    <glyph glyph-name="lacute" unicode="&#x13a;" horiz-adv-x="289" 
d="M127 752h-32l46 112q15 52 55 52q20 0 38 -15.5t18 -39.5q0 -31 -37 -53zM19 0v47l73 5v580l-78 -9v51l180 37l10 -5v-655l68 -4v-47h-253z" />
    <glyph glyph-name="Lcommaaccent" unicode="&#x13b;" horiz-adv-x="570" 
d="M242 -271l-13 34q83 28 83 76q0 18 -11 18q-3 0 -13.5 -6t-22.5 -6q-21 0 -32.5 13.5t-11.5 34.5q0 24 19.5 39.5t47.5 15.5q38 0 62 -23.5t24 -62.5q0 -52 -37 -86t-95 -47zM29 0v48l65 6v551l-65 4v50h274v-50l-81 -6v-548h163q51 0 67 16.5t24 84.5l16 75h44v-231
h-507z" />
    <glyph glyph-name="lcommaaccent" unicode="&#x13c;" horiz-adv-x="289" 
d="M78 -271l-13 34q83 28 83 76q0 18 -11 18q-3 0 -13.5 -6t-22.5 -6q-21 0 -32.5 13.5t-11.5 34.5q0 24 19.5 39.5t47.5 15.5q38 0 62 -23.5t24 -62.5q0 -52 -37 -86t-95 -47zM19 0v47l73 5v580l-78 -9v51l180 37l10 -5v-655l68 -4v-47h-253z" />
    <glyph glyph-name="Lcaron" unicode="&#x13d;" horiz-adv-x="570" 
d="M362 483l-23 19q29 44 29 86q0 36 -26 62q7 46 47 46q23 0 37.5 -19t14.5 -49q0 -73 -79 -145zM29 0v48l65 6v551l-65 4v50h274v-50l-81 -6v-548h163q51 0 67 16.5t24 84.5l16 75h44v-231h-507z" />
    <glyph glyph-name="lcaron" unicode="&#x13e;" horiz-adv-x="289" 
d="M273 498l-23 19q29 44 29 86q0 36 -26 62q7 46 47 46q23 0 37.5 -19t14.5 -49q0 -73 -79 -145zM19 0v47l73 5v580l-78 -9v51l180 37l10 -5v-655l68 -4v-47h-253z" />
    <glyph glyph-name="Ldot" unicode="&#x13f;" horiz-adv-x="572" 
d="M29 0v48l65 6v551l-65 4v50h274v-50l-81 -6v-548h165q49 0 65.5 16.5t26.5 75.5l13 59h44v-206h-507zM485 289q-31 0 -50.5 20t-19.5 50t19.5 49.5t50.5 19.5q30 0 49 -19.5t19 -49.5t-19 -50t-49 -20z" />
    <glyph glyph-name="ldot" unicode="&#x140;" horiz-adv-x="356" 
d="M19 0v47l73 5v580l-78 -9v51l180 37l10 -5v-655l68 -4v-47h-253zM318 276q-31 0 -50.5 19.5t-19.5 49.5t19.5 49t50.5 19q29 0 48.5 -19t19.5 -49t-19.5 -49.5t-48.5 -19.5z" />
    <glyph glyph-name="Lslash" unicode="&#x141;" horiz-adv-x="589" 
d="M46 0v48l65 6v181l-71 -32v48l71 32v322l-65 4v50h274v-50l-81 -6v-263l201 91v-48l-201 -91v-237h163q51 0 67 16.5t24 84.5l16 75h44v-231h-507z" />
    <glyph glyph-name="lslash" unicode="&#x142;" horiz-adv-x="289" 
d="M19 0v47l73 5v244l-74 -46v51l74 46v285l-78 -9v51l180 37l10 -5v-289l73 46v-51l-73 -46v-315l68 -4v-47h-253z" />
    <glyph glyph-name="Nacute" unicode="&#x143;" horiz-adv-x="656" 
d="M352 713h-32l46 112q15 52 55 52q20 0 38 -15.5t18 -39.5q0 -31 -37 -53zM29 0v48l64 10v545l-64 6v50h208l274 -426v362l-76 14v50h192v-50l-55 -13v-596h-60l-358 559v-496l97 -15v-48h-222z" />
    <glyph glyph-name="nacute" unicode="&#x144;" horiz-adv-x="563" 
d="M257 539l49 144q13 43 51 43q19 0 35 -14t16 -36q0 -26 -25 -47l-95 -90h-31zM19 0v47l71 5v347l-70 -11v51l172 42l10 -5v-82q25 30 64 59q44 36 91 36q128 0 128 -137v-303l60 -2v-47h-226v47l54 2v291q0 63 -69 63q-48 0 -102 -41v-311l60 -4v-47h-243z" />
    <glyph glyph-name="Ncommaaccent" unicode="&#x145;" horiz-adv-x="656" 
d="M303 -271l-13 34q83 28 83 76q0 18 -11 18q-3 0 -13.5 -6t-22.5 -6q-21 0 -32.5 13.5t-11.5 34.5q0 24 19.5 39.5t47.5 15.5q38 0 62 -23.5t24 -62.5q0 -52 -37 -86t-95 -47zM29 0v48l64 10v545l-64 6v50h208l274 -426v362l-76 14v50h192v-50l-55 -13v-596h-60l-358 559
v-496l97 -15v-48h-222z" />
    <glyph glyph-name="ncommaaccent" unicode="&#x146;" horiz-adv-x="563" 
d="M235 -271l-13 34q83 28 83 76q0 18 -11 18q-3 0 -13.5 -6t-22.5 -6q-21 0 -32.5 13.5t-11.5 34.5q0 24 19.5 39.5t47.5 15.5q38 0 62 -23.5t24 -62.5q0 -52 -37 -86t-95 -47zM19 0v47l71 5v347l-70 -11v51l172 42l10 -5v-82q25 30 64 59q44 36 91 36q128 0 128 -137v-303
l60 -2v-47h-226v47l54 2v291q0 63 -69 63q-48 0 -102 -41v-311l60 -4v-47h-243z" />
    <glyph glyph-name="Ncaron" unicode="&#x147;" horiz-adv-x="656" 
d="M220 852h34l104 -67l103 67h34l-95 -139h-85zM29 0v48l64 10v545l-64 6v50h208l274 -426v362l-76 14v50h192v-50l-55 -13v-596h-60l-358 559v-496l97 -15v-48h-222z" />
    <glyph glyph-name="ncaron" unicode="&#x148;" horiz-adv-x="563" 
d="M159 706h35l96 -83l96 83h34l-91 -159h-79zM19 0v47l71 5v347l-70 -11v51l172 42l10 -5v-82q25 30 64 59q44 36 91 36q128 0 128 -137v-303l60 -2v-47h-226v47l54 2v291q0 63 -69 63q-48 0 -102 -41v-311l60 -4v-47h-243z" />
    <glyph glyph-name="napostrophe" unicode="&#x149;" horiz-adv-x="592" 
d="M-31 413l-14 34q45 17 70.5 44t25.5 57q0 23 -14 23q-2 0 -13.5 -7.5t-25.5 -7.5q-22 0 -36.5 15.5t-14.5 40.5q0 27 22 46t53 19q45 0 69.5 -26.5t24.5 -74.5q0 -65 -41 -105.5t-106 -57.5zM112 0v47l71 5v347l-70 -11v51l172 42l10 -5v-82q25 30 64 59q44 36 91 36
q128 0 128 -137v-303l60 -2v-47h-226v47l54 2v291q0 63 -69 63q-48 0 -102 -41v-311l60 -4v-47h-243z" />
    <glyph glyph-name="Eng" unicode="&#x14a;" horiz-adv-x="656" 
d="M29 0v48l64 10v545l-64 6v50h210l272 -418v354l-76 14v50h192v-50l-55 -13v-607q0 -118 -48 -179t-131 -61q-51 0 -82.5 28t-31.5 71q0 36 19 57t50 21q25 0 40 -13.5t15 -39.5q0 -22 -14.5 -38t-14.5 -19q0 -16 26 -16q49 0 80 42.5t31 130.5v34l-357 553v-497l97 -15
v-48h-222z" />
    <glyph glyph-name="eng" unicode="&#x14b;" horiz-adv-x="554" 
d="M19 0v47l71 5v347l-70 -11v51l173 42l10 -5v-81q26 30 63 58q44 36 91 36q129 0 129 -137v-346q0 -100 -57 -175.5t-143 -75.5q-33 0 -54 17.5t-21 43.5q0 24 14 38.5t35 14.5q23 0 45.5 -15.5t35.5 -37.5q32 18 32 114v410q0 63 -69 63q-46 0 -101 -40v-313l60 -3v-47
h-244z" />
    <glyph glyph-name="Omacron" unicode="&#x14c;" horiz-adv-x="689" 
d="M219 740v61h275v-61h-275zM345 37q175 0 175 288q0 290 -175 290q-86 0 -131 -73.5t-45 -216.5q0 -288 176 -288zM345 -18q-128 0 -220.5 95t-92.5 248q0 152 93 248.5t220 96.5q126 0 219 -96.5t93 -248.5q0 -153 -92.5 -248t-219.5 -95z" />
    <glyph glyph-name="omacron" unicode="&#x14d;" horiz-adv-x="534" 
d="M143 591v61h251v-61h-251zM268 32q118 0 118 202q0 94 -29 148t-89 54q-61 0 -90.5 -54t-29.5 -148q0 -95 29.5 -148.5t90.5 -53.5zM268 -18q-97 0 -168.5 69.5t-71.5 182.5t72 183t168 70q95 0 167 -70.5t72 -182.5q0 -113 -72 -182.5t-167 -69.5z" />
    <glyph glyph-name="Obreve" unicode="&#x14e;" horiz-adv-x="689" 
d="M357 710q-60 0 -93.5 42t-37.5 100h40q13 -64 91 -64q77 0 90 64h40q-4 -56 -37.5 -99t-92.5 -43zM345 37q175 0 175 288q0 290 -175 290q-86 0 -131 -73.5t-45 -216.5q0 -288 176 -288zM345 -18q-128 0 -220.5 95t-92.5 248q0 152 93 248.5t220 96.5q126 0 219 -96.5
t93 -248.5q0 -153 -92.5 -248t-219.5 -95z" />
    <glyph glyph-name="obreve" unicode="&#x14f;" horiz-adv-x="534" 
d="M268 32q118 0 118 202q0 94 -29 148t-89 54q-61 0 -90.5 -54t-29.5 -148q0 -95 29.5 -148.5t90.5 -53.5zM268 -18q-97 0 -168.5 69.5t-71.5 182.5t72 183t168 70q95 0 167 -70.5t72 -182.5q0 -113 -72 -182.5t-167 -69.5zM269 546q-59 0 -91.5 47.5t-36.5 116.5h39
q13 -85 89 -85t89 85h39q-4 -69 -37 -116.5t-91 -47.5z" />
    <glyph glyph-name="Ohungarumlaut" unicode="&#x150;" horiz-adv-x="689" 
d="M449 713h-30l21 118q9 46 50 46q19 0 34.5 -13t15.5 -35q0 -20 -25 -48zM294 713h-31l21 118q9 46 50 46q19 0 34.5 -13t15.5 -35q0 -20 -25 -48zM345 37q175 0 175 288q0 290 -175 290q-86 0 -131 -73.5t-45 -216.5q0 -288 176 -288zM345 -18q-128 0 -220.5 95
t-92.5 248q0 152 93 248.5t220 96.5q126 0 219 -96.5t93 -248.5q0 -153 -92.5 -248t-219.5 -95z" />
    <glyph glyph-name="ohungarumlaut" unicode="&#x151;" horiz-adv-x="534" 
d="M176 540l31 143q11 45 49 45q19 0 33.5 -12.5t14.5 -33.5t-23 -47l-74 -95h-31zM329 540l32 143q10 45 49 45q17 0 31.5 -13t14.5 -33t-22 -47l-75 -95h-30zM268 32q118 0 118 202q0 94 -29 148t-89 54q-61 0 -90.5 -54t-29.5 -148q0 -95 29.5 -148.5t90.5 -53.5z
M268 -18q-97 0 -168.5 69.5t-71.5 182.5t72 183t168 70q95 0 167 -70.5t72 -182.5q0 -113 -72 -182.5t-167 -69.5z" />
    <glyph glyph-name="OE" unicode="&#x152;" horiz-adv-x="908" 
d="M857 0h-501q-65 0 -121 17.5t-102.5 55t-73.5 103t-27 153.5q0 85 27 150.5t72.5 103.5t101 57t118.5 19h473v-189h-42l-18 87q-6 31 -18.5 39.5t-49.5 8.5h-158v-247h70q40 0 43 33l9 76h41v-265h-41l-8 73q-4 22 -13 28.5t-31 6.5h-70v-256h165q56 0 70.5 8t20.5 47
l19 101h44v-210zM169 329q0 -155 49 -215t146 -60h47v551h-48q-93 0 -143.5 -63t-50.5 -213z" />
    <glyph glyph-name="oe" unicode="&#x153;" horiz-adv-x="844" 
d="M267 -18q-97 0 -168.5 69.5t-71.5 182.5t72 183t168 70q55 0 102.5 -28.5t76.5 -79.5q62 108 178 108q84 0 138.5 -54t52.5 -170l-5 -7h-304v-16q0 -90 37 -140t103 -50q99 0 137 99l36 -17q-48 -150 -198 -150q-123 0 -177 100q-30 -48 -76.5 -74t-100.5 -26zM268 32
q118 0 118 202q0 94 -29 148t-89 54q-61 0 -90 -54t-29 -148q0 -202 119 -202zM616 438q-88 0 -106 -137h194q-1 73 -21.5 105t-66.5 32z" />
    <glyph glyph-name="Racute" unicode="&#x154;" horiz-adv-x="634" 
d="M289 713h-32l46 112q15 52 55 52q20 0 38 -15.5t18 -39.5q0 -31 -37 -53zM29 0v48l65 6v550l-65 5v50h261q109 0 177 -43.5t68 -122.5q0 -65 -45.5 -106.5t-114.5 -57.5v-4q63 -9 94 -44t46 -102q22 -92 34 -110q13 -18 37 -18q19 0 39 11l17 -36q-49 -35 -111 -35
q-76 0 -105.5 45.5t-43.5 143.5q-12 77 -31.5 102.5t-70.5 25.5h-58v-252l71 -8v-48h-264zM282 605h-60v-250h72q62 0 85.5 27.5t23.5 96.5q0 74 -32.5 100t-88.5 26z" />
    <glyph glyph-name="racute" unicode="&#x155;" horiz-adv-x="426" 
d="M206 539l49 144q13 43 51 43q19 0 35 -14t16 -36q0 -26 -25 -47l-95 -90h-31zM19 0v47l71 5v346l-75 -13v51l177 45l10 -5v-86q86 97 144 97q31 0 49.5 -19t18.5 -52q0 -32 -19 -52t-51 -20q-28 0 -40 12q2 44 -24 44q-10 0 -34 -13.5t-44 -30.5v-305l81 -4v-47h-264z
" />
    <glyph glyph-name="Rcommaaccent" unicode="&#x156;" horiz-adv-x="634" 
d="M286 -271l-13 34q83 28 83 76q0 18 -11 18q-3 0 -13.5 -6t-22.5 -6q-21 0 -32.5 13.5t-11.5 34.5q0 24 19.5 39.5t47.5 15.5q38 0 62 -23.5t24 -62.5q0 -52 -37 -86t-95 -47zM29 0v48l65 6v550l-65 5v50h261q109 0 177 -43.5t68 -122.5q0 -65 -45.5 -106.5t-114.5 -57.5
v-4q63 -9 94 -44t46 -102q22 -92 34 -110q13 -18 37 -18q19 0 39 11l17 -36q-49 -35 -111 -35q-76 0 -105.5 45.5t-43.5 143.5q-12 77 -31.5 102.5t-70.5 25.5h-58v-252l71 -8v-48h-264zM282 605h-60v-250h72q62 0 85.5 27.5t23.5 96.5q0 74 -32.5 100t-88.5 26z" />
    <glyph glyph-name="rcommaaccent" unicode="&#x157;" horiz-adv-x="426" 
d="M74 -271l-13 34q83 28 83 76q0 18 -11 18q-3 0 -13.5 -6t-22.5 -6q-21 0 -32.5 13.5t-11.5 34.5q0 24 19.5 39.5t47.5 15.5q38 0 62 -23.5t24 -62.5q0 -52 -37 -86t-95 -47zM19 0v47l71 5v346l-75 -13v51l177 45l10 -5v-86q86 97 144 97q31 0 49.5 -19t18.5 -52
q0 -32 -19 -52t-51 -20q-28 0 -40 12q2 44 -24 44q-10 0 -34 -13.5t-44 -30.5v-305l81 -4v-47h-264z" />
    <glyph glyph-name="Rcaron" unicode="&#x158;" horiz-adv-x="634" 
d="M151 852h34l104 -67l103 67h34l-95 -139h-85zM29 0v48l65 6v550l-65 5v50h261q109 0 177 -43.5t68 -122.5q0 -65 -45.5 -106.5t-114.5 -57.5v-4q63 -9 94 -44t46 -102q22 -92 34 -110q13 -18 37 -18q19 0 39 11l17 -36q-49 -35 -111 -35q-76 0 -105.5 45.5t-43.5 143.5
q-12 77 -31.5 102.5t-70.5 25.5h-58v-252l71 -8v-48h-264zM282 605h-60v-250h72q62 0 85.5 27.5t23.5 96.5q0 74 -32.5 100t-88.5 26z" />
    <glyph glyph-name="rcaron" unicode="&#x159;" horiz-adv-x="426" 
d="M110 706h35l96 -83l96 83h34l-91 -159h-79zM19 0v47l71 5v346l-75 -13v51l177 45l10 -5v-86q86 97 144 97q31 0 49.5 -19t18.5 -52q0 -32 -19 -52t-51 -20q-28 0 -40 12q2 44 -24 44q-10 0 -34 -13.5t-44 -30.5v-305l81 -4v-47h-264z" />
    <glyph glyph-name="Sacute" unicode="&#x15a;" horiz-adv-x="528" 
d="M277 -18q-120 0 -178 80l-17 -50h-44v205l47 -2q17 -98 66 -139t114 -41q59 0 96 27.5t37 79.5q0 51 -38 80t-122 55q-96 32 -143.5 75.5t-47.5 124.5q0 90 57.5 141.5t143.5 51.5q103 0 152 -66l15 42h41v-170h-45q-16 67 -58 104.5t-104 37.5q-53 0 -83 -25.5
t-30 -68.5q0 -47 33.5 -69.5t124.5 -52.5q97 -33 149.5 -80t52.5 -133q0 -99 -62 -153t-157 -54zM259 713h-32l46 112q15 52 55 52q20 0 38 -15.5t18 -39.5q0 -31 -37 -53z" />
    <glyph glyph-name="sacute" unicode="&#x15b;" horiz-adv-x="403" 
d="M175 539l49 144q13 43 51 43q19 0 35 -14t16 -36q0 -26 -25 -47l-95 -90h-31zM188 -15q-75 0 -119 30t-44 71q0 24 13.5 38.5t37.5 14.5q30 0 43 -10q-8 -98 77 -98q33 0 57 17.5t24 48.5q0 33 -21.5 52t-73.5 39q-73 23 -106 56t-33 94q0 62 50 104t121 42
q67 0 106.5 -26t39.5 -66q0 -45 -50 -45q-26 0 -39 12q-2 41 -17 60t-51 19q-31 0 -51.5 -16t-20.5 -47q0 -27 21.5 -45.5t73.5 -37.5q79 -28 115 -63.5t36 -91.5q-1 -71 -51 -111.5t-138 -40.5z" />
    <glyph glyph-name="Scircumflex" unicode="&#x15c;" horiz-adv-x="528" 
d="M162 713h-34l95 139h85l95 -139h-34l-104 65zM277 -18q-120 0 -178 80l-17 -50h-44v205l47 -2q17 -98 66 -139t114 -41q59 0 96 27.5t37 79.5q0 51 -38 80t-122 55q-96 32 -143.5 75.5t-47.5 124.5q0 90 57.5 141.5t143.5 51.5q103 0 152 -66l15 42h41v-170h-45
q-16 67 -58 104.5t-104 37.5q-53 0 -83 -25.5t-30 -68.5q0 -47 33.5 -69.5t124.5 -52.5q97 -33 149.5 -80t52.5 -133q0 -99 -62 -153t-157 -54z" />
    <glyph glyph-name="scircumflex" unicode="&#x15d;" horiz-adv-x="403" 
d="M106 540h-34l91 160h78l91 -160h-33l-98 84zM188 -15q-75 0 -119 30t-44 71q0 24 13.5 38.5t37.5 14.5q30 0 43 -10q-8 -98 77 -98q33 0 57 17.5t24 48.5q0 33 -21.5 52t-73.5 39q-73 23 -106 56t-33 94q0 62 50 104t121 42q67 0 106.5 -26t39.5 -66q0 -45 -50 -45
q-26 0 -39 12q-2 41 -17 60t-51 19q-31 0 -51.5 -16t-20.5 -47q0 -27 21.5 -45.5t73.5 -37.5q79 -28 115 -63.5t36 -91.5q-1 -71 -51 -111.5t-138 -40.5z" />
    <glyph glyph-name="Scedilla" unicode="&#x15e;" horiz-adv-x="528" 
d="M238 -237q-53 0 -92 18l10 36q27 -10 59 -10q52 0 52 41q0 51 -72 37v109q-14 4 -21 7q-44 19 -75 61l-17 -50h-44v205l47 -2q17 -98 66 -139t114 -41q59 0 96 27.5t37 79.5q0 51 -38 80t-122 55q-96 32 -143.5 75.5t-47.5 124.5q0 90 57.5 141.5t143.5 51.5
q103 0 152 -66l15 42h41v-170h-45q-16 67 -58 104.5t-104 37.5q-53 0 -83 -25.5t-30 -68.5q0 -47 33.5 -69.5t124.5 -52.5q97 -33 149.5 -80t52.5 -133q0 -99 -62 -153t-157 -54q-12 0 -34 2v-52q47 4 80 -17t33 -62t-33 -65.5t-85 -24.5z" />
    <glyph glyph-name="scedilla" unicode="&#x15f;" horiz-adv-x="403" 
d="M186 -237q-53 0 -92 18l10 36q27 -10 59 -10q52 0 52 41q0 51 -72 37v103q-13 1 -25 6q-44 12 -68.5 37t-24.5 55q0 24 13.5 38.5t37.5 14.5q30 0 43 -10q-8 -98 77 -98q33 0 57 17.5t24 48.5q0 33 -21.5 52t-73.5 39q-73 23 -106 56t-33 94q0 62 50 104t121 42
q67 0 106.5 -26t39.5 -66q0 -45 -50 -45q-26 0 -39 12q-2 41 -17 60t-51 19q-31 0 -51.5 -16t-20.5 -47q0 -27 21.5 -45.5t73.5 -37.5q79 -28 115 -63.5t36 -91.5q-2 -72 -51 -112q-49 -38 -135 -40v-53q47 4 80 -17t33 -62t-33 -65.5t-85 -24.5z" />
    <glyph glyph-name="Scaron" unicode="&#x160;" horiz-adv-x="528" 
d="M128 852h34l104 -67l103 67h34l-95 -139h-85zM277 -18q-120 0 -178 80l-17 -50h-44v205l47 -2q17 -98 66 -139t114 -41q59 0 96 27.5t37 79.5q0 51 -38 80t-122 55q-96 32 -143.5 75.5t-47.5 124.5q0 90 57.5 141.5t143.5 51.5q103 0 152 -66l15 42h41v-170h-45
q-16 67 -58 104.5t-104 37.5q-53 0 -83 -25.5t-30 -68.5q0 -47 33.5 -69.5t124.5 -52.5q97 -33 149.5 -80t52.5 -133q0 -99 -62 -153t-157 -54z" />
    <glyph glyph-name="scaron" unicode="&#x161;" horiz-adv-x="403" 
d="M77 706h35l96 -83l96 83h34l-91 -159h-79zM188 -15q-75 0 -119 30t-44 71q0 24 13.5 38.5t37.5 14.5q30 0 43 -10q-8 -98 77 -98q33 0 57 17.5t24 48.5q0 33 -21.5 52t-73.5 39q-73 23 -106 56t-33 94q0 62 50 104t121 42q67 0 106.5 -26t39.5 -66q0 -45 -50 -45
q-26 0 -39 12q-2 41 -17 60t-51 19q-31 0 -51.5 -16t-20.5 -47q0 -27 21.5 -45.5t73.5 -37.5q79 -28 115 -63.5t36 -91.5q-1 -71 -51 -111.5t-138 -40.5z" />
    <glyph glyph-name="Tcommaaccent" unicode="&#x162;" horiz-adv-x="600" 
d="M253 -271l-13 34q83 28 83 76q0 18 -11 18q-3 0 -13.5 -6t-22.5 -6q-21 0 -32.5 13.5t-11.5 34.5q0 24 19.5 39.5t47.5 15.5q38 0 62 -23.5t24 -62.5q0 -52 -37 -86t-95 -47zM160 0v48l77 8v549h-56q-48 0 -66 -14.5t-26 -69.5l-13 -85h-45v223h538v-223h-44l-14 85
q-9 56 -26.5 70t-66.5 14h-54v-549l77 -8v-48h-281z" />
    <glyph glyph-name="tcommaaccent" unicode="&#x163;" horiz-adv-x="351" 
d="M124 -271l-13 34q83 28 83 76q0 18 -11 18q-3 0 -13.5 -6t-22.5 -6q-21 0 -32.5 13.5t-11.5 34.5q0 24 19.5 39.5t47.5 15.5q38 0 62 -23.5t24 -62.5q0 -52 -37 -86t-95 -47zM198 -13q-62 0 -90.5 26.5t-28.5 81.5v324l-60 -2v45q50 8 79 34.5t48 80.5l45 -1v-105h129
v-54h-129v-300q0 -34 13.5 -48.5t50.5 -14.5q27 0 75 17l10 -34q-58 -50 -142 -50z" />
    <glyph glyph-name="Tcaron" unicode="&#x164;" horiz-adv-x="600" 
d="M170 852h34l104 -67l103 67h34l-95 -139h-85zM160 0v48l77 8v549h-56q-48 0 -66 -14.5t-26 -69.5l-13 -85h-45v223h538v-223h-44l-14 85q-9 56 -26.5 70t-66.5 14h-54v-549l77 -8v-48h-281z" />
    <glyph glyph-name="tcaron" unicode="&#x165;" horiz-adv-x="351" 
d="M272 509l-23 19q29 44 29 86q0 36 -26 62q7 46 47 46q23 0 37.5 -19t14.5 -49q0 -73 -79 -145zM198 -13q-62 0 -90.5 26.5t-28.5 81.5v324l-60 -2v45q50 8 79 34.5t48 80.5l45 -1v-105h129v-54h-129v-300q0 -34 13.5 -48.5t50.5 -14.5q27 0 75 17l10 -34
q-58 -50 -142 -50z" />
    <glyph glyph-name="Tbar" unicode="&#x166;" horiz-adv-x="600" 
d="M101 318v45h396v-45h-396zM160 0v48l77 8v549h-56q-48 0 -66 -14.5t-26 -69.5l-13 -85h-45v223h538v-223h-44l-14 85q-9 56 -26.5 70t-66.5 14h-54v-549l77 -8v-48h-281z" />
    <glyph glyph-name="tbar" unicode="&#x167;" horiz-adv-x="351" 
d="M17 269v45h302v-45h-302zM198 -13q-62 0 -90.5 26.5t-28.5 81.5v324l-60 -2v45q50 8 79 34.5t48 80.5l45 -1v-105h129v-54h-129v-300q0 -34 13.5 -48.5t50.5 -14.5q27 0 75 17l10 -34q-58 -50 -142 -50z" />
    <glyph glyph-name="Utilde" unicode="&#x168;" horiz-adv-x="644" 
d="M334 -13q-124 0 -186.5 59.5t-62.5 159.5v399l-57 4v50h265v-50l-82 -5v-384q0 -85 33 -127.5t111 -42.5q76 0 109 42t33 129v374l-75 14v50h194v-50l-58 -14v-384q0 -101 -53.5 -162.5t-170.5 -61.5zM432 735q-20 0 -68 13.5t-63 13.5q-33 0 -46 -42h-41
q11 55 37.5 91.5t67.5 36.5q20 0 68 -13.5t62 -13.5q31 0 44 42h42q-11 -55 -37.5 -91.5t-65.5 -36.5z" />
    <glyph glyph-name="utilde" unicode="&#x169;" horiz-adv-x="554" 
d="M208 -16q-132 0 -132 131v305l-59 3v47h171v-341q0 -68 65 -68q51 0 105 39v318l-56 5v47h167v-409l70 2v-45l-168 -26l-10 5l3 78q-29 -35 -59 -55q-49 -36 -97 -36zM326 568q-21 0 -63 14t-56 14q-33 0 -46 -42h-41q30 125 103 125q21 0 62.5 -14.5t55.5 -14.5
q31 4 44 43h42q-29 -125 -101 -125z" />
    <glyph glyph-name="Umacron" unicode="&#x16a;" horiz-adv-x="644" 
d="M334 -13q-124 0 -186.5 59.5t-62.5 159.5v399l-57 4v50h265v-50l-82 -5v-384q0 -85 33 -127.5t111 -42.5q76 0 109 42t33 129v374l-75 14v50h194v-50l-58 -14v-384q0 -101 -53.5 -162.5t-170.5 -61.5zM229 740v61h275v-61h-275z" />
    <glyph glyph-name="umacron" unicode="&#x16b;" horiz-adv-x="554" 
d="M208 -16q-132 0 -132 131v305l-59 3v47h171v-341q0 -68 65 -68q51 0 105 39v318l-56 5v47h167v-409l70 2v-45l-168 -26l-10 5l3 78q-29 -35 -59 -55q-49 -36 -97 -36zM143 591v61h251v-61h-251z" />
    <glyph glyph-name="Ubreve" unicode="&#x16c;" horiz-adv-x="644" 
d="M334 -13q-124 0 -186.5 59.5t-62.5 159.5v399l-57 4v50h265v-50l-82 -5v-384q0 -85 33 -127.5t111 -42.5q76 0 109 42t33 129v374l-75 14v50h194v-50l-58 -14v-384q0 -101 -53.5 -162.5t-170.5 -61.5zM364 710q-60 0 -93.5 42t-37.5 100h40q13 -64 91 -64q77 0 90 64h40
q-4 -56 -37.5 -99t-92.5 -43z" />
    <glyph glyph-name="ubreve" unicode="&#x16d;" horiz-adv-x="554" 
d="M208 -16q-132 0 -132 131v305l-59 3v47h171v-341q0 -68 65 -68q51 0 105 39v318l-56 5v47h167v-409l70 2v-45l-168 -26l-10 5l3 78q-29 -35 -59 -55q-49 -36 -97 -36zM269 546q-59 0 -91.5 47.5t-36.5 116.5h39q13 -85 89 -85t89 85h39q-4 -69 -37 -116.5t-91 -47.5z" />
    <glyph glyph-name="Uring" unicode="&#x16e;" horiz-adv-x="644" 
d="M334 -13q-124 0 -186.5 59.5t-62.5 159.5v399l-57 4v50h265v-50l-82 -5v-384q0 -85 33 -127.5t111 -42.5q76 0 109 42t33 129v374l-75 14v50h194v-50l-58 -14v-384q0 -101 -53.5 -162.5t-170.5 -61.5zM368 731q23 0 37.5 16t14.5 40t-14.5 40t-37.5 16q-24 0 -38.5 -16
t-14.5 -40t14.5 -40t38.5 -16zM368 695q-39 0 -66 26.5t-27 65.5t27 65.5t66 26.5t65.5 -26.5t26.5 -65.5q0 -40 -26.5 -66t-65.5 -26z" />
    <glyph glyph-name="uring" unicode="&#x16f;" horiz-adv-x="554" 
d="M269 575q23 1 37.5 17t14.5 39q0 24 -14.5 40t-37.5 16q-24 0 -38.5 -16t-14.5 -40t14.5 -39.5t38.5 -16.5zM269 539q-39 0 -66 26.5t-27 65.5t27 65.5t66 26.5t65.5 -26.5t26.5 -65.5t-26.5 -65.5t-65.5 -26.5zM208 -16q-132 0 -132 131v305l-59 3v47h171v-341
q0 -68 65 -68q51 0 105 39v318l-56 5v47h167v-409l70 2v-45l-168 -26l-10 5l3 78q-29 -35 -59 -55q-49 -36 -97 -36z" />
    <glyph glyph-name="Uhungarumlaut" unicode="&#x170;" horiz-adv-x="644" 
d="M456 713h-30l21 118q9 46 50 46q19 0 34.5 -13t15.5 -35q0 -20 -25 -48zM301 713h-31l21 118q9 46 50 46q19 0 34.5 -13t15.5 -35q0 -20 -25 -48zM334 -13q-124 0 -186.5 59.5t-62.5 159.5v399l-57 4v50h265v-50l-82 -5v-384q0 -85 33 -127.5t111 -42.5q76 0 109 42
t33 129v374l-75 14v50h194v-50l-58 -14v-384q0 -101 -53.5 -162.5t-170.5 -61.5z" />
    <glyph glyph-name="uhungarumlaut" unicode="&#x171;" horiz-adv-x="554" 
d="M208 -16q-132 0 -132 131v305l-59 3v47h171v-341q0 -68 65 -68q51 0 105 39v318l-56 5v47h167v-409l70 2v-45l-168 -26l-10 5l3 78q-29 -35 -59 -55q-49 -36 -97 -36zM178 540l31 143q11 45 49 45q19 0 33.5 -12.5t14.5 -33.5t-23 -47l-74 -95h-31zM331 540l32 143
q10 45 49 45q17 0 31.5 -13t14.5 -33t-22 -47l-75 -95h-30z" />
    <glyph glyph-name="Uogonek" unicode="&#x172;" horiz-adv-x="644" 
d="M447 -167l23 -23q-38 -59 -107 -59q-46 0 -75.5 24t-29.5 65q0 69 127 151q-23 -4 -51 -4q-124 0 -186.5 59.5t-62.5 159.5v399l-57 4v50h265v-50l-82 -6v-383q0 -85 33 -127.5t111 -42.5q76 0 109 42t33 129v374l-75 14v50h194v-50l-58 -14v-384q0 -119 -68 -176
q-43 -36 -64.5 -56t-43.5 -55t-22 -68q0 -45 41 -45q26 0 46 22z" />
    <glyph glyph-name="uogonek" unicode="&#x173;" horiz-adv-x="554" 
d="M206 -16q-62 0 -96 33t-34 98v302l-59 3v50h172v-341q0 -68 64 -68q45 0 100 37v318l-57 4v50h170v-409l69 2v-45l-123 -19q-69 -81 -69 -143q0 -45 41 -45q23 0 45 22l23 -23q-13 -22 -40 -40.5t-67 -18.5q-46 0 -76 24t-30 65q0 62 118 154l3 79q-30 -36 -62 -57
q-45 -32 -92 -32z" />
    <glyph glyph-name="Wcircumflex" unicode="&#x174;" horiz-adv-x="896" 
d="M371 713h-34l95 139h85l95 -139h-34l-104 65zM568 -9l-113 386l-125 -386h-87l-170 614l-48 4v50h237v-50l-55 -5l117 -455h1l101 322l-40 134l-47 4v50h219v-50l-47 -4l127 -455h1l117 438l-74 21v50h190v-50l-53 -17l-164 -601h-87z" />
    <glyph glyph-name="wcircumflex" unicode="&#x175;" horiz-adv-x="731" 
d="M306 540h-34l91 160h78l91 -160h-33l-98 84zM486 -8l-113 307h-2l-126 -307h-54l-142 429l-37 3v47h214v-47l-54 -4l81 -268h2l91 220l-17 48l-45 4v47h212v-47l-53 -4l93 -268h2l82 259l-60 13v47h159v-47l-39 -8l-140 -424h-54z" />
    <glyph glyph-name="Ycircumflex" unicode="&#x176;" horiz-adv-x="594" 
d="M161 0v48l78 8v254l-177 295l-43 4v50h252v-50l-64 -5l135 -238l119 222l-67 21v50h181v-50l-55 -22l-153 -283v-249l76 -7v-48h-282zM236 713h-34l95 139h85l95 -139h-34l-104 65z" />
    <glyph glyph-name="ycircumflex" unicode="&#x177;" horiz-adv-x="511" 
d="M118 -242q-39 0 -61.5 21t-22.5 48q0 26 15.5 41t37.5 15q20 0 31 -11q-2 -22 7 -33.5t23 -11.5q19 0 38 27.5t45 96.5l9 26l-190 444l-40 3v47h231v-47l-60 -4l113 -293h1l103 281l-63 16v47h166v-47l-44 -13l-174 -467q-39 -104 -74 -145t-91 -41zM184 540h-34l91 160
h78l91 -160h-33l-98 84z" />
    <glyph glyph-name="Ydieresis" unicode="&#x178;" horiz-adv-x="594" 
d="M161 0v48l78 8v254l-177 295l-43 4v50h252v-50l-64 -5l135 -238l119 222l-67 21v50h181v-50l-55 -22l-153 -283v-249l76 -7v-48h-282zM240 717q-26 0 -44 17t-18 43t18 43t44 17t43.5 -17t17.5 -43t-17.5 -43t-43.5 -17zM440 717q-25 0 -43 17t-18 43t18 43t43 17
q26 0 44 -17t18 -43t-18 -43t-44 -17z" />
    <glyph glyph-name="Zacute" unicode="&#x179;" horiz-adv-x="584" 
d="M307 713h-32l46 112q15 52 55 52q20 0 38 -15.5t18 -39.5q0 -31 -37 -53zM69 443v216h468v-34l-346 -571h157q77 0 99.5 12.5t28.5 56.5l22 111h43v-234h-501v32l345 573h-147q-63 0 -81.5 -12t-26.5 -60l-18 -90h-43z" />
    <glyph glyph-name="zacute" unicode="&#x17a;" horiz-adv-x="459" 
d="M197 539l49 144q13 43 51 43q19 0 35 -14t16 -36q0 -26 -25 -47l-95 -90h-31zM48 329v142h367v-36l-248 -387h92q61 0 83 14.5t26 63.5l3 29h42v-155h-379v36l253 390h-71q-71 0 -93 -11t-28 -54l-5 -32h-42z" />
    <glyph glyph-name="Zdotaccent" unicode="&#x17b;" horiz-adv-x="584" 
d="M69 443v216h468v-34l-346 -571h157q77 0 99.5 12.5t28.5 56.5l22 111h43v-234h-501v32l345 573h-147q-63 0 -81.5 -12t-26.5 -60l-18 -90h-43zM313 717q-26 0 -45.5 18.5t-19.5 44.5t19.5 44.5t45.5 18.5q27 0 46 -18.5t19 -44.5t-19 -44.5t-46 -18.5z" />
    <glyph glyph-name="zdotaccent" unicode="&#x17c;" horiz-adv-x="459" 
d="M48 329v142h367v-36l-248 -387h92q61 0 83 14.5t26 63.5l3 29h42v-155h-379v36l253 390h-71q-71 0 -93 -11t-28 -54l-5 -32h-42zM234 565q-28 0 -47 18.5t-19 44.5q0 27 19 45t47 18q27 0 46.5 -18t19.5 -45q0 -26 -19.5 -44.5t-46.5 -18.5z" />
    <glyph glyph-name="florin" unicode="&#x192;" horiz-adv-x="479" 
d="M38 321v54h96l5 51q12 122 73 184.5t157 62.5q61 0 98 -27t37 -72q0 -34 -19 -53t-47 -19q-24 0 -40 12.5t-16 37.5q0 18 13 34t13 19q0 19 -34 19q-92 0 -108 -155l-11 -94h141v-54h-147l-41 -353q-11 -101 -59 -155.5t-128 -54.5q-50 0 -81.5 26.5t-31.5 66.5
q0 32 17 48.5t43 16.5q22 0 37.5 -12.5t15.5 -34.5q0 -16 -13 -30.5t-13 -17.5q0 -14 24 -14q58 0 70 107l39 407h-90z" />
    <glyph glyph-name="Aringacute" unicode="&#x1fa;" horiz-adv-x="661" 
d="M377 0v48l75 5l-57 163h-206l-50 -145l94 -23v-48h-215v48l58 17l213 603h83l217 -617l54 -3v-48h-266zM291 510l-86 -247h174l-87 247h-1zM341 955h-32l46 112q15 52 55 52q20 0 38 -15.5t18 -39.5q0 -31 -37 -53zM340 748q23 0 37.5 16t14.5 40t-14.5 40t-37.5 16
q-24 0 -38.5 -16t-14.5 -40t14.5 -40t38.5 -16zM340 712q-39 0 -66 26.5t-27 65.5t27 65.5t66 26.5t65.5 -26.5t26.5 -65.5q0 -40 -26.5 -66t-65.5 -26z" />
    <glyph glyph-name="aringacute" unicode="&#x1fb;" horiz-adv-x="499" 
d="M160 -12q-58 0 -97 32t-39 92q0 69 52 107t134 38q44 0 81 -13v117q0 75 -77 75q-30 0 -54 -11q-16 -6 -16 -15q0 -2 14.5 -15t14.5 -36q0 -21 -16 -35t-40 -14q-26 0 -42.5 17t-16.5 44q0 54 55 81.5t126 27.5q80 0 122 -27t42 -94v-265q0 -35 32 -35q24 0 44 15l18 -25
q-43 -59 -110 -59q-71 0 -91 67q-61 -69 -136 -69zM214 53q38 0 77 31v121q-36 9 -67 9q-37 0 -61.5 -20.5t-24.5 -62.5q0 -37 20.5 -57.5t55.5 -20.5zM239 567q23 1 37.5 17t14.5 39q0 24 -14.5 40t-37.5 16q-24 0 -38.5 -16t-14.5 -40t14.5 -39.5t38.5 -16.5zM239 531
q-39 0 -66 26.5t-27 65.5t27 65.5t66 26.5t65.5 -26.5t26.5 -65.5t-26.5 -65.5t-65.5 -26.5zM242 777h-32l46 112q15 52 55 52q20 0 38 -15.5t18 -39.5q0 -31 -37 -53z" />
    <glyph glyph-name="AEacute" unicode="&#x1fc;" horiz-adv-x="889" 
d="M580 713h-32l46 112q15 52 55 52q20 0 38 -15.5t18 -39.5q0 -31 -37 -53zM16 0v48l66 20l265 534l-85 7v50h553v-189h-43l-17 87q-6 31 -18.5 39.5t-49.5 8.5h-157v-255h58q41 0 44 34l9 75h41v-264h-41l-9 73q-2 21 -12 27.5t-32 6.5h-58v-248h163q56 0 70.5 8.5
t20.5 46.5l20 101h44v-210h-510v48l65 8v243h-145l-114 -231l91 -20v-48h-219zM401 590l-120 -243h122v243h-2z" />
    <glyph glyph-name="aeacute" unicode="&#x1fd;" horiz-adv-x="751" 
d="M376 539l49 144q13 43 51 43q19 0 35 -14t16 -36q0 -26 -25 -47l-95 -90h-31zM177 -11q-65 0 -108 36t-43 99q0 70 51.5 109t146.5 39h72v89q0 75 -80 75q-30 0 -54 -11q-17 -8 -17 -15q0 -2 15 -15t15 -36q0 -21 -16 -35t-40 -14q-25 0 -42 17t-17 44q0 54 55 85.5
t118 31.5q116 0 145 -74q57 73 151 73q40 0 73.5 -12t62.5 -39t44 -78t12 -121l-5 -8h-300q2 -86 36 -132.5t96 -46.5q51 0 84.5 23.5t53.5 75.5l37 -17q-49 -150 -200 -150q-125 0 -188 97q-63 -90 -158 -90zM523 438q-94 0 -106 -164h194q0 93 -20.5 128.5t-67.5 35.5z
M217 55q58 0 102 55q-21 50 -23 117h-61q-96 0 -96 -85q0 -39 21.5 -63t56.5 -24z" />
    <glyph glyph-name="Oslashacute" unicode="&#x1fe;" horiz-adv-x="689" 
d="M82 -26l-37 28l69 86q-82 95 -82 236q0 153 93 249.5t220 96.5q103 0 184 -66l64 79l37 -30l-65 -81q92 -99 92 -248q0 -153 -92.5 -248t-219.5 -95q-111 0 -198 73zM345 36q176 0 176 288q0 101 -20 169l-300 -371q44 -86 144 -86zM168 324q0 -90 15 -150l296 368
q-42 73 -134 73q-87 0 -132 -74t-45 -217zM350 713h-32l46 112q15 52 55 52q20 0 38 -15.5t18 -39.5q0 -31 -37 -53z" />
    <glyph glyph-name="oslashacute" unicode="&#x1ff;" horiz-adv-x="534" 
d="M66 -38l-35 29l58 70q-62 68 -62 173q0 113 72 183t169 70q77 0 138 -47l53 63l35 -28l-54 -65q67 -72 67 -176q0 -113 -72 -182.5t-167 -69.5q-82 0 -145 48zM268 31q119 0 119 203q0 60 -9 102l-207 -249q29 -56 97 -56zM146 234q0 -65 8 -96l207 248q-28 52 -93 52
q-62 0 -92 -54t-30 -150zM235 539l49 144q13 43 51 43q19 0 35 -14t16 -36q0 -26 -25 -47l-95 -90h-31z" />
    <glyph glyph-name="Scommaaccent" unicode="&#x218;" horiz-adv-x="528" 
d="M208 -271l-13 34q83 28 83 76q0 18 -11 18q-3 0 -13.5 -6t-22.5 -6q-21 0 -32.5 13.5t-11.5 34.5q0 24 19.5 39.5t47.5 15.5q38 0 62 -23.5t24 -62.5q0 -52 -37 -86t-95 -47zM277 -18q-120 0 -178 80l-17 -50h-44v205l47 -2q17 -98 66 -139t114 -41q59 0 96 27.5t37 79.5
q0 51 -38 80t-122 55q-96 32 -143.5 75.5t-47.5 124.5q0 90 57.5 141.5t143.5 51.5q103 0 152 -66l15 42h41v-170h-45q-16 67 -58 104.5t-104 37.5q-53 0 -83 -25.5t-30 -68.5q0 -47 33.5 -69.5t124.5 -52.5q97 -33 149.5 -80t52.5 -133q0 -99 -62 -153t-157 -54z" />
    <glyph glyph-name="scommaaccent" unicode="&#x219;" horiz-adv-x="403" 
d="M135 -271l-13 34q83 28 83 76q0 18 -11 18q-3 0 -13.5 -6t-22.5 -6q-21 0 -32.5 13.5t-11.5 34.5q0 24 19.5 39.5t47.5 15.5q38 0 62 -23.5t24 -62.5q0 -52 -37 -86t-95 -47zM188 -15q-75 0 -119 30t-44 71q0 24 13.5 38.5t37.5 14.5q30 0 43 -10q-8 -98 77 -98
q33 0 57 17.5t24 48.5q0 33 -21.5 52t-73.5 39q-73 23 -106 56t-33 94q0 62 50 104t121 42q67 0 106.5 -26t39.5 -66q0 -45 -50 -45q-26 0 -39 12q-2 41 -17 60t-51 19q-31 0 -51.5 -16t-20.5 -47q0 -27 21.5 -45.5t73.5 -37.5q79 -28 115 -63.5t36 -91.5q-1 -71 -51 -111.5
t-138 -40.5z" />
    <glyph glyph-name="uni021A" unicode="&#x21a;" horiz-adv-x="600" 
d="M253 -271l-13 34q83 28 83 76q0 18 -11 18q-3 0 -13.5 -6t-22.5 -6q-21 0 -32.5 13.5t-11.5 34.5q0 24 19.5 39.5t47.5 15.5q38 0 62 -23.5t24 -62.5q0 -52 -37 -86t-95 -47zM160 0v48l77 8v549h-56q-48 0 -66 -14.5t-26 -69.5l-13 -85h-45v223h538v-223h-44l-14 85
q-9 56 -26.5 70t-66.5 14h-54v-549l77 -8v-48h-281z" />
    <glyph glyph-name="uni021B" unicode="&#x21b;" horiz-adv-x="351" 
d="M124 -271l-13 34q83 28 83 76q0 18 -11 18q-3 0 -13.5 -6t-22.5 -6q-21 0 -32.5 13.5t-11.5 34.5q0 24 19.5 39.5t47.5 15.5q38 0 62 -23.5t24 -62.5q0 -52 -37 -86t-95 -47zM198 -13q-62 0 -90.5 26.5t-28.5 81.5v324l-60 -2v45q50 8 79 34.5t48 80.5l45 -1v-105h129
v-54h-129v-300q0 -34 13.5 -48.5t50.5 -14.5q27 0 75 17l10 -34q-58 -50 -142 -50z" />
    <glyph glyph-name="uni0237" unicode="&#x237;" horiz-adv-x="280" 
d="M3 -245q-33 0 -53.5 17.5t-20.5 43.5q0 24 12.5 38.5t33.5 14.5q41 0 72 -48q44 24 44 109v469l-75 -9v51l177 40l10 -5v-470q0 -100 -56.5 -175.5t-143.5 -75.5z" />
    <glyph glyph-name="circumflex" unicode="&#x2c6;" horiz-adv-x="481" 
d="M181 540h-34l91 160h78l91 -160h-33l-98 84z" />
    <glyph glyph-name="caron" unicode="&#x2c7;" horiz-adv-x="481" 
d="M110 706h35l96 -83l96 83h34l-91 -159h-79z" />
    <glyph glyph-name="breve" unicode="&#x2d8;" horiz-adv-x="481" 
d="M241 546q-59 0 -91.5 47.5t-36.5 116.5h39q13 -85 89 -85t89 85h39q-4 -69 -37 -116.5t-91 -47.5z" />
    <glyph glyph-name="dotaccent" unicode="&#x2d9;" horiz-adv-x="481" 
d="M241 565q-28 0 -47 18.5t-19 44.5q0 27 19 45t47 18q27 0 46.5 -18t19.5 -45q0 -26 -19.5 -44.5t-46.5 -18.5z" />
    <glyph glyph-name="ring" unicode="&#x2da;" horiz-adv-x="481" 
d="M241 575q23 1 37.5 17t14.5 39q0 24 -14.5 40t-37.5 16q-24 0 -38.5 -16t-14.5 -40t14.5 -39.5t38.5 -16.5zM241 539q-39 0 -66 26.5t-27 65.5t27 65.5t66 26.5t65.5 -26.5t26.5 -65.5t-26.5 -65.5t-65.5 -26.5z" />
    <glyph glyph-name="ogonek" unicode="&#x2db;" horiz-adv-x="481" 
d="M222 -244q-46 0 -77 26t-31 70q0 68 118 169h49q-62 -87 -62 -152q0 -52 42 -52q22 0 45 23l21 -23q-34 -61 -105 -61z" />
    <glyph glyph-name="tilde" unicode="&#x2dc;" horiz-adv-x="481" 
d="M293 568q-21 0 -63 14t-56 14q-32 0 -46 -42h-41q30 125 103 125q21 0 62.5 -14.5t55.5 -14.5q31 4 44 43h42q-29 -125 -101 -125z" />
    <glyph glyph-name="hungarumlaut" unicode="&#x2dd;" horiz-adv-x="481" 
d="M115 540l31 143q11 45 49 45q19 0 33.5 -12.5t14.5 -33.5t-23 -47l-74 -95h-31zM268 540l32 143q10 45 49 45q17 0 31.5 -13t14.5 -33t-22 -47l-75 -95h-30z" />
    <glyph glyph-name="Wgrave" unicode="&#x1e80;" horiz-adv-x="896" 
d="M514 713h-33l-87 56q-37 22 -37 53q0 25 17 40t39 15q21 0 33.5 -11.5t20.5 -40.5zM568 -9l-113 386l-125 -386h-87l-170 614l-48 4v50h237v-50l-55 -5l117 -455h1l101 322l-40 134l-47 4v50h219v-50l-47 -4l127 -455h1l117 438l-74 21v50h190v-50l-53 -17l-164 -601h-87
z" />
    <glyph glyph-name="wgrave" unicode="&#x1e81;" horiz-adv-x="731" 
d="M486 -8l-113 307h-2l-126 -307h-54l-142 429l-37 3v47h214v-47l-54 -4l81 -268h2l91 220l-17 48l-45 4v47h212v-47l-53 -4l93 -268h2l82 259l-60 13v47h159v-47l-39 -8l-140 -424h-54zM408 539l-95 90q-25 24 -25 47q0 22 16 36t34 14q39 0 52 -43l49 -144h-31z" />
    <glyph glyph-name="Wacute" unicode="&#x1e82;" horiz-adv-x="896" 
d="M468 713h-32l46 112q15 52 55 52q20 0 38 -15.5t18 -39.5q0 -31 -37 -53zM568 -9l-113 386l-125 -386h-87l-170 614l-48 4v50h237v-50l-55 -5l117 -455h1l101 322l-40 134l-47 4v50h219v-50l-47 -4l127 -455h1l117 438l-74 21v50h190v-50l-53 -17l-164 -601h-87z" />
    <glyph glyph-name="wacute" unicode="&#x1e83;" horiz-adv-x="731" 
d="M376 539l49 144q13 43 51 43q19 0 35 -14t16 -36q0 -26 -25 -47l-95 -90h-31zM486 -8l-113 307h-2l-126 -307h-54l-142 429l-37 3v47h214v-47l-54 -4l81 -268h2l91 220l-17 48l-45 4v47h212v-47l-53 -4l93 -268h2l82 259l-60 13v47h159v-47l-39 -8l-140 -424h-54z" />
    <glyph glyph-name="Wdieresis" unicode="&#x1e84;" horiz-adv-x="896" 
d="M375 717q-26 0 -44 17t-18 43t18 43t44 17t43.5 -17t17.5 -43t-17.5 -43t-43.5 -17zM575 717q-25 0 -43 17t-18 43t18 43t43 17q26 0 44 -17t18 -43t-18 -43t-44 -17zM568 -9l-113 386l-125 -386h-87l-170 614l-48 4v50h237v-50l-55 -5l117 -455h1l101 322l-40 134l-47 4
v50h219v-50l-47 -4l127 -455h1l117 438l-74 21v50h190v-50l-53 -17l-164 -601h-87z" />
    <glyph glyph-name="wdieresis" unicode="&#x1e85;" horiz-adv-x="731" 
d="M314 564q-26 0 -43 16.5t-17 42.5t17 42.5t43 16.5q25 0 43 -16.5t18 -42.5t-18 -42.5t-43 -16.5zM498 564q-25 0 -42.5 16.5t-17.5 42.5t17.5 42.5t42.5 16.5q26 0 43.5 -16.5t17.5 -42.5t-17.5 -42.5t-43.5 -16.5zM486 -8l-113 307h-2l-126 -307h-54l-142 429l-37 3v47
h214v-47l-54 -4l81 -268h2l91 220l-17 48l-45 4v47h212v-47l-53 -4l93 -268h2l82 259l-60 13v47h159v-47l-39 -8l-140 -424h-54z" />
    <glyph glyph-name="Ygrave" unicode="&#x1ef2;" horiz-adv-x="594" 
d="M161 0v48l78 8v254l-177 295l-43 4v50h252v-50l-64 -5l135 -238l119 222l-67 21v50h181v-50l-55 -22l-153 -283v-249l76 -7v-48h-282zM392 713h-33l-87 56q-37 22 -37 53q0 25 17 40t39 15q21 0 33.5 -11.5t20.5 -40.5z" />
    <glyph glyph-name="ygrave" unicode="&#x1ef3;" horiz-adv-x="511" 
d="M118 -242q-39 0 -61.5 21t-22.5 48q0 26 15.5 41t37.5 15q20 0 31 -11q-2 -22 7 -33.5t23 -11.5q19 0 38 27.5t45 96.5l9 26l-190 444l-40 3v47h231v-47l-60 -4l113 -293h1l103 281l-63 16v47h166v-47l-44 -13l-174 -467q-39 -104 -74 -145t-91 -41zM292 539l-95 90
q-25 24 -25 47q0 22 16 36t34 14q39 0 52 -43l49 -144h-31z" />
    <glyph glyph-name="uni2009" unicode="&#x2009;" horiz-adv-x="92" 
 />
    <glyph glyph-name="endash" unicode="&#x2013;" horiz-adv-x="476" 
d="M44 229v52h388v-52h-388z" />
    <glyph glyph-name="emdash" unicode="&#x2014;" horiz-adv-x="864" 
d="M44 229v52h775v-52h-775z" />
    <glyph glyph-name="quoteleft" unicode="&#x2018;" horiz-adv-x="260" 
d="M196 677l13 -34q-45 -17 -70 -43.5t-25 -57.5q0 -22 13 -22q2 0 13.5 7.5t24.5 7.5q23 0 37.5 -15.5t14.5 -41.5q0 -27 -22 -45.5t-53 -18.5q-45 0 -69.5 27t-24.5 73q0 65 41 105.5t107 57.5z" />
    <glyph glyph-name="quoteright" unicode="&#x2019;" horiz-adv-x="260" 
d="M65 413l-14 34q45 17 70.5 44t25.5 57q0 23 -14 23q-2 0 -13.5 -7.5t-25.5 -7.5q-22 0 -36.5 15.5t-14.5 40.5q0 27 22 46t53 19q45 0 69.5 -26.5t24.5 -74.5q0 -65 -41 -105.5t-106 -57.5z" />
    <glyph glyph-name="quotesinglbase" unicode="&#x201a;" horiz-adv-x="260" 
d="M65 -104l-14 34q45 17 70.5 44t25.5 58q0 22 -14 22q-2 0 -13.5 -7.5t-25.5 -7.5q-22 0 -36.5 15.5t-14.5 41.5q0 27 22 45.5t53 18.5q45 0 69.5 -27t24.5 -73q0 -64 -41 -105.5t-106 -58.5z" />
    <glyph glyph-name="quotedblleft" unicode="&#x201c;" horiz-adv-x="468" 
d="M403 677l13 -34q-45 -17 -70 -43.5t-25 -57.5q0 -22 13 -22q2 0 14 7.5t25 7.5q22 0 36.5 -15.5t14.5 -41.5q0 -27 -22 -45.5t-53 -18.5q-45 0 -69.5 27t-24.5 73q0 64 41.5 105t106.5 58zM196 677l13 -34q-45 -17 -70 -43.5t-25 -57.5q0 -22 13 -22q2 0 13.5 7.5
t24.5 7.5q23 0 37.5 -15.5t14.5 -41.5q0 -27 -22 -45.5t-53 -18.5q-45 0 -69.5 27t-24.5 73q0 65 41 105.5t107 57.5z" />
    <glyph glyph-name="quotedblright" unicode="&#x201d;" horiz-adv-x="468" 
d="M65 413l-14 34q45 17 70.5 44t25.5 57q0 23 -14 23q-2 0 -13.5 -7.5t-25.5 -7.5q-22 0 -36.5 15.5t-14.5 40.5q0 27 22 46t53 19q45 0 69.5 -26.5t24.5 -74.5q0 -65 -41 -105.5t-106 -57.5zM271 413l-13 34q45 17 70 44t25 57q0 23 -14 23q-1 0 -12.5 -7.5t-25.5 -7.5
q-23 0 -37 15.5t-14 40.5q0 27 22.5 46t52.5 19q45 0 69 -26.5t24 -74.5q0 -65 -40.5 -105.5t-106.5 -57.5z" />
    <glyph glyph-name="quotedblbase" unicode="&#x201e;" horiz-adv-x="468" 
d="M65 -104l-14 34q45 17 70.5 44t25.5 58q0 22 -14 22q-2 0 -13.5 -7.5t-25.5 -7.5q-22 0 -36.5 15.5t-14.5 41.5q0 27 22 45.5t53 18.5q45 0 69.5 -27t24.5 -73q0 -64 -41 -105.5t-106 -58.5zM271 -104l-13 34q45 17 70 44t25 58q0 22 -14 22q-1 0 -12.5 -7.5t-25.5 -7.5
q-23 0 -37 15.5t-14 41.5q0 27 22 45.5t53 18.5q45 0 69 -26.5t24 -73.5q0 -64 -41 -105.5t-106 -58.5z" />
    <glyph glyph-name="dagger" unicode="&#x2020;" horiz-adv-x="441" 
d="M274 658l-40 -137l115 36q29 11 48 -4t19 -45t-19 -44.5t-48 -5.5l-117 38q13 -69 55 -174q-42 -148 -42 -354v-161h-50v161q0 195 -42 354q30 80 54 174l-116 -38q-29 -9 -48.5 5.5t-19.5 44.5t19.5 45t48.5 4l113 -35l-39 136q-10 30 7 51.5t48 21.5t48 -22t6 -51z" />
    <glyph glyph-name="daggerdbl" unicode="&#x2021;" horiz-adv-x="441" 
d="M286 363q-12 -5 -29.5 -35t-17.5 -63q0 -31 18 -63t29 -34q-27 -44 -53 -133l116 38q29 10 48 -5t19 -45t-19 -45t-48 -4l-115 36l40 -137q11 -30 -5.5 -51.5t-48.5 -21.5q-31 0 -48 21.5t-7 51.5l39 137l-113 -36q-29 -11 -48.5 4t-19.5 45t19.5 45t48.5 5l116 -38
q-13 70 -53 133q12 3 29.5 34.5t17.5 62.5q0 33 -17 63t-30 35q32 52 53 132l-116 -38q-29 -10 -48.5 5t-19.5 45t19.5 45t48.5 4l114 -36l-40 137q-10 30 7 51.5t48 21.5q32 0 48.5 -21.5t5.5 -51.5l-40 -138l115 37q29 11 48 -4t19 -45t-19 -45t-48 -5l-116 38
q17 -72 53 -132z" />
    <glyph glyph-name="bullet" unicode="&#x2022;" horiz-adv-x="296" 
d="M148 192q-48 0 -79.5 31.5t-31.5 80.5q0 48 31.5 79t79.5 31q49 0 80 -31t31 -79q0 -49 -31 -80.5t-80 -31.5z" />
    <glyph glyph-name="ellipsis" unicode="&#x2026;" horiz-adv-x="717" 
d="M111 -16q-32 0 -52 20.5t-20 51.5t20 51t52 20q31 0 51 -20t20 -51t-20 -51.5t-51 -20.5zM358 -16q-31 0 -51 20.5t-20 51.5t20 51t51 20t51 -20t20 -51t-20 -51.5t-51 -20.5zM605 -16q-31 0 -50.5 20.5t-19.5 51.5t19.5 51t50.5 20t51 -20t20 -51t-20 -51.5t-51 -20.5z
" />
    <glyph glyph-name="perthousand" unicode="&#x2030;" horiz-adv-x="1065" 
d="M181 349q63 0 63 125q0 127 -63 127q-61 0 -61 -127q0 -125 61 -125zM181 307q-62 0 -109 47t-47 120t47 121.5t109 48.5q64 0 110 -49t46 -121q0 -73 -45.5 -120t-110.5 -47zM538 30q62 0 62 126t-62 126t-62 -126t62 -126zM538 -12q-63 0 -109.5 47.5t-46.5 120.5
q0 72 46.5 120.5t109.5 48.5q65 0 110 -48.5t45 -120.5q0 -74 -44.5 -121t-110.5 -47zM884 30q62 0 62 126t-62 126t-62 -126t62 -126zM884 -12q-62 0 -109 47.5t-47 120.5q0 72 47 120.5t109 48.5q64 0 110 -49t46 -120q0 -74 -45.5 -121t-110.5 -47zM81 -11l510 659
l35 -26l-512 -659z" />
    <glyph glyph-name="uni2032" unicode="&#x2032;" horiz-adv-x="202" 
d="M69 419h-29l14 192q3 68 58 68q23 0 39.5 -13t16.5 -38q0 -26 -16 -53z" />
    <glyph glyph-name="uni2033" unicode="&#x2033;" horiz-adv-x="367" 
d="M69 419h-29l14 192q3 68 58 68q23 0 39.5 -13t16.5 -38q0 -26 -16 -53zM235 419h-29l13 192q5 68 60 68q23 0 39 -13t16 -38q0 -27 -17 -53z" />
    <glyph glyph-name="guilsinglleft" unicode="&#x2039;" horiz-adv-x="259" 
d="M199 412l23 -23l-98 -151l98 -149l-23 -24l-169 152v44z" />
    <glyph glyph-name="guilsinglright" unicode="&#x203a;" horiz-adv-x="259" 
d="M37 389l23 23l169 -151v-44l-169 -152l-23 24l98 150z" />
    <glyph glyph-name="fraction" unicode="&#x2044;" horiz-adv-x="221" 
d="M-188 -17l547 694l34 -27l-548 -694z" />
    <glyph glyph-name="Euro" unicode="&#x20ac;" horiz-adv-x="573" 
d="M25 351v42h66q24 121 96 190.5t171 69.5q73 0 127 -41t54 -104q0 -34 -18.5 -54t-48.5 -20q-27 0 -45 15t-18 38q0 22 16 39.5t16 22.5q0 23 -21 37.5t-52 14.5q-137 0 -157 -208h177v-42h-179q-1 -13 -1 -39v-26h180v-42h-177q8 -102 44 -149.5t103 -47.5q96 0 143 111
l41 -18q-25 -76 -79 -117t-132 -41q-102 0 -168.5 70t-78.5 192h-59v42h57v5q0 31 3 60h-60z" />
    <glyph glyph-name="trademark" unicode="&#x2122;" horiz-adv-x="740" 
d="M521 336h-27l-82 250v-209l35 -7v-34h-106v34l33 8v242l-33 3v36h118l67 -203l68 203h118v-36l-32 -2v-249l32 -2v-34h-141v34l38 3v221zM95 336v34l38 4v252h-31q-18 0 -23.5 -6.5t-11.5 -28.5l-11 -44h-27v112h283v-112h-29l-10 43q-5 23 -12.5 29.5t-28.5 6.5h-24
v-252l38 -4v-34h-151z" />
    <glyph glyph-name="onethird" unicode="&#x2153;" horiz-adv-x="725" 
d="M547 -10q-61 0 -93 24t-32 60q0 23 14.5 37t33.5 14t29.5 -10.5t10.5 -25.5q0 -13 -10.5 -22.5t-10.5 -12.5q0 -10 11.5 -17.5t32.5 -7.5q70 0 70 73q0 62 -74 62h-29v35h28q65 0 65 70q0 50 -51 50q-15 0 -25.5 -5.5t-10.5 -11.5q0 -2 7.5 -11t7.5 -20
q0 -14 -10.5 -23.5t-27.5 -9.5q-20 0 -31 12.5t-11 31.5q0 37 35 56.5t84 19.5q58 0 91 -23.5t33 -62.5q0 -30 -22.5 -53t-59.5 -31v-3q48 -6 73 -28.5t25 -58.5q0 -49 -41 -78.5t-112 -29.5zM54 -17l547 694l34 -27l-548 -694zM19 555v46l108 64h48v-312l56 -4v-42h-207v42
l59 4v228z" />
    <glyph glyph-name="twothirds" unicode="&#x2154;" horiz-adv-x="766" 
d="M588 -10q-61 0 -93 24t-32 60q0 23 14.5 37t33.5 14t29.5 -10.5t10.5 -25.5q0 -13 -10.5 -22.5t-10.5 -12.5q0 -10 11.5 -17.5t32.5 -7.5q70 0 70 73q0 62 -74 62h-29v35h28q65 0 65 70q0 50 -51 50q-15 0 -25.5 -5.5t-10.5 -11.5q0 -2 7.5 -11t7.5 -20
q0 -14 -10.5 -23.5t-27.5 -9.5q-20 0 -31 12.5t-11 31.5q0 37 35 56.5t84 19.5q58 0 91 -23.5t33 -62.5q0 -30 -22.5 -53t-59.5 -31v-3q48 -6 73 -28.5t25 -58.5q0 -49 -41 -78.5t-112 -29.5zM94 -17l547 694l34 -27l-548 -694zM26 307l-3 51q99 79 125 109q44 49 44 96
q0 63 -53 63q-42 0 -42 -26q0 -6 10 -18t10 -23q0 -15 -11.5 -26t-29.5 -11q-50 0 -50 52q0 40 37 65.5t90 25.5q67 0 100 -30.5t33 -73.5q0 -28 -15 -53.5t-46 -50t-59 -42.5t-72 -42h105q27 0 37 5.5t15 22.5l5 16h34l-12 -110h-252z" />
    <glyph glyph-name="oneeighth" unicode="&#x215b;" horiz-adv-x="743" 
d="M572 -10q-62 0 -104 28.5t-42 75.5q0 35 22.5 57.5t59.5 31.5q-29 9 -46.5 29.5t-17.5 49.5q0 42 35.5 69t92.5 27t92.5 -27t35.5 -69q0 -60 -63 -79q81 -19 81 -89q0 -47 -41.5 -75.5t-104.5 -28.5zM572 30q57 0 57 68q0 67 -57 67t-57 -67q0 -68 57 -68zM572 197
q46 0 46 63q0 28 -12.5 43.5t-33.5 15.5t-33.5 -15.5t-12.5 -43.5q0 -63 46 -63zM55 -17l547 694l34 -27l-548 -694zM19 555v46l108 64h48v-312l56 -4v-42h-207v42l59 4v228z" />
    <glyph glyph-name="threeeighths" unicode="&#x215c;" horiz-adv-x="768" 
d="M598 -10q-62 0 -104 28.5t-42 75.5q0 35 22.5 57.5t59.5 31.5q-29 9 -46.5 29.5t-17.5 49.5q0 42 35.5 69t92.5 27t92.5 -27t35.5 -69q0 -60 -63 -79q81 -19 81 -89q0 -47 -41.5 -75.5t-104.5 -28.5zM598 30q57 0 57 68q0 67 -57 67t-57 -67q0 -68 57 -68zM598 197
q46 0 46 63q0 28 -12.5 43.5t-33.5 15.5t-33.5 -15.5t-12.5 -43.5q0 -63 46 -63zM79 -17l547 694l34 -27l-548 -694zM139 297q-61 0 -93 24t-32 60q0 23 14.5 37t33.5 14t29.5 -10.5t10.5 -25.5q0 -13 -10.5 -22.5t-10.5 -12.5q0 -10 11.5 -17.5t32.5 -7.5q70 0 70 73
q0 62 -74 62h-29v35h28q65 0 65 70q0 50 -51 50q-15 0 -25.5 -5.5t-10.5 -11.5q0 -2 7.5 -11t7.5 -20q0 -14 -10.5 -23.5t-27.5 -9.5q-20 0 -31 12.5t-11 31.5q0 37 35 56.5t84 19.5q58 0 91 -23.5t33 -62.5q0 -30 -22.5 -53t-59.5 -31v-3q48 -6 73 -28.5t25 -58.5
q0 -49 -41 -78.5t-112 -29.5z" />
    <glyph glyph-name="fiveeighths" unicode="&#x215d;" horiz-adv-x="749" 
d="M578 -10q-62 0 -104 28.5t-42 75.5q0 35 22.5 57.5t59.5 31.5q-29 9 -46.5 29.5t-17.5 49.5q0 42 35.5 69t92.5 27t92.5 -27t35.5 -69q0 -60 -63 -79q81 -19 81 -89q0 -47 -41.5 -75.5t-104.5 -28.5zM578 30q57 0 57 68q0 67 -57 67t-57 -67q0 -68 57 -68zM578 197
q46 0 46 63q0 28 -12.5 43.5t-33.5 15.5t-33.5 -15.5t-12.5 -43.5q0 -63 46 -63zM61 -17l547 694l34 -27l-548 -694zM131 297q-53 0 -84.5 22.5t-31.5 56.5q0 22 12.5 34.5t32.5 12.5q38 0 38 -33q0 -12 -9.5 -21t-9.5 -13q0 -8 12 -14t27 -6q68 0 68 86q0 65 -61 65
q-36 0 -57 -19l-23 13v178h170l11 32h33l-12 -98h-158v-80q26 17 72 17q53 0 86.5 -28t33.5 -81q0 -60 -43 -92t-107 -32z" />
    <glyph glyph-name="seveneighths" unicode="&#x215e;" horiz-adv-x="726" 
d="M555 -10q-62 0 -104 28.5t-42 75.5q0 35 22.5 57.5t59.5 31.5q-29 9 -46.5 29.5t-17.5 49.5q0 42 35.5 69t92.5 27t92.5 -27t35.5 -69q0 -60 -63 -79q81 -19 81 -89q0 -47 -41.5 -75.5t-104.5 -28.5zM555 30q57 0 57 68q0 67 -57 67t-57 -67q0 -68 57 -68zM555 197
q46 0 46 63q0 28 -12.5 43.5t-33.5 15.5t-33.5 -15.5t-12.5 -43.5q0 -63 46 -63zM29 -17l547 694l34 -27l-548 -694zM90 307l130 283h-85q-36 0 -48.5 -6t-20.5 -29l-10 -29h-39l23 133h247v-38l-139 -314h-58z" />
    <glyph glyph-name="minus" unicode="&#x2212;" horiz-adv-x="461" 
d="M38 262v56h385v-56h-385z" />
    <glyph glyph-name="approxequal" unicode="&#x2248;" horiz-adv-x="470" 
d="M149 208q-23 0 -34.5 -9t-19.5 -33h-57q12 100 106 100q40 0 98.5 -16t82.5 -16q23 0 34.5 9.5t16.5 33.5h57q-9 -101 -98 -101q-36 0 -98.5 16t-87.5 16zM149 360q-23 0 -34.5 -9t-19.5 -33h-57q12 100 106 100q40 0 98.5 -15t82.5 -15q23 0 34.5 9.5t16.5 32.5h57
q-9 -100 -98 -100q-36 0 -98.5 15t-87.5 15z" />
    <glyph glyph-name="notequal" unicode="&#x2260;" horiz-adv-x="461" 
d="M38 324v56h221l66 113h60l-66 -113h104v-56h-137l-52 -90h189v-55h-221l-70 -120h-60l70 120h-104v55h136l52 90h-188z" />
    <glyph glyph-name="lessequal" unicode="&#x2264;" horiz-adv-x="430" 
d="M391 104l-352 155v49l352 157v-63l-275 -118l275 -117v-63zM39 0v56h352v-56h-352z" />
    <glyph glyph-name="greaterequal" unicode="&#x2265;" horiz-adv-x="430" 
d="M39 104v63l274 117l-274 118v63l352 -157v-49zM391 0h-352v56h352v-56z" />
    <glyph glyph-name="uni24C5" unicode="&#x24c5;" horiz-adv-x="737" 
d="M368 -19q-87 0 -163.5 40.5t-125 120.5t-48.5 182q0 152 101 249t236 97q87 0 164 -41.5t125.5 -122t48.5 -182.5q0 -153 -101 -248t-237 -95zM368 25q117 0 202 82t85 217q0 134 -85 218t-202 84t-201.5 -84t-84.5 -218q0 -135 84 -217t202 -82zM228 138v42l35 3v284
l-35 2v42h170q69 0 105.5 -28.5t36.5 -80.5q0 -55 -38 -83.5t-100 -28.5q-20 0 -44 2v-109l44 -3v-42h-174zM385 468h-27v-136q7 -1 26 -1q35 0 48.5 14.5t13.5 51.5q0 38 -14.5 54.5t-46.5 16.5z" />
    <glyph glyph-name="zero.tab" unicode="&#xe44f;" 
d="M316 34q140 0 140 252t-140 252t-140 -252t140 -252zM316 -19q-110 0 -189 84.5t-79 220.5q0 134 79.5 219.5t188.5 85.5t188.5 -85.5t79.5 -219.5q0 -136 -79 -220.5t-189 -84.5z" />
    <glyph glyph-name="one.tab" unicode="&#xe450;" 
d="M112 430v55l223 104h48v-533l136 -8v-48h-396v48l139 8v426z" />
    <glyph glyph-name="two.tab" unicode="&#xe451;" 
d="M97 0l-5 72q32 24 87.5 61.5t87.5 61.5t67.5 58.5t52 74t16.5 86.5q0 126 -111 126q-41 0 -68 -18t-27 -42q0 -11 18 -29.5t18 -40.5q0 -21 -18.5 -36.5t-45.5 -15.5q-32 0 -50.5 20t-18.5 58q0 67 61 111.5t157 44.5q103 0 159.5 -51t56.5 -127q0 -24 -6 -47
t-20.5 -44.5t-28 -39t-39.5 -37.5t-42.5 -33t-49.5 -33t-49 -29t-52.5 -29t-48.5 -27h222q38 0 52 7.5t22 27.5l16 51h41l-26 -181h-428z" />
    <glyph glyph-name="three.tab" unicode="&#xe452;" 
d="M290 -88q-96 0 -152 39t-56 99q0 37 19 55.5t48 18.5q27 0 43 -14.5t16 -37.5q0 -24 -18.5 -40.5t-18.5 -20.5q0 -19 28 -33.5t73 -14.5q141 0 141 148q0 70 -36 100.5t-105 30.5h-70v51h68q56 0 89 36.5t33 102.5q0 108 -107 108q-34 0 -56.5 -10t-22.5 -22
q0 -4 15.5 -19t15.5 -36t-17 -36t-41 -15q-29 0 -46.5 18t-17.5 49q0 56 56 89.5t136 33.5q98 0 152.5 -43.5t54.5 -110.5q0 -58 -42 -101.5t-105 -58.5v-5q89 -11 133.5 -54.5t44.5 -111.5q0 -87 -71.5 -141t-183.5 -54z" />
    <glyph glyph-name="four.tab" unicode="&#xe453;" 
d="M465 -84h-117v201h-298v28l281 459l72 1l-271 -435h216v246l117 13v-259h114v-53h-114v-201z" />
    <glyph glyph-name="five.tab" unicode="&#xe454;" 
d="M270 -88q-87 0 -145.5 36t-58.5 97q0 34 19.5 53t49.5 19q22 0 39.5 -14.5t17.5 -37.5t-18.5 -40.5t-18.5 -21.5q0 -16 31 -28t71 -12q67 0 103 39.5t36 116.5q0 78 -38 112.5t-95 34.5q-63 0 -108 -32l-29 13v331h309l16 56h40l-19 -158h-288v-177q55 30 134 30
q89 0 148.5 -45.5t59.5 -144.5q0 -109 -73 -168t-183 -59z" />
    <glyph glyph-name="six.tab" unicode="&#xe455;" 
d="M329 -18q-120 0 -190 74t-70 212q0 196 124.5 311.5t324.5 115.5v-53q-147 -11 -224.5 -82.5t-93.5 -209.5q77 60 176 60q87 0 145.5 -49t58.5 -148q0 -102 -67.5 -166.5t-183.5 -64.5zM325 350q-69 0 -129 -48v-33q0 -128 34 -181.5t96 -53.5q64 0 96.5 47t32.5 121
q0 148 -130 148z" />
    <glyph glyph-name="seven.tab" unicode="&#xe456;" 
d="M310 -99q-44 0 -68.5 24t-24.5 63q0 47 46 121l215 365h-221q-59 0 -75.5 -9t-28.5 -45l-18 -57h-43l30 215h452v-40l-259 -449q-25 -38 -26 -67q-2 -31 29 -31q18 0 39 19q34 -9 34 -46q0 -29 -23 -46t-58 -17z" />
    <glyph glyph-name="eight.tab" unicode="&#xe457;" 
d="M316 -18q-112 0 -181 51.5t-69 142.5q0 68 42 111t109 58q-121 40 -121 154q0 79 61 128.5t159 49.5t158.5 -50t60.5 -128q0 -110 -118 -154q67 -15 108 -58t41 -111q0 -90 -69.5 -142t-180.5 -52zM316 35q126 0 126 142q0 139 -126 139q-67 0 -96.5 -35.5t-29.5 -103.5
q0 -142 126 -142zM316 365q104 0 104 134q0 60 -28 94t-76 34t-76.5 -34t-28.5 -94q0 -66 27 -100t78 -34z" />
    <glyph glyph-name="nine.tab" unicode="&#xe458;" 
d="M304 591q120 0 189.5 -75t69.5 -216q0 -198 -124.5 -307.5t-350.5 -109.5v54q170 12 249.5 78t95.5 204q-76 -59 -177 -59q-87 0 -145.5 49t-58.5 149q0 102 68.5 167.5t183.5 65.5zM308 219q67 0 128 49q1 11 1 31q0 130 -34 184.5t-97 54.5q-64 0 -96.5 -47t-32.5 -123
q0 -149 131 -149z" />
    <glyph glyph-name="cent.tab" unicode="&#xe459;" 
d="M326 -113v96q-96 6 -151.5 70t-55.5 167q0 107 59 177.5t148 85.5v83h46v-79q67 -2 109 -31t42 -77q0 -26 -15.5 -39.5t-42.5 -13.5q-41 0 -46 39q-1 5 -2 16.5t-2 17t-4 14.5t-7.5 13t-12.5 7.5t-19 4.5v-388q90 4 125 104l37 -12q-38 -143 -162 -158v-97h-46zM236 238
q0 -157 90 -183v376q-90 -32 -90 -193z" />
    <glyph glyph-name="dollar.tab" unicode="&#xe45a;" 
d="M289 -110v99q-92 4 -142.5 43.5t-50.5 97.5q0 36 18.5 55.5t46.5 19.5q26 0 41.5 -14t15.5 -36q0 -20 -17 -38t-17 -20q0 -53 105 -58v233q-94 32 -137 74t-43 117q0 84 53.5 133.5t133.5 55.5v57h45v-57q72 -4 123 -37t51 -86q0 -32 -16.5 -51t-42.5 -19
q-25 0 -41.5 14.5t-16.5 35.5q0 19 13 33t13 19q0 17 -23.5 28.5t-59.5 13.5v-214q49 -17 78 -31.5t58.5 -37.5t42.5 -55t13 -75q0 -91 -57.5 -142.5t-141.5 -58.5v-99h-45zM441 144q0 41 -26 66t-81 47v-217q50 6 78.5 32t28.5 72zM197 504q0 -37 21.5 -57.5t77.5 -41.5
v197q-99 -12 -99 -98z" />
    <glyph glyph-name="Euro.tab" unicode="&#xe45b;" 
d="M64 351v42h66q24 121 96 190.5t171 69.5q73 0 127 -41t54 -104q0 -34 -18.5 -54t-48.5 -20q-27 0 -45 15t-18 38q0 22 16 39.5t16 22.5q0 23 -21 37.5t-52 14.5q-137 0 -157 -208h177v-42h-179q-1 -13 -1 -39v-26h180v-42h-177q8 -102 44 -149.5t103 -47.5q96 0 143 111
l41 -18q-25 -76 -79 -117t-132 -41q-102 0 -168.5 70t-78.5 192h-59v42h57v5q0 31 3 60h-60z" />
    <glyph glyph-name="s.alt" unicode="&#xe4d2;" horiz-adv-x="413" 
d="M210 -15q-83 0 -123 51l-14 -34h-44v150h54q23 -119 118 -119q79 0 79 63q0 33 -22.5 52.5t-79.5 41.5q-70 26 -103.5 61t-33.5 94q0 61 43 101.5t110 40.5q72 0 105 -45l10 34h43v-132h-49q-18 46 -42 70.5t-63 24.5q-30 0 -47 -15.5t-17 -44.5q0 -27 22.5 -46t78.5 -39
q74 -26 110.5 -61.5t36.5 -97.5q0 -68 -44 -109t-128 -41z" />
    <glyph glyph-name="at.sc" unicode="&#xf60b;" horiz-adv-x="730" 
d="M322 172q33 0 64 35l52 159q-14 24 -40 24q-45 0 -77.5 -57.5t-32.5 -109.5q0 -51 34 -51zM347 -49q-141 0 -229 72.5t-88 209.5q0 155 108.5 257t270.5 102q132 0 211.5 -66t79.5 -183q0 -109 -66 -170.5t-157 -61.5q-85 0 -91 60h-2q-18 -25 -48 -43t-59 -18
q-36 0 -59.5 24.5t-23.5 77.5q0 84 59.5 154t135.5 70q47 0 70 -32l9 20h83l-75 -227q-10 -39 27 -39q49 0 93.5 49t44.5 134q0 100 -63.5 152t-173.5 52q-138 0 -222.5 -87t-84.5 -219q0 -121 70 -182t186 -61t210 64l25 -34q-98 -75 -241 -75z" />
    <glyph glyph-name="braceleft.sc" unicode="&#xf60c;" horiz-adv-x="333" 
d="M296 -10h-57q-80 0 -118 28.5t-25 85.5l18 91q8 32 -13 44t-84 16v48q64 4 84 15.5t13 43.5l-18 90q-14 56 24 84.5t119 28.5h58v-47l-39 -2q-46 -2 -60 -13t-12 -48l6 -83q4 -45 -16 -64t-74 -28v-3q55 -9 74.5 -26.5t15.5 -64.5l-6 -85q-2 -38 11.5 -49t60.5 -13l38 -1
v-48z" />
    <glyph glyph-name="braceright.sc" unicode="&#xf60d;" horiz-adv-x="333" 
d="M95 -10h-58v48l39 1q46 2 59.5 13t11.5 49l-6 85q-4 46 16.5 64t74.5 27v3q-54 9 -74.5 28t-16.5 64l6 83q3 36 -11.5 47.5t-59.5 13.5l-39 2v47h58q80 0 118 -28.5t24 -84.5l-17 -90q-7 -32 13 -43.5t83 -15.5v-48q-63 -4 -83.5 -16t-12.5 -44l17 -91q14 -56 -24 -85
t-118 -29z" />
    <glyph glyph-name="bracketleft.sc" unicode="&#xf60e;" horiz-adv-x="322" 
d="M75 0v556h205v-43l-116 -3v-462l116 -4v-44h-205z" />
    <glyph glyph-name="bracketright.sc" unicode="&#xf60f;" horiz-adv-x="323" 
d="M257 0h-205v44l116 4v462l-116 3v43h205v-556z" />
    <glyph glyph-name="plus.sc" unicode="&#xf615;" horiz-adv-x="421" 
d="M42 219v51h143v144h52v-144h142v-52h-142v-142h-52v142z" />
    <glyph glyph-name="minus.sc" unicode="&#xf616;" horiz-adv-x="421" 
d="M42 219v51h337v-52z" />
    <glyph glyph-name="equal.sc" unicode="&#xf617;" horiz-adv-x="421" 
d="M42 273v51h337v-51h-337zM42 147v51h337v-51h-337z" />
    <glyph glyph-name="parenleft.sc" unicode="&#xf618;" horiz-adv-x="329" 
d="M287 9l-41 -24q-185 105 -185 294q0 56 15.5 103t43.5 82.5t57.5 60.5t68.5 48l41 -25q-67 -53 -101.5 -113t-34.5 -156q0 -176 136 -270z" />
    <glyph glyph-name="parenright.sc" unicode="&#xf619;" horiz-adv-x="330" 
d="M86 -15l-41 24q136 94 136 270q0 96 -34.5 156t-101.5 113l41 25q39 -24 69 -48.5t58.5 -59.5t43.5 -82.5t15 -103.5q0 -188 -186 -294z" />
    <glyph glyph-name="quotedblleft.sc" unicode="&#xf61c;" horiz-adv-x="468" 
d="M404 568l13 -34q-45 -17 -70 -43.5t-25 -57.5q0 -22 13 -22q2 0 14 7.5t25 7.5q22 0 36.5 -15.5t14.5 -41.5q0 -27 -22 -45.5t-53 -18.5q-45 0 -69.5 27t-24.5 73q0 64 41.5 105t106.5 58zM197 568l13 -34q-45 -17 -70 -43.5t-25 -57.5q0 -22 13 -22q2 0 13.5 7.5
t24.5 7.5q23 0 37.5 -15.5t14.5 -41.5q0 -27 -22 -45.5t-53 -18.5q-45 0 -69.5 27t-24.5 73q0 65 41 105.5t107 57.5z" />
    <glyph glyph-name="quotedblright.sc" unicode="&#xf61d;" horiz-adv-x="467" 
d="M65 304l-14 34q45 17 70.5 44t25.5 57q0 23 -14 23q-2 0 -13.5 -7.5t-25.5 -7.5q-22 0 -36.5 15.5t-14.5 40.5q0 27 22 46t53 19q45 0 69.5 -26.5t24.5 -74.5q0 -65 -41 -105.5t-106 -57.5zM271 304l-13 34q45 17 70 44t25 57q0 23 -14 23q-1 0 -12.5 -7.5t-25.5 -7.5
q-23 0 -37 15.5t-14 40.5q0 27 22.5 46t52.5 19q45 0 69 -26.5t24 -74.5q0 -65 -40.5 -105.5t-106.5 -57.5z" />
    <glyph glyph-name="quoteleft.sc" unicode="&#xf61f;" horiz-adv-x="261" 
d="M197 568l13 -34q-45 -17 -70 -43.5t-25 -57.5q0 -22 13 -22q2 0 13.5 7.5t24.5 7.5q23 0 37.5 -15.5t14.5 -41.5q0 -27 -22 -45.5t-53 -18.5q-45 0 -69.5 27t-24.5 73q0 65 41 105.5t107 57.5z" />
    <glyph glyph-name="quoteright.sc" unicode="&#xf620;" horiz-adv-x="260" 
d="M65 304l-14 34q45 17 70.5 44t25.5 57q0 23 -14 23q-2 0 -13.5 -7.5t-25.5 -7.5q-22 0 -36.5 15.5t-14.5 40.5q0 27 22 46t53 19q45 0 69.5 -26.5t24.5 -74.5q0 -65 -41 -105.5t-106 -57.5z" />
    <glyph glyph-name="AEacute.sc" unicode="&#xf624;" horiz-adv-x="801" 
d="M490 614l49 144q13 43 51 43q19 0 35 -14t16 -36q0 -26 -25 -47l-95 -90h-31zM27 0v48l57 20l223 426l-70 5v50h489v-166h-38l-17 71q-6 27 -17 35t-44 8h-131v-203h49q34 0 38 27l8 58h35v-219h-36l-8 57q-2 19 -10 24.5t-28 5.5h-48v-194h139q49 0 60.5 6.5t17.5 39.5
l17 86h41v-185h-449v48l57 6v189h-131l-92 -176l78 -19v-48h-190zM359 488l-104 -199h107v199h-3z" />
    <glyph glyph-name="Oslashacute.sc" unicode="&#xf627;" horiz-adv-x="628" 
d="M271 614l49 144q13 43 51 43q19 0 35 -14t16 -36q0 -26 -25 -47l-95 -90h-31zM83 -18l-33 28l57 66q-67 78 -67 193q0 127 82 208t192 81q92 0 165 -56l54 63l33 -29l-55 -63q78 -85 78 -204q0 -129 -82 -208t-193 -79q-101 0 -176 63zM314 35q149 0 149 234
q0 73 -17 129l-252 -289q38 -74 120 -74zM165 269q0 -67 12 -113l250 287q-38 62 -113 62q-149 0 -149 -236z" />
    <glyph glyph-name="Ccircumflex.sc" unicode="&#xf628;" horiz-adv-x="575" 
d="M226 615h-34l91 160h78l91 -160h-33l-98 84zM307 -18q-122 0 -194.5 78t-72.5 208q0 129 80.5 209.5t192.5 80.5q102 0 159 -74l14 58h37v-178h-42q-39 141 -157 141q-71 0 -115 -59.5t-44 -171.5q0 -230 170 -230q109 0 160 109l39 -17q-29 -74 -87.5 -114t-139.5 -40z
" />
    <glyph glyph-name="Cdotaccent.sc" unicode="&#xf629;" horiz-adv-x="575" 
d="M307 -18q-122 0 -194.5 78t-72.5 208q0 129 80.5 209.5t192.5 80.5q102 0 159 -74l14 58h37v-178h-42q-39 141 -157 141q-71 0 -115 -59.5t-44 -171.5q0 -230 170 -230q109 0 160 109l39 -17q-29 -74 -87.5 -114t-139.5 -40zM327 622q-28 0 -47 18.5t-19 44.5q0 27 19 45
t47 18q27 0 46.5 -18t19.5 -45q0 -26 -19.5 -44.5t-46.5 -18.5z" />
    <glyph glyph-name="Ebreve.sc" unicode="&#xf62a;" horiz-adv-x="552" 
d="M438 383l-16 71q-6 27 -17.5 35t-44.5 8h-149v-193h67q34 0 38 28l8 57h35v-217h-35l-8 55q-3 19 -11.5 25t-27.5 6h-66v-205h157q48 0 60.5 7t18.5 39l16 86h41v-185h-466v48l56 6v440l-56 5v50h438v-166h-38zM287 621q-59 0 -91.5 47.5t-36.5 116.5h39q13 -85 89 -85
t89 85h39q-4 -69 -37 -116.5t-91 -47.5z" />
    <glyph glyph-name="Eng.sc" unicode="&#xf62b;" horiz-adv-x="595" 
d="M39 0v48l54 7v439l-54 5v50h180l238 -346v285l-65 11v50h167v-50l-47 -11v-529q0 -97 -41 -147t-114 -50q-47 0 -75 25.5t-28 66.5q0 32 17 53t45 21q23 0 37.5 -14.5t14.5 -37.5q0 -20 -14 -35t-14 -18q0 -14 23 -14q42 0 68 32.5t26 100.5v64l-308 448v-395l82 -11v-48
h-192z" />
    <glyph glyph-name="Gcircumflex.sc" unicode="&#xf62c;" horiz-adv-x="619" 
d="M226 615h-34l91 160h78l91 -160h-33l-98 84zM320 -18q-127 0 -203.5 77.5t-76.5 207.5q0 128 83 209.5t194 81.5q103 0 158 -67l12 50h37v-169h-42q-19 68 -54 100.5t-96 32.5q-72 0 -119.5 -60.5t-47.5 -177.5q0 -120 39 -176.5t124 -56.5q66 0 96 39q13 17 13 64v39
l-66 6v50h224v-50l-49 -4v-97q-86 -99 -226 -99z" />
    <glyph glyph-name="Gdotaccent.sc" unicode="&#xf62d;" horiz-adv-x="619" 
d="M320 -18q-127 0 -203.5 77.5t-76.5 207.5q0 128 83 209.5t194 81.5q103 0 158 -67l12 50h37v-169h-42q-19 68 -54 100.5t-96 32.5q-72 0 -119.5 -60.5t-47.5 -177.5q0 -120 39 -176.5t124 -56.5q66 0 96 39q13 17 13 64v39l-66 6v50h224v-50l-49 -4v-97q-86 -99 -226 -99
zM327 622q-28 0 -47 18.5t-19 44.5q0 27 19 45t47 18q27 0 46.5 -18t19.5 -45q0 -26 -19.5 -44.5t-46.5 -18.5z" />
    <glyph glyph-name="Hbar.sc" unicode="&#xf62e;" horiz-adv-x="628" 
d="M25 385v40h69v70l-56 4v50h233v-50l-60 -4v-70h205v69l-59 5v50h232v-50l-56 -4v-70h67v-40h-67v-333l56 -4v-48h-232v48l59 5v207h-205v-207l60 -5v-48h-233v48l56 6v331h-69zM211 385v-79h205v79h-205z" />
    <glyph glyph-name="Hcircumflex.sc" unicode="&#xf62f;" horiz-adv-x="628" 
d="M223 615h-34l91 160h78l91 -160h-33l-98 84zM357 0v48l59 5v207h-205v-207l60 -5v-48h-233v48l56 6v441l-56 4v50h233v-50l-60 -4v-189h205v188l-59 5v50h232v-50l-56 -4v-443l56 -4v-48h-232z" />
    <glyph glyph-name="Ibreve.sc" unicode="&#xf630;" horiz-adv-x="306" 
d="M38 0v48l56 6v439l-56 6v50h229v-50l-56 -5v-440l56 -6v-48h-229zM147 621q-59 0 -91.5 47.5t-36.5 116.5h39q13 -85 89 -85t89 85h39q-4 -69 -37 -116.5t-91 -47.5z" />
    <glyph glyph-name="IJ.sc" unicode="&#xf631;" horiz-adv-x="686" 
d="M419 -14q-58 0 -88 26.5t-30 66.5q0 30 17.5 50.5t44.5 20.5q24 0 38.5 -13.5t14.5 -36.5q0 -20 -14 -35t-14 -18q0 -15 26 -15q61 0 61 85v376l-63 6v50h238v-50l-58 -6v-307q0 -98 -48 -149t-125 -51zM38 0v48l56 6v439l-56 6v50h229v-50l-56 -5v-440l56 -6v-48h-229z
" />
    <glyph glyph-name="Itilde.sc" unicode="&#xf632;" horiz-adv-x="306" 
d="M38 0v48l56 6v439l-56 6v50h229v-50l-56 -5v-440l56 -6v-48h-229zM205 625q-21 0 -63 14t-56 14q-32 0 -46 -42h-41q30 125 103 125q21 0 62.5 -14.5t55.5 -14.5q31 4 44 43h42q-29 -125 -101 -125z" />
    <glyph glyph-name="Jcircumflex.sc" unicode="&#xf633;" horiz-adv-x="416" 
d="M161 615h-34l91 160h78l91 -160h-33l-98 84zM149 -51q-58 0 -88.5 27t-30.5 68q0 31 17.5 51t44.5 20q24 0 39 -14t15 -37q0 -20 -14 -35t-14 -18q0 -15 25 -15q62 0 62 85v412l-64 6v50h238v-50l-57 -5v-345q0 -98 -48 -149t-125 -51z" />
    <glyph glyph-name="Ldot.sc" unicode="&#xf634;" horiz-adv-x="524" 
d="M38 0v48l56 5v442l-56 4v50h243v-50l-70 -5v-441h135q42 0 57 13.5t27 63.5l12 46h39v-176h-443zM430 222q-32 0 -51.5 20t-19.5 51t19.5 50.5t51.5 19.5q30 0 50 -19.5t20 -50.5t-20 -51t-50 -20z" />
    <glyph glyph-name="Obreve.sc" unicode="&#xf635;" horiz-adv-x="628" 
d="M314 36q149 0 149 233q0 236 -149 236t-149 -236q0 -233 149 -233zM314 -18q-111 0 -192.5 78.5t-81.5 208.5q0 127 82 208t192 81q112 0 193.5 -80.5t81.5 -208.5q0 -129 -82 -208t-193 -79zM325 621q-59 0 -91.5 47.5t-36.5 116.5h39q13 -85 89 -85t89 85h39
q-4 -69 -37 -116.5t-91 -47.5z" />
    <glyph glyph-name="Scircumflex.sc" unicode="&#xf636;" horiz-adv-x="485" 
d="M145 615h-34l91 160h78l91 -160h-33l-98 84zM249 -17q-101 0 -150 70l-15 -43h-39v172l43 -2q25 -146 158 -146q48 0 75.5 19.5t27.5 57.5q0 41 -30.5 65.5t-101.5 46.5q-82 26 -123.5 65t-41.5 105q0 77 52 121t125 44q89 0 131 -59l14 40h37v-146h-42q-28 115 -138 115
q-44 0 -68 -19.5t-24 -53.5t29 -53.5t103 -42.5q82 -25 128 -66t46 -114q0 -81 -55.5 -128.5t-140.5 -47.5z" />
    <glyph glyph-name="Tbar.sc" unicode="&#xf637;" horiz-adv-x="551" 
d="M40 357v192h471v-192h-39l-14 71q-7 47 -22 58t-58 11h-44v-198h116v-43h-116v-202l66 -6v-48h-249v48l66 7v201h-116v43h116v198h-56q-39 0 -49.5 -10.5t-18.5 -56.5l-14 -73h-39z" />
    <glyph glyph-name="Ubreve.sc" unicode="&#xf638;" horiz-adv-x="586" 
d="M304 -11q-108 0 -163 49.5t-55 133.5v324l-50 3v50h237v-50l-71 -4v-311q0 -68 28 -101t95 -33q65 0 92.5 32.5t27.5 102.5v303l-65 11v50h169v-50l-49 -11v-312q0 -84 -46.5 -135.5t-149.5 -51.5zM335 621q-59 0 -91.5 47.5t-36.5 116.5h39q13 -85 89 -85t89 85h39
q-4 -69 -37 -116.5t-91 -47.5z" />
    <glyph glyph-name="Utilde.sc" unicode="&#xf639;" horiz-adv-x="586" 
d="M304 -11q-108 0 -163 49.5t-55 133.5v324l-50 3v50h237v-50l-71 -4v-311q0 -68 28 -101t95 -33q65 0 92.5 32.5t27.5 102.5v303l-65 11v50h169v-50l-49 -11v-312q0 -84 -46.5 -135.5t-149.5 -51.5zM390 625q-21 0 -63 14t-56 14q-33 0 -46 -42h-41q30 125 103 125
q21 0 62.5 -14.5t55.5 -14.5q31 4 44 43h42q-29 -125 -101 -125z" />
    <glyph glyph-name="Wacute.sc" unicode="&#xf63a;" horiz-adv-x="796" 
d="M489 -6l-85 278l-100 -278h-83l-153 502l-41 3v50h212v-50l-46 -4l103 -357h1l82 215l-44 142l-42 4v50h216v-50l-53 -4l104 -357h1l105 341l-62 20v50h165v-50l-46 -17l-148 -488h-86zM382 614l49 144q13 43 51 43q19 0 35 -14t16 -36q0 -26 -25 -47l-95 -90h-31z" />
    <glyph glyph-name="Wcircumflex.sc" unicode="&#xf63b;" horiz-adv-x="796" 
d="M334 615h-34l91 160h78l91 -160h-33l-98 84zM489 -6l-85 278l-100 -278h-83l-153 502l-41 3v50h212v-50l-46 -4l103 -357h1l82 215l-44 142l-42 4v50h216v-50l-53 -4l104 -357h1l105 341l-62 20v50h165v-50l-46 -17l-148 -488h-86z" />
    <glyph glyph-name="Wdieresis.sc" unicode="&#xf63c;" horiz-adv-x="796" 
d="M342 621q-26 0 -43 16.5t-17 42.5t17 42.5t43 16.5q25 0 43 -16.5t18 -42.5t-18 -42.5t-43 -16.5zM526 621q-25 0 -42.5 16.5t-17.5 42.5t17.5 42.5t42.5 16.5q26 0 43.5 -16.5t17.5 -42.5t-17.5 -42.5t-43.5 -16.5zM489 -6l-85 278l-100 -278h-83l-153 502l-41 3v50h212
v-50l-46 -4l103 -357h1l82 215l-44 142l-42 4v50h216v-50l-53 -4l104 -357h1l105 341l-62 20v50h165v-50l-46 -17l-148 -488h-86z" />
    <glyph glyph-name="Wgrave.sc" unicode="&#xf63d;" horiz-adv-x="796" 
d="M489 -6l-85 278l-100 -278h-83l-153 502l-41 3v50h212v-50l-46 -4l103 -357h1l82 215l-44 142l-42 4v50h216v-50l-53 -4l104 -357h1l105 341l-62 20v50h165v-50l-46 -17l-148 -488h-86zM450 614l-95 90q-25 24 -25 47q0 22 16 36t34 14q39 0 52 -43l49 -144h-31z" />
    <glyph glyph-name="Ycircumflex.sc" unicode="&#xf63e;" horiz-adv-x="539" 
d="M206 615h-34l91 160h78l91 -160h-33l-98 84zM148 0v48l67 6v206l-153 236l-35 3v50h224v-50l-57 -4l115 -188l102 173l-57 19v50h158v-50l-48 -20l-132 -224v-202l66 -5v-48h-250z" />
    <glyph glyph-name="Ygrave.sc" unicode="&#xf63f;" horiz-adv-x="539" 
d="M148 0v48l67 6v206l-153 236l-35 3v50h224v-50l-57 -4l115 -188l102 173l-57 19v50h158v-50l-48 -20l-132 -224v-202l66 -5v-48h-250zM327 614l-95 90q-25 24 -25 47q0 22 16 36t34 14q39 0 52 -43l49 -144h-31z" />
    <glyph glyph-name="Abreve.sc" unicode="&#xf640;" horiz-adv-x="588" 
d="M331 0v48l63 4l-44 122h-182l-38 -105l79 -21v-48h-186v48l49 16l183 490h79l187 -504l44 -2v-48h-234zM258 417l-73 -198h148l-72 198h-3zM304 621q-59 0 -91.5 47.5t-36.5 116.5h39q13 -85 89 -85t89 85h39q-4 -69 -37 -116.5t-91 -47.5z" />
    <glyph glyph-name="Amacron.sc" unicode="&#xf641;" horiz-adv-x="588" 
d="M331 0v48l63 4l-44 122h-182l-38 -105l79 -21v-48h-186v48l49 16l183 490h79l187 -504l44 -2v-48h-234zM258 417l-73 -198h148l-72 198h-3zM178 630v61h251v-61h-251z" />
    <glyph glyph-name="Aogonek.sc" unicode="&#xf642;" horiz-adv-x="588" 
d="M378 -278q-47 0 -78 26t-31 70q0 30 22.5 65.5t45.5 58.5t73 69l-60 163h-182l-38 -105l79 -21v-48h-186v48l49 16l183 490h79l187 -504l44 -2v-48h-118q-72 -100 -72 -166q0 -52 41 -52q22 0 45 23l21 -23q-33 -60 -104 -60zM258 417l-73 -198h148l-72 198h-3z" />
    <glyph glyph-name="Cacute.sc" unicode="&#xf643;" horiz-adv-x="575" 
d="M273 614l49 144q13 43 51 43q19 0 35 -14t16 -36q0 -26 -25 -47l-95 -90h-31zM307 -18q-122 0 -194.5 78t-72.5 208q0 129 80.5 209.5t192.5 80.5q102 0 159 -74l14 58h37v-178h-42q-39 141 -157 141q-71 0 -115 -59.5t-44 -171.5q0 -230 170 -230q109 0 160 109l39 -17
q-29 -74 -87.5 -114t-139.5 -40z" />
    <glyph glyph-name="Ccaron.sc" unicode="&#xf644;" horiz-adv-x="575" 
d="M196 781h35l96 -83l96 83h34l-91 -159h-79zM307 -18q-122 0 -194.5 78t-72.5 208q0 129 80.5 209.5t192.5 80.5q102 0 159 -74l14 58h37v-178h-42q-39 141 -157 141q-71 0 -115 -59.5t-44 -171.5q0 -230 170 -230q109 0 160 109l39 -17q-29 -74 -87.5 -114t-139.5 -40z
" />
    <glyph glyph-name="Dcaron.sc" unicode="&#xf645;" horiz-adv-x="602" 
d="M38 0v48l56 5v442l-56 4v50h240q57 0 106 -14.5t90.5 -45.5t65 -85.5t23.5 -128.5q0 -72 -23.5 -127t-64 -86t-89 -46.5t-103.5 -15.5h-245zM273 497h-62v-444h62q80 0 122 50.5t42 171.5q0 127 -41 174.5t-123 47.5zM183 781h35l96 -83l96 83h34l-91 -159h-79z" />
    <glyph glyph-name="Dcroat.sc" unicode="&#xf646;" horiz-adv-x="602" 
d="M37 499v50h241q57 0 106 -14.5t90 -45.5t64.5 -85.5t23.5 -128.5q0 -72 -23 -127t-63.5 -86t-89 -46.5t-104.5 -15.5h-245v48l57 5v206h-64v43h64v193zM273 497h-62v-195h119v-43h-119v-206h61q80 0 122.5 50.5t42.5 171.5q0 126 -41 174t-123 48z" />
    <glyph glyph-name="Ecaron.sc" unicode="&#xf647;" horiz-adv-x="552" 
d="M156 781h35l96 -83l96 83h34l-91 -159h-79zM438 383l-16 71q-6 27 -17.5 35t-44.5 8h-149v-193h67q34 0 38 28l8 57h35v-217h-35l-8 55q-3 19 -11.5 25t-27.5 6h-66v-205h157q48 0 60.5 7t18.5 39l16 86h41v-185h-466v48l56 6v440l-56 5v50h438v-166h-38z" />
    <glyph glyph-name="Edotaccent.sc" unicode="&#xf648;" horiz-adv-x="552" 
d="M287 622q-28 0 -47 18.5t-19 44.5q0 27 19 45t47 18q27 0 46.5 -18t19.5 -45q0 -26 -19.5 -44.5t-46.5 -18.5zM438 383l-16 71q-6 27 -17.5 35t-44.5 8h-149v-193h67q34 0 38 28l8 57h35v-217h-35l-8 55q-3 19 -11.5 25t-27.5 6h-66v-205h157q48 0 60.5 7t18.5 39l16 86
h41v-185h-466v48l56 6v440l-56 5v50h438v-166h-38z" />
    <glyph glyph-name="Emacron.sc" unicode="&#xf649;" horiz-adv-x="552" 
d="M161 630v61h251v-61h-251zM438 383l-16 71q-6 27 -17.5 35t-44.5 8h-149v-193h67q34 0 38 28l8 57h35v-217h-35l-8 55q-3 19 -11.5 25t-27.5 6h-66v-205h157q48 0 60.5 7t18.5 39l16 86h41v-185h-466v48l56 6v440l-56 5v50h438v-166h-38z" />
    <glyph glyph-name="Eogonek.sc" unicode="&#xf64a;" horiz-adv-x="552" 
d="M385 -244q-46 0 -77 26t-31 70q0 68 118 169h49q-62 -87 -62 -152q0 -52 42 -52q22 0 45 23l21 -23q-34 -61 -105 -61zM438 383l-16 71q-6 27 -17.5 35t-44.5 8h-149v-193h67q34 0 38 28l8 57h35v-217h-35l-8 55q-3 19 -11.5 25t-27.5 6h-66v-205h157q48 0 60.5 7
t18.5 39l16 86h41v-185h-466v48l56 6v440l-56 5v50h438v-166h-38z" />
    <glyph glyph-name="Gbreve.sc" unicode="&#xf64b;" horiz-adv-x="619" 
d="M320 -18q-127 0 -203.5 77.5t-76.5 207.5q0 128 83 209.5t194 81.5q103 0 158 -67l12 50h37v-169h-42q-19 68 -54 100.5t-96 32.5q-72 0 -119.5 -60.5t-47.5 -177.5q0 -120 39 -176.5t124 -56.5q66 0 96 39q13 17 13 64v39l-66 6v50h224v-50l-49 -4v-97q-86 -99 -226 -99
zM327 621q-59 0 -91.5 47.5t-36.5 116.5h39q13 -85 89 -85t89 85h39q-4 -69 -37 -116.5t-91 -47.5z" />
    <glyph glyph-name="Gcommaaccent.sc" unicode="&#xf64c;" horiz-adv-x="619" 
d="M271 -271l-13 34q83 28 83 76q0 18 -11 18q-3 0 -13.5 -6t-22.5 -6q-21 0 -32.5 13.5t-11.5 34.5q0 24 19.5 39.5t47.5 15.5q38 0 62 -23.5t24 -62.5q0 -52 -37 -86t-95 -47zM320 -18q-127 0 -203.5 77.5t-76.5 207.5q0 128 83 209.5t194 81.5q103 0 158 -67l12 50h37
v-169h-42q-19 68 -54 100.5t-96 32.5q-72 0 -119.5 -60.5t-47.5 -177.5q0 -120 39 -176.5t124 -56.5q66 0 96 39q13 17 13 64v39l-66 6v50h224v-50l-49 -4v-97q-86 -99 -226 -99z" />
    <glyph glyph-name="Imacron.sc" unicode="&#xf64d;" horiz-adv-x="306" 
d="M38 0v48l56 6v439l-56 6v50h229v-50l-56 -5v-440l56 -6v-48h-229zM21 630v61h251v-61h-251z" />
    <glyph glyph-name="Iogonek.sc" unicode="&#xf64e;" horiz-adv-x="306" 
d="M38 0v48l56 6v439l-56 6v50h229v-50l-56 -5v-440l56 -6v-48h-229zM141 -244q-46 0 -77 26t-31 70q0 68 118 169h49q-62 -87 -62 -152q0 -52 42 -52q22 0 45 23l21 -23q-34 -61 -105 -61z" />
    <glyph glyph-name="Kcommaaccent.sc" unicode="&#xf64f;" horiz-adv-x="600" 
d="M261 -271l-13 34q83 28 83 76q0 18 -11 18q-3 0 -13.5 -6t-22.5 -6q-21 0 -32.5 13.5t-11.5 34.5q0 24 19.5 39.5t47.5 15.5q38 0 62 -23.5t24 -62.5q0 -52 -37 -86t-95 -47zM38 0v48l56 6v441l-56 4v50h236v-50l-63 -4v-441l60 -6v-48h-233zM347 0v48l49 4l-166 223v19
l184 194l-57 11v50h189v-50l-70 -11l-146 -155l199 -282l41 -3v-48h-223z" />
    <glyph glyph-name="Lacute.sc" unicode="&#xf650;" horiz-adv-x="524" 
d="M38 0v48l56 5v442l-56 4v50h243v-50l-70 -5v-441h135q44 0 58.5 13.5t22.5 63.5l15 73h39v-203h-443zM92 613l49 144q13 43 51 43q19 0 35 -14t16 -36q0 -26 -25 -47l-95 -90h-31z" />
    <glyph glyph-name="Lcaron.sc" unicode="&#xf651;" horiz-adv-x="524" 
d="M38 0v48l56 5v442l-56 4v50h243v-50l-70 -5v-441h135q44 0 58.5 13.5t22.5 63.5l15 73h39v-203h-443zM344 372l-23 19q29 44 29 86q0 36 -26 62q7 46 47 46q23 0 37.5 -19t14.5 -49q0 -73 -79 -145z" />
    <glyph glyph-name="Lcommaaccent.sc" unicode="&#xf652;" horiz-adv-x="524" 
d="M38 0v48l56 5v442l-56 4v50h243v-50l-70 -5v-441h135q44 0 58.5 13.5t22.5 63.5l15 73h39v-203h-443zM222 -271l-13 34q83 28 83 76q0 18 -11 18q-3 0 -13.5 -6t-22.5 -6q-21 0 -32.5 13.5t-11.5 34.5q0 24 19.5 39.5t47.5 15.5q38 0 62 -23.5t24 -62.5q0 -52 -37 -86
t-95 -47z" />
    <glyph glyph-name="Nacute.sc" unicode="&#xf653;" horiz-adv-x="595" 
d="M290 596l49 144q13 43 51 43q19 0 35 -14t16 -36q0 -26 -25 -47l-95 -90h-31zM39 0v48l54 7v439l-54 5v50h180l238 -346v285l-65 11v50h167v-50l-47 -11v-488h-51l-312 454v-395l82 -11v-48h-192z" />
    <glyph glyph-name="Ncaron.sc" unicode="&#xf654;" horiz-adv-x="595" 
d="M198 781h35l96 -83l96 83h34l-91 -159h-79zM39 0v48l54 7v439l-54 5v50h180l238 -346v285l-65 11v50h167v-50l-47 -11v-488h-51l-312 454v-395l82 -11v-48h-192z" />
    <glyph glyph-name="Ncommaaccent.sc" unicode="&#xf655;" horiz-adv-x="595" 
d="M282 -271l-13 34q83 28 83 76q0 18 -11 18q-3 0 -13.5 -6t-22.5 -6q-21 0 -32.5 13.5t-11.5 34.5q0 24 19.5 39.5t47.5 15.5q38 0 62 -23.5t24 -62.5q0 -52 -37 -86t-95 -47zM39 0v48l54 7v439l-54 5v50h180l238 -346v285l-65 11v50h167v-50l-47 -11v-488h-51l-312 454
v-395l82 -11v-48h-192z" />
    <glyph glyph-name="Ohungarumlaut.sc" unicode="&#xf656;" horiz-adv-x="628" 
d="M314 36q149 0 149 233q0 236 -149 236t-149 -236q0 -233 149 -233zM314 -18q-111 0 -192.5 78.5t-81.5 208.5q0 127 82 208t192 81q112 0 193.5 -80.5t81.5 -208.5q0 -129 -82 -208t-193 -79zM228 615l31 143q11 45 49 45q19 0 33.5 -12.5t14.5 -33.5t-23 -47l-74 -95
h-31zM381 615l32 143q10 45 49 45q17 0 31.5 -13t14.5 -33t-22 -47l-75 -95h-30z" />
    <glyph glyph-name="Omacron.sc" unicode="&#xf657;" horiz-adv-x="628" 
d="M314 36q149 0 149 233q0 236 -149 236t-149 -236q0 -233 149 -233zM314 -18q-111 0 -192.5 78.5t-81.5 208.5q0 127 82 208t192 81q112 0 193.5 -80.5t81.5 -208.5q0 -129 -82 -208t-193 -79zM199 630v61h251v-61h-251z" />
    <glyph glyph-name="Racute.sc" unicode="&#xf658;" horiz-adv-x="581" 
d="M234 614l49 144q13 43 51 43q19 0 35 -14t16 -36q0 -26 -25 -47l-95 -90h-31zM562 58l16 -34q-43 -34 -99 -34q-64 0 -92.5 39t-39.5 121q-10 66 -25.5 85.5t-59.5 19.5h-51v-201l61 -6v-48h-234v48l56 5v442l-56 4v50h235q96 0 154.5 -36t58.5 -102q0 -54 -39.5 -89.5
t-99.5 -46.5v-3q55 -8 82 -37t42 -90q13 -55 24.5 -74.5t36.5 -19.5q17 0 30 7zM265 497h-54v-197h62q53 0 73 21.5t20 76.5q0 57 -27.5 78t-73.5 21z" />
    <glyph glyph-name="Rcaron.sc" unicode="&#xf659;" horiz-adv-x="581" 
d="M152 781h35l96 -83l96 83h34l-91 -159h-79zM562 58l16 -34q-43 -34 -99 -34q-64 0 -92.5 39t-39.5 121q-10 66 -25.5 85.5t-59.5 19.5h-51v-201l61 -6v-48h-234v48l56 5v442l-56 4v50h235q96 0 154.5 -36t58.5 -102q0 -54 -39.5 -89.5t-99.5 -46.5v-3q55 -8 82 -37
t42 -90q13 -55 24.5 -74.5t36.5 -19.5q17 0 30 7zM265 497h-54v-197h62q53 0 73 21.5t20 76.5q0 57 -27.5 78t-73.5 21z" />
    <glyph glyph-name="Rcommaaccent.sc" unicode="&#xf65a;" horiz-adv-x="581" 
d="M250 -271l-13 34q83 28 83 76q0 18 -11 18q-3 0 -13.5 -6t-22.5 -6q-21 0 -32.5 13.5t-11.5 34.5q0 24 19.5 39.5t47.5 15.5q38 0 62 -23.5t24 -62.5q0 -52 -37 -86t-95 -47zM562 58l16 -34q-43 -34 -99 -34q-64 0 -92.5 39t-39.5 121q-10 66 -25.5 85.5t-59.5 19.5h-51
v-201l61 -6v-48h-234v48l56 5v442l-56 4v50h235q96 0 154.5 -36t58.5 -102q0 -54 -39.5 -89.5t-99.5 -46.5v-3q55 -8 82 -37t42 -90q13 -55 24.5 -74.5t36.5 -19.5q17 0 30 7zM265 497h-54v-197h62q53 0 73 21.5t20 76.5q0 57 -27.5 78t-73.5 21z" />
    <glyph glyph-name="Sacute.sc" unicode="&#xf65b;" horiz-adv-x="485" 
d="M191 614l49 144q13 43 51 43q19 0 35 -14t16 -36q0 -26 -25 -47l-95 -90h-31zM249 -17q-101 0 -150 70l-15 -43h-39v172l43 -2q25 -146 158 -146q48 0 75.5 19.5t27.5 57.5q0 41 -30.5 65.5t-101.5 46.5q-82 26 -123.5 65t-41.5 105q0 77 52 121t125 44q89 0 131 -59
l14 40h37v-146h-42q-28 115 -138 115q-44 0 -68 -19.5t-24 -53.5t29 -53.5t103 -42.5q82 -25 128 -66t46 -114q0 -81 -55.5 -128.5t-140.5 -47.5z" />
    <glyph glyph-name="Scedilla.sc" unicode="&#xf65c;" horiz-adv-x="485" 
d="M249 -17q-101 0 -150 70l-15 -43h-39v172l43 -2q25 -146 158 -146q48 0 75.5 19.5t27.5 57.5q0 41 -30.5 65.5t-101.5 46.5q-82 26 -123.5 65t-41.5 105q0 77 52 121t125 44q89 0 131 -59l14 40h37v-146h-42q-28 115 -138 115q-44 0 -68 -19.5t-24 -53.5t29 -53.5
t103 -42.5q82 -25 128 -66t46 -114q0 -81 -55.5 -128.5t-140.5 -47.5zM211 -237q-53 0 -92 18l10 36q27 -10 59 -10q52 0 52 41q0 51 -72 37v136h48v-89q47 4 80 -17t33 -62t-33 -65.5t-85 -24.5z" />
    <glyph glyph-name="Scommaaccent.sc" unicode="&#xf65d;" horiz-adv-x="485" 
d="M186 -271l-13 34q83 28 83 76q0 18 -11 18q-3 0 -13.5 -6t-22.5 -6q-21 0 -32.5 13.5t-11.5 34.5q0 24 19.5 39.5t47.5 15.5q38 0 62 -23.5t24 -62.5q0 -52 -37 -86t-95 -47zM249 -17q-101 0 -150 70l-15 -43h-39v172l43 -2q25 -146 158 -146q48 0 75.5 19.5t27.5 57.5
q0 41 -30.5 65.5t-101.5 46.5q-82 26 -123.5 65t-41.5 105q0 77 52 121t125 44q89 0 131 -59l14 40h37v-146h-42q-28 115 -138 115q-44 0 -68 -19.5t-24 -53.5t29 -53.5t103 -42.5q82 -25 128 -66t46 -114q0 -81 -55.5 -128.5t-140.5 -47.5z" />
    <glyph glyph-name="Tcaron.sc" unicode="&#xf65e;" horiz-adv-x="551" 
d="M151 0v48l66 7v442h-56q-39 0 -49.5 -10.5t-18.5 -56.5l-14 -73h-39v192h471v-192h-39l-14 71q-7 47 -22 58t-58 11h-44v-443l66 -6v-48h-249zM150 781h35l96 -83l96 83h34l-91 -159h-79z" />
    <glyph glyph-name="Tcommaaccent.sc" unicode="&#xf65f;" horiz-adv-x="551" 
d="M151 0v48l66 7v442h-56q-39 0 -49.5 -10.5t-18.5 -56.5l-14 -73h-39v192h471v-192h-39l-14 71q-7 47 -22 58t-58 11h-44v-443l66 -6v-48h-249zM225 -271l-13 34q83 28 83 76q0 18 -11 18q-3 0 -13.5 -6t-22.5 -6q-21 0 -32.5 13.5t-11.5 34.5q0 24 19.5 39.5t47.5 15.5
q38 0 62 -23.5t24 -62.5q0 -52 -37 -86t-95 -47z" />
    <glyph glyph-name="Uhungarumlaut.sc" unicode="&#xf660;" horiz-adv-x="586" 
d="M230 615l31 143q11 45 49 45q19 0 33.5 -12.5t14.5 -33.5t-23 -47l-74 -95h-31zM383 615l32 143q10 45 49 45q17 0 31.5 -13t14.5 -33t-22 -47l-75 -95h-30zM304 -11q-108 0 -163 49.5t-55 133.5v324l-50 3v50h237v-50l-71 -4v-311q0 -68 28 -101t95 -33q65 0 92.5 32.5
t27.5 102.5v303l-65 11v50h169v-50l-49 -11v-312q0 -84 -46.5 -135.5t-149.5 -51.5z" />
    <glyph glyph-name="Umacron.sc" unicode="&#xf661;" horiz-adv-x="586" 
d="M209 630v61h251v-61h-251zM304 -11q-108 0 -163 49.5t-55 133.5v324l-50 3v50h237v-50l-71 -4v-311q0 -68 28 -101t95 -33q65 0 92.5 32.5t27.5 102.5v303l-65 11v50h169v-50l-49 -11v-312q0 -84 -46.5 -135.5t-149.5 -51.5z" />
    <glyph glyph-name="Uogonek.sc" unicode="&#xf662;" horiz-adv-x="586" 
d="M412 -194l22 -23q-13 -23 -40.5 -42t-66.5 -19q-46 0 -75 25t-29 67q0 45 35 87.5t95 91.5q-17 -4 -49 -4q-108 0 -163 49.5t-55 133.5v324l-50 3v50h237v-50l-71 -4v-311q0 -68 28 -101t95 -33q65 0 92.5 32.5t27.5 102.5v303l-65 11v50h169v-50l-49 -11v-312
q0 -52 -18 -91.5t-62 -80.5q-95 -90 -95 -166q0 -55 43 -55q21 0 44 23z" />
    <glyph glyph-name="Uring.sc" unicode="&#xf663;" horiz-adv-x="586" 
d="M335 644q23 1 37.5 17t14.5 39q0 24 -14.5 40t-37.5 16q-24 0 -38.5 -16t-14.5 -40t14.5 -39.5t38.5 -16.5zM335 608q-39 0 -66 26.5t-27 65.5t27 65.5t66 26.5t65.5 -26.5t26.5 -65.5t-26.5 -65.5t-65.5 -26.5zM304 -11q-108 0 -163 49.5t-55 133.5v324l-50 3v50h237
v-50l-71 -4v-311q0 -68 28 -101t95 -33q65 0 92.5 32.5t27.5 102.5v303l-65 11v50h169v-50l-49 -11v-312q0 -84 -46.5 -135.5t-149.5 -51.5z" />
    <glyph glyph-name="Zacute.sc" unicode="&#xf664;" horiz-adv-x="511" 
d="M216 614l49 144q13 43 51 43q19 0 35 -14t16 -36q0 -26 -25 -47l-95 -90h-31zM58 363v186h413v-33l-296 -463h132q64 0 83 10t25 46l19 92h40v-201h-440v33l296 464h-122q-55 0 -70.5 -10.5t-23.5 -52.5l-16 -71h-40z" />
    <glyph glyph-name="Zdotaccent.sc" unicode="&#xf665;" horiz-adv-x="511" 
d="M58 363v186h413v-33l-296 -463h132q64 0 83 10t25 46l19 92h40v-201h-440v33l296 464h-122q-55 0 -70.5 -10.5t-23.5 -52.5l-16 -71h-40zM269 622q-28 0 -47 18.5t-19 44.5q0 27 19 45t47 18q27 0 46.5 -18t19.5 -45q0 -26 -19.5 -44.5t-46.5 -18.5z" />
    <glyph glyph-name="Idotaccent.sc" unicode="&#xf666;" horiz-adv-x="306" 
d="M38 0v48l56 6v439l-56 6v50h229v-50l-56 -5v-440l56 -6v-48h-229zM147 622q-28 0 -47 18.5t-19 44.5q0 27 19 45t47 18q27 0 46.5 -18t19.5 -45q0 -26 -19.5 -44.5t-46.5 -18.5z" />
    <glyph glyph-name="germandbls.sc" unicode="&#xf667;" horiz-adv-x="943" 
d="M707 -17q-101 0 -150 70l-15 -43h-39v172l43 -2q25 -146 158 -146q48 0 75.5 19.5t27.5 57.5q0 41 -30.5 65.5t-101.5 46.5q-82 26 -123.5 65t-41.5 105q0 77 52 121t125 44q89 0 131 -59l14 40h37v-146h-42q-28 115 -138 115q-44 0 -68 -19.5t-24 -53.5t29 -53.5
t103 -42.5q82 -25 128 -66t46 -114q0 -81 -55.5 -128.5t-140.5 -47.5zM249 -17q-101 0 -150 70l-15 -43h-39v172l43 -2q25 -146 158 -146q48 0 75.5 19.5t27.5 57.5q0 41 -30.5 65.5t-101.5 46.5q-82 26 -123.5 65t-41.5 105q0 77 52 121t125 44q89 0 131 -59l14 40h37v-146
h-42q-28 115 -138 115q-44 0 -68 -19.5t-24 -53.5t29 -53.5t103 -42.5q82 -25 128 -66t46 -114q0 -81 -55.5 -128.5t-140.5 -47.5z" />
    <glyph glyph-name="Lslash.sc" unicode="&#xf6f9;" horiz-adv-x="524" 
d="M38 159v48l338 151v-49zM38 0v48l56 5v442l-56 4v50h243v-50l-70 -5v-441h135q44 0 58.5 13.5t22.5 63.5l15 73h39v-203h-443z" />
    <glyph glyph-name="OE.sc" unicode="&#xf6fa;" horiz-adv-x="811" 
d="M761 0h-437q-57 0 -106 14.5t-90 45.5t-64.5 85.5t-23.5 128.5q0 72 23 127t63.5 86t89 46.5t104.5 15.5h413v-166h-39l-16 71q-6 28 -16.5 35.5t-44.5 7.5h-131v-193h57q34 0 38 28l8 57h36v-217h-36l-8 55q-3 19 -11 25t-28 6h-56v-205h139q49 0 60.5 6.5t17.5 39.5
l18 86h40v-185zM165 274q0 -126 41 -173.5t123 -47.5h40v444h-39q-80 0 -122.5 -50.5t-42.5 -172.5z" />
    <glyph glyph-name="Scaron.sc" unicode="&#xf6fd;" horiz-adv-x="485" 
d="M106 781h35l96 -83l96 83h34l-91 -159h-79zM249 -17q-101 0 -150 70l-15 -43h-39v172l43 -2q25 -146 158 -146q48 0 75.5 19.5t27.5 57.5q0 41 -30.5 65.5t-101.5 46.5q-82 26 -123.5 65t-41.5 105q0 77 52 121t125 44q89 0 131 -59l14 40h37v-146h-42q-28 115 -138 115
q-44 0 -68 -19.5t-24 -53.5t29 -53.5t103 -42.5q82 -25 128 -66t46 -114q0 -81 -55.5 -128.5t-140.5 -47.5z" />
    <glyph glyph-name="Zcaron.sc" unicode="&#xf6ff;" horiz-adv-x="511" 
d="M138 781h35l96 -83l96 83h34l-91 -159h-79zM58 363v186h413v-33l-296 -463h132q64 0 83 10t25 46l19 92h40v-201h-440v33l296 464h-122q-55 0 -70.5 -10.5t-23.5 -52.5l-16 -71h-40z" />
    <glyph glyph-name="exclam.sc" unicode="&#xf721;" horiz-adv-x="234" 
d="M100 180l-47 289q-9 42 11 68.5t54 26.5q32 0 52 -26.5t11 -68.5l-47 -289h-34zM118 -12q-28 0 -46.5 19t-18.5 49q0 29 18.5 48t46.5 19q27 0 45 -19t18 -48q0 -30 -18 -49t-45 -19z" />
    <glyph glyph-name="ampersand.sc" unicode="&#xf726;" horiz-adv-x="656" 
d="M636 66l11 -33q-49 -51 -114 -51q-31 0 -59.5 14.5t-44 28.5t-36.5 39q-82 -82 -184 -82q-80 0 -126.5 41t-46.5 107q0 117 143 162q-33 31 -48 59t-15 69q0 56 41 97t115 41q59 0 96 -29.5t37 -84.5q0 -76 -102 -117q56 -53 136 -141q34 58 62 112l-52 9v48h159v-48
l-52 -8q-18 -26 -47 -74.5t-43 -69.5q9 -11 26 -32t25 -29.5t21 -20t25 -16t26 -4.5q30 0 47 13zM258 48q63 0 111 45q-84 98 -171 182q-63 -37 -63 -104q0 -52 32 -87.5t91 -35.5zM212 450q0 -26 12.5 -44t51.5 -54l3 -3q58 38 58 96q0 30 -16.5 47.5t-44.5 17.5t-46 -16.5
t-18 -43.5z" />
    <glyph glyph-name="question.sc" unicode="&#xf73f;" horiz-adv-x="385" 
d="M164 -13q-28 0 -46.5 19t-18.5 49q0 29 18.5 48t46.5 19t45.5 -19t17.5 -48q0 -30 -17.5 -49t-45.5 -19zM179 179h-45q-11 40 -3.5 66.5t26.5 52.5t39.5 45t36 45.5t15.5 52.5q0 67 -75 67q-60 0 -60 -41q0 -22 25 -25q9 -16 9 -29q0 -19 -13 -32.5t-36 -13.5
q-29 0 -47.5 20t-18.5 53q0 54 44.5 87t111.5 33q72 0 118 -36.5t46 -101.5q0 -40 -19.5 -71t-46.5 -49.5t-53 -35.5t-42 -38.5t-12 -48.5z" />
    <glyph glyph-name="A.sc" unicode="&#xf761;" horiz-adv-x="588" 
d="M331 0v48l63 4l-44 122h-182l-38 -105l79 -21v-48h-186v48l49 16l183 490h79l187 -504l44 -2v-48h-234zM258 417l-73 -198h148l-72 198h-3z" />
    <glyph glyph-name="B.sc" unicode="&#xf762;" horiz-adv-x="535" 
d="M38 0v48l56 6v441l-56 4v50h243q91 0 141.5 -34t50.5 -97q0 -101 -120 -130v-2q69 -11 106 -46.5t37 -89.5q0 -70 -52 -110t-150 -40h-256zM270 262h-59v-209h61q61 0 85 23t24 81t-27 81.5t-84 23.5zM263 497h-52v-190h54q52 0 74.5 22t22.5 78q0 53 -23.5 71.5
t-75.5 18.5z" />
    <glyph glyph-name="C.sc" unicode="&#xf763;" horiz-adv-x="575" 
d="M307 -18q-122 0 -194.5 78t-72.5 208q0 129 80.5 209.5t192.5 80.5q102 0 159 -74l14 58h37v-178h-42q-39 141 -157 141q-71 0 -115 -59.5t-44 -171.5q0 -230 170 -230q109 0 160 109l39 -17q-29 -74 -87.5 -114t-139.5 -40z" />
    <glyph glyph-name="D.sc" unicode="&#xf764;" horiz-adv-x="602" 
d="M38 0v48l56 5v442l-56 4v50h240q57 0 106 -14.5t90.5 -45.5t65 -85.5t23.5 -128.5q0 -72 -23.5 -127t-64 -86t-89 -46.5t-103.5 -15.5h-245zM273 497h-62v-444h62q80 0 122 50.5t42 171.5q0 127 -41 174.5t-123 47.5z" />
    <glyph glyph-name="E.sc" unicode="&#xf765;" horiz-adv-x="552" 
d="M438 383l-16 71q-6 27 -17.5 35t-44.5 8h-149v-193h67q34 0 38 28l8 57h35v-217h-35l-8 55q-3 19 -11.5 25t-27.5 6h-66v-205h157q48 0 60.5 7t18.5 39l16 86h41v-185h-466v48l56 6v440l-56 5v50h438v-166h-38z" />
    <glyph glyph-name="F.sc" unicode="&#xf766;" horiz-adv-x="505" 
d="M433 370l-14 71q-6 37 -20.5 46.5t-62.5 9.5h-125v-196h63q21 0 27 5.5t10 28.5l7 55h35v-221h-35l-8 54q-4 21 -10 27t-27 6h-62v-203l69 -5v-48h-242v48l56 6v440l-56 5v50h434v-179h-39z" />
    <glyph glyph-name="G.sc" unicode="&#xf767;" horiz-adv-x="619" 
d="M320 -18q-127 0 -203.5 77.5t-76.5 207.5q0 128 83 209.5t194 81.5q103 0 158 -67l12 50h37v-169h-42q-19 68 -54 100.5t-96 32.5q-72 0 -119.5 -60.5t-47.5 -177.5q0 -120 39 -176.5t124 -56.5q66 0 96 39q13 17 13 64v39l-66 6v50h224v-50l-49 -4v-97q-86 -99 -226 -99
z" />
    <glyph glyph-name="H.sc" unicode="&#xf768;" horiz-adv-x="628" 
d="M357 0v48l59 5v207h-205v-207l60 -5v-48h-233v48l56 6v441l-56 4v50h233v-50l-60 -4v-189h205v188l-59 5v50h232v-50l-56 -4v-443l56 -4v-48h-232z" />
    <glyph glyph-name="I.sc" unicode="&#xf769;" horiz-adv-x="306" 
d="M38 0v48l56 6v439l-56 6v50h229v-50l-56 -5v-440l56 -6v-48h-229z" />
    <glyph glyph-name="J.sc" unicode="&#xf76a;" horiz-adv-x="416" 
d="M149 -51q-58 0 -88.5 27t-30.5 68q0 31 17.5 51t44.5 20q24 0 39 -14t15 -37q0 -20 -14 -35t-14 -18q0 -15 25 -15q62 0 62 85v412l-64 6v50h238v-50l-57 -5v-345q0 -98 -48 -149t-125 -51z" />
    <glyph glyph-name="K.sc" unicode="&#xf76b;" horiz-adv-x="600" 
d="M38 0v48l56 6v441l-56 4v50h236v-50l-63 -4v-441l60 -6v-48h-233zM347 0v48l49 4l-166 223v19l184 194l-57 11v50h189v-50l-70 -11l-146 -155l199 -282l41 -3v-48h-223z" />
    <glyph glyph-name="L.sc" unicode="&#xf76c;" horiz-adv-x="524" 
d="M38 0v48l56 5v442l-56 4v50h243v-50l-70 -5v-441h135q44 0 58.5 13.5t22.5 63.5l15 73h39v-203h-443z" />
    <glyph glyph-name="M.sc" unicode="&#xf76d;" horiz-adv-x="699" 
d="M336 0h-29l-161 447v-384l64 -15v-48h-172v48l56 14v431l-56 6v50h183l126 -354l125 354h188v-50l-54 -3v-444l54 -4v-48h-231v48l63 5v402z" />
    <glyph glyph-name="N.sc" unicode="&#xf76e;" horiz-adv-x="595" 
d="M39 0v48l54 7v439l-54 5v50h180l238 -346v285l-65 11v50h167v-50l-47 -11v-488h-51l-312 454v-395l82 -11v-48h-192z" />
    <glyph glyph-name="O.sc" unicode="&#xf76f;" horiz-adv-x="628" 
d="M314 36q149 0 149 233q0 236 -149 236t-149 -236q0 -233 149 -233zM314 -18q-111 0 -192.5 78.5t-81.5 208.5q0 127 82 208t192 81q112 0 193.5 -80.5t81.5 -208.5q0 -129 -82 -208t-193 -79z" />
    <glyph glyph-name="P.sc" unicode="&#xf770;" horiz-adv-x="517" 
d="M38 0v48l56 4v443l-56 4v50h238q104 0 159.5 -40.5t55.5 -117.5q0 -82 -57.5 -122.5t-153.5 -40.5q-35 0 -69 6v-180l70 -6v-48h-243zM263 497h-52v-218q30 -2 50 -2q61 0 85 24t24 88q0 61 -24.5 84.5t-82.5 23.5z" />
    <glyph glyph-name="Q.sc" unicode="&#xf771;" horiz-adv-x="627" 
d="M441 -165q-75 0 -121.5 37t-71.5 118q-90 21 -149 95.5t-59 183.5q0 127 82 208t192 81q112 0 193.5 -80.5t81.5 -208.5q0 -109 -60 -184t-151 -96q27 -95 104 -95q31 0 68 13l11 -43q-60 -29 -120 -29zM314 35q149 0 149 234q0 236 -149 236t-149 -236q0 -234 149 -234z
" />
    <glyph glyph-name="R.sc" unicode="&#xf772;" horiz-adv-x="581" 
d="M562 58l16 -34q-43 -34 -99 -34q-64 0 -92.5 39t-39.5 121q-10 66 -25.5 85.5t-59.5 19.5h-51v-201l61 -6v-48h-234v48l56 5v442l-56 4v50h235q96 0 154.5 -36t58.5 -102q0 -54 -39.5 -89.5t-99.5 -46.5v-3q55 -8 82 -37t42 -90q13 -55 24.5 -74.5t36.5 -19.5q17 0 30 7z
M265 497h-54v-197h62q53 0 73 21.5t20 76.5q0 57 -27.5 78t-73.5 21z" />
    <glyph glyph-name="S.sc" unicode="&#xf773;" horiz-adv-x="485" 
d="M249 -17q-101 0 -150 70l-15 -43h-39v172l43 -2q25 -146 158 -146q48 0 75.5 19.5t27.5 57.5q0 41 -30.5 65.5t-101.5 46.5q-82 26 -123.5 65t-41.5 105q0 77 52 121t125 44q89 0 131 -59l14 40h37v-146h-42q-28 115 -138 115q-44 0 -68 -19.5t-24 -53.5t29 -53.5
t103 -42.5q82 -25 128 -66t46 -114q0 -81 -55.5 -128.5t-140.5 -47.5z" />
    <glyph glyph-name="T.sc" unicode="&#xf774;" horiz-adv-x="551" 
d="M151 0v48l66 7v442h-56q-39 0 -49.5 -10.5t-18.5 -56.5l-14 -73h-39v192h471v-192h-39l-14 71q-7 47 -22 58t-58 11h-44v-443l66 -6v-48h-249z" />
    <glyph glyph-name="U.sc" unicode="&#xf775;" horiz-adv-x="586" 
d="M304 -11q-108 0 -163 49.5t-55 133.5v324l-50 3v50h237v-50l-71 -4v-311q0 -68 28 -101t95 -33q65 0 92.5 32.5t27.5 102.5v303l-65 11v50h169v-50l-49 -11v-312q0 -84 -46.5 -135.5t-149.5 -51.5z" />
    <glyph glyph-name="V.sc" unicode="&#xf776;" horiz-adv-x="577" 
d="M248 -6l-176 501l-45 4v50h228v-50l-59 -4l124 -363h2l120 348l-67 19v50h175v-50l-50 -16l-171 -489h-81z" />
    <glyph glyph-name="W.sc" unicode="&#xf777;" horiz-adv-x="796" 
d="M489 -6l-85 278l-100 -278h-83l-153 502l-41 3v50h212v-50l-46 -4l103 -357h1l82 215l-44 142l-42 4v50h216v-50l-53 -4l104 -357h1l105 341l-62 20v50h165v-50l-46 -17l-148 -488h-86z" />
    <glyph glyph-name="X.sc" unicode="&#xf778;" horiz-adv-x="579" 
d="M316 0v48l52 4l-113 178l-103 -165l63 -17v-48h-185v48l64 21l133 205l-141 221l-42 4v50h230v-50l-52 -3l97 -153l90 139l-57 17v50h174v-50l-59 -18l-120 -182l156 -247l46 -4v-48h-233z" />
    <glyph glyph-name="Y.sc" unicode="&#xf779;" horiz-adv-x="539" 
d="M148 0v48l67 6v206l-153 236l-35 3v50h224v-50l-57 -4l115 -188l102 173l-57 19v50h158v-50l-48 -20l-132 -224v-202l66 -5v-48h-250z" />
    <glyph glyph-name="Z.sc" unicode="&#xf77a;" horiz-adv-x="511" 
d="M58 363v186h413v-33l-296 -463h132q64 0 83 10t25 46l19 92h40v-201h-440v33l296 464h-122q-55 0 -70.5 -10.5t-23.5 -52.5l-16 -71h-40z" />
    <glyph glyph-name="exclamdown.sc" unicode="&#xf7a1;" horiz-adv-x="233" 
d="M39 372l25 -289q6 -42 -5.5 -68.5t-29.5 -26.5q-17 0 -27.5 26t-6.5 69l26 289h18zM29 564q15 0 25 -19t10 -49q0 -29 -10 -48t-25 -19q-14 0 -24 19t-10 48q0 30 10 49t24 19z" />
    <glyph glyph-name="questiondown.sc" unicode="&#xf7bf;" horiz-adv-x="384" 
d="M220 561q28 0 46.5 -19t18.5 -49q0 -29 -18.5 -48t-46.5 -19t-45.5 19t-17.5 48q0 30 17.5 49t45.5 19zM205 369h45q11 -40 3.5 -66.5t-26.5 -52.5t-39.5 -45t-36 -45.5t-15.5 -52.5q0 -67 75 -67q60 0 60 41q0 22 -25 25q-9 16 -9 29q0 19 13 32.5t36 13.5
q29 0 47.5 -20t18.5 -53q0 -54 -44.5 -87t-111.5 -33q-72 0 -118 36.5t-46 101.5q0 40 19.5 71t46.5 49.5t53 35.5t42 38.5t12 48.5z" />
    <glyph glyph-name="Agrave.sc" unicode="&#xf7e0;" horiz-adv-x="588" 
d="M331 0v48l63 4l-44 122h-182l-38 -105l79 -21v-48h-186v48l49 16l183 490h79l187 -504l44 -2v-48h-234zM258 417l-73 -198h148l-72 198h-3zM318 614l-95 90q-25 24 -25 47q0 22 16 36t34 14q39 0 52 -43l49 -144h-31z" />
    <glyph glyph-name="Aacute.sc" unicode="&#xf7e1;" horiz-adv-x="588" 
d="M250 614l49 144q13 43 51 43q19 0 35 -14t16 -36q0 -26 -25 -47l-95 -90h-31zM331 0v48l63 4l-44 122h-182l-38 -105l79 -21v-48h-186v48l49 16l183 490h79l187 -504l44 -2v-48h-234zM258 417l-73 -198h148l-72 198h-3z" />
    <glyph glyph-name="Acircumflex.sc" unicode="&#xf7e2;" horiz-adv-x="588" 
d="M202 615h-34l91 160h78l91 -160h-33l-98 84zM331 0v48l63 4l-44 122h-182l-38 -105l79 -21v-48h-186v48l49 16l183 490h79l187 -504l44 -2v-48h-234zM258 417l-73 -198h148l-72 198h-3z" />
    <glyph glyph-name="Atilde.sc" unicode="&#xf7e3;" horiz-adv-x="588" 
d="M331 0v48l63 4l-44 122h-182l-38 -105l79 -21v-48h-186v48l49 16l183 490h79l187 -504l44 -2v-48h-234zM258 417l-73 -198h148l-72 198h-3zM359 625q-21 0 -63 14t-56 14q-32 0 -46 -42h-41q30 125 103 125q21 0 62.5 -14.5t55.5 -14.5q31 4 44 43h42q-29 -125 -101 -125
z" />
    <glyph glyph-name="Adieresis.sc" unicode="&#xf7e4;" horiz-adv-x="588" 
d="M210 621q-26 0 -43 16.5t-17 42.5t17 42.5t43 16.5q25 0 43 -16.5t18 -42.5t-18 -42.5t-43 -16.5zM394 621q-25 0 -42.5 16.5t-17.5 42.5t17.5 42.5t42.5 16.5q26 0 43.5 -16.5t17.5 -42.5t-17.5 -42.5t-43.5 -16.5zM331 0v48l63 4l-44 122h-182l-38 -105l79 -21v-48
h-186v48l49 16l183 490h79l187 -504l44 -2v-48h-234zM258 417l-73 -198h148l-72 198h-3z" />
    <glyph glyph-name="Aring.sc" unicode="&#xf7e5;" horiz-adv-x="588" 
d="M301 644q23 1 37.5 17t14.5 39q0 24 -14.5 40t-37.5 16q-24 0 -38.5 -16t-14.5 -40t14.5 -39.5t38.5 -16.5zM301 608q-39 0 -66 26.5t-27 65.5t27 65.5t66 26.5t65.5 -26.5t26.5 -65.5t-26.5 -65.5t-65.5 -26.5zM331 0v48l63 4l-44 122h-182l-38 -105l79 -21v-48h-186v48
l49 16l183 490h79l187 -504l44 -2v-48h-234zM258 417l-73 -198h148l-72 198h-3z" />
    <glyph glyph-name="AE.sc" unicode="&#xf7e6;" horiz-adv-x="801" 
d="M27 0v48l57 20l223 426l-70 5v50h489v-166h-38l-17 71q-6 27 -17 35t-44 8h-131v-203h49q34 0 38 27l8 58h35v-219h-36l-8 57q-2 19 -10 24.5t-28 5.5h-48v-194h139q49 0 60.5 6.5t17.5 39.5l17 86h41v-185h-449v48l57 6v189h-131l-92 -176l78 -19v-48h-190zM359 488
l-104 -199h107v199h-3z" />
    <glyph glyph-name="Ccedilla.sc" unicode="&#xf7e7;" horiz-adv-x="575" 
d="M307 -18q-122 0 -194.5 78t-72.5 208q0 129 80.5 209.5t192.5 80.5q102 0 159 -74l14 58h37v-178h-42q-39 141 -157 141q-71 0 -115 -59.5t-44 -171.5q0 -230 170 -230q109 0 160 109l39 -17q-29 -74 -87.5 -114t-139.5 -40zM301 -237q-53 0 -92 18l10 36q27 -10 59 -10
q52 0 52 41q0 51 -72 37v136h48v-89q47 4 80 -17t33 -62t-33 -65.5t-85 -24.5z" />
    <glyph glyph-name="Egrave.sc" unicode="&#xf7e8;" horiz-adv-x="552" 
d="M302 614l-95 90q-25 24 -25 47q0 22 16 36t34 14q39 0 52 -43l49 -144h-31zM438 383l-16 71q-6 27 -17.5 35t-44.5 8h-149v-193h67q34 0 38 28l8 57h35v-217h-35l-8 55q-3 19 -11.5 25t-27.5 6h-66v-205h157q48 0 60.5 7t18.5 39l16 86h41v-185h-466v48l56 6v440l-56 5
v50h438v-166h-38z" />
    <glyph glyph-name="Eacute.sc" unicode="&#xf7e9;" horiz-adv-x="552" 
d="M234 614l49 144q13 43 51 43q19 0 35 -14t16 -36q0 -26 -25 -47l-95 -90h-31zM438 383l-16 71q-6 27 -17.5 35t-44.5 8h-149v-193h67q34 0 38 28l8 57h35v-217h-35l-8 55q-3 19 -11.5 25t-27.5 6h-66v-205h157q48 0 60.5 7t18.5 39l16 86h41v-185h-466v48l56 6v440l-56 5
v50h438v-166h-38z" />
    <glyph glyph-name="Ecircumflex.sc" unicode="&#xf7ea;" horiz-adv-x="552" 
d="M186 615h-34l91 160h78l91 -160h-33l-98 84zM438 383l-16 71q-6 27 -17.5 35t-44.5 8h-149v-193h67q34 0 38 28l8 57h35v-217h-35l-8 55q-3 19 -11.5 25t-27.5 6h-66v-205h157q48 0 60.5 7t18.5 39l16 86h41v-185h-466v48l56 6v440l-56 5v50h438v-166h-38z" />
    <glyph glyph-name="Edieresis.sc" unicode="&#xf7eb;" horiz-adv-x="552" 
d="M194 621q-26 0 -43 16.5t-17 42.5t17 42.5t43 16.5q25 0 43 -16.5t18 -42.5t-18 -42.5t-43 -16.5zM378 621q-25 0 -42.5 16.5t-17.5 42.5t17.5 42.5t42.5 16.5q26 0 43.5 -16.5t17.5 -42.5t-17.5 -42.5t-43.5 -16.5zM438 383l-16 71q-6 27 -17.5 35t-44.5 8h-149v-193h67
q34 0 38 28l8 57h35v-217h-35l-8 55q-3 19 -11.5 25t-27.5 6h-66v-205h157q48 0 60.5 7t18.5 39l16 86h41v-185h-466v48l56 6v440l-56 5v50h438v-166h-38z" />
    <glyph glyph-name="Igrave.sc" unicode="&#xf7ec;" horiz-adv-x="306" 
d="M38 0v48l56 6v439l-56 6v50h229v-50l-56 -5v-440l56 -6v-48h-229zM170 614l-95 90q-25 24 -25 47q0 22 16 36t34 14q39 0 52 -43l49 -144h-31z" />
    <glyph glyph-name="Iacute.sc" unicode="&#xf7ed;" horiz-adv-x="306" 
d="M94 614l49 144q13 43 51 43q19 0 35 -14t16 -36q0 -26 -25 -47l-95 -90h-31zM38 0v48l56 6v439l-56 6v50h229v-50l-56 -5v-440l56 -6v-48h-229z" />
    <glyph glyph-name="Icircumflex.sc" unicode="&#xf7ee;" horiz-adv-x="306" 
d="M46 615h-34l91 160h78l91 -160h-33l-98 84zM38 0v48l56 6v439l-56 6v50h229v-50l-56 -5v-440l56 -6v-48h-229z" />
    <glyph glyph-name="Idieresis.sc" unicode="&#xf7ef;" horiz-adv-x="306" 
d="M54 621q-26 0 -43 16.5t-17 42.5t17 42.5t43 16.5q25 0 43 -16.5t18 -42.5t-18 -42.5t-43 -16.5zM238 621q-25 0 -42.5 16.5t-17.5 42.5t17.5 42.5t42.5 16.5q26 0 43.5 -16.5t17.5 -42.5t-17.5 -42.5t-43.5 -16.5zM38 0v48l56 6v439l-56 6v50h229v-50l-56 -5v-440l56 -6
v-48h-229z" />
    <glyph glyph-name="Eth.sc" unicode="&#xf7f0;" horiz-adv-x="602" 
d="M37 499v50h241q57 0 106 -14.5t90 -45.5t64.5 -85.5t23.5 -128.5q0 -72 -23 -127t-63.5 -86t-89 -46.5t-104.5 -15.5h-245v48l57 5v206h-64v43h64v193zM273 497h-62v-195h119v-43h-119v-206h61q80 0 122.5 50.5t42.5 171.5q0 126 -41 174t-123 48z" />
    <glyph glyph-name="Ntilde.sc" unicode="&#xf7f1;" horiz-adv-x="595" 
d="M39 0v48l54 7v439l-54 5v50h180l238 -346v285l-65 11v50h167v-50l-47 -11v-488h-51l-312 454v-395l82 -11v-48h-192zM384 625q-21 0 -63 14t-56 14q-33 0 -46 -42h-41q30 125 103 125q21 0 62.5 -14.5t55.5 -14.5q31 4 44 43h42q-29 -125 -101 -125z" />
    <glyph glyph-name="Ograve.sc" unicode="&#xf7f2;" horiz-adv-x="628" 
d="M314 36q149 0 149 233q0 236 -149 236t-149 -236q0 -233 149 -233zM314 -18q-111 0 -192.5 78.5t-81.5 208.5q0 127 82 208t192 81q112 0 193.5 -80.5t81.5 -208.5q0 -129 -82 -208t-193 -79zM339 614l-95 90q-25 24 -25 47q0 22 16 36t34 14q39 0 52 -43l49 -144h-31z
" />
    <glyph glyph-name="Oacute.sc" unicode="&#xf7f3;" horiz-adv-x="628" 
d="M314 36q149 0 149 233q0 236 -149 236t-149 -236q0 -233 149 -233zM314 -18q-111 0 -192.5 78.5t-81.5 208.5q0 127 82 208t192 81q112 0 193.5 -80.5t81.5 -208.5q0 -129 -82 -208t-193 -79zM262 614l49 144q13 43 51 43q19 0 35 -14t16 -36q0 -26 -25 -47l-95 -90h-31z
" />
    <glyph glyph-name="Ocircumflex.sc" unicode="&#xf7f4;" horiz-adv-x="628" 
d="M223 615h-34l91 160h78l91 -160h-33l-98 84zM314 36q149 0 149 233q0 236 -149 236t-149 -236q0 -233 149 -233zM314 -18q-111 0 -192.5 78.5t-81.5 208.5q0 127 82 208t192 81q112 0 193.5 -80.5t81.5 -208.5q0 -129 -82 -208t-193 -79z" />
    <glyph glyph-name="Otilde.sc" unicode="&#xf7f5;" horiz-adv-x="628" 
d="M314 36q149 0 149 233q0 236 -149 236t-149 -236q0 -233 149 -233zM314 -18q-111 0 -192.5 78.5t-81.5 208.5q0 127 82 208t192 81q112 0 193.5 -80.5t81.5 -208.5q0 -129 -82 -208t-193 -79zM380 625q-21 0 -63 14t-56 14q-33 0 -46 -42h-41q30 125 103 125
q21 0 62.5 -14.5t55.5 -14.5q31 4 44 43h42q-29 -125 -101 -125z" />
    <glyph glyph-name="Odieresis.sc" unicode="&#xf7f6;" horiz-adv-x="628" 
d="M231 621q-26 0 -43 16.5t-17 42.5t17 42.5t43 16.5q25 0 43 -16.5t18 -42.5t-18 -42.5t-43 -16.5zM415 621q-25 0 -42.5 16.5t-17.5 42.5t17.5 42.5t42.5 16.5q26 0 43.5 -16.5t17.5 -42.5t-17.5 -42.5t-43.5 -16.5zM314 36q149 0 149 233q0 236 -149 236t-149 -236
q0 -233 149 -233zM314 -18q-111 0 -192.5 78.5t-81.5 208.5q0 127 82 208t192 81q112 0 193.5 -80.5t81.5 -208.5q0 -129 -82 -208t-193 -79z" />
    <glyph glyph-name="Oslash.sc" unicode="&#xf7f8;" horiz-adv-x="628" 
d="M83 -18l-33 28l57 66q-67 78 -67 193q0 127 82 208t192 81q92 0 165 -56l54 63l33 -29l-55 -63q78 -85 78 -204q0 -129 -82 -208t-193 -79q-101 0 -176 63zM314 35q149 0 149 234q0 73 -17 129l-252 -289q38 -74 120 -74zM165 269q0 -67 12 -113l250 287q-38 62 -113 62
q-149 0 -149 -236z" />
    <glyph glyph-name="Ugrave.sc" unicode="&#xf7f9;" horiz-adv-x="586" 
d="M349 614l-95 90q-25 24 -25 47q0 22 16 36t34 14q39 0 52 -43l49 -144h-31zM304 -11q-108 0 -163 49.5t-55 133.5v324l-50 3v50h237v-50l-71 -4v-311q0 -68 28 -101t95 -33q65 0 92.5 32.5t27.5 102.5v303l-65 11v50h169v-50l-49 -11v-312q0 -84 -46.5 -135.5
t-149.5 -51.5z" />
    <glyph glyph-name="Uacute.sc" unicode="&#xf7fa;" horiz-adv-x="586" 
d="M294 614l49 144q13 43 51 43q19 0 35 -14t16 -36q0 -26 -25 -47l-95 -90h-31zM304 -11q-108 0 -163 49.5t-55 133.5v324l-50 3v50h237v-50l-71 -4v-311q0 -68 28 -101t95 -33q65 0 92.5 32.5t27.5 102.5v303l-65 11v50h169v-50l-49 -11v-312q0 -84 -46.5 -135.5
t-149.5 -51.5z" />
    <glyph glyph-name="Ucircumflex.sc" unicode="&#xf7fb;" horiz-adv-x="586" 
d="M233 615h-34l91 160h78l91 -160h-33l-98 84zM304 -11q-108 0 -163 49.5t-55 133.5v324l-50 3v50h237v-50l-71 -4v-311q0 -68 28 -101t95 -33q65 0 92.5 32.5t27.5 102.5v303l-65 11v50h169v-50l-49 -11v-312q0 -84 -46.5 -135.5t-149.5 -51.5z" />
    <glyph glyph-name="Udieresis.sc" unicode="&#xf7fc;" horiz-adv-x="586" 
d="M242 621q-26 0 -43 16.5t-17 42.5t17 42.5t43 16.5q25 0 43 -16.5t18 -42.5t-18 -42.5t-43 -16.5zM426 621q-25 0 -42.5 16.5t-17.5 42.5t17.5 42.5t42.5 16.5q26 0 43.5 -16.5t17.5 -42.5t-17.5 -42.5t-43.5 -16.5zM304 -11q-108 0 -163 49.5t-55 133.5v324l-50 3v50
h237v-50l-71 -4v-311q0 -68 28 -101t95 -33q65 0 92.5 32.5t27.5 102.5v303l-65 11v50h169v-50l-49 -11v-312q0 -84 -46.5 -135.5t-149.5 -51.5z" />
    <glyph glyph-name="Yacute.sc" unicode="&#xf7fd;" horiz-adv-x="539" 
d="M257 614l49 144q13 43 51 43q19 0 35 -14t16 -36q0 -26 -25 -47l-95 -90h-31zM148 0v48l67 6v206l-153 236l-35 3v50h224v-50l-57 -4l115 -188l102 173l-57 19v50h158v-50l-48 -20l-132 -224v-202l66 -5v-48h-250z" />
    <glyph glyph-name="Thorn.sc" unicode="&#xf7fe;" horiz-adv-x="506" 
d="M282 133q-37 0 -71 6v-85l56 -6v-48h-229v48l56 6v439l-56 6v50h229v-50l-56 -5v-70h65q103 0 158 -36t55 -107q0 -73 -56.5 -110.5t-150.5 -37.5zM261 375h-50v-192q9 -2 47 -2q60 0 85 21t25 75t-25.5 76t-81.5 22z" />
    <glyph glyph-name="Ydieresis.sc" unicode="&#xf7ff;" horiz-adv-x="539" 
d="M214 621q-26 0 -43 16.5t-17 42.5t17 42.5t43 16.5q25 0 43 -16.5t18 -42.5t-18 -42.5t-43 -16.5zM398 621q-25 0 -42.5 16.5t-17.5 42.5t17.5 42.5t42.5 16.5q26 0 43.5 -16.5t17.5 -42.5t-17.5 -42.5t-43.5 -16.5zM148 0v48l67 6v206l-153 236l-35 3v50h224v-50l-57 -4
l115 -188l102 173l-57 19v50h158v-50l-48 -20l-132 -224v-202l66 -5v-48h-250z" />
    <glyph glyph-name="_1" horiz-adv-x="0" 
 />
    <glyph glyph-name="caron.uc" horiz-adv-x="481" 
d="M103 852h34l104 -67l103 67h34l-95 -139h-85z" />
    <glyph glyph-name="acute.uc" horiz-adv-x="481" 
d="M204 713h-32l46 112q15 52 55 52q20 0 38 -15.5t18 -39.5q0 -31 -37 -53z" />
    <glyph glyph-name="one.num" horiz-adv-x="239" 
d="M14 555v46l108 64h48v-312l56 -4v-42h-207v42l59 4v228z" />
    <glyph glyph-name="two.den" horiz-adv-x="306" 
d="M21 0l-3 51q99 79 125 109q44 49 44 96q0 63 -53 63q-42 0 -42 -26q0 -5 10 -17t10 -24q0 -15 -11.5 -26t-29.5 -11q-50 0 -50 52q0 40 37 65.5t90 25.5q67 0 100 -30.5t33 -73.5q0 -28 -15 -53.5t-46 -50t-59 -42.5t-72 -42h105q27 0 37 5.5t15 22.5l5 16h34l-12 -110
h-252z" />
    <glyph glyph-name="four.den" horiz-adv-x="319" 
d="M164 0v83h-151v21l134 248h58l-135 -232h94v119l86 11v-130h52v-37h-52v-83h-86z" />
    <glyph glyph-name="three.num" horiz-adv-x="307" 
d="M134 297q-61 0 -93 24t-32 60q0 23 14.5 37t33.5 14t29.5 -10.5t10.5 -25.5q0 -13 -10.5 -22.5t-10.5 -12.5q0 -10 11.5 -17.5t32.5 -7.5q70 0 70 73q0 62 -74 62h-29v35h28q65 0 65 70q0 50 -51 50q-15 0 -25.5 -5.5t-10.5 -11.5q0 -2 7.5 -11t7.5 -20
q0 -14 -10.5 -23.5t-27.5 -9.5q-20 0 -31 12.5t-11 31.5q0 37 35 56.5t84 19.5q58 0 91 -23.5t33 -62.5q0 -30 -22.5 -53t-59.5 -31v-3q48 -6 73 -28.5t25 -58.5q0 -49 -41 -78.5t-112 -29.5z" />
    <glyph glyph-name="dieresis.uc" horiz-adv-x="481" 
d="M142 717q-26 0 -44 17t-18 43t18 43t44 17t43.5 -17t17.5 -43t-17.5 -43t-43.5 -17zM342 717q-25 0 -43 17t-18 43t18 43t43 17q26 0 44 -17t18 -43t-18 -43t-44 -17z" />
    <glyph glyph-name="ring.uc" horiz-adv-x="481" 
d="M241 748q23 0 37.5 16t14.5 40t-14.5 40t-37.5 16q-24 0 -38.5 -16t-14.5 -40t14.5 -40t38.5 -16zM241 712q-39 0 -66 26.5t-27 65.5t27 65.5t66 26.5t65.5 -26.5t26.5 -65.5q0 -40 -26.5 -66t-65.5 -26z" />
    <glyph glyph-name="tilde.uc" horiz-adv-x="481" 
d="M298 735q-20 0 -68 13.5t-63 13.5q-33 0 -46 -42h-41q11 55 37.5 91.5t67.5 36.5q20 0 68 -13.5t62 -13.5q31 0 44 42h42q-11 -55 -37.5 -91.5t-65.5 -36.5z" />
    <glyph glyph-name="grave.uc" horiz-adv-x="481" 
d="M306 713h-33l-87 56q-37 22 -37 53q0 25 17 40t39 15q21 0 33.5 -11.5t20.5 -40.5z" />
    <glyph glyph-name="circumflex.uc" horiz-adv-x="481" 
d="M137 713h-34l95 139h85l95 -139h-34l-104 65z" />
    <glyph glyph-name="space_uni0326" horiz-adv-x="484" 
d="M183 -271l-13 34q83 28 83 76q0 18 -11 18q-3 0 -13.5 -6t-22.5 -6q-21 0 -32.5 13.5t-11.5 34.5q0 24 19.5 39.5t47.5 15.5q38 0 62 -23.5t24 -62.5q0 -52 -37 -86t-95 -47z" />
    <glyph glyph-name="caron.alt" horiz-adv-x="481" 
d="M183 498l-23 19q29 44 29 86q0 36 -26 62q7 46 47 46q23 0 37.5 -19t14.5 -49q0 -73 -79 -145z" />
    <glyph glyph-name="space_uni0326.alt" horiz-adv-x="484" 
d="M300 755l13 -35q-85 -24 -85 -75q0 -19 11 -19q4 0 15 6.5t22 6.5q45 0 45 -48q0 -24 -19.5 -39t-49.5 -15q-40 0 -64 23t-24 62q0 52 38 86t98 47z" />
    <glyph glyph-name="macron.uc" horiz-adv-x="481" 
d="M103 740v61h275v-61h-275z" />
    <glyph glyph-name="breve.uc" horiz-adv-x="481" 
d="M241 710q-60 0 -93.5 42t-37.5 100h40q13 -64 91 -64q77 0 90 64h40q-4 -56 -37.5 -99t-92.5 -43z" />
    <glyph glyph-name="dotaccent.uc" horiz-adv-x="481" 
d="M241 717q-26 0 -45.5 18.5t-19.5 44.5t19.5 44.5t45.5 18.5q27 0 46 -18.5t19 -44.5t-19 -44.5t-46 -18.5z" />
    <glyph glyph-name="hungarumlaut.uc" horiz-adv-x="481" 
d="M310 713h-30l21 118q9 46 50 46q19 0 34.5 -13t15.5 -35q0 -20 -25 -48zM155 713h-31l21 118q9 46 50 46q19 0 34.5 -13t15.5 -35q0 -20 -25 -48z" />
    <glyph glyph-name="idotaccent" horiz-adv-x="285" 
d="M19 0v47l71 4v348l-75 -9v51l177 40l10 -5v-425l65 -4v-47h-248zM145 563q-28 0 -47.5 19t-19.5 45q0 27 19.5 45.5t47.5 18.5t48 -18.5t20 -45.5q0 -26 -20 -45t-48 -19z" />
    <glyph glyph-name="eight.den" horiz-adv-x="330" 
d="M165 -10q-62 0 -104 28.5t-42 75.5q0 35 22.5 57.5t59.5 31.5q-29 9 -46.5 29.5t-17.5 49.5q0 42 35.5 69t92.5 27t92.5 -27t35.5 -69q0 -60 -63 -79q81 -19 81 -89q0 -47 -41.5 -75.5t-104.5 -28.5zM165 30q57 0 57 68q0 67 -57 67t-57 -67q0 -68 57 -68zM165 197
q46 0 46 63q0 28 -12.5 43.5t-33.5 15.5t-33.5 -15.5t-12.5 -43.5q0 -63 46 -63z" />
    <glyph glyph-name="three.den" horiz-adv-x="307" 
d="M134 -10q-61 0 -93 24t-32 60q0 23 14.5 37t33.5 14t29.5 -10.5t10.5 -25.5q0 -13 -10.5 -22.5t-10.5 -12.5q0 -10 11.5 -17.5t32.5 -7.5q70 0 70 73q0 62 -74 62h-29v35h28q65 0 65 70q0 50 -51 50q-15 0 -25.5 -5.5t-10.5 -11.5q0 -2 7.5 -11t7.5 -20
q0 -14 -10.5 -23.5t-27.5 -9.5q-20 0 -31 12.5t-11 31.5q0 37 35 56.5t84 19.5q58 0 91 -23.5t33 -62.5q0 -30 -22.5 -53t-59.5 -31v-3q48 -6 73 -28.5t25 -58.5q0 -49 -41 -78.5t-112 -29.5z" />
    <glyph glyph-name="five.num" horiz-adv-x="294" 
d="M126 297q-53 0 -84.5 22.5t-31.5 56.5q0 22 12.5 34.5t32.5 12.5q38 0 38 -33q0 -12 -9.5 -21t-9.5 -13q0 -8 12 -14t27 -6q68 0 68 86q0 65 -61 65q-36 0 -57 -19l-23 13v178h170l11 32h33l-12 -98h-158v-80q26 17 72 17q53 0 86.5 -28t33.5 -81q0 -60 -43 -92t-107 -32
z" />
    <glyph glyph-name="two.num" horiz-adv-x="306" 
d="M21 307l-3 51q99 79 125 109q44 49 44 96q0 63 -53 63q-42 0 -42 -26q0 -6 10 -18t10 -23q0 -15 -11.5 -26t-29.5 -11q-50 0 -50 52q0 40 37 65.5t90 25.5q67 0 100 -30.5t33 -73.5q0 -28 -15 -53.5t-46 -50t-59 -42.5t-72 -42h105q27 0 37 5.5t15 22.5l5 16h34l-12 -110
h-252z" />
    <glyph glyph-name="seven.num" horiz-adv-x="280" 
d="M85 307l130 283h-85q-36 0 -48.5 -6t-20.5 -29l-10 -29h-39l23 133h247v-38l-139 -314h-58z" />
    <glyph glyph-name="registered.alt" horiz-adv-x="737" 
d="M368 -19q-87 0 -163.5 40.5t-125 120.5t-48.5 182q0 152 101 249t236 97q87 0 164 -41.5t125.5 -122t48.5 -182.5q0 -153 -101 -248t-237 -95zM368 25q117 0 202 82t85 217q0 134 -85 218t-202 84t-201.5 -84t-84.5 -218q0 -135 84 -217t202 -82zM205 143v41l36 3v285
l-36 2v42h166q65 0 104 -25t39 -72q0 -36 -24.5 -59t-62.5 -32v-3q34 -5 51.5 -23t25.5 -54q9 -39 15.5 -52t21.5 -13q10 0 17 4l12 -28q-28 -22 -69 -22q-44 0 -63.5 25.5t-26.5 77.5q-6 44 -16.5 57.5t-36.5 13.5h-29v-123l40 -4v-41h-164zM362 474h-33v-127h38
q32 0 43.5 14t11.5 50q0 63 -60 63z" />
    <glyph glyph-name="dollar.old" horiz-adv-x="496" 
d="M220 -106v96q-92 5 -140.5 42.5t-48.5 93.5q0 36 17.5 54.5t45.5 18.5q26 0 41 -13.5t15 -35.5q0 -19 -16.5 -36.5t-16.5 -19.5q0 -51 103 -57v227q-91 31 -132 71.5t-41 117.5q0 80 50.5 127t128.5 53v55h43v-55q70 -4 119 -36.5t49 -83.5q0 -30 -15.5 -49t-41.5 -19
q-23 0 -39.5 14t-16.5 34q0 19 12.5 33t12.5 18q0 17 -22 28t-58 13v-209q95 -33 140.5 -73t45.5 -119q0 -89 -55.5 -138t-137.5 -56v-96h-42zM366 141q0 40 -25.5 64t-78.5 44v-211q48 6 76 31.5t28 71.5zM129 497q0 -43 20.5 -64t76.5 -42v194q-44 -5 -70.5 -28.5
t-26.5 -59.5z" />
    <glyph glyph-name="Euro.old" horiz-adv-x="555" 
d="M24 340v42h64q22 116 93 184t166 68q71 0 123 -40.5t52 -101.5q0 -32 -17.5 -51.5t-46.5 -19.5q-26 0 -43.5 14.5t-17.5 36.5q0 21 15.5 38.5t15.5 21.5q0 22 -21 36.5t-50 14.5q-134 0 -154 -201h174v-42h-176q-1 -12 -1 -37v-25h177v-42h-174q8 -99 43.5 -145
t101.5 -46q94 0 138 108l40 -19q-25 -73 -77 -112.5t-127 -39.5q-100 0 -164.5 68t-76.5 186h-57v42h55v4q0 30 3 58h-58z" />
    <glyph glyph-name="sterling.old" horiz-adv-x="518" 
d="M59 270v43h69q-28 72 -28 120q0 89 56.5 145t153.5 56q76 0 125 -37.5t49 -102.5q0 -37 -19.5 -57.5t-48.5 -20.5q-27 0 -44.5 15.5t-17.5 35.5t18.5 39t18.5 33q0 17 -20.5 31t-48.5 14q-43 0 -70.5 -32t-27.5 -90q0 -66 19 -149h151v-43h-143q9 -56 9 -92t-6 -66
q77 -25 126 -25q41 0 59.5 19t27.5 61l35 -6q-7 -86 -36.5 -132t-94.5 -46q-68 0 -143 60q-37 -61 -112 -61q-45 0 -70 21.5t-25 57.5q0 41 27 63t70 22q29 0 70 -12q-8 49 -43 136h-86zM118 25q54 0 68 49q-40 26 -71 26q-43 0 -43 -38q0 -37 46 -37z" />
    <glyph glyph-name="yen.old" horiz-adv-x="521" 
d="M66 297v40h129l-136 235l-40 4v47h230v-47l-60 -5l112 -205l98 191l-64 19v47h167v-47l-48 -20l-115 -219h124v-40h-137v-62h137v-42h-137v-141l72 -7v-45h-264v45l73 8v140h-141v42h141v62h-141z" />
    <glyph glyph-name="zero.old" horiz-adv-x="540" 
d="M295 41q72 0 112 51.5t40 146.5q0 93 -40 145.5t-112 52.5q-147 0 -147 -198t147 -198zM276 -18q-105 0 -177 73t-72 184t72 184t177 73q111 0 173.5 -71.5t62.5 -185.5q0 -116 -62 -186.5t-174 -70.5z" />
    <glyph glyph-name="one.old" horiz-adv-x="338" 
d="M28 0v47l83 5v375l-83 5v48h281v-48l-84 -5v-375l84 -5v-47h-281z" />
    <glyph glyph-name="two.old" horiz-adv-x="491" 
d="M39 0l-4 72q47 23 76.5 39t69.5 43.5t63.5 52.5t40.5 60t17 73q0 105 -90 105q-40 0 -61 -16.5t-21 -39.5q0 -14 16.5 -31.5t16.5 -39.5q0 -20 -17 -35.5t-42 -15.5q-31 0 -49.5 19t-18.5 56q0 64 55.5 109t140.5 45q98 0 147 -42.5t49 -114.5t-86 -141.5t-188 -107.5
h171q37 0 50.5 7.5t24.5 28.5l20 48h42l-32 -174h-391z" />
    <glyph glyph-name="three.old" horiz-adv-x="477" 
d="M202 -176q-83 0 -138 36.5t-55 95.5q0 34 19.5 52.5t47.5 18.5q26 0 42.5 -15t16.5 -37q0 -24 -18 -40.5t-18 -19.5q0 -17 25 -29.5t55 -12.5q70 0 104.5 34t34.5 116q0 64 -37 96t-104 32h-55v51h53q54 0 86.5 37.5t32.5 98.5q0 108 -94 108q-27 0 -48.5 -10.5
t-21.5 -22.5q0 -5 7.5 -10.5t15 -16t7.5 -27.5q0 -21 -16.5 -36t-39.5 -15q-28 0 -45.5 17.5t-17.5 46.5q0 56 55 90t124 34q91 0 143 -43.5t52 -109.5q0 -52 -42.5 -97.5t-102.5 -59.5v-5q86 -11 131 -54t45 -110q0 -87 -68.5 -140t-175.5 -53z" />
    <glyph glyph-name="four.old" horiz-adv-x="586" 
d="M313 -186v216h-288v26l275 481l65 4l-257 -458h205v280l115 8v-288h134v-53h-134v-216h-115z" />
    <glyph glyph-name="five.old" horiz-adv-x="475" 
d="M194 -176q-77 0 -131 36t-54 96q0 32 19.5 50.5t47.5 18.5q22 0 39 -14.5t17 -37.5q0 -17 -9 -29t-17.5 -19t-8.5 -12q0 -16 24.5 -28t53.5 -12q63 0 100.5 42.5t37.5 126.5q0 68 -31 95.5t-87 27.5q-62 0 -95 -31l-29 12v334h277l17 66h41l-20 -166h-257v-183
q46 28 110 28q95 0 148 -45.5t53 -131.5q0 -107 -73.5 -165.5t-172.5 -58.5z" />
    <glyph glyph-name="six.old" horiz-adv-x="554" 
d="M283 -18q-116 0 -181 79t-65 209q0 213 122 337t314 124v-52q-137 -11 -212 -83.5t-94 -211.5q73 46 156 46q88 0 145.5 -50t57.5 -156q0 -96 -65 -169t-178 -73zM278 371q-66 0 -115 -36q-2 -13 -2 -59q0 -126 29.5 -185t91.5 -59q63 0 92 50.5t29 133.5q0 155 -125 155
z" />
    <glyph glyph-name="seven.old" horiz-adv-x="481" 
d="M234 -206q-44 0 -68.5 24.5t-24.5 63.5q0 52 45 120l191 375h-191q-51 0 -65.5 -9t-24.5 -44l-21 -59h-42l29 215h410v-37l-236 -464q-26 -49 -26 -75q0 -25 29 -25q7 0 14 2.5t10 4.5t9 8l7 5q35 -8 35 -44q0 -27 -23 -44t-57 -17z" />
    <glyph glyph-name="eight.old" horiz-adv-x="524" 
d="M262 -18q-102 0 -166 54t-64 141q0 66 39 109.5t101 60.5q-54 20 -84 61.5t-30 95.5q0 74 56.5 126.5t147.5 52.5q90 0 144.5 -52t54.5 -127q0 -56 -31 -99t-77 -58q63 -16 101 -60t38 -110q0 -87 -64 -141t-166 -54zM262 31q57 0 84 39.5t27 107.5q0 144 -111 144
q-60 0 -85 -36.5t-25 -107.5q0 -147 110 -147zM262 367q90 0 90 136q0 63 -23 97t-67 34q-45 0 -69 -34t-24 -97q0 -66 24 -101t69 -35z" />
    <glyph glyph-name="nine.old" horiz-adv-x="552" 
d="M78 -248v52q142 11 215.5 78t91.5 203q-71 -47 -155 -47q-88 0 -145.5 51.5t-57.5 158.5q0 97 65 172.5t177 75.5q118 0 182.5 -82.5t64.5 -220.5q0 -209 -121 -325t-317 -116zM275 97q63 0 115 35q2 40 2 64q0 128 -29.5 188t-90.5 60q-122 0 -122 -188
q0 -78 32.5 -118.5t92.5 -40.5z" />
    <glyph glyph-name="percent.old" horiz-adv-x="689" 
d="M73 -1l499 612l34 -27l-499 -611zM176 341q61 0 61 114t-61 114q-60 0 -60 -114q0 -53 15.5 -83.5t44.5 -30.5zM176 302q-60 0 -106 43.5t-46 109.5t46 110.5t106 44.5q63 0 107 -44.5t44 -110.5q0 -67 -43.5 -110t-107.5 -43zM513 29q60 0 60 112q0 115 -60 115
q-61 0 -61 -115q0 -52 16 -82t45 -30zM513 -11q-61 0 -106 43t-45 109q0 67 45 111.5t106 44.5q63 0 106.5 -45t43.5 -111q0 -67 -43.5 -109.5t-106.5 -42.5z" />
    <glyph glyph-name="perthousand.old" horiz-adv-x="1027" 
d="M176 341q61 0 61 114t-61 114q-60 0 -60 -114q0 -53 15.5 -83.5t44.5 -30.5zM176 302q-60 0 -106 43.5t-46 109.5t46 110.5t106 44.5q63 0 107 -44.5t44 -110.5q0 -67 -43.5 -110t-107.5 -43zM513 29q60 0 60 112q0 115 -60 115q-61 0 -61 -115q0 -52 16 -82t45 -30z
M513 -11q-61 0 -106 43t-45 109q0 67 45 111.5t106 44.5q63 0 106.5 -45t43.5 -111q0 -67 -43.5 -109.5t-106.5 -42.5zM851 29q61 0 61 112q0 115 -61 115q-29 0 -45 -30.5t-16 -84.5q0 -52 16 -82t45 -30zM851 -11q-60 0 -105.5 43t-45.5 109q0 67 46 111.5t105 44.5
q63 0 107.5 -45t44.5 -111q0 -67 -44 -109.5t-108 -42.5zM73 -1l499 612l34 -27l-499 -611z" />
    <glyph glyph-name="plus.old" horiz-adv-x="462" 
d="M38 217v56h164v171h58v-171h164v-56h-164v-170h-58v170h-164z" />
    <glyph glyph-name="minus.old" horiz-adv-x="462" 
d="M38 217v56h385v-56h-385z" />
    <glyph glyph-name="multiply.old" horiz-adv-x="438" 
d="M82 59l-39 39l136 138l-136 138l39 39l136 -138l137 138l40 -39l-137 -138l137 -138l-40 -39l-137 137z" />
    <glyph glyph-name="divide.old" horiz-adv-x="462" 
d="M38 217v56h385v-56h-385zM231 21q-30 0 -49 19t-19 48t19 48t49 19q29 0 48.5 -19t19.5 -48t-19.5 -48t-48.5 -19zM231 335q-30 0 -49 18.5t-19 48.5q0 29 19 48t49 19q29 0 48.5 -19t19.5 -48q0 -30 -19 -48.5t-49 -18.5z" />
    <glyph glyph-name="equal.old" horiz-adv-x="462" 
d="M38 279v56h385v-56h-385zM38 134v55h385v-55h-385z" />
    <glyph glyph-name="less.old" horiz-adv-x="428" 
d="M385 55l-350 159v49l350 159v-63l-273 -120l273 -121v-63z" />
    <glyph glyph-name="greater.old" horiz-adv-x="428" 
d="M41 55v63l273 120l-273 121v63l349 -159v-49z" />
    <glyph glyph-name="numbersign.old" horiz-adv-x="458" 
d="M219 0l31 157h-93l-31 -157h-53l31 157h-83l17 86h83l21 103h-83l17 86h83l29 143h53l-29 -143h93l29 143h53l-29 -143h84l-16 -86h-85l-21 -103h84l-16 -86h-85l-31 -157h-53zM195 346l-21 -103h93l21 103h-93z" />
    <glyph glyph-name="dollar.lin" horiz-adv-x="522" 
d="M231 -113v102q-95 6 -146.5 45.5t-51.5 97.5q0 38 19 58t48 20q26 0 42 -14.5t16 -37.5q0 -20 -17.5 -37.5t-17.5 -21.5q0 -53 108 -59v238q-95 32 -138 76.5t-43 125.5q0 82 53 131t135 58v58h46v-58q74 -4 126.5 -38.5t52.5 -88.5q0 -32 -17 -51.5t-44 -19.5
q-25 0 -42 14.5t-17 35.5q0 20 13 34.5t13 20.5q0 17 -23.5 28t-61.5 13v-218q100 -35 149 -78t49 -127q0 -95 -59.5 -146.5t-145.5 -58.5v-102h-46zM386 150q0 40 -26.5 65t-82.5 47v-221q50 6 79.5 33t29.5 76zM139 524q0 -43 21.5 -65.5t77.5 -43.5v201
q-46 -5 -72.5 -29.5t-26.5 -62.5z" />
    <glyph glyph-name="Euro.lin" horiz-adv-x="587" 
d="M34 359v43h67q24 124 98.5 196t176.5 72q75 0 129.5 -43t54.5 -107q0 -35 -18.5 -55.5t-49.5 -20.5q-28 0 -46 16t-18 39t16 41.5t17 22.5q0 23 -21.5 37.5t-54.5 14.5q-140 0 -160 -213h180v-43h-182q-1 -13 -1 -39v-27h183v-43h-180q8 -105 44.5 -154t105.5 -49
q98 0 147 113l42 -17q-55 -162 -216 -162q-105 0 -173.5 72.5t-80.5 196.5h-60v43h58v5q0 31 3 61h-61z" />
    <glyph glyph-name="sterling.lin" horiz-adv-x="546" 
d="M55 289v45h71q-28 75 -28 123q0 95 60.5 154t162.5 59q79 0 130.5 -40t51.5 -108q0 -40 -19.5 -61t-51.5 -21q-28 0 -47 16.5t-19 37.5q0 22 20 41.5t20 33.5q0 18 -22 33t-51 15q-44 0 -72 -34.5t-28 -93.5q0 -57 18 -155h157v-45h-150q10 -50 10 -102q0 -37 -6 -67
q83 -25 132 -25q44 0 63.5 18.5t28.5 62.5l37 -6q-14 -188 -137 -188q-30 0 -60 10.5t-47 21.5t-45 32q-41 -65 -119 -65q-48 0 -74 22.5t-26 61.5q0 43 28 66t75 23q30 0 73 -12q-7 44 -47 147h-89zM117 27q56 0 73 52q-42 28 -76 28q-22 0 -34 -11t-12 -30q0 -39 49 -39z
" />
    <glyph glyph-name="yen.lin" horiz-adv-x="549" 
d="M68 313v44h134l-141 248l-42 4v50h246v-50l-65 -5l119 -216l104 200l-68 21v50h175v-50l-50 -21l-122 -231h132v-44h-145v-65h145v-45h-145v-148l76 -7v-48h-281v48l79 8v147h-151v45h151v65h-151z" />
    <glyph glyph-name="zero.lin" horiz-adv-x="599" 
d="M299 36q67 0 100 69.5t33 218.5q0 150 -33 220.5t-100 70.5q-133 0 -133 -291q0 -288 133 -288zM299 -19q-108 0 -188 95t-80 248t80 249.5t188 96.5q109 0 189 -96.5t80 -249.5t-80 -248t-189 -95z" />
    <glyph glyph-name="one.lin" horiz-adv-x="375" 
d="M24 494v54l188 122h49v-614l90 -8v-48h-316v48l98 9v488z" />
    <glyph glyph-name="two.lin" horiz-adv-x="496" 
d="M25 0l-6 72q22 20 61 54.5t59 52.5t50.5 47.5t46.5 48.5t36 46.5t29.5 50.5t16.5 51t7 57q0 68 -28 102t-77 34q-40 0 -64 -16.5t-24 -39.5q0 -14 19.5 -34t19.5 -39q0 -23 -19 -39t-45 -16q-34 0 -54 21t-20 60q0 67 59.5 112t146.5 45q109 0 165.5 -57t56.5 -137
q0 -41 -21.5 -84t-50.5 -77t-82 -77t-90.5 -69t-101.5 -69h222q38 0 52.5 7.5t19.5 26.5l13 53h41l-22 -187h-416z" />
    <glyph glyph-name="three.lin" horiz-adv-x="509" 
d="M227 -18q-96 0 -151.5 42t-55.5 108q0 34 19.5 53t47.5 19q27 0 44 -15t17 -39q0 -17 -10 -29.5t-19.5 -19.5t-9.5 -11q0 -20 26.5 -37.5t67.5 -17.5q71 0 105 36t34 118q0 63 -37.5 95t-104.5 32h-53v51h52q58 0 90.5 35.5t32.5 105.5q0 109 -102 109q-30 0 -52 -9.5
t-22 -21.5q0 -3 16 -19t16 -37q0 -22 -16.5 -37t-42.5 -15q-28 0 -46 18.5t-18 47.5q0 58 56.5 92t128.5 34q96 0 151.5 -43.5t55.5 -111.5q0 -58 -43 -102.5t-107 -59.5v-4q91 -12 136.5 -56.5t45.5 -112.5q0 -87 -72 -142.5t-180 -55.5z" />
    <glyph glyph-name="four.lin" horiz-adv-x="542" 
d="M223 0v48l79 8v138h-276v29l156 274q27 42 27 66q0 28 -23 28q-21 0 -29 -25q-36 10 -36 51q0 25 22.5 42.5t53.5 17.5q39 0 58.5 -21.5t19.5 -53.5q0 -43 -53 -132l-121 -223h201v217l121 19v-236h95v-53h-95v-139l74 -7v-48h-274z" />
    <glyph glyph-name="five.lin" horiz-adv-x="494" 
d="M210 -18q-83 0 -136 37t-53 102q0 33 19.5 52t49.5 19q23 0 41 -14.5t18 -37.5q0 -17 -9.5 -30t-19.5 -21t-10 -14q0 -17 22.5 -28.5t57.5 -11.5q65 0 103 44t38 133q0 79 -33 109.5t-91 30.5q-56 0 -100 -36l-29 14v329h294l15 48h39l-17 -152h-272v-172q46 30 114 30
q99 0 156 -49.5t57 -146.5q0 -110 -75.5 -172.5t-178.5 -62.5z" />
    <glyph glyph-name="six.lin" horiz-adv-x="546" 
d="M284 -19q-115 0 -183.5 78t-68.5 199q0 194 118.5 301t317.5 107v-51q-143 -10 -215 -76t-86 -198q70 50 150 50q88 0 145.5 -48t57.5 -145q0 -90 -63.5 -153.5t-172.5 -63.5zM276 330q-60 0 -112 -35v-29q0 -121 28.5 -176t90.5 -55q57 0 84.5 42t27.5 114
q0 68 -30.5 103.5t-88.5 35.5z" />
    <glyph glyph-name="seven.lin" horiz-adv-x="482" 
d="M231 -13q-43 0 -67 24.5t-24 62.5q0 53 45 122l193 359h-175q-66 0 -84.5 -9t-30.5 -48l-17 -54h-42l30 215h416v-42l-236 -438q-27 -43 -27 -71q0 -25 31 -25q21 0 36 17q35 -8 35 -48q0 -29 -24 -47t-59 -18z" />
    </font>
</defs>
</svg>
