<?xml version="1.0" standalone="no"?>
<!DOCTYPE svg PUBLIC "-//W3C//DTD SVG 1.1//EN" "http://www.w3.org/Graphics/SVG/1.1/DTD/svg11.dtd" >
<svg xmlns="http://www.w3.org/2000/svg" xmlns:xlink="http://www.w3.org/1999/xlink" version="1.1">
<metadata>
Created by FontForge 20170731 at Fri Feb 14 00:57:44 2014
 By Aleksey,,,
Copyright (c) 2014 by Commercial Type, Inc.. All rights reserved.
</metadata>
<defs>
<font id="CaponiText" horiz-adv-x="610" >
  <font-face 
    font-family="CaponiText"
    font-weight="400"
    font-variant="small-caps"
    font-stretch="normal"
    units-per-em="1000"
    panose-1="0 0 0 0 0 0 0 0 0 0"
    ascent="764"
    descent="-236"
    x-height="463"
    cap-height="659"
    bbox="-174 -300 1066 1108"
    underline-thickness="47"
    underline-position="81"
    unicode-range="U+000D-FB04"
  />
<missing-glyph horiz-adv-x="226" 
 />
    <glyph glyph-name="f_b" unicode="fb" horiz-adv-x="819" 
d="M442 -7l-139 11v39l61 -2v520q-34 9 -34 45q0 18 12.5 31t12.5 18q0 19 -42 19q-65 0 -101 -42t-36 -123v-45h128v-44h-128l2 -376l60 -4v-40h-219v40l71 4v376h-66v32q48 8 66 20v4q0 108 63.5 175t156.5 67q60 0 95 -29l40 21l8 -3v-281q69 54 145 54q91 0 140.5 -66.5
t49.5 -191.5q0 -108 -59.5 -171t-142.5 -63q-45 0 -74.5 12.5t-58.5 40.5v-12h-1v-36h-10zM566 426q-55 0 -113 -35v-308q47 -42 108 -42q64 0 99.5 47t35.5 141q0 93 -32.5 145t-97.5 52z" />
    <glyph glyph-name="f_f_b" unicode="ffb" horiz-adv-x="1094" 
d="M24 420v32q48 8 66 20q2 99 68 162.5t154 63.5q82 0 112 -51q65 71 161 71q61 0 96 -29l39 21l8 -3v-281q69 54 146 54q91 0 140 -66.5t49 -191.5q0 -108 -59.5 -171t-142.5 -63q-45 0 -74.5 12.5t-58.5 40.5v-12h-1v-36h-10l-139 11v39l62 -2v520q-36 9 -36 45
q0 18 13 31t13 18q0 19 -42 19q-64 0 -100 -41.5t-36 -123.5v-45h127v-44h-127l1 -376l60 -4v-40h-210v40l61 4v376h-187l1 -376l60 -4v-40h-219v40l71 4v376h-66zM841 426q-57 0 -113 -35v-308q45 -42 108 -42q64 0 99 47t35 141q0 92 -32.5 144.5t-96.5 52.5zM312 655
q-61 0 -98 -41t-37 -121v-29h187v12q0 31 8 68q-41 5 -41 43q0 17 13 31t13 16q0 21 -45 21z" />
    <glyph glyph-name="f_f_h" unicode="ffh" horiz-adv-x="1083" 
d="M24 420v32q48 8 66 20q2 99 68 162.5t154 63.5q82 0 112 -51q65 71 161 71q61 0 96 -29l39 21l8 -3v-319q33 37 62 58q48 35 90 35q125 0 125 -134v-305l61 -2v-40h-213v40l65 3v301q0 66 -75 66q-52 0 -115 -47v-319l60 -4v-40h-210v40l62 3v518q-36 9 -36 45
q0 18 13 31t13 18q0 19 -42 19q-64 0 -100 -41.5t-36 -123.5v-45h127v-44h-127l1 -376l60 -4v-40h-210v40l61 4v376h-187l1 -376l60 -4v-40h-219v40l71 4v376h-66zM312 655q-61 0 -98 -41t-37 -121v-29h187v12q0 31 8 68q-41 5 -41 43q0 17 13 31t13 16q0 21 -45 21z" />
    <glyph glyph-name="f_f_j" unicode="ffj" horiz-adv-x="809" 
d="M24 420v32q48 8 66 20q2 99 68 162.5t154 63.5q86 0 113 -53q64 73 160 73q64 0 99.5 -29t35.5 -70q0 -33 -17 -50t-42 -17q-23 0 -38.5 12.5t-15.5 34.5q0 19 14.5 33t14.5 18q0 9 -12.5 16.5t-37.5 7.5q-62 0 -98 -44.5t-36 -126.5v-39h230l38 9l8 -4v-525
q0 -95 -53.5 -169.5t-131.5 -74.5q-23 0 -39 15t-16 35q0 21 9.5 33.5t27.5 12.5q31 0 66 -30q49 25 49 121v533h-188l1 -376l79 -4v-40h-229v40l61 4v376h-187l1 -376l60 -4v-40h-219v40l71 4v376h-66zM312 655q-61 0 -98 -41t-37 -121v-29h187v6q0 40 9 74q-42 5 -42 43
q0 17 13 31t13 16q0 21 -45 21z" />
    <glyph glyph-name="f_f_k" unicode="ffk" horiz-adv-x="1072" 
d="M24 420v32q48 8 66 20q2 99 68 162.5t154 63.5q82 0 112 -51q65 71 161 71q61 0 96 -29l39 21l8 -3v-662l60 -5v-40h-210v40l62 6v515q-36 9 -36 45q0 18 13 31t13 18q0 19 -42 19q-64 0 -100 -41.5t-36 -123.5v-45h127v-44h-127l1 -376l60 -4v-40h-210v40l61 4v376h-187
l1 -376l60 -4v-40h-219v40l71 4v376h-66zM859 0v40l47 3l-167 199v11l159 160l-64 13v38h192v-38l-73 -11l-138 -138l196 -234l51 -3v-40h-203zM312 655q-61 0 -98 -41t-37 -121v-29h187v12q0 31 8 68q-41 5 -41 43q0 17 13 31t13 16q0 21 -45 21z" />
    <glyph glyph-name="f_h" unicode="fh" horiz-adv-x="809" 
d="M303 0v40l61 3v518q-34 9 -34 45q0 18 12.5 31t12.5 18q0 19 -42 19q-64 0 -100 -41.5t-36 -123.5v-45h127v-44h-127l1 -376l60 -4v-40h-219v40l71 4v376h-66v32q48 8 66 20v4q0 108 63.5 175t156.5 67q60 0 95 -29l40 21l8 -3v-318q29 31 63 57q47 35 90 35
q124 0 124 -134v-305l62 -2v-40h-214v40l65 3v301q0 66 -75 66q-52 0 -115 -47v-319l60 -4v-40h-210z" />
    <glyph glyph-name="f_j" unicode="fj" horiz-adv-x="534" 
d="M24 420v32q48 8 66 20q0 109 64.5 177.5t155.5 68.5q64 0 99.5 -29t35.5 -70q0 -33 -17.5 -50t-42.5 -17q-22 0 -37.5 12.5t-15.5 34.5q0 19 14.5 33t14.5 18q0 24 -49 24q-63 0 -99 -44t-36 -127v-39h230l38 9l8 -4v-477q0 -95 -53.5 -169.5t-131.5 -74.5
q-24 0 -39.5 14.5t-15.5 35.5t9.5 33.5t27.5 12.5q31 0 66 -30q50 26 50 121v485h-189l1 -376l80 -4v-40h-239v40l71 4v376h-66z" />
    <glyph glyph-name="f_k" unicode="fk" horiz-adv-x="797" 
d="M303 0v40l61 5v516q-34 9 -34 45q0 18 12.5 31t12.5 18q0 19 -42 19q-64 0 -100 -41.5t-36 -123.5v-45h127v-44h-127l1 -376l60 -4v-40h-219v40l71 4v376h-66v32q48 8 66 20v4q0 108 63.5 175t156.5 67q60 0 95 -29l40 21l8 -3v-662l60 -5v-40h-210zM584 0v40l48 3
l-168 199v11l159 160l-64 13v38h192v-38l-72 -11l-138 -138l195 -234l51 -3v-40h-203z" />
    <glyph glyph-name="f_f" unicode="ff" horiz-adv-x="601" 
d="M24 420v32q48 8 66 20q2 99 68 162.5t154 63.5q78 0 109 -47q58 67 144 67q53 0 84.5 -25.5t31.5 -64.5q0 -33 -17 -49.5t-40 -16.5q-22 0 -37 12t-15 34q0 19 14 33t14 18q0 15 -36 15q-53 0 -82.5 -42.5t-29.5 -121.5v-46h127v-44h-127l1 -376l79 -4v-40h-229v40l61 4
v376h-187l1 -376l60 -4v-40h-219v40l71 4v376h-66zM312 655q-61 0 -98 -41t-37 -121v-29h187v15q0 35 6 65q-39 6 -39 43q0 17 13 31t13 16q0 21 -45 21z" />
    <glyph glyph-name="f_i" unicode="fi" horiz-adv-x="538" 
d="M24 420v32q48 8 66 20q0 109 63.5 177.5t153.5 68.5q65 0 100 -28.5t35 -70.5q0 -33 -17.5 -50t-42.5 -17q-22 0 -38 12.5t-16 34.5q0 19 15 33t15 18q0 24 -49 24q-62 0 -97 -44t-35 -127v-39h229l39 9l8 -4v-425l67 -4v-40h-217v40l61 4v376h-187l1 -376l60 -4v-40
h-219v40l71 4v376h-66z" />
    <glyph glyph-name="f_l" unicode="fl" horiz-adv-x="543" 
d="M24 420v32q48 8 66 20v4q0 108 63.5 175t156.5 67q60 0 95 -29l40 21l8 -3v-663l72 -4v-40h-222v40l61 4v376h-187l1 -376l60 -4v-40h-219v40l71 4v376h-66zM313 674q-64 0 -100 -41.5t-36 -123.5v-45h187v97q-34 9 -34 45q0 18 12.5 31t12.5 18q0 19 -42 19z" />
    <glyph glyph-name="f_f_i" unicode="ffi" horiz-adv-x="813" 
d="M24 420v32q48 8 66 20q2 99 68 162.5t154 63.5q82 0 113 -53q62 73 157 73q65 0 100 -28.5t35 -70.5q0 -33 -17.5 -50t-42.5 -17q-22 0 -38 12.5t-16 34.5q0 19 15 33t15 18q0 24 -49 24q-63 0 -97.5 -44t-34.5 -127v-39h230l38 9l8 -4v-425l67 -4v-40h-217v40l62 4v376
h-188l1 -376l60 -4v-40h-210v40l61 4v376h-187l1 -376l60 -4v-40h-219v40l71 4v376h-66zM312 655q-61 0 -98 -41t-37 -121v-29h187v6q0 48 8 74q-41 5 -41 43q0 17 13 31t13 16q0 21 -45 21z" />
    <glyph glyph-name="f_f_l" unicode="ffl" horiz-adv-x="818" 
d="M24 420v32q48 8 66 20q2 99 68 162.5t154 63.5q82 0 112 -51q65 71 161 71q61 0 96 -29l39 21l8 -3v-663l72 -4v-40h-222v40l62 4v376h-188l1 -376l60 -4v-40h-210v40l61 4v376h-187l1 -376l60 -4v-40h-219v40l71 4v376h-66zM588 674q-64 0 -100 -41.5t-36 -123.5v-45
h188v97q-36 9 -36 45q0 18 13 31t13 18q0 19 -42 19zM312 655q-61 0 -98 -41t-37 -121v-29h187v12q0 31 8 68q-41 5 -41 43q0 17 13 31t13 16q0 21 -45 21z" />
    <glyph glyph-name=".notdef" horiz-adv-x="226" 
 />
    <glyph glyph-name=".null" horiz-adv-x="0" 
 />
    <glyph glyph-name="nonmarkingreturn" horiz-adv-x="333" 
 />
    <glyph glyph-name="NULL" horiz-adv-x="0" 
 />
    <glyph glyph-name="NULL" horiz-adv-x="0" 
 />
    <glyph glyph-name="CR" unicode="&#xd;" horiz-adv-x="226" 
 />
    <glyph glyph-name="space" unicode=" " horiz-adv-x="226" 
 />
    <glyph glyph-name="exclam" unicode="!" horiz-adv-x="233" 
d="M100 200l-43 399q-5 31 13 51.5t46 20.5q29 0 46.5 -20.5t12.5 -51.5l-42 -399h-33zM116 -18q-26 0 -43.5 18t-17.5 45t17.5 44.5t43.5 17.5q27 0 44.5 -17.5t17.5 -44.5t-17.5 -45t-44.5 -18z" />
    <glyph glyph-name="quotedbl" unicode="&#x22;" horiz-adv-x="338" 
d="M80 431l-35 171q-8 39 6 58t43 19q62 0 47 -77l-35 -171h-26zM232 431l-36 171q-8 39 6.5 58t43.5 19q62 0 46 -77l-34 -171h-26z" />
    <glyph glyph-name="numbersign" unicode="#" horiz-adv-x="458" 
d="M60 373l13 71h87l35 174h48l-35 -174h95l35 174h48l-35 -174h85l-13 -71h-86l-23 -113h85l-13 -71h-86l-37 -189h-48l37 189h-95l-37 -189h-48l37 189h-87l15 71h86l23 113h-86zM194 373l-23 -113h95l23 113h-95z" />
    <glyph glyph-name="dollar" unicode="$" horiz-adv-x="501" 
d="M224 -110v98q-88 4 -137.5 44t-49.5 97q0 36 17 53t41 17q21 0 35 -12.5t14 -33.5t-18 -37t-18 -19q0 -29 31 -45.5t85 -18.5v254q-88 28 -130 67.5t-42 113.5q0 82 49.5 129.5t124.5 53.5v57h41v-57q69 -4 118 -37t49 -83q0 -31 -15 -48.5t-38 -17.5q-21 0 -36 13
t-15 33q0 19 14 33t14 17q0 20 -25.5 32t-65.5 14v-231q46 -17 74 -30.5t56 -35.5t41 -53.5t13 -74.5q0 -89 -54 -137.5t-133 -55.5v-99h-40zM381 148q0 46 -29 74.5t-88 51.5v-240q54 6 85.5 34.5t31.5 79.5zM120 497q0 -40 23.5 -63t82.5 -44v216q-48 -6 -77 -33t-29 -76z
" />
    <glyph glyph-name="percent" unicode="%" horiz-adv-x="697" 
d="M72 -14l509 659l32 -24l-510 -658zM177 348q34 0 52 33.5t18 92.5t-18 93t-52 34q-33 0 -51 -34.5t-18 -92.5t18 -92t51 -34zM177 311q-59 0 -104 47t-45 116q0 68 45 116.5t104 48.5q63 0 105.5 -48t42.5 -117q0 -70 -42 -116.5t-106 -46.5zM520 25q34 0 51.5 34
t17.5 93q0 126 -69 126q-33 0 -51 -34t-18 -92t18 -92.5t51 -34.5zM520 -12q-60 0 -104 47t-44 117q0 68 44 116t104 48q63 0 105.5 -47.5t42.5 -116.5q0 -70 -42 -117t-106 -47z" />
    <glyph glyph-name="ampersand" unicode="&#x26;" horiz-adv-x="743" 
d="M232 -18q-88 0 -143 51.5t-55 128.5q0 71 43 125.5t123 87.5q-43 39 -61 70t-18 78q0 60 43.5 103.5t119.5 43.5q63 0 101.5 -35t38.5 -101q0 -44 -30.5 -80t-81.5 -61q83 -73 165 -177q34 59 86 169l-61 9v39h177v-39l-62 -8q-21 -34 -58.5 -101t-58.5 -99
q27 -36 38.5 -50.5t34 -40.5t39 -36.5t30.5 -10.5t27 1.5t22.5 4.5t15.5 5.5t11 4.5l4 2l11 -31q-51 -53 -129 -53q-26 0 -50 11t-46.5 34t-33.5 37t-31 41q-93 -123 -211 -123zM422 134q-111 144 -197 220q-105 -52 -105 -158q0 -57 40 -101.5t110 -46.5q85 -1 152 86z
M202 546q0 -38 15 -61t56 -58q8 -8 17 -14q73 47 73 126q0 38 -21 61.5t-58 23.5q-36 0 -59 -22.5t-23 -55.5z" />
    <glyph glyph-name="quotesingle" unicode="'" horiz-adv-x="186" 
d="M80 431l-35 171q-8 39 6 58t43 19q62 0 47 -77l-35 -171h-26z" />
    <glyph glyph-name="parenleft" unicode="(" horiz-adv-x="350" 
d="M321 -166l-27 -24q-50 55 -82 96t-68 102t-54 130.5t-18 147.5t18 147t53.5 129.5t68 102.5t82.5 96l27 -24q-82 -107 -125 -210.5t-43 -240.5t43.5 -243t124.5 -209z" />
    <glyph glyph-name="parenright" unicode=")" horiz-adv-x="350" 
d="M52 -190l-27 24q81 103 124.5 209t43.5 243t-43 240.5t-125 210.5l27 24q41 -46 65 -75.5t58 -80t52.5 -93.5t32.5 -103t14 -123t-14 -123t-32.5 -103.5t-52.5 -94t-58 -80t-65 -75.5z" />
    <glyph glyph-name="asterisk" unicode="*" horiz-adv-x="353" 
d="M91 382l-23 20l60 95l-94 55l12 28l99 -29l15 108h32l14 -108l100 29l13 -28l-94 -55l60 -96l-24 -19l-85 82z" />
    <glyph glyph-name="plus" unicode="+" horiz-adv-x="458" 
d="M40 262v51h164v170h52v-170h162v-51h-162v-169h-52v169h-164z" />
    <glyph glyph-name="comma" unicode="," horiz-adv-x="267" 
d="M80 -185l-17 29q94 55 94 130q0 15 -5.5 24t-12.5 9q-3 0 -15 -9.5t-26 -9.5q-25 0 -38.5 15t-13.5 41q0 27 21.5 46t53.5 19q44 0 69.5 -30t25.5 -85q0 -62 -38 -107.5t-98 -71.5z" />
    <glyph glyph-name="hyphen" unicode="-" horiz-adv-x="327" 
d="M64 215v77h198v-77h-198z" />
    <glyph glyph-name="period" unicode="." horiz-adv-x="215" 
d="M108 -17q-27 0 -44.5 18t-17.5 45t17.5 44.5t44.5 17.5t44.5 -17.5t17.5 -44.5t-17.5 -45t-44.5 -18z" />
    <glyph glyph-name="slash" unicode="/" horiz-adv-x="374" 
d="M-12 -181l313 932h54l-315 -932h-52z" />
    <glyph glyph-name="zero" unicode="0" horiz-adv-x="567" 
d="M283 27q151 0 151 256q0 123 -37.5 190t-113.5 67q-74 0 -111.5 -67t-37.5 -190t37.5 -189.5t111.5 -66.5zM283 -19q-101 0 -176 85t-75 217q0 131 75 216.5t176 85.5q102 0 177 -85.5t75 -216.5q0 -132 -75 -217t-177 -85z" />
    <glyph glyph-name="one" unicode="1" horiz-adv-x="340" 
d="M22 434v46l170 105h30v-538l91 -7v-40h-279v40l94 7v438z" />
    <glyph glyph-name="two" unicode="2" horiz-adv-x="478" 
d="M34 0l-5 59q20 16 61 47t61.5 47t53 44t49 48.5t35 48t26 56.5t7.5 60q0 65 -28.5 98t-78.5 33q-47 0 -72.5 -19.5t-25.5 -44.5q0 -16 18.5 -33.5t18.5 -38.5q0 -18 -16 -32t-37 -14q-30 0 -46.5 18.5t-16.5 53.5q0 64 54 109.5t134 45.5q97 0 148 -49.5t51 -125.5
q0 -143 -304 -333h204q35 0 48 7t19 25l17 58h36l-26 -168h-385z" />
    <glyph glyph-name="three" unicode="3" horiz-adv-x="473" 
d="M200 -88q-80 0 -132.5 37.5t-52.5 98.5q0 30 17.5 46t41.5 16q22 0 36.5 -13t14.5 -34q0 -16 -8.5 -27t-16.5 -17.5t-8 -10.5q0 -20 27.5 -35.5t67.5 -15.5q76 0 112.5 36t36.5 121q0 66 -40.5 98.5t-112.5 32.5h-54v46h54q56 0 90 38.5t34 106.5q0 51 -26.5 78t-74.5 27
q-31 0 -54.5 -10.5t-23.5 -20.5q0 -4 7 -9.5t14 -16t7 -25.5q0 -20 -15 -33t-36 -13q-24 0 -39.5 16t-15.5 42q0 53 52.5 84t115.5 31q88 0 137.5 -42.5t49.5 -105.5q0 -56 -44.5 -103t-102.5 -59v-5q89 -9 134.5 -53t45.5 -112q0 -87 -68.5 -140.5t-169.5 -53.5z" />
    <glyph glyph-name="four" unicode="4" horiz-adv-x="553" 
d="M308 -84v205h-281v22l268 458l55 1l-256 -437h214v264l92 8v-272h123v-44h-123v-205h-92z" />
    <glyph glyph-name="five" unicode="5" horiz-adv-x="469" 
d="M192 -88q-73 0 -124 34t-51 94q0 30 17 46t42 16q20 0 35 -13t15 -33q0 -21 -16.5 -37t-16.5 -19q0 -18 27.5 -30.5t59.5 -12.5q69 0 109.5 45.5t40.5 135.5q0 79 -33 108t-94 29q-62 0 -102 -33l-24 11v320h272l15 58h34l-16 -140h-254v-191q45 24 101 24
q97 0 150 -46.5t53 -136.5q0 -109 -72.5 -169t-167.5 -60z" />
    <glyph glyph-name="six" unicode="6" horiz-adv-x="529" 
d="M272 -18q-106 0 -170 78t-64 200q0 202 113.5 318.5t299.5 116.5v-47q-145 -10 -219.5 -81.5t-89.5 -212.5q75 49 153 49q89 0 146 -48t57 -150q0 -88 -61 -155.5t-165 -67.5zM269 354q-74 0 -130 -43q-1 -15 -1 -41q0 -243 134 -243q129 0 129 176q0 71 -34.5 111
t-97.5 40z" />
    <glyph glyph-name="seven" unicode="7" horiz-adv-x="461" 
d="M218 -98q-38 0 -60 21t-22 57q0 45 33 100l204 411h-195q-53 0 -68 -8t-23 -38l-20 -63h-36l28 191h395v-22l-242 -488q-19 -40 -19 -63t27 -23q17 0 40 20q33 -7 33 -39q0 -26 -22 -41t-53 -15z" />
    <glyph glyph-name="eight" unicode="8" horiz-adv-x="516" 
d="M258 -18q-99 0 -161.5 55t-62.5 138q0 63 40.5 108.5t97.5 58.5q-52 20 -82 61.5t-30 94.5q0 71 54.5 123.5t143.5 52.5q88 0 140.5 -52t52.5 -124q0 -53 -32 -98.5t-75 -57.5q59 -13 98.5 -58t39.5 -109q0 -83 -63 -138t-161 -55zM258 25q63 0 93.5 42t30.5 108
q0 145 -124 145t-124 -145q0 -67 30 -108.5t94 -41.5zM258 360q49 0 75 36t26 102q0 61 -26.5 97t-74.5 36q-49 0 -76.5 -36t-27.5 -97q0 -65 27.5 -101.5t76.5 -36.5z" />
    <glyph glyph-name="nine" unicode="9" horiz-adv-x="529" 
d="M74 -116v46q145 12 221.5 79t91.5 206q-73 -50 -153 -50q-88 0 -145.5 48t-57.5 149q0 89 61.5 156.5t164.5 67.5q107 0 170.5 -79.5t63.5 -207.5q0 -199 -115.5 -307t-301.5 -108zM261 215q76 0 130 42q0 6 0.5 18.5t0.5 20.5q0 245 -134 245q-129 0 -129 -177
q0 -72 33.5 -110.5t98.5 -38.5z" />
    <glyph glyph-name="colon" unicode=":" horiz-adv-x="226" 
d="M114 -17q-27 0 -45 18t-18 45t18 44.5t45 17.5q26 0 43.5 -17.5t17.5 -44.5t-17.5 -45t-43.5 -18zM114 313q-27 0 -45 18t-18 45q0 26 18 43.5t45 17.5q26 0 43.5 -17.5t17.5 -43.5q0 -27 -17.5 -45t-43.5 -18z" />
    <glyph glyph-name="semicolon" unicode=";" horiz-adv-x="275" 
d="M134 313q-27 0 -44.5 18t-17.5 45q0 26 17.5 43.5t44.5 17.5t44 -17.5t17 -43.5q0 -27 -17 -45t-44 -18zM85 -185l-17 29q94 54 94 130q0 33 -17 33q-2 0 -14.5 -9.5t-27.5 -9.5q-51 0 -51 56q0 27 21 46t53 19q44 0 70 -30t26 -85q0 -62 -38.5 -107.5t-98.5 -71.5z" />
    <glyph glyph-name="less" unicode="&#x3c;" horiz-adv-x="428" 
d="M384 100l-347 161v42l347 161v-57l-275 -125l275 -125v-57z" />
    <glyph glyph-name="equal" unicode="=" horiz-adv-x="458" 
d="M40 321v50h378v-50h-378zM40 181v50h378v-50h-378z" />
    <glyph glyph-name="greater" unicode="&#x3e;" horiz-adv-x="428" 
d="M44 100v57l274 125l-274 125v57l347 -161v-42z" />
    <glyph glyph-name="question" unicode="?" horiz-adv-x="400" 
d="M162 -17q-27 0 -45 18t-18 45t18 44.5t45 17.5t44 -17.5t17 -44.5t-17 -45t-44 -18zM175 200h-42q-7 35 -4 52q3 39 27 78t51 65.5t49.5 64t22.5 73.5q0 91 -98 91q-79 0 -79 -60q0 -28 30 -36q9 -21 9 -31q0 -18 -11.5 -30t-33.5 -12q-30 0 -49.5 20.5t-19.5 57.5
q0 60 47.5 99t118.5 39q77 0 126.5 -42t49.5 -114q0 -41 -17.5 -76t-37 -53.5t-53 -46t-46.5 -40.5q-49 -47 -40 -99z" />
    <glyph glyph-name="at" unicode="@" horiz-adv-x="893" 
d="M609 43q77 0 137.5 69.5t60.5 189.5q0 129 -77 205.5t-208 76.5q-122 0 -218.5 -60t-147.5 -156.5t-51 -209.5q0 -142 93.5 -234.5t240.5 -92.5q157 0 269 91l25 -31q-134 -107 -313 -107q-168 0 -278 100t-110 258q0 95 37.5 183.5t102 155.5t156.5 107t194 40
q154 0 248 -90t94 -232q0 -74 -24.5 -134.5t-64.5 -97t-86.5 -56t-93.5 -19.5q-100 0 -106 81h-2q-27 -33 -64 -57t-73 -24q-44 0 -73.5 31.5t-29.5 96.5q0 109 76 203.5t176 94.5q55 0 85 -42l10 29h84l-100 -308q-8 -20 -2.5 -40.5t33.5 -20.5zM391 59q55 0 103 66l68 213
q-20 41 -63 41q-65 0 -112 -81t-47 -159q0 -42 15 -61t36 -19z" />
    <glyph glyph-name="A" unicode="A" horiz-adv-x="650" 
d="M390 0v40l80 5l-63 176h-217l-56 -161l100 -20v-40h-216v40l62 15l217 616h56l221 -627l58 -4v-40h-242zM297 529l-92 -266h187l-94 266h-1z" />
    <glyph glyph-name="B" unicode="B" horiz-adv-x="559" 
d="M32 0v40l68 7v566l-68 5v41h250q104 0 160 -41.5t56 -114.5q0 -120 -134 -159v-2q78 -17 119 -60t41 -104q0 -82 -58.5 -130t-163.5 -48h-270zM286 318h-87v-272h85q81 0 111.5 30.5t30.5 102.5q0 74 -36 106.5t-104 32.5zM276 613h-77v-253h81q65 0 92.5 32t27.5 104
q0 66 -30.5 91.5t-93.5 25.5z" />
    <glyph glyph-name="C" unicode="C" horiz-adv-x="628" 
d="M338 -18q-136 0 -219 92.5t-83 247.5q0 151 92.5 249.5t217.5 98.5q107 0 180 -84l16 64h33v-199h-37q-23 88 -71 130t-125 42q-86 0 -142 -78t-56 -219q0 -290 212 -290q133 0 195 132l35 -16q-33 -79 -97.5 -124.5t-150.5 -45.5z" />
    <glyph glyph-name="D" unicode="D" horiz-adv-x="643" 
d="M32 0v40l68 6v567l-68 5v41h264q49 0 93 -10.5t84.5 -35t70 -62t47 -94t17.5 -127.5q0 -84 -26 -149t-69.5 -103.5t-97 -58t-112.5 -19.5h-271zM289 613h-90v-567h92q209 0 209 284q0 156 -55.5 219.5t-155.5 63.5z" />
    <glyph glyph-name="E" unicode="E" horiz-adv-x="593" 
d="M477 479l-15 90q-5 27 -17.5 35.5t-44.5 8.5h-201v-261h93q44 0 46 33l7 82h36v-268h-35l-7 78q-2 20 -13 26.5t-34 6.5h-93v-264h205q57 0 71 8t20 46l15 99h38v-199h-516v40l68 7v566l-68 5v41h481v-180h-36z" />
    <glyph glyph-name="F" unicode="F" horiz-adv-x="537" 
d="M476 458l-12 82q-6 46 -24 59.5t-74 13.5h-167v-252h87q25 0 32.5 7.5t9.5 39.5l8 68h37v-267h-36l-7 71q-4 25 -11.5 32t-33.5 7h-86v-272l89 -7v-40h-256v40l68 7v565l-68 6v41h480v-201h-36z" />
    <glyph glyph-name="G" unicode="G" horiz-adv-x="672" 
d="M346 -18q-141 0 -226 93.5t-85 246.5q0 150 95 249t217 99q121 0 180 -76l12 54h34v-182h-37q-22 82 -65 119.5t-119 37.5q-88 0 -148.5 -78t-60.5 -219q0 -151 51 -224t162 -73q44 0 78.5 17.5t50.5 44.5q16 25 16 95v31l-83 7v41h244v-41l-65 -6v-108q-37 -52 -100 -90
t-151 -38z" />
    <glyph glyph-name="H" unicode="H" horiz-adv-x="672" 
d="M396 0v40l77 6v276h-274v-275l77 -7v-40h-244v40l68 7v566l-68 5v41h244v-41l-77 -5v-249h274v246l-77 8v41h244v-41l-68 -6v-568l68 -4v-40h-244z" />
    <glyph glyph-name="I" unicode="I" horiz-adv-x="299" 
d="M32 0v40l68 7v563l-68 8v41h235v-41l-68 -7v-562l68 -9v-40h-235z" />
    <glyph glyph-name="J" unicode="J" horiz-adv-x="408" 
d="M135 -62q-53 0 -81.5 23.5t-28.5 63.5q0 31 16 48t40 17q21 0 35 -12t14 -32t-13.5 -33t-13.5 -15q0 -17 29 -17q77 0 77 127v502l-79 8v41h251v-41l-73 -8v-442q0 -113 -47 -171.5t-126 -58.5z" />
    <glyph glyph-name="K" unicode="K" horiz-adv-x="632" 
d="M32 0v40l68 7v566l-68 5v41h245v-41l-78 -5v-566l77 -7v-40h-244zM376 0v40l67 5l-219 296v14l217 244l-63 19v41h206v-41l-85 -19l-190 -214l246 -341l52 -4v-40h-231z" />
    <glyph glyph-name="L" unicode="L" horiz-adv-x="561" 
d="M32 0v40l68 6v568l-68 4v41h254v-41l-87 -6v-566h189q48 0 64 18.5t24 91.5l8 64h39v-220h-491z" />
    <glyph glyph-name="M" unicode="M" horiz-adv-x="755" 
d="M367 0h-33l-182 568v-514l78 -14v-40h-198v40l68 15v555l-68 8v41h190l152 -485l161 485h187v-41l-67 -5v-569l67 -4v-40h-246v40l84 7v534z" />
    <glyph glyph-name="N" unicode="N" horiz-adv-x="656" 
d="M32 0v40l68 11v561l-68 6v41h187l295 -460v404l-80 15v41h191v-41l-59 -14v-604h-41l-373 580v-523l102 -17v-40h-222z" />
    <glyph glyph-name="O" unicode="O" horiz-adv-x="669" 
d="M335 29q94 0 142.5 74.5t48.5 221.5t-49 222.5t-142 75.5q-92 0 -142 -76t-50 -222t50 -221t142 -75zM335 -18q-120 0 -210 96t-90 247q0 150 90.5 247.5t209.5 97.5t209 -97t90 -248t-90 -247t-209 -96z" />
    <glyph glyph-name="P" unicode="P" horiz-adv-x="538" 
d="M32 0v40l68 5v568l-68 5v41h244q115 0 178.5 -50.5t63.5 -136.5q0 -92 -64 -143t-172 -51q-39 0 -83 7v-239l80 -6v-40h-247zM271 613h-72v-289q32 -2 66 -2q82 0 114.5 32t32.5 113q0 77 -34 111.5t-107 34.5z" />
    <glyph glyph-name="Q" unicode="Q" horiz-adv-x="669" 
d="M491 -198q-83 0 -134.5 45t-80.5 142q-102 24 -171.5 114.5t-69.5 221.5q0 150 90.5 247.5t209.5 97.5t209 -97t90 -248q0 -134 -71 -225t-175 -112q21 -74 54 -104t79 -30q47 0 81 14l11 -40q-58 -26 -122 -26zM335 29q94 0 142.5 74.5t48.5 221.5t-49 222.5t-142 75.5
q-92 0 -142 -76t-50 -222t50 -221t142 -75z" />
    <glyph glyph-name="R" unicode="R" horiz-adv-x="615" 
d="M32 0v40l68 6v567l-68 5v41h244q103 0 169.5 -42.5t66.5 -120.5q0 -66 -45.5 -109t-111.5 -59v-4q60 -8 91 -44t43 -96q18 -84 31.5 -113t46.5 -29q23 0 41 12l17 -31q-46 -31 -101 -31q-69 0 -97 46t-42 141q-12 76 -35.5 103.5t-78.5 27.5h-72v-263l77 -7v-40h-244z
M272 613h-73v-261h89q68 0 93 29t25 100q0 132 -134 132z" />
    <glyph glyph-name="S" unicode="S" horiz-adv-x="517" 
d="M271 -18q-122 0 -180 83l-16 -51h-35v203l40 -2q32 -187 180 -187q63 0 105 30t42 89q0 55 -40 87t-123 59q-96 31 -143.5 71.5t-47.5 121.5q0 87 55 135.5t135 48.5q101 0 150 -63l14 39h34v-167h-37q-16 70 -57.5 107.5t-103.5 37.5q-55 0 -88 -28t-33 -75
q0 -51 34.5 -76t122.5 -55q46 -16 78.5 -31.5t63 -40t46 -59t15.5 -79.5q0 -99 -61 -148.5t-150 -49.5z" />
    <glyph glyph-name="T" unicode="T" horiz-adv-x="584" 
d="M164 0v40l79 8v565h-68q-50 0 -69.5 -15t-25.5 -71l-9 -83h-39v215h520v-215h-39l-9 83q-6 56 -25.5 71t-69.5 15h-67v-565l79 -8v-40h-257z" />
    <glyph glyph-name="U" unicode="U" horiz-adv-x="639" 
d="M328 -13q-117 0 -177.5 59.5t-60.5 159.5v408l-60 4v41h242v-41l-85 -6v-392q0 -89 36 -134.5t119 -45.5q81 0 117 45t36 135v384l-79 14v41h193v-41l-62 -14v-393q0 -103 -53 -163.5t-166 -60.5z" />
    <glyph glyph-name="V" unicode="V" horiz-adv-x="625" 
d="M283 -12l-205 625l-58 5v41h233v-41l-74 -5l156 -498h2l153 485l-81 18v41h196v-41l-62 -15l-202 -615h-58z" />
    <glyph glyph-name="W" unicode="W" horiz-adv-x="875" 
d="M563 -12l-116 398l-133 -398h-60l-176 626l-51 4v41h215v-41l-61 -5l129 -489h1l112 337l-47 153l-50 4v41h195v-41l-48 -4l137 -489h1l128 475l-73 18v41h182v-41l-56 -15l-169 -615h-60z" />
    <glyph glyph-name="X" unicode="X" horiz-adv-x="627" 
d="M368 0v40l64 4l-143 246l-135 -235l81 -15v-40h-211v40l75 17l165 277l-163 279l-58 5v41h234v-41l-67 -4l124 -213l118 200l-71 17v41h195v-41l-71 -19l-145 -241l183 -313l60 -5v-40h-235z" />
    <glyph glyph-name="Y" unicode="Y" horiz-adv-x="585" 
d="M170 0v40l80 8v263l-183 303l-47 4v41h228v-41l-68 -5l148 -255l128 242l-70 18v41h179v-41l-58 -19l-158 -294v-258l79 -7v-40h-258z" />
    <glyph glyph-name="Z" unicode="Z" horiz-adv-x="571" 
d="M76 450v209h445v-28l-356 -585h165q86 0 110 12t30 57l18 112h38v-227h-481v26l356 587h-168q-63 0 -80.5 -12t-23.5 -57l-16 -94h-37z" />
    <glyph glyph-name="bracketleft" unicode="[" horiz-adv-x="340" 
d="M94 -181v932h219v-41l-138 -6v-838l138 -8v-39h-219z" />
    <glyph glyph-name="backslash" unicode="\" horiz-adv-x="374" 
d="M332 -181l-313 932h53l314 -932h-54z" />
    <glyph glyph-name="bracketright" unicode="]" horiz-adv-x="342" 
d="M244 751v-932h-219v39l138 8v838l-138 6v41h219z" />
    <glyph glyph-name="asciicircum" unicode="^" horiz-adv-x="396" 
d="M332 419l-135 156l-133 -156h-37l133 240h76l133 -240h-37z" />
    <glyph glyph-name="underscore" unicode="_" horiz-adv-x="384" 
d="M-2 -223v47h388v-47h-388z" />
    <glyph glyph-name="grave" unicode="`" horiz-adv-x="480" 
d="M277 538l-96 99q-21 21 -21 40t13.5 31.5t29.5 12.5q31 0 45 -36l56 -147h-27z" />
    <glyph glyph-name="a" unicode="a" horiz-adv-x="476" 
d="M159 -11q-56 0 -94 30.5t-38 89.5q0 67 51 104.5t129 37.5q42 0 82 -14v128q0 72 -78 72q-30 0 -58 -13q-18 -8 -18 -17q0 -4 6.5 -8.5t13.5 -14t7 -25.5q0 -20 -14.5 -32.5t-35.5 -12.5q-22 0 -36.5 15t-14.5 41q0 34 26.5 58t62.5 33.5t75 9.5q74 0 112.5 -25.5
t38.5 -86.5v-274q0 -37 33 -37q24 0 49 16l16 -22q-36 -50 -99 -50t-82 64q-61 -67 -134 -67zM200 44q52 0 89 37v124q-41 9 -76 9q-41 0 -68 -22t-27 -67q0 -38 22.5 -59.5t59.5 -21.5z" />
    <glyph glyph-name="b" unicode="b" horiz-adv-x="550" 
d="M171 -7l-149 11v39l71 -3v601l-73 -7v42l152 34l8 -3v-283q69 56 147 56q91 0 141.5 -66.5t50.5 -191.5q0 -108 -60 -171t-144 -63q-46 0 -76 13t-59 42v-14h-1v-36h-8zM295 426q-59 0 -115 -36v-306q46 -43 110 -43t99 47t35 141q0 92 -32.5 144.5t-96.5 52.5z" />
    <glyph glyph-name="c" unicode="c" horiz-adv-x="448" 
d="M246 -18q-98 0 -157 63.5t-59 170.5q0 117 71 190.5t167 73.5q62 0 104 -29t42 -75q0 -23 -15 -35t-38 -12q-39 0 -43 33q-1 4 -2 17.5t-2 18t-4.5 14.5t-8.5 13.5t-14 7t-22 3.5q-67 0 -103 -55.5t-36 -148.5q0 -94 34.5 -143t98.5 -49q96 0 133 108l31 -9
q-15 -69 -60 -113t-117 -44z" />
    <glyph glyph-name="d" unicode="d" horiz-adv-x="545" 
d="M233 -18q-89 0 -146 68.5t-57 177.5q0 117 69 184.5t156 67.5q64 0 113 -30v191l-90 -6v42l168 33l9 -3v-652l74 1v-38l-152 -25l-9 3l2 48q-56 -62 -137 -62zM273 40q33 0 52.5 9.5t42.5 30.5v319q-44 34 -93 34q-66 0 -108 -54t-42 -151q0 -82 42 -135t106 -53z" />
    <glyph glyph-name="e" unicode="e" horiz-adv-x="466" 
d="M252 -18q-101 0 -161.5 70t-60.5 177t66.5 179t156.5 72q81 0 132 -52.5t49 -159.5l-5 -8h-304v-27q0 -85 39 -139t104 -54q105 0 141 102l31 -14q-47 -146 -188 -146zM248 437q-48 0 -78 -37t-40 -100h212q-2 72 -24 104.5t-70 32.5z" />
    <glyph glyph-name="f" unicode="f" horiz-adv-x="328" 
d="M24 420v32q48 8 66 20v7q0 108 58 173.5t142 65.5q53 0 85.5 -26t32.5 -66q0 -31 -17 -48.5t-41 -17.5q-22 0 -37.5 12.5t-15.5 34.5q0 20 14.5 34t14.5 18q0 15 -37 15q-53 0 -82.5 -42.5t-29.5 -121.5v-46h127v-44h-127v-376l81 -4v-40h-239v40l71 4v376h-66z" />
    <glyph glyph-name="g" unicode="g" horiz-adv-x="525" 
d="M235 143q-53 0 -95 21q-43 -16 -43 -56q0 -49 85 -49q34 0 81 1.5t55 1.5q79 0 123.5 -27.5t44.5 -99.5q0 -88 -73.5 -137t-190.5 -49q-102 0 -163.5 32.5t-61.5 87.5q0 37 30.5 65t80.5 43q-75 24 -75 93q0 72 84 107q-71 46 -71 133q0 74 56.5 122t132.5 48
q56 0 100.5 -25t63.5 -79h3q3 50 24.5 73.5t51.5 23.5q22 0 36.5 -13t14.5 -35q0 -7 -2 -13.5t-4 -10.5t-6.5 -7.5t-7 -5.5t-8 -4.5t-6.5 -3.5q-12 18 -31 18q-16 0 -29 -16t-13 -46q0 -3 0.5 -13.5t0.5 -17.5q0 -72 -55.5 -117t-132.5 -45zM165 -31q-11 0 -29 2
q-60 -29 -60 -87q0 -93 149 -93q85 0 138.5 28t53.5 84q0 71 -103 71q-32 0 -83 -2.5t-66 -2.5zM235 180q53 0 78 32t25 98q0 128 -103 128q-101 0 -101 -128q0 -130 101 -130z" />
    <glyph glyph-name="h" unicode="h" horiz-adv-x="534" 
d="M19 0v40l71 4v597l-74 -7v42l154 34l7 -3v-319q29 32 64 58q48 35 90 35q125 0 125 -134v-305l61 -2v-40h-214v40l65 3v301q0 66 -74 66q-52 0 -117 -48v-318l61 -4v-40h-219z" />
    <glyph glyph-name="i" unicode="i" horiz-adv-x="268" 
d="M19 0v40l75 4v359l-79 -11v42l158 39l8 -4v-425l69 -4v-40h-231zM136 571q-23 0 -39 16t-16 39t16 38.5t39 15.5q24 0 40.5 -15.5t16.5 -38.5t-16.5 -39t-40.5 -16z" />
    <glyph glyph-name="j" unicode="j" horiz-adv-x="266" 
d="M1 -250q-24 0 -39.5 15t-15.5 36q0 45 37 45q29 0 66 -30q49 25 49 122v465l-79 -11v42l157 39l9 -4v-475q0 -95 -53 -169.5t-131 -74.5zM141 574q-23 0 -39 16t-16 39t16 38.5t39 15.5q24 0 40.5 -15.5t16.5 -38.5t-17 -39t-40 -16z" />
    <glyph glyph-name="k" unicode="k" horiz-adv-x="516" 
d="M19 0v40l71 6v594l-71 -12v42l150 40l8 -3v-662l61 -5v-40h-219zM309 0v40l48 3l-168 199v11l160 160l-65 13v38h192v-38l-72 -11l-139 -139l197 -234l44 -2v-40h-197z" />
    <glyph glyph-name="l" unicode="l" horiz-adv-x="274" 
d="M19 0v40l78 5v596l-83 -11v43l162 37l8 -3v-663l72 -4v-40h-237z" />
    <glyph glyph-name="m" unicode="m" horiz-adv-x="798" 
d="M19 0v40l75 4v363l-73 -9v44l152 31l8 -4v-75q33 37 61 56q46 31 88 31q92 0 113 -83q27 29 63 53q46 30 91 30q121 0 121 -134v-305l60 -2v-40h-202v40l55 2v302q0 66 -70 66q-57 0 -112 -38v-329l62 -3v-40h-203v40l54 2v302q0 66 -70 66q-58 0 -111 -39v-327l62 -4
v-40h-224z" />
    <glyph glyph-name="n" unicode="n" horiz-adv-x="539" 
d="M19 0v40l75 5v358l-73 -13v42l152 41l8 -4v-83q29 34 63 60q48 35 90 35q125 0 125 -134v-305l61 -2v-40h-207v40l59 2v302q0 66 -75 66q-51 0 -116 -48v-318l67 -4v-40h-229z" />
    <glyph glyph-name="o" unicode="o" horiz-adv-x="517" 
d="M259 25q68 0 100.5 56t32.5 149q0 91 -32.5 148.5t-100.5 57.5t-101 -57.5t-33 -148.5q0 -92 33 -148.5t101 -56.5zM259 -18q-92 0 -160.5 70t-68.5 178q0 107 69 178.5t160 71.5t159.5 -71.5t68.5 -178.5q0 -108 -68.5 -178t-159.5 -70z" />
    <glyph glyph-name="p" unicode="p" horiz-adv-x="552" 
d="M22 -236v38l72 5v596l-75 -15v42l154 43l8 -4v-60q71 71 153 71q81 0 133 -65.5t52 -173.5q0 -120 -65.5 -186.5t-149.5 -66.5q-71 0 -123 28v-210l81 -4v-38h-240zM292 421q-65 0 -111 -43v-311q47 -33 102 -33q66 0 103.5 50.5t37.5 149.5q0 84 -34.5 135.5t-97.5 51.5
z" />
    <glyph glyph-name="q" unicode="q" horiz-adv-x="545" 
d="M288 -236v38l80 5v234q-63 -53 -133 -53q-91 0 -147.5 65.5t-56.5 173.5q0 122 59.5 187.5t145.5 65.5q80 0 133 -55v43l9 6l136 -12v-41l-59 3v-618l73 -4v-38h-240zM266 41q50 0 102 34v313q-44 38 -106 38q-59 0 -97.5 -48t-38.5 -144q0 -88 36.5 -140.5t103.5 -52.5z
" />
    <glyph glyph-name="r" unicode="r" horiz-adv-x="400" 
d="M19 0v40l75 5v357l-79 -16v42l158 45l8 -4v-87q35 40 74.5 69t70.5 29q28 0 44.5 -17t16.5 -47q0 -26 -15.5 -44.5t-43.5 -18.5q-25 0 -34 11q0 43 -24 43t-89 -53v-310l85 -4v-40h-247z" />
    <glyph glyph-name="s" unicode="s" horiz-adv-x="383" 
d="M180 -14q-66 0 -109.5 29.5t-43.5 68.5q0 49 45 49q22 0 36 -9q-6 -98 79 -98q35 0 60.5 18.5t25.5 52.5q0 37 -21.5 57t-77.5 44q-64 24 -95 55t-31 87t44.5 96t111.5 40q61 0 98 -26t37 -61q0 -41 -42 -41q-17 0 -33 10q-4 41 -19 59.5t-51 18.5q-33 0 -54.5 -17.5
t-21.5 -50.5q0 -28 21.5 -48t74.5 -42q72 -30 106 -62.5t34 -84.5q0 -67 -46 -106t-128 -39z" />
    <glyph glyph-name="t" unicode="t" horiz-adv-x="338" 
d="M193 -13q-59 0 -85 25t-26 80v330l-63 -2v34q45 11 72.5 36.5t47.5 74.5l30 -1v-100h137v-44h-137v-311q0 -35 14.5 -51t56.5 -16q31 0 79 16l7 -29q-56 -42 -133 -42z" />
    <glyph glyph-name="u" unicode="u" horiz-adv-x="534" 
d="M211 -16q-62 0 -96.5 32t-34.5 99v306l-62 3v39h149v-345q0 -36 16.5 -54t54.5 -18q56 0 120 47v326l-59 5v39h146v-410l73 3v-38l-151 -26l-9 3l3 75q-30 -37 -61 -54q-45 -32 -89 -32z" />
    <glyph glyph-name="v" unicode="v" horiz-adv-x="478" 
d="M221 -11l-170 433l-42 3v39h211v-39l-67 -4l106 -303h3l113 290l-65 17v39h159v-39l-48 -16l-164 -420h-36z" />
    <glyph glyph-name="w" unicode="w" horiz-adv-x="711" 
d="M483 -11l-119 323h-2l-134 -323h-37l-140 433l-39 3v39h198v-39l-61 -4l89 -295h2l102 244l-18 51l-47 4v39h197v-39l-58 -4l102 -294h3l89 287l-62 11v39h151v-39l-41 -7l-138 -429h-37z" />
    <glyph glyph-name="x" unicode="x" horiz-adv-x="476" 
d="M261 0v38l58 4l-101 153l-98 -145l62 -12v-38h-169v40l55 9l125 182l-134 191l-41 3v39h199v-38l-53 -3l94 -141l88 132l-57 12v38h152v-39l-42 -9l-118 -169l143 -205l39 -2v-40h-202z" />
    <glyph glyph-name="y" unicode="y" horiz-adv-x="492" 
d="M110 -244q-35 0 -53.5 18.5t-18.5 41.5q0 22 13.5 35t32.5 13q16 0 26 -10q0 -39 30 -39q19 0 38 29t46 102l13 37l-185 439l-43 3v39h208v-39l-63 -4l124 -320h1l111 308l-62 16v39h155v-39l-45 -14l-172 -467q-38 -106 -70 -147t-86 -41z" />
    <glyph glyph-name="z" unicode="z" horiz-adv-x="447" 
d="M51 335v129h347v-28l-253 -396h95q67 0 88.5 12.5t27.5 62.5l2 25h36v-140h-356v28l260 399h-78q-76 0 -99.5 -11.5t-29.5 -55.5l-4 -25h-36z" />
    <glyph glyph-name="braceleft" unicode="{" horiz-adv-x="356" 
d="M330 -180h-59q-175 0 -154 163l18 181q8 54 -16.5 72t-102.5 27v45q78 9 102.5 26.5t16.5 72.5l-18 181q-21 163 154 163h59v-39l-42 -3q-60 -4 -76.5 -24t-12.5 -97l6 -155q2 -71 -20 -100.5t-82 -44.5v-5q60 -15 82 -44t20 -101l-6 -155q-4 -76 13 -96.5t76 -24.5
l42 -2v-40z" />
    <glyph glyph-name="bar" unicode="|" horiz-adv-x="228" 
d="M88 -181v932h52v-932h-52z" />
    <glyph glyph-name="braceright" unicode="}" horiz-adv-x="356" 
d="M81 -180h-59v40l42 2q59 4 75 24t14 97l-6 155q-2 72 20 101t82 44v5q-60 15 -82 44.5t-20 100.5l6 155q2 78 -13.5 97.5t-75.5 23.5l-42 3v39h59q86 0 125 -39t29 -124l-18 -181q-8 -55 16.5 -72.5t102.5 -26.5v-45q-78 -9 -102.5 -27t-16.5 -72l18 -181
q10 -85 -29 -124t-125 -39z" />
    <glyph glyph-name="asciitilde" unicode="~" horiz-adv-x="364" 
d="M67 185h-35q9 52 36 87t65 35q20 0 61 -7.5t56 -7.5q30 1 46 44h36q-9 -53 -35 -87t-63 -35q-21 0 -63 7.5t-57 7.5q-34 -2 -47 -44z" />
    <glyph glyph-name="Zcaron" horiz-adv-x="571" 
d="M174 852h29l102 -71l102 71h29l-96 -134h-70zM76 450v209h445v-28l-356 -585h165q86 0 110 12t30 57l18 112h38v-227h-481v26l356 587h-168q-63 0 -80.5 -12t-23.5 -57l-16 -94h-37z" />
    <glyph glyph-name="Zcaron" unicode="&#x17d;" horiz-adv-x="571" 
d="M174 852h29l102 -71l102 71h29l-96 -134h-70zM76 450v209h445v-28l-356 -585h165q86 0 110 12t30 57l18 112h38v-227h-481v26l356 587h-168q-63 0 -80.5 -12t-23.5 -57l-16 -94h-37z" />
    <glyph glyph-name="zcaron" horiz-adv-x="447" 
d="M99 704h30l96 -89l94 89h30l-91 -157h-68zM51 335v129h347v-28l-253 -396h95q67 0 88.5 12.5t27.5 62.5l2 25h36v-140h-356v28l260 399h-78q-76 0 -99.5 -11.5t-29.5 -55.5l-4 -25h-36z" />
    <glyph glyph-name="zcaron" unicode="&#x17e;" horiz-adv-x="447" 
d="M99 704h30l96 -89l94 89h30l-91 -157h-68zM51 335v129h347v-28l-253 -396h95q67 0 88.5 12.5t27.5 62.5l2 25h36v-140h-356v28l260 399h-78q-76 0 -99.5 -11.5t-29.5 -55.5l-4 -25h-36z" />
    <glyph glyph-name="uni00A0" unicode="&#xa0;" horiz-adv-x="226" 
 />
    <glyph glyph-name="exclamdown" unicode="&#xa1;" horiz-adv-x="233" 
d="M133 281l43 -399q5 -31 -13 -51.5t-46 -20.5q-29 0 -46.5 20.5t-12.5 51.5l42 399h33zM117 499q26 0 43.5 -18t17.5 -45t-17.5 -44.5t-43.5 -17.5q-27 0 -44.5 17.5t-17.5 44.5t17.5 45t44.5 18z" />
    <glyph glyph-name="cent" unicode="&#xa2;" horiz-adv-x="448" 
d="M225 -113v96q-90 7 -142.5 69.5t-52.5 163.5q0 103 55.5 173.5t139.5 86.5v83h41v-79h2q62 0 104 -29t42 -75q0 -23 -14.5 -35t-37.5 -12q-36 0 -42 33q0 3 -2 17t-3 18.5t-4.5 14.5t-8.5 14t-14 7.5t-22 3.5v-397q89 4 126 108l31 -9q-13 -64 -53.5 -107t-103.5 -49v-96
h-41zM124 232q0 -165 101 -188v387q-48 -16 -74.5 -68t-26.5 -131z" />
    <glyph glyph-name="sterling" unicode="&#xa3;" horiz-adv-x="517" 
d="M65 280v40h74q-28 77 -28 126q0 93 55.5 149.5t146.5 56.5q71 0 117.5 -38.5t46.5 -99.5q0 -36 -17 -55.5t-45 -19.5q-22 0 -38.5 13.5t-16.5 31.5q0 21 19.5 38.5t19.5 33.5q0 18 -24 35t-56 17q-46 0 -76 -35.5t-30 -94.5q0 -61 21 -158h162v-40h-154q13 -65 13 -109
q0 -34 -7 -71q79 -31 133 -31q41 0 59.5 19.5t27.5 64.5l32 -6q-7 -79 -35.5 -122t-90.5 -43q-42 0 -75.5 16t-72.5 45q-37 -61 -113 -61q-42 0 -65.5 21t-23.5 55q0 39 25.5 60t64.5 21q35 0 81 -18q-4 48 -42 159h-88zM115 22q56 0 74 46q-42 28 -77 28q-43 0 -43 -38
q0 -36 46 -36z" />
    <glyph glyph-name="yen" unicode="&#xa5;" horiz-adv-x="523" 
d="M66 311v39h142l-143 248l-45 4v39h218v-39l-70 -5l127 -225l107 212l-71 18v39h170v-39l-51 -18l-120 -234h138v-39h-152v-71h152v-40h-152v-154l77 -7v-39h-249v39l78 8v153h-156v40h156v71h-156z" />
    <glyph glyph-name="brokenbar" unicode="&#xa6;" horiz-adv-x="228" 
d="M88 -181v432h52v-432h-52zM88 336v415h52v-415h-52z" />
    <glyph glyph-name="section" unicode="&#xa7;" horiz-adv-x="486" 
d="M228 -155q-83 0 -133.5 36t-50.5 85q0 30 14.5 45t38.5 15q34 0 43 -27q-25 -55 2.5 -83t89.5 -28q48 0 78 24.5t30 73.5q0 23 -9 40.5t-33 33.5t-43.5 26t-62.5 29q-88 39 -126 73.5t-38 95.5q0 85 90 127q-39 39 -39 106q0 73 49 114.5t124 41.5q70 0 117.5 -30.5
t47.5 -77.5q0 -26 -13.5 -39.5t-35.5 -13.5q-15 0 -26.5 8t-14.5 20q17 44 -5 67t-74 23q-46 0 -73.5 -23.5t-27.5 -64.5q0 -43 22 -62.5t99 -57.5q44 -20 63.5 -29.5t49.5 -28t42.5 -34t23 -40t10.5 -54.5q0 -69 -89 -119q48 -42 48 -106q0 -82 -53 -124t-135 -42zM243 337
q-72 34 -104 56q-42 -32 -42 -81q0 -36 25.5 -57.5t106.5 -58.5q86 -41 114 -60q39 25 39 72q0 42 -28 65.5t-100 58.5q-7 3 -11 5z" />
    <glyph glyph-name="dieresis" unicode="&#xa8;" horiz-adv-x="480" 
d="M151 571q-22 0 -36.5 14.5t-14.5 37.5q0 22 14.5 36t36.5 14t37 -14t15 -36q0 -23 -15 -37.5t-37 -14.5zM330 571q-22 0 -37 14.5t-15 37.5q0 22 15 36t37 14t37 -14t15 -36q0 -23 -15 -37.5t-37 -14.5z" />
    <glyph glyph-name="copyright" unicode="&#xa9;" horiz-adv-x="732" 
d="M366 -19q-133 0 -232.5 96t-99.5 247t100 248.5t232 97.5q131 0 231.5 -97.5t100.5 -248.5q0 -76 -28.5 -141.5t-75 -109t-106 -68t-122.5 -24.5zM366 22q115 0 199.5 83t84.5 219q0 135 -85 220t-199 85q-115 0 -199.5 -85t-84.5 -220q0 -136 84.5 -219t199.5 -83z
M366 127q-83 0 -131 53t-48 145q0 88 53.5 143.5t126.5 55.5q67 0 103 -46l10 36h28v-123h-37q-19 91 -97 91q-47 0 -75 -39.5t-28 -116.5q0 -152 109 -152q69 0 101 72l35 -16q-43 -103 -150 -103z" />
    <glyph glyph-name="ordfeminine" unicode="&#xaa;" horiz-adv-x="418" 
d="M140 246q-47 0 -79.5 26t-32.5 78q0 58 43 90t111 32q43 0 70 -10v104q0 62 -66 62q-28 0 -47 -11q-15 -7 -15 -13q0 -2 11 -13t11 -28q0 -18 -12.5 -29t-30.5 -11q-21 0 -34.5 13.5t-13.5 34.5q0 45 45.5 71t99.5 26q133 0 133 -105v-232q0 -18 6.5 -25t21.5 -7
q23 0 41 13l14 -19q-32 -46 -88 -46q-55 0 -73 56q-51 -57 -115 -57zM180 298q39 0 72 28v103q-34 9 -62 9q-35 0 -57 -18.5t-22 -54.5q0 -33 18.5 -50t50.5 -17z" />
    <glyph glyph-name="guillemotleft" unicode="&#xab;" horiz-adv-x="409" 
d="M191 409l19 -19l-104 -153l104 -149l-19 -20l-161 152v38zM350 409l19 -19l-104 -153l104 -149l-19 -20l-161 152v38z" />
    <glyph glyph-name="registered" unicode="&#xae;" horiz-adv-x="502" 
d="M252 223q-88 0 -154.5 63.5t-66.5 163.5q0 98 66.5 162.5t154.5 64.5q86 0 152.5 -64.5t66.5 -162.5q0 -100 -66.5 -163.5t-152.5 -63.5zM252 256q73 0 127 54t54 140t-54 140t-127 54t-128 -54t-55 -140t55 -140t128 -54zM151 338v29l21 2v169l-21 1v29h102
q40 0 64.5 -15.5t24.5 -44.5q0 -44 -57 -57v-1q22 -4 32.5 -14t16.5 -32q1 -5 3 -11t2.5 -9.5t2 -7.5t2.5 -6t3 -4t4.5 -3t5.5 -1q2 0 11 3l8 -17q-18 -14 -39 -14q-29 0 -41 15.5t-19 48.5q-4 27 -9 34.5t-22 7.5h-20v-71l24 -2v-29h-99zM247 540h-21v-76h24q20 0 27.5 8.5
t7.5 29.5q0 38 -38 38z" />
    <glyph glyph-name="overscore" unicode="&#xaf;" horiz-adv-x="480" 
d="M118 593v53h244v-53h-244z" />
    <glyph glyph-name="degree" unicode="&#xb0;" horiz-adv-x="364" 
d="M181 428q41 0 66 28.5t25 71.5q0 42 -25 71t-66 29t-65 -28.5t-24 -71.5t24 -71.5t65 -28.5zM181 386q-61 0 -101 40t-40 102q0 59 40.5 100.5t100.5 41.5t101.5 -41.5t41.5 -100.5q0 -62 -41 -102t-102 -40z" />
    <glyph glyph-name="plusminus" unicode="&#xb1;" horiz-adv-x="458" 
d="M40 262v51h164v170h52v-170h162v-51h-162v-139h-52v139h-164zM40 0v51h378v-51h-378z" />
    <glyph glyph-name="acute" unicode="&#xb4;" horiz-adv-x="480" 
d="M176 538l57 147q13 36 44 36q16 0 29.5 -12.5t13.5 -31.5q0 -21 -20 -40l-97 -99h-27z" />
    <glyph glyph-name="paragraph" unicode="&#xb6;" horiz-adv-x="531" 
d="M499 618l-69 -7v-792h-52v795h-92v-795h-52v474h-14q-93 0 -147 49.5t-54 135.5q0 83 54 132t152 49h274v-41z" />
    <glyph glyph-name="middot" unicode="&#xb7;" horiz-adv-x="215" 
d="M108 206q-27 0 -44.5 18t-17.5 45q0 26 17.5 43.5t44.5 17.5t44.5 -17.5t17.5 -43.5q0 -27 -17.5 -45t-44.5 -18z" />
    <glyph glyph-name="cedilla" unicode="&#xb8;" horiz-adv-x="480" 
d="M215 -233q-51 0 -88 17l9 31q33 -9 60 -9q24 0 39 11t15 31q0 56 -76 40v131h42v-92q44 6 76.5 -15.5t32.5 -60.5q0 -38 -30 -61t-80 -23z" />
    <glyph glyph-name="ordmasculine" unicode="&#xba;" horiz-adv-x="456" 
d="M229 284q56 0 82.5 46.5t26.5 123.5q0 78 -26.5 124.5t-82.5 46.5q-57 0 -84 -46.5t-27 -124.5q0 -77 27 -123.5t84 -46.5zM229 241q-80 0 -139.5 60t-59.5 153t59.5 153.5t139.5 60.5q79 0 138.5 -60.5t59.5 -153.5q0 -94 -59 -153.5t-139 -59.5z" />
    <glyph glyph-name="guillemotright" unicode="&#xbb;" horiz-adv-x="409" 
d="M40 390l19 19l161 -151v-38l-161 -152l-19 20l103 151zM199 390l19 19l161 -151v-38l-161 -152l-19 20l103 151z" />
    <glyph glyph-name="onequarter" unicode="&#xbc;" horiz-adv-x="666" 
d="M43 -23l529 703l32 -24l-530 -703zM518 0v84h-146v19l135 243h44l-130 -229h97v123l72 5v-128h56v-33h-56v-84h-72zM16 561v41l104 63h36v-312l57 -4v-36h-191v36l60 4v237z" />
    <glyph glyph-name="onehalf" unicode="&#xbd;" horiz-adv-x="670" 
d="M32 -23l529 703l32 -24l-530 -703zM394 0l-2 43q99 80 125 110q44 49 44 96q0 67 -56 67q-22 0 -35 -8.5t-13 -20.5q0 -6 10 -16t10 -21q0 -14 -10 -23.5t-26 -9.5q-43 0 -43 48q0 38 33.5 62.5t82.5 24.5q62 0 93.5 -30t31.5 -72q0 -27 -15 -53.5t-45.5 -52.5t-57 -44.5
t-68.5 -44.5h106q27 0 36 5t13 24l4 16h31l-11 -100h-238zM16 561v41l104 63h36v-312l57 -4v-36h-191v36l60 4v237z" />
    <glyph glyph-name="threequarters" unicode="&#xbe;" horiz-adv-x="683" 
d="M59 -26l529 703l32 -24l-530 -703zM535 -3v84h-146v19l135 243h44l-130 -229h97v123l72 5v-128h56v-33h-56v-84h-72zM128 303q-54 0 -84 22.5t-30 57.5q0 22 12.5 35t29.5 13q16 0 25.5 -9.5t9.5 -22.5q0 -12 -10 -21.5t-10 -11.5q0 -12 12.5 -19.5t35.5 -7.5
q39 0 56.5 17.5t17.5 57.5q0 62 -78 62h-29v33h29q66 0 66 72q0 48 -53 48q-16 0 -27 -5.5t-11 -11.5q0 -2 7 -9.5t7 -18.5q0 -30 -33 -30q-36 0 -36 40q0 34 32 52.5t75 18.5q53 0 83.5 -23.5t30.5 -59.5q0 -30 -23.5 -53.5t-57.5 -30.5v-3q97 -12 97 -86q0 -48 -39.5 -77
t-104.5 -29z" />
    <glyph glyph-name="questiondown" unicode="&#xbf;" horiz-adv-x="400" 
d="M233 499q27 0 45 -18t18 -45t-18 -44.5t-45 -17.5t-44 17.5t-17 44.5t17 45t44 18zM220 282h42q7 -35 4 -52q-3 -39 -27 -78t-51 -65.5t-49.5 -64t-22.5 -73.5q0 -91 98 -91q79 0 79 60q0 28 -30 36q-9 21 -9 31q0 18 11.5 30t33.5 12q30 0 49.5 -20.5t19.5 -57.5
q0 -60 -47.5 -99t-118.5 -39q-77 0 -126.5 42t-49.5 114q0 41 17.5 76t37 53.5t53 46t46.5 40.5q49 47 40 99z" />
    <glyph glyph-name="Agrave" unicode="&#xc0;" horiz-adv-x="650" 
d="M390 0v40l80 5l-63 176h-217l-56 -161l100 -20v-40h-216v40l62 15l217 616h56l221 -627l58 -4v-40h-242zM297 529l-92 -266h187l-94 266h-1zM382 718h-28l-90 61q-29 20 -29 44q0 21 14.5 34t31.5 13q28 0 45 -40z" />
    <glyph glyph-name="Aacute" unicode="&#xc1;" horiz-adv-x="650" 
d="M390 0v40l80 5l-63 176h-217l-56 -161l100 -20v-40h-216v40l62 15l217 616h56l221 -627l58 -4v-40h-242zM297 529l-92 -266h187l-94 266h-1zM316 718h-27l55 112q16 40 46 40q16 0 31 -13.5t15 -33.5q0 -25 -30 -44z" />
    <glyph glyph-name="Acircumflex" unicode="&#xc2;" horiz-adv-x="650" 
d="M390 0v40l80 5l-63 176h-217l-56 -161l100 -20v-40h-216v40l62 15l217 616h56l221 -627l58 -4v-40h-242zM297 529l-92 -266h187l-94 266h-1zM228 718h-29l96 134h70l96 -134h-29l-103 69z" />
    <glyph glyph-name="Atilde" unicode="&#xc3;" horiz-adv-x="650" 
d="M390 0v40l80 5l-63 176h-217l-56 -161l100 -20v-40h-216v40l62 15l217 616h56l221 -627l58 -4v-40h-242zM297 529l-92 -266h187l-94 266h-1zM397 740q-21 0 -67 14.5t-62 14.5q-34 -2 -47 -43h-34q9 46 34 79.5t63 33.5q20 0 65.5 -14.5t60.5 -14.5q32 2 45 43h36
q-27 -113 -94 -113z" />
    <glyph glyph-name="Adieresis" unicode="&#xc4;" horiz-adv-x="650" 
d="M390 0v40l80 5l-63 176h-217l-56 -161l100 -20v-40h-216v40l62 15l217 616h56l221 -627l58 -4v-40h-242zM297 529l-92 -266h187l-94 266h-1zM231 726q-22 0 -37 15t-15 37q0 23 15 37.5t37 14.5q23 0 37.5 -14.5t14.5 -37.5q0 -22 -14.5 -37t-37.5 -15zM427 726
q-21 0 -36 15t-15 37q0 23 15 37.5t36 14.5q23 0 38 -14.5t15 -37.5q0 -22 -15 -37t-38 -15z" />
    <glyph glyph-name="Aring" unicode="&#xc5;" horiz-adv-x="650" 
d="M390 0v40l80 5l-63 176h-217l-56 -161l100 -20v-40h-216v40l62 15l217 616h56l221 -627l58 -4v-40h-242zM297 529l-92 -266h187l-94 266h-1zM330 752q23 0 37.5 16t14.5 40t-14.5 39.5t-37.5 15.5t-37.5 -15.5t-14.5 -39.5t14.5 -40t37.5 -16zM330 719q-38 0 -63.5 25.5
t-25.5 63.5q0 37 25.5 62.5t63.5 25.5q37 0 63 -25.5t26 -62.5q0 -38 -26 -63.5t-63 -25.5z" />
    <glyph glyph-name="AE" unicode="&#xc6;" horiz-adv-x="872" 
d="M16 0v40l72 18l274 553l-90 7v41h518v-180h-36l-14 90q-5 27 -17.5 35.5t-44.5 8.5h-173v-264h65q44 0 45 34l7 81h38v-267h-36l-8 78q-2 19 -12.5 25.5t-32.5 6.5h-66v-261h176q58 0 71.5 8t19.5 46l15 99h38v-199h-487v40l68 7v259h-143l-122 -248l93 -18v-40h-218z
M405 593l-121 -245h122v245h-1z" />
    <glyph glyph-name="Ccedilla" unicode="&#xc7;" horiz-adv-x="628" 
d="M314 -233q-51 0 -88 17l9 31q33 -9 60 -9q25 0 39.5 11t14.5 31q0 56 -76 40v100q-30 6 -59 18q-83 36 -130.5 118t-47.5 198q0 151 92.5 249.5t217.5 98.5q107 0 180 -84l16 64h33v-199h-37q-23 88 -71 130t-125 42q-86 0 -142 -78t-56 -219q0 -290 212 -290
q133 0 195 132l35 -16q-33 -79 -97.5 -124.5t-150.5 -45.5q-16 0 -23 1v-56q44 6 76.5 -15.5t32.5 -60.5q0 -38 -30 -61t-80 -23z" />
    <glyph glyph-name="Egrave" unicode="&#xc8;" horiz-adv-x="593" 
d="M350 718h-28l-90 61q-29 20 -29 44q0 21 14.5 34t31.5 13q28 0 45 -40zM477 479l-15 90q-5 27 -17.5 35.5t-44.5 8.5h-201v-261h93q44 0 46 33l7 82h36v-268h-35l-7 78q-2 20 -13 26.5t-34 6.5h-93v-264h205q57 0 71 8t20 46l15 99h38v-199h-516v40l68 7v566l-68 5v41
h481v-180h-36z" />
    <glyph glyph-name="Eacute" unicode="&#xc9;" horiz-adv-x="593" 
d="M286 718h-27l55 112q16 40 46 40q16 0 31 -13.5t15 -33.5q0 -25 -30 -44zM477 479l-15 90q-5 27 -17.5 35.5t-44.5 8.5h-201v-261h93q44 0 46 33l7 82h36v-268h-35l-7 78q-2 20 -13 26.5t-34 6.5h-93v-264h205q57 0 71 8t20 46l15 99h38v-199h-516v40l68 7v566l-68 5v41
h481v-180h-36z" />
    <glyph glyph-name="Ecircumflex" unicode="&#xca;" horiz-adv-x="593" 
d="M196 718h-29l96 134h70l96 -134h-29l-103 69zM477 479l-15 90q-5 27 -17.5 35.5t-44.5 8.5h-201v-261h93q44 0 46 33l7 82h36v-268h-35l-7 78q-2 20 -13 26.5t-34 6.5h-93v-264h205q57 0 71 8t20 46l15 99h38v-199h-516v40l68 7v566l-68 5v41h481v-180h-36z" />
    <glyph glyph-name="Edieresis" unicode="&#xcb;" horiz-adv-x="593" 
d="M477 479l-15 90q-5 27 -17.5 35.5t-44.5 8.5h-201v-261h93q44 0 46 33l7 82h36v-268h-35l-7 78q-2 20 -13 26.5t-34 6.5h-93v-264h205q57 0 71 8t20 46l15 99h38v-199h-516v40l68 7v566l-68 5v41h481v-180h-36zM200 726q-22 0 -37 15t-15 37q0 23 15 37.5t37 14.5
q23 0 37.5 -14.5t14.5 -37.5q0 -22 -14.5 -37t-37.5 -15zM396 726q-21 0 -36 15t-15 37q0 23 15 37.5t36 14.5q23 0 38 -14.5t15 -37.5q0 -22 -15 -37t-38 -15z" />
    <glyph glyph-name="Igrave" unicode="&#xcc;" horiz-adv-x="299" 
d="M32 0v40l68 7v563l-68 8v41h235v-41l-68 -7v-562l68 -9v-40h-235zM198 718h-28l-90 61q-29 20 -29 44q0 21 14.5 34t31.5 13q28 0 45 -40z" />
    <glyph glyph-name="Iacute" unicode="&#xcd;" horiz-adv-x="299" 
d="M32 0v40l68 7v563l-68 8v41h235v-41l-68 -7v-562l68 -9v-40h-235zM131 718h-27l55 112q16 40 46 40q16 0 31 -13.5t15 -33.5q0 -25 -30 -44z" />
    <glyph glyph-name="Icircumflex" unicode="&#xce;" horiz-adv-x="299" 
d="M32 0v40l68 7v563l-68 8v41h235v-41l-68 -7v-562l68 -9v-40h-235zM43 718h-29l96 134h70l96 -134h-29l-103 69z" />
    <glyph glyph-name="Idieresis" unicode="&#xcf;" horiz-adv-x="299" 
d="M32 0v40l68 7v563l-68 8v41h235v-41l-68 -7v-562l68 -9v-40h-235zM47 726q-22 0 -37 15t-15 37q0 23 15 37.5t37 14.5q23 0 37.5 -14.5t14.5 -37.5q0 -22 -14.5 -37t-37.5 -15zM243 726q-21 0 -36 15t-15 37q0 23 15 37.5t36 14.5q23 0 38 -14.5t15 -37.5q0 -22 -15 -37
t-38 -15z" />
    <glyph glyph-name="Eth" unicode="&#xd0;" horiz-adv-x="643" 
d="M20 316v39h80v258l-68 5v41h264q49 0 93 -10.5t84.5 -35t70 -62t47 -94t17.5 -127.5q0 -84 -26 -149t-69.5 -103.5t-97 -58t-112.5 -19.5h-271v40l68 6v270h-80zM289 613h-90v-258h162v-39h-162v-270h92q209 0 209 284q0 156 -55.5 219.5t-155.5 63.5z" />
    <glyph glyph-name="Ntilde" unicode="&#xd1;" horiz-adv-x="656" 
d="M423 740q-21 0 -67 14.5t-62 14.5q-34 -2 -47 -43h-34q9 46 34 79.5t63 33.5q20 0 65.5 -14.5t60.5 -14.5q32 2 45 43h36q-27 -113 -94 -113zM32 0v40l68 11v561l-68 6v41h187l295 -460v404l-80 15v41h191v-41l-59 -14v-604h-41l-373 580v-523l102 -17v-40h-222z" />
    <glyph glyph-name="Ograve" unicode="&#xd2;" horiz-adv-x="669" 
d="M397 718h-28l-90 61q-29 20 -29 44q0 21 14.5 34t31.5 13q28 0 45 -40zM335 29q94 0 142.5 74.5t48.5 221.5t-49 222.5t-142 75.5q-92 0 -142 -76t-50 -222t50 -221t142 -75zM335 -18q-120 0 -210 96t-90 247q0 150 90.5 247.5t209.5 97.5t209 -97t90 -248t-90 -247
t-209 -96z" />
    <glyph glyph-name="Oacute" unicode="&#xd3;" horiz-adv-x="669" 
d="M334 718h-27l55 112q16 40 46 40q16 0 31 -13.5t15 -33.5q0 -25 -30 -44zM335 29q94 0 142.5 74.5t48.5 221.5t-49 222.5t-142 75.5q-92 0 -142 -76t-50 -222t50 -221t142 -75zM335 -18q-120 0 -210 96t-90 247q0 150 90.5 247.5t209.5 97.5t209 -97t90 -248t-90 -247
t-209 -96z" />
    <glyph glyph-name="Ocircumflex" unicode="&#xd4;" horiz-adv-x="669" 
d="M244 718h-29l96 134h70l96 -134h-29l-103 69zM335 29q94 0 142.5 74.5t48.5 221.5t-49 222.5t-142 75.5q-92 0 -142 -76t-50 -222t50 -221t142 -75zM335 -18q-120 0 -210 96t-90 247q0 150 90.5 247.5t209.5 97.5t209 -97t90 -248t-90 -247t-209 -96z" />
    <glyph glyph-name="Otilde" unicode="&#xd5;" horiz-adv-x="669" 
d="M414 740q-21 0 -67 14.5t-62 14.5q-34 -2 -47 -43h-34q9 46 34 79.5t63 33.5q20 0 65.5 -14.5t60.5 -14.5q32 2 45 43h36q-27 -113 -94 -113zM335 29q94 0 142.5 74.5t48.5 221.5t-49 222.5t-142 75.5q-92 0 -142 -76t-50 -222t50 -221t142 -75zM335 -18q-120 0 -210 96
t-90 247q0 150 90.5 247.5t209.5 97.5t209 -97t90 -248t-90 -247t-209 -96z" />
    <glyph glyph-name="Odieresis" unicode="&#xd6;" horiz-adv-x="669" 
d="M247 726q-22 0 -37 15t-15 37q0 23 15 37.5t37 14.5q23 0 37.5 -14.5t14.5 -37.5q0 -22 -14.5 -37t-37.5 -15zM443 726q-21 0 -36 15t-15 37q0 23 15 37.5t36 14.5q23 0 38 -14.5t15 -37.5q0 -22 -15 -37t-38 -15zM335 29q94 0 142.5 74.5t48.5 221.5t-49 222.5
t-142 75.5q-92 0 -142 -76t-50 -222t50 -221t142 -75zM335 -18q-120 0 -210 96t-90 247q0 150 90.5 247.5t209.5 97.5t209 -97t90 -248t-90 -247t-209 -96z" />
    <glyph glyph-name="multiply" unicode="&#xd7;" horiz-adv-x="443" 
d="M85 106l-35 35l136 137l-136 137l35 34l136 -136l136 136l36 -34l-137 -137l137 -137l-36 -35l-136 137z" />
    <glyph glyph-name="Oslash" unicode="&#xd8;" horiz-adv-x="669" 
d="M86 -31l-35 24l68 91q-84 99 -84 240q0 151 90.5 248.5t209.5 97.5q94 0 172 -63l60 81l35 -26l-63 -84q95 -102 95 -254q0 -151 -90 -247t-209 -96q-104 0 -186 73zM335 28q94 0 143 74.5t49 221.5q0 123 -31 196l-309 -415q45 -77 148 -77zM143 324q0 -107 23 -176
l307 413q-48 62 -138 62q-92 0 -142 -76.5t-50 -222.5z" />
    <glyph glyph-name="Ugrave" unicode="&#xd9;" horiz-adv-x="639" 
d="M409 718h-28l-90 61q-29 20 -29 44q0 21 14.5 34t31.5 13q28 0 45 -40zM328 -13q-117 0 -177.5 59.5t-60.5 159.5v408l-60 4v41h242v-41l-85 -6v-392q0 -89 36 -134.5t119 -45.5q81 0 117 45t36 135v384l-79 14v41h193v-41l-62 -14v-393q0 -103 -53 -163.5t-166 -60.5z
" />
    <glyph glyph-name="Uacute" unicode="&#xda;" horiz-adv-x="639" 
d="M343 718h-27l55 112q16 40 46 40q16 0 31 -13.5t15 -33.5q0 -25 -30 -44zM328 -13q-117 0 -177.5 59.5t-60.5 159.5v408l-60 4v41h242v-41l-85 -6v-392q0 -89 36 -134.5t119 -45.5q81 0 117 45t36 135v384l-79 14v41h193v-41l-62 -14v-393q0 -103 -53 -163.5t-166 -60.5z
" />
    <glyph glyph-name="Ucircumflex" unicode="&#xdb;" horiz-adv-x="639" 
d="M255 718h-29l96 134h70l96 -134h-29l-103 69zM328 -13q-117 0 -177.5 59.5t-60.5 159.5v408l-60 4v41h242v-41l-85 -6v-392q0 -89 36 -134.5t119 -45.5q81 0 117 45t36 135v384l-79 14v41h193v-41l-62 -14v-393q0 -103 -53 -163.5t-166 -60.5z" />
    <glyph glyph-name="Udieresis" unicode="&#xdc;" horiz-adv-x="639" 
d="M328 -13q-117 0 -177.5 59.5t-60.5 159.5v408l-60 4v41h242v-41l-85 -6v-392q0 -89 36 -134.5t119 -45.5q81 0 117 45t36 135v384l-79 14v41h193v-41l-62 -14v-393q0 -103 -53 -163.5t-166 -60.5zM258 726q-22 0 -37 15t-15 37q0 23 15 37.5t37 14.5q23 0 37.5 -14.5
t14.5 -37.5q0 -22 -14.5 -37t-37.5 -15zM454 726q-21 0 -36 15t-15 37q0 23 15 37.5t36 14.5q23 0 38 -14.5t15 -37.5q0 -22 -15 -37t-38 -15z" />
    <glyph glyph-name="Yacute" unicode="&#xdd;" horiz-adv-x="585" 
d="M170 0v40l80 8v263l-183 303l-47 4v41h228v-41l-68 -5l148 -255l128 242l-70 18v41h179v-41l-58 -19l-158 -294v-258l79 -7v-40h-258zM315 718h-27l55 112q16 40 46 40q16 0 31 -13.5t15 -33.5q0 -25 -30 -44z" />
    <glyph glyph-name="Thorn" unicode="&#xde;" horiz-adv-x="534" 
d="M32 0v40l68 7v563l-68 8v41h235v-41l-68 -7v-97h78q115 0 178 -47t63 -126q0 -85 -62 -133t-173 -48q-46 0 -84 6v-117l68 -9v-40h-235zM271 470h-72v-265q16 -3 66 -3q82 0 114.5 30t32.5 104q0 71 -34 102.5t-107 31.5z" />
    <glyph glyph-name="germandbls" unicode="&#xdf;" horiz-adv-x="542" 
d="M24 420v32q46 8 64 19v38q0 94 57 151.5t145 57.5q81 0 126.5 -43t45.5 -106q0 -48 -30 -82t-75 -47v-3q69 -23 111 -83t42 -154q0 -101 -49 -159.5t-123 -58.5q-56 0 -85.5 21t-29.5 50q0 22 11 35t31 13q19 0 32 -11q-2 -35 8 -49.5t35 -14.5q36 0 55.5 39t19.5 141
q0 112 -37.5 158t-105.5 46h-28v46h29q49 0 75.5 25t26.5 87q0 106 -85 106q-113 0 -113 -165v-509h-158v40l69 3v377h-64z" />
    <glyph glyph-name="agrave" unicode="&#xe0;" horiz-adv-x="476" 
d="M159 -11q-56 0 -94 30.5t-38 89.5q0 67 51 104.5t129 37.5q42 0 82 -14v128q0 72 -78 72q-30 0 -58 -13q-18 -8 -18 -17q0 -4 6.5 -8.5t13.5 -14t7 -25.5q0 -20 -14.5 -32.5t-35.5 -12.5q-22 0 -36.5 15t-14.5 41q0 34 26.5 58t62.5 33.5t75 9.5q74 0 112.5 -25.5
t38.5 -86.5v-274q0 -37 33 -37q24 0 49 16l16 -22q-36 -50 -99 -50t-82 64q-61 -67 -134 -67zM200 44q52 0 89 37v124q-41 9 -76 9q-41 0 -68 -22t-27 -67q0 -38 22.5 -59.5t59.5 -21.5zM232 538l-96 99q-21 21 -21 40t13.5 31.5t29.5 12.5q32 0 45 -36l56 -147h-27z" />
    <glyph glyph-name="aacute" unicode="&#xe1;" horiz-adv-x="476" 
d="M159 -11q-56 0 -94 30.5t-38 89.5q0 67 51 104.5t129 37.5q42 0 82 -14v128q0 72 -78 72q-30 0 -58 -13q-18 -8 -18 -17q0 -4 6.5 -8.5t13.5 -14t7 -25.5q0 -20 -14.5 -32.5t-35.5 -12.5q-22 0 -36.5 15t-14.5 41q0 34 26.5 58t62.5 33.5t75 9.5q74 0 112.5 -25.5
t38.5 -86.5v-274q0 -37 33 -37q24 0 49 16l16 -22q-36 -50 -99 -50t-82 64q-61 -67 -134 -67zM200 44q52 0 89 37v124q-41 9 -76 9q-41 0 -68 -22t-27 -67q0 -38 22.5 -59.5t59.5 -21.5zM187 538l57 147q14 36 44 36q16 0 29.5 -12.5t13.5 -31.5q0 -21 -20 -40l-97 -99h-27z
" />
    <glyph glyph-name="acircumflex" unicode="&#xe2;" horiz-adv-x="476" 
d="M159 -11q-56 0 -94 30.5t-38 89.5q0 67 51 104.5t129 37.5q42 0 82 -14v128q0 72 -78 72q-30 0 -58 -13q-18 -8 -18 -17q0 -4 6.5 -8.5t13.5 -14t7 -25.5q0 -20 -14.5 -32.5t-35.5 -12.5q-22 0 -36.5 15t-14.5 41q0 34 26.5 58t62.5 33.5t75 9.5q74 0 112.5 -25.5
t38.5 -86.5v-274q0 -37 33 -37q24 0 49 16l16 -22q-36 -50 -99 -50t-82 64q-61 -67 -134 -67zM200 44q52 0 89 37v124q-41 9 -76 9q-41 0 -68 -22t-27 -67q0 -38 22.5 -59.5t59.5 -21.5zM121 538h-29l91 157h66l92 -157h-29l-97 89z" />
    <glyph glyph-name="atilde" unicode="&#xe3;" horiz-adv-x="476" 
d="M159 -11q-56 0 -94 30.5t-38 89.5q0 67 51 104.5t129 37.5q42 0 82 -14v128q0 72 -78 72q-30 0 -58 -13q-18 -8 -18 -17q0 -4 6.5 -8.5t13.5 -14t7 -25.5q0 -20 -14.5 -32.5t-35.5 -12.5q-22 0 -36.5 15t-14.5 41q0 34 26.5 58t62.5 33.5t75 9.5q74 0 112.5 -25.5
t38.5 -86.5v-274q0 -37 33 -37q24 0 49 16l16 -22q-36 -50 -99 -50t-82 64q-61 -67 -134 -67zM200 44q52 0 89 37v124q-41 9 -76 9q-41 0 -68 -22t-27 -67q0 -38 22.5 -59.5t59.5 -21.5zM279 569q-21 0 -61 15t-56 15q-32 -2 -47 -43h-34q11 47 35.5 79.5t60.5 32.5
q20 0 60 -15t55 -15q18 2 28 11.5t17 32.5h36q-27 -113 -94 -113z" />
    <glyph glyph-name="adieresis" unicode="&#xe4;" horiz-adv-x="476" 
d="M159 -11q-56 0 -94 30.5t-38 89.5q0 67 51 104.5t129 37.5q42 0 82 -14v128q0 72 -78 72q-30 0 -58 -13q-18 -8 -18 -17q0 -4 6.5 -8.5t13.5 -14t7 -25.5q0 -20 -14.5 -32.5t-35.5 -12.5q-22 0 -36.5 15t-14.5 41q0 34 26.5 58t62.5 33.5t75 9.5q74 0 112.5 -25.5
t38.5 -86.5v-274q0 -37 33 -37q24 0 49 16l16 -22q-36 -50 -99 -50t-82 64q-61 -67 -134 -67zM200 44q52 0 89 37v124q-41 9 -76 9q-41 0 -68 -22t-27 -67q0 -38 22.5 -59.5t59.5 -21.5zM134 571q-22 0 -36.5 14.5t-14.5 37.5q0 22 14.5 36t36.5 14t37 -14t15 -36
q0 -23 -15 -37.5t-37 -14.5zM313 571q-22 0 -37 14.5t-15 37.5q0 22 15 36t37 14t37 -14t15 -36q0 -23 -15 -37.5t-37 -14.5z" />
    <glyph glyph-name="aring" unicode="&#xe5;" horiz-adv-x="476" 
d="M159 -11q-56 0 -94 30.5t-38 89.5q0 67 51 104.5t129 37.5q42 0 82 -14v128q0 72 -78 72q-30 0 -58 -13q-18 -8 -18 -17q0 -4 6.5 -8.5t13.5 -14t7 -25.5q0 -20 -14.5 -32.5t-35.5 -12.5q-22 0 -36.5 15t-14.5 41q0 34 26.5 58t62.5 33.5t75 9.5q74 0 112.5 -25.5
t38.5 -86.5v-274q0 -37 33 -37q24 0 49 16l16 -22q-36 -50 -99 -50t-82 64q-61 -67 -134 -67zM200 44q52 0 89 37v124q-41 9 -76 9q-41 0 -68 -22t-27 -67q0 -38 22.5 -59.5t59.5 -21.5zM224 568q23 1 37.5 17t14.5 39q0 24 -14.5 39.5t-37.5 15.5t-37.5 -15.5t-14.5 -39.5
q0 -23 14.5 -39t37.5 -17zM224 535q-38 0 -63.5 25.5t-25.5 63.5q0 37 25.5 62.5t63.5 25.5q37 0 63 -25.5t26 -62.5q0 -38 -26 -63.5t-63 -25.5z" />
    <glyph glyph-name="ae" unicode="&#xe6;" horiz-adv-x="721" 
d="M171 -11q-63 0 -105 36t-42 97q0 70 51 108.5t145 38.5h69v96q0 72 -81 72q-30 0 -58 -13q-18 -8 -18 -17q0 -4 7 -8.5t13.5 -14t6.5 -25.5q0 -20 -14.5 -32.5t-35.5 -12.5t-36 15.5t-15 40.5q0 50 51.5 80.5t109.5 30.5q118 0 139 -83q58 82 151 82q84 0 136 -56.5
t44 -185.5l-5 -8h-300q0 -86 36 -138t100 -52q104 0 140 102l31 -14q-47 -146 -188 -146q-120 0 -177 95q-63 -88 -155 -88zM503 437q-54 0 -83 -46t-35 -122h213q2 94 -21 131t-74 37zM198 44q64 0 114 62q-23 55 -23 123h-67q-107 0 -107 -91q0 -40 23.5 -67t59.5 -27z
" />
    <glyph glyph-name="ccedilla" unicode="&#xe7;" horiz-adv-x="448" 
d="M215 -233q-51 0 -88 17l9 31q33 -9 60 -9q24 0 39 11t15 31q0 56 -76 40v104q-12 4 -17 7q-59 24 -93 80.5t-34 136.5q0 117 71 190.5t167 73.5q62 0 104 -29t42 -75q0 -23 -15 -35t-38 -12q-39 0 -43 33q-1 4 -2 17.5t-2 18t-4.5 14.5t-8.5 13.5t-14 7t-22 3.5
q-67 0 -103 -55.5t-36 -148.5q0 -94 34.5 -143t98.5 -49q96 0 133 108l31 -9q-15 -69 -60 -113t-117 -44q-12 0 -30 2v-57q44 6 76.5 -15.5t32.5 -60.5q0 -38 -30 -61t-80 -23z" />
    <glyph glyph-name="egrave" unicode="&#xe8;" horiz-adv-x="466" 
d="M252 -18q-101 0 -161.5 70t-60.5 177t66.5 179t156.5 72q81 0 132 -52.5t49 -159.5l-5 -8h-304v-27q0 -85 39 -139t104 -54q105 0 141 102l31 -14q-47 -146 -188 -146zM248 437q-48 0 -78 -37t-40 -100h212q-2 72 -24 104.5t-70 32.5zM260 538l-96 99q-21 21 -21 40
t13.5 31.5t29.5 12.5q32 0 45 -36l56 -147h-27z" />
    <glyph glyph-name="eacute" unicode="&#xe9;" horiz-adv-x="466" 
d="M217 538l57 147q14 36 44 36q16 0 29.5 -12.5t13.5 -31.5q0 -21 -20 -40l-97 -99h-27zM252 -18q-101 0 -161.5 70t-60.5 177t66.5 179t156.5 72q81 0 132 -52.5t49 -159.5l-5 -8h-304v-27q0 -85 39 -139t104 -54q105 0 141 102l31 -14q-47 -146 -188 -146zM248 437
q-48 0 -78 -37t-40 -100h212q-2 72 -24 104.5t-70 32.5z" />
    <glyph glyph-name="ecircumflex" unicode="&#xea;" horiz-adv-x="466" 
d="M150 538h-29l91 157h66l92 -157h-29l-97 89zM252 -18q-101 0 -161.5 70t-60.5 177t66.5 179t156.5 72q81 0 132 -52.5t49 -159.5l-5 -8h-304v-27q0 -85 39 -139t104 -54q105 0 141 102l31 -14q-47 -146 -188 -146zM248 437q-48 0 -78 -37t-40 -100h212q-2 72 -24 104.5
t-70 32.5z" />
    <glyph glyph-name="edieresis" unicode="&#xeb;" horiz-adv-x="466" 
d="M161 571q-22 0 -36.5 14.5t-14.5 37.5q0 22 14.5 36t36.5 14t37 -14t15 -36q0 -23 -15 -37.5t-37 -14.5zM340 571q-22 0 -37 14.5t-15 37.5q0 22 15 36t37 14t37 -14t15 -36q0 -23 -15 -37.5t-37 -14.5zM252 -18q-101 0 -161.5 70t-60.5 177t66.5 179t156.5 72
q81 0 132 -52.5t49 -159.5l-5 -8h-304v-27q0 -85 39 -139t104 -54q105 0 141 102l31 -14q-47 -146 -188 -146zM248 437q-48 0 -78 -37t-40 -100h212q-2 72 -24 104.5t-70 32.5z" />
    <glyph glyph-name="igrave" unicode="&#xec;" horiz-adv-x="268" 
d="M19 0v40l75 4v359l-79 -11v42l159 39l8 -4v-425l68 -4v-40h-231zM131 538l-96 99q-21 21 -21 40t13.5 31.5t29.5 12.5q31 0 45 -36l56 -147h-27z" />
    <glyph glyph-name="iacute" unicode="&#xed;" horiz-adv-x="268" 
d="M90 538l57 147q13 36 44 36q16 0 29.5 -12.5t13.5 -31.5q0 -21 -20 -40l-97 -99h-27zM19 0v40l75 4v359l-79 -11v42l159 39l8 -4v-425l68 -4v-40h-231z" />
    <glyph glyph-name="icircumflex" unicode="&#xee;" horiz-adv-x="268" 
d="M20 538h-29l91 157h66l92 -157h-29l-97 89zM19 0v40l75 4v359l-79 -11v42l159 39l8 -4v-425l68 -4v-40h-231z" />
    <glyph glyph-name="idieresis" unicode="&#xef;" horiz-adv-x="268" 
d="M33 571q-22 0 -36.5 14.5t-14.5 37.5q0 22 14.5 36t36.5 14t37 -14t15 -36q0 -23 -15 -37.5t-37 -14.5zM212 571q-22 0 -37 14.5t-15 37.5q0 22 15 36t37 14t37 -14t15 -36q0 -23 -15 -37.5t-37 -14.5zM19 0v40l75 4v359l-79 -11v42l159 39l8 -4v-425l68 -4v-40h-231z
" />
    <glyph glyph-name="eth" unicode="&#xf0;" horiz-adv-x="517" 
d="M115 515l-19 31l117 73q-45 36 -95 70l21 29q79 -42 120 -70l105 65l21 -31l-93 -58q91 -69 141 -156.5t50 -208.5t-65.5 -199t-159.5 -78q-91 0 -159.5 70t-68.5 178q0 106 66.5 177.5t151.5 71.5q56 0 100 -26q-33 73 -106 140zM388 248q0 75 -17 140q-41 44 -115 44
q-67 0 -98.5 -56t-31.5 -146t32.5 -147.5t100.5 -57.5q129 0 129 223z" />
    <glyph glyph-name="ntilde" unicode="&#xf1;" horiz-adv-x="539" 
d="M19 0v40l75 5v358l-73 -13v42l152 41l8 -4v-83q29 34 63 60q48 35 90 35q125 0 125 -134v-305l61 -2v-40h-207v40l59 2v302q0 66 -75 66q-51 0 -116 -48v-318l67 -4v-40h-229zM330 569q-21 0 -61 15t-56 15q-32 -2 -47 -43h-34q11 47 35.5 79.5t60.5 32.5q20 0 60 -15
t55 -15q18 2 28 11.5t17 32.5h36q-27 -113 -94 -113z" />
    <glyph glyph-name="ograve" unicode="&#xf2;" horiz-adv-x="517" 
d="M259 25q68 0 100.5 56t32.5 149q0 91 -32.5 148.5t-100.5 57.5t-101 -57.5t-33 -148.5q0 -92 33 -148.5t101 -56.5zM259 -18q-92 0 -160.5 70t-68.5 178q0 107 69 178.5t160 71.5t159.5 -71.5t68.5 -178.5q0 -108 -68.5 -178t-159.5 -70zM271 538l-96 99q-21 21 -21 40
t13.5 31.5t29.5 12.5q31 0 45 -36l56 -147h-27z" />
    <glyph glyph-name="oacute" unicode="&#xf3;" horiz-adv-x="517" 
d="M226 538l57 147q13 36 44 36q16 0 29.5 -12.5t13.5 -31.5q0 -21 -20 -40l-97 -99h-27zM259 25q68 0 100.5 56t32.5 149q0 91 -32.5 148.5t-100.5 57.5t-101 -57.5t-33 -148.5q0 -92 33 -148.5t101 -56.5zM259 -18q-92 0 -160.5 70t-68.5 178q0 107 69 178.5t160 71.5
t159.5 -71.5t68.5 -178.5q0 -108 -68.5 -178t-159.5 -70z" />
    <glyph glyph-name="ocircumflex" unicode="&#xf4;" horiz-adv-x="517" 
d="M160 538h-29l91 157h66l92 -157h-29l-97 89zM259 25q68 0 100.5 56t32.5 149q0 91 -32.5 148.5t-100.5 57.5t-101 -57.5t-33 -148.5q0 -92 33 -148.5t101 -56.5zM259 -18q-92 0 -160.5 70t-68.5 178q0 107 69 178.5t160 71.5t159.5 -71.5t68.5 -178.5q0 -108 -68.5 -178
t-159.5 -70z" />
    <glyph glyph-name="otilde" unicode="&#xf5;" horiz-adv-x="517" 
d="M259 25q68 0 100.5 56t32.5 149q0 91 -32.5 148.5t-100.5 57.5t-101 -57.5t-33 -148.5q0 -92 33 -148.5t101 -56.5zM259 -18q-92 0 -160.5 70t-68.5 178q0 107 69 178.5t160 71.5t159.5 -71.5t68.5 -178.5q0 -108 -68.5 -178t-159.5 -70zM315 569q-21 0 -61 15t-56 15
q-32 -2 -47 -43h-34q11 47 35.5 79.5t60.5 32.5q20 0 60 -15t55 -15q18 2 28 11.5t17 32.5h36q-27 -113 -94 -113z" />
    <glyph glyph-name="odieresis" unicode="&#xf6;" horiz-adv-x="517" 
d="M169 571q-22 0 -36.5 14.5t-14.5 37.5q0 22 14.5 36t36.5 14t37 -14t15 -36q0 -23 -15 -37.5t-37 -14.5zM348 571q-22 0 -37 14.5t-15 37.5q0 22 15 36t37 14t37 -14t15 -36q0 -23 -15 -37.5t-37 -14.5zM259 25q68 0 100.5 56t32.5 149q0 91 -32.5 148.5t-100.5 57.5
t-101 -57.5t-33 -148.5q0 -92 33 -148.5t101 -56.5zM259 -18q-92 0 -160.5 70t-68.5 178q0 107 69 178.5t160 71.5t159.5 -71.5t68.5 -178.5q0 -108 -68.5 -178t-159.5 -70z" />
    <glyph glyph-name="divide" unicode="&#xf7;" horiz-adv-x="458" 
d="M40 262v50h378v-50h-378zM229 69q-26 0 -43 17.5t-17 43.5t17 43t43 17t43.5 -17t17.5 -43t-17.5 -43.5t-43.5 -17.5zM229 384q-26 0 -43 17t-17 43t17 43.5t43 17.5t43.5 -17.5t17.5 -43.5t-17.5 -43t-43.5 -17z" />
    <glyph glyph-name="oslash" unicode="&#xf8;" horiz-adv-x="517" 
d="M66 -40l-33 24l59 75q-62 68 -62 171q0 107 69 178.5t160 71.5q69 0 131 -46l51 64l33 -24l-54 -68q67 -72 67 -176q0 -108 -68.5 -178t-159.5 -70q-77 0 -137 48zM259 25q68 0 100.5 56t32.5 149q0 76 -16 121l-219 -277q31 -49 102 -49zM124 230q0 -75 14 -114l218 275
q-31 46 -97 46q-68 0 -101.5 -57.5t-33.5 -149.5z" />
    <glyph glyph-name="ugrave" unicode="&#xf9;" horiz-adv-x="534" 
d="M211 -16q-62 0 -96.5 32t-34.5 99v306l-62 3v39h149v-345q0 -36 16.5 -54t54.5 -18q56 0 120 47v326l-59 5v39h146v-410l73 3v-38l-151 -26l-9 3l3 75q-30 -37 -61 -54q-45 -32 -89 -32zM268 538l-96 99q-21 21 -21 40t13.5 31.5t29.5 12.5q32 0 45 -36l56 -147h-27z" />
    <glyph glyph-name="uacute" unicode="&#xfa;" horiz-adv-x="534" 
d="M224 538l57 147q13 36 44 36q16 0 29.5 -12.5t13.5 -31.5q0 -21 -20 -40l-97 -99h-27zM211 -16q-62 0 -96.5 32t-34.5 99v306l-62 3v39h149v-345q0 -36 16.5 -54t54.5 -18q56 0 120 47v326l-59 5v39h146v-410l73 3v-38l-151 -26l-9 3l3 75q-30 -37 -61 -54
q-45 -32 -89 -32z" />
    <glyph glyph-name="ucircumflex" unicode="&#xfb;" horiz-adv-x="534" 
d="M157 538h-29l91 157h66l92 -157h-29l-97 89zM211 -16q-62 0 -96.5 32t-34.5 99v306l-62 3v39h149v-345q0 -36 16.5 -54t54.5 -18q56 0 120 47v326l-59 5v39h146v-410l73 3v-38l-151 -26l-9 3l3 75q-30 -37 -61 -54q-45 -32 -89 -32z" />
    <glyph glyph-name="udieresis" unicode="&#xfc;" horiz-adv-x="534" 
d="M167 571q-22 0 -36.5 14.5t-14.5 37.5q0 22 14.5 36t36.5 14t37 -14t15 -36q0 -23 -15 -37.5t-37 -14.5zM346 571q-22 0 -37 14.5t-15 37.5q0 22 15 36t37 14t37 -14t15 -36q0 -23 -15 -37.5t-37 -14.5zM211 -16q-62 0 -96.5 32t-34.5 99v306l-62 3v39h149v-345
q0 -36 16.5 -54t54.5 -18q56 0 120 47v326l-59 5v39h146v-410l73 3v-38l-151 -26l-9 3l3 75q-30 -37 -61 -54q-45 -32 -89 -32z" />
    <glyph glyph-name="yacute" unicode="&#xfd;" horiz-adv-x="492" 
d="M110 -244q-35 0 -53.5 18.5t-18.5 41.5q0 22 13.5 35t32.5 13q16 0 26 -10q0 -39 30 -39q19 0 38 29t46 102l13 37l-185 439l-43 3v39h208v-39l-63 -4l124 -320h1l111 308l-62 16v39h155v-39l-45 -14l-172 -467q-38 -106 -70 -147t-86 -41zM239 538l57 147q14 36 44 36
q16 0 29.5 -12.5t13.5 -31.5q0 -21 -20 -40l-97 -99h-27z" />
    <glyph glyph-name="thorn" unicode="&#xfe;" horiz-adv-x="543" 
d="M15 -236v38l71 5v834l-73 -7v42l152 34l9 -3v-297q70 70 153 70q81 0 132 -65.5t51 -173.5q0 -120 -64.5 -186.5t-149.5 -66.5q-67 0 -122 36v-218l81 -4v-38h-240zM285 421q-66 0 -111 -43v-312q47 -32 102 -32q66 0 103 50.5t37 149.5q0 84 -34.5 135.5t-96.5 51.5z
" />
    <glyph glyph-name="ydieresis" unicode="&#xff;" horiz-adv-x="492" 
d="M110 -244q-35 0 -53.5 18.5t-18.5 41.5q0 22 13.5 35t32.5 13q16 0 26 -10q0 -39 30 -39q19 0 38 29t46 102l13 37l-185 439l-43 3v39h208v-39l-63 -4l124 -320h1l111 308l-62 16v39h155v-39l-45 -14l-172 -467q-38 -106 -70 -147t-86 -41zM181 571q-22 0 -36.5 14.5
t-14.5 37.5q0 22 14.5 36t36.5 14t37 -14t15 -36q0 -23 -15 -37.5t-37 -14.5zM360 571q-22 0 -37 14.5t-15 37.5q0 22 15 36t37 14t37 -14t15 -36q0 -23 -15 -37.5t-37 -14.5z" />
    <glyph glyph-name="Amacron" unicode="&#x100;" horiz-adv-x="650" 
d="M390 0v40l80 5l-63 176h-217l-56 -161l100 -20v-40h-216v40l62 15l217 616h56l221 -627l58 -4v-40h-242zM297 529l-92 -266h187l-94 266h-1zM196 748v54h268v-54h-268z" />
    <glyph glyph-name="amacron" unicode="&#x101;" horiz-adv-x="476" 
d="M159 -11q-56 0 -94 30.5t-38 89.5q0 67 51 104.5t129 37.5q42 0 82 -14v128q0 72 -78 72q-30 0 -58 -13q-18 -8 -18 -17q0 -4 6.5 -8.5t13.5 -14t7 -25.5q0 -20 -14.5 -32.5t-35.5 -12.5q-22 0 -36.5 15t-14.5 41q0 34 26.5 58t62.5 33.5t75 9.5q74 0 112.5 -25.5
t38.5 -86.5v-274q0 -37 33 -37q24 0 49 16l16 -22q-36 -50 -99 -50t-82 64q-61 -67 -134 -67zM200 44q52 0 89 37v124q-41 9 -76 9q-41 0 -68 -22t-27 -67q0 -38 22.5 -59.5t59.5 -21.5zM102 593v53h244v-53h-244z" />
    <glyph glyph-name="Abreve" unicode="&#x102;" horiz-adv-x="650" 
d="M390 0v40l80 5l-63 176h-217l-56 -161l100 -20v-40h-216v40l62 15l217 616h56l221 -627l58 -4v-40h-242zM297 529l-92 -266h187l-94 266h-1zM330 716q-58 0 -89.5 41t-35.5 95h33q9 -35 29.5 -52.5t62.5 -17.5t63 17.5t28 52.5h34q-4 -53 -35.5 -94.5t-89.5 -41.5z" />
    <glyph glyph-name="abreve" unicode="&#x103;" horiz-adv-x="476" 
d="M159 -11q-56 0 -94 30.5t-38 89.5q0 67 51 104.5t129 37.5q42 0 82 -14v128q0 72 -78 72q-30 0 -58 -13q-18 -8 -18 -17q0 -4 6.5 -8.5t13.5 -14t7 -25.5q0 -20 -14.5 -32.5t-35.5 -12.5q-22 0 -36.5 15t-14.5 41q0 34 26.5 58t62.5 33.5t75 9.5q74 0 112.5 -25.5
t38.5 -86.5v-274q0 -37 33 -37q24 0 49 16l16 -22q-36 -50 -99 -50t-82 64q-61 -67 -134 -67zM200 44q52 0 89 37v124q-41 9 -76 9q-41 0 -68 -22t-27 -67q0 -38 22.5 -59.5t59.5 -21.5zM224 547q-56 0 -88 47.5t-36 114.5h33q7 -47 27.5 -70t63.5 -23t63.5 23t27.5 70h33
q-4 -67 -36 -114.5t-88 -47.5z" />
    <glyph glyph-name="Aogonek" unicode="&#x104;" horiz-adv-x="650" 
d="M12 0v40l65 16l213 615h55l222 -627l59 -4v-40h-131q-77 -93 -77 -150q0 -48 42 -48q28 0 48 25l23 -19q-32 -56 -98 -56q-45 0 -72.5 23t-27.5 63q0 37 34.5 78.5t104.5 104.5l-71 200h-216l-54 -162l97 -19v-40h-216zM290 529l-91 -266h187l-95 266h-1z" />
    <glyph glyph-name="aogonek" unicode="&#x105;" horiz-adv-x="476" 
d="M378 -8q-66 0 -85 64q-61 -67 -134 -67q-56 0 -94 30.5t-38 89.5q0 67 51 104.5t129 37.5q39 0 82 -13v127q0 72 -78 72q-29 0 -59 -13q-17 -9 -17 -17q0 -4 6.5 -8.5t13.5 -14t7 -25.5q0 -20 -14.5 -32.5t-35.5 -12.5t-36 15.5t-15 40.5q0 50 52 80.5t112 30.5
q151 0 151 -122v-275q0 -37 33 -37q25 0 49 15l16 -21q-63 -61 -94.5 -104.5t-31.5 -86.5q0 -48 42 -48q27 0 49 25l21 -19q-32 -56 -98 -56q-45 0 -72.5 23t-27.5 62q0 26 20.5 56.5t40 49t55.5 49.5zM200 44q52 0 89 37v124q-41 9 -76 9q-41 0 -68 -22t-27 -67
q0 -38 22.5 -59.5t59.5 -21.5z" />
    <glyph glyph-name="Cacute" unicode="&#x106;" horiz-adv-x="628" 
d="M338 -18q-136 0 -219 92.5t-83 247.5q0 151 92.5 249.5t217.5 98.5q107 0 180 -84l16 64h33v-199h-37q-23 88 -71 130t-125 42q-86 0 -142 -78t-56 -219q0 -290 212 -290q133 0 195 132l35 -16q-33 -79 -97.5 -124.5t-150.5 -45.5zM339 718h-27l55 112q16 40 46 40
q16 0 31 -13.5t15 -33.5q0 -25 -30 -44z" />
    <glyph glyph-name="cacute" unicode="&#x107;" horiz-adv-x="448" 
d="M215 538l57 147q14 36 44 36q16 0 29.5 -12.5t13.5 -31.5q0 -21 -20 -40l-97 -99h-27zM246 -18q-98 0 -157 63.5t-59 170.5q0 117 71 190.5t167 73.5q62 0 104 -29t42 -75q0 -23 -15 -35t-38 -12q-39 0 -43 33q-1 4 -2 17.5t-2 18t-4.5 14.5t-8.5 13.5t-14 7t-22 3.5
q-67 0 -103 -55.5t-36 -148.5q0 -94 34.5 -143t98.5 -49q96 0 133 108l31 -9q-15 -69 -60 -113t-117 -44z" />
    <glyph glyph-name="Ccircumflex" unicode="&#x108;" horiz-adv-x="628" 
d="M249 718h-29l96 134h70l96 -134h-29l-103 69zM338 -18q-136 0 -219 92.5t-83 247.5q0 151 92.5 249.5t217.5 98.5q107 0 180 -84l16 64h33v-199h-37q-23 88 -71 130t-125 42q-86 0 -142 -78t-56 -219q0 -290 212 -290q133 0 195 132l35 -16q-33 -79 -97.5 -124.5
t-150.5 -45.5z" />
    <glyph glyph-name="ccircumflex" unicode="&#x109;" horiz-adv-x="448" 
d="M149 538h-29l91 157h66l92 -157h-29l-97 89zM246 -18q-98 0 -157 63.5t-59 170.5q0 117 71 190.5t167 73.5q62 0 104 -29t42 -75q0 -23 -15 -35t-38 -12q-39 0 -43 33q-1 4 -2 17.5t-2 18t-4.5 14.5t-8.5 13.5t-14 7t-22 3.5q-67 0 -103 -55.5t-36 -148.5
q0 -94 34.5 -143t98.5 -49q96 0 133 108l31 -9q-15 -69 -60 -113t-117 -44z" />
    <glyph glyph-name="Cdotaccent" unicode="&#x10a;" horiz-adv-x="628" 
d="M338 -18q-136 0 -219 92.5t-83 247.5q0 151 92.5 249.5t217.5 98.5q107 0 180 -84l16 64h33v-199h-37q-23 88 -71 130t-125 42q-86 0 -142 -78t-56 -219q0 -290 212 -290q133 0 195 132l35 -16q-33 -79 -97.5 -124.5t-150.5 -45.5zM349 727q-23 0 -39 15.5t-16 38.5
t16 39t39 16t39 -16t16 -39t-16 -38.5t-39 -15.5z" />
    <glyph glyph-name="cdotaccent" unicode="&#x10b;" horiz-adv-x="448" 
d="M246 -18q-98 0 -157 63.5t-59 170.5q0 117 71 190.5t167 73.5q62 0 104 -29t42 -75q0 -23 -15 -35t-38 -12q-39 0 -43 33q-1 4 -2 17.5t-2 18t-4.5 14.5t-8.5 13.5t-14 7t-22 3.5q-67 0 -103 -55.5t-36 -148.5q0 -94 34.5 -143t98.5 -49q96 0 133 108l31 -9
q-15 -69 -60 -113t-117 -44zM249 572q-23 0 -39 15.5t-16 38.5q0 24 15.5 39t39.5 15t39.5 -15t15.5 -39q0 -23 -16 -38.5t-39 -15.5z" />
    <glyph glyph-name="Ccaron" unicode="&#x10c;" horiz-adv-x="628" 
d="M220 852h29l102 -71l102 71h29l-96 -134h-70zM338 -18q-136 0 -219 92.5t-83 247.5q0 151 92.5 249.5t217.5 98.5q107 0 180 -84l16 64h33v-199h-37q-23 88 -71 130t-125 42q-86 0 -142 -78t-56 -219q0 -290 212 -290q133 0 195 132l35 -16q-33 -79 -97.5 -124.5
t-150.5 -45.5z" />
    <glyph glyph-name="ccaron" unicode="&#x10d;" horiz-adv-x="448" 
d="M124 704h30l96 -89l94 89h30l-91 -157h-68zM246 -18q-98 0 -157 63.5t-59 170.5q0 117 71 190.5t167 73.5q62 0 104 -29t42 -75q0 -23 -15 -35t-38 -12q-39 0 -43 33q-1 4 -2 17.5t-2 18t-4.5 14.5t-8.5 13.5t-14 7t-22 3.5q-67 0 -103 -55.5t-36 -148.5q0 -94 34.5 -143
t98.5 -49q96 0 133 108l31 -9q-15 -69 -60 -113t-117 -44z" />
    <glyph glyph-name="Dcaron" unicode="&#x10e;" horiz-adv-x="643" 
d="M185 852h29l102 -71l102 71h29l-96 -134h-70zM32 0v40l68 6v567l-68 5v41h264q49 0 93 -10.5t84.5 -35t70 -62t47 -94t17.5 -127.5q0 -84 -26 -149t-69.5 -103.5t-97 -58t-112.5 -19.5h-271zM289 613h-90v-567h92q209 0 209 284q0 156 -55.5 219.5t-155.5 63.5z" />
    <glyph glyph-name="dcaron" unicode="&#x10f;" horiz-adv-x="545" 
d="M527 500l-21 17q30 49 30 87q0 35 -26 66q8 39 41 39q21 0 34.5 -18.5t13.5 -47.5q0 -73 -72 -143zM233 -18q-89 0 -146 68.5t-57 177.5q0 117 69 184.5t156 67.5q64 0 113 -30v191l-90 -6v42l168 33l9 -3v-652l74 1v-38l-152 -25l-9 3l2 48q-56 -62 -137 -62zM273 40
q33 0 52.5 9.5t42.5 30.5v319q-44 34 -93 34q-66 0 -108 -54t-42 -151q0 -82 42 -135t106 -53z" />
    <glyph glyph-name="Dcroat" unicode="&#x110;" horiz-adv-x="643" 
d="M20 316v39h80v258l-68 5v41h264q49 0 93 -10.5t84.5 -35t70 -62t47 -94t17.5 -127.5q0 -84 -26 -149t-69.5 -103.5t-97 -58t-112.5 -19.5h-271v40l68 6v270h-80zM289 613h-90v-258h162v-39h-162v-270h92q209 0 209 284q0 156 -55.5 219.5t-155.5 63.5z" />
    <glyph glyph-name="dslash" unicode="&#x111;" horiz-adv-x="545" 
d="M191 566v42h177v87l78 15l9 -3v-99h81v-42h-81v-511l74 1v-38l-152 -25l-9 3l2 48q-56 -62 -137 -62q-89 0 -146 68.5t-57 177.5q0 117 69 184.5t156 67.5q64 0 113 -30v116h-177zM273 40q33 0 52.5 9.5t42.5 30.5v319q-44 34 -93 34q-66 0 -108 -54t-42 -151
q0 -82 42 -135t106 -53z" />
    <glyph glyph-name="Emacron" unicode="&#x112;" horiz-adv-x="593" 
d="M477 479l-15 90q-5 27 -17.5 35.5t-44.5 8.5h-201v-261h93q44 0 46 33l7 82h36v-268h-35l-7 78q-2 20 -13 26.5t-34 6.5h-93v-264h205q57 0 71 8t20 46l15 99h38v-199h-516v40l68 7v566l-68 5v41h481v-180h-36zM164 748v54h268v-54h-268z" />
    <glyph glyph-name="emacron" unicode="&#x113;" horiz-adv-x="466" 
d="M252 -18q-101 0 -161.5 70t-60.5 177t66.5 179t156.5 72q81 0 132 -52.5t49 -159.5l-5 -8h-304v-27q0 -85 39 -139t104 -54q105 0 141 102l31 -14q-47 -146 -188 -146zM248 437q-48 0 -78 -37t-40 -100h212q-2 72 -24 104.5t-70 32.5zM128 593v53h244v-53h-244z" />
    <glyph glyph-name="Ebreve" unicode="&#x114;" horiz-adv-x="593" 
d="M477 479l-15 90q-5 27 -17.5 35.5t-44.5 8.5h-201v-261h93q44 0 46 33l7 82h36v-268h-35l-7 78q-2 20 -13 26.5t-34 6.5h-93v-264h205q57 0 71 8t20 46l15 99h38v-199h-516v40l68 7v566l-68 5v41h481v-180h-36zM298 716q-58 0 -89.5 41t-35.5 95h33q9 -35 29.5 -52.5
t62.5 -17.5t63 17.5t28 52.5h34q-4 -53 -35.5 -94.5t-89.5 -41.5z" />
    <glyph glyph-name="ebreve" unicode="&#x115;" horiz-adv-x="466" 
d="M252 -18q-101 0 -161.5 70t-60.5 177t66.5 179t156.5 72q81 0 132 -52.5t49 -159.5l-5 -8h-304v-27q0 -85 39 -139t104 -54q105 0 141 102l31 -14q-47 -146 -188 -146zM248 437q-48 0 -78 -37t-40 -100h212q-2 72 -24 104.5t-70 32.5zM250 547q-56 0 -88 47.5t-36 114.5
h33q7 -47 27.5 -70t63.5 -23t63.5 23t27.5 70h33q-4 -67 -36 -114.5t-88 -47.5z" />
    <glyph glyph-name="Edotaccent" unicode="&#x116;" horiz-adv-x="593" 
d="M298 727q-23 0 -39 15.5t-16 38.5t16 39t39 16t39 -16t16 -39t-16 -38.5t-39 -15.5zM477 479l-15 90q-5 27 -17.5 35.5t-44.5 8.5h-201v-261h93q44 0 46 33l7 82h36v-268h-35l-7 78q-2 20 -13 26.5t-34 6.5h-93v-264h205q57 0 71 8t20 46l15 99h38v-199h-516v40l68 7v566
l-68 5v41h481v-180h-36z" />
    <glyph glyph-name="edotaccent" unicode="&#x117;" horiz-adv-x="466" 
d="M252 -18q-101 0 -161.5 70t-60.5 177t66.5 179t156.5 72q81 0 132 -52.5t49 -159.5l-5 -8h-304v-27q0 -85 39 -139t104 -54q105 0 141 102l31 -14q-47 -146 -188 -146zM248 437q-48 0 -78 -37t-40 -100h212q-2 72 -24 104.5t-70 32.5zM250 572q-23 0 -39 15.5t-16 38.5
q0 24 15.5 39t39.5 15t39.5 -15t15.5 -39q0 -23 -16 -38.5t-39 -15.5z" />
    <glyph glyph-name="Eogonek" unicode="&#x118;" horiz-adv-x="593" 
d="M477 479l-15 90q-5 27 -17.5 35.5t-44.5 8.5h-201v-261h93q44 0 46 33l7 82h36v-268h-35l-7 78q-2 20 -13 26.5t-34 6.5h-93v-264h205q57 0 71 8t20 46l15 99h38v-199h-77q-51 -74 -51 -141q0 -56 43 -56q25 0 48 26l20 -20q-35 -57 -96 -57q-44 0 -73 25t-29 69
q0 62 86 154h-387v40l68 7v566l-68 5v41h481v-180h-36z" />
    <glyph glyph-name="eogonek" unicode="&#x119;" horiz-adv-x="466" 
d="M409 142l31 -14q-16 -53 -50 -92q-5 -6 -22.5 -25.5t-23.5 -27t-20 -24.5t-19.5 -27.5t-13 -25.5t-10.5 -29t-3 -28q0 -47 42 -47q27 0 49 25l22 -20q-36 -55 -97 -55q-46 0 -73.5 23t-27.5 62q0 62 104 150q-19 -5 -45 -5q-101 0 -161.5 70t-60.5 177t66.5 179t156.5 72
q81 0 132 -52.5t49 -159.5l-5 -8h-303v-27q0 -85 39 -139t103 -54q105 0 141 102zM248 437q-48 0 -77.5 -37t-39.5 -100h211q-2 72 -24 104.5t-70 32.5z" />
    <glyph glyph-name="Ecaron" unicode="&#x11a;" horiz-adv-x="593" 
d="M167 852h29l102 -71l102 71h29l-96 -134h-70zM477 479l-15 90q-5 27 -17.5 35.5t-44.5 8.5h-201v-261h93q44 0 46 33l7 82h36v-268h-35l-7 78q-2 20 -13 26.5t-34 6.5h-93v-264h205q57 0 71 8t20 46l15 99h38v-199h-516v40l68 7v566l-68 5v41h481v-180h-36z" />
    <glyph glyph-name="ecaron" unicode="&#x11b;" horiz-adv-x="466" 
d="M125 704h30l96 -89l94 89h30l-91 -157h-68zM252 -18q-101 0 -161.5 70t-60.5 177t66.5 179t156.5 72q81 0 132 -52.5t49 -159.5l-5 -8h-304v-27q0 -85 39 -139t104 -54q105 0 141 102l31 -14q-47 -146 -188 -146zM248 437q-48 0 -78 -37t-40 -100h212q-2 72 -24 104.5
t-70 32.5z" />
    <glyph glyph-name="Gcircumflex" unicode="&#x11c;" horiz-adv-x="672" 
d="M255 718h-29l96 134h70l96 -134h-29l-103 69zM346 -18q-141 0 -226 93.5t-85 246.5q0 150 95 249t217 99q121 0 180 -76l12 54h34v-182h-37q-22 82 -65 119.5t-119 37.5q-88 0 -148.5 -78t-60.5 -219q0 -151 51 -224t162 -73q44 0 78.5 17.5t50.5 44.5q16 25 16 95v31
l-83 7v41h244v-41l-65 -6v-108q-37 -52 -100 -90t-151 -38z" />
    <glyph glyph-name="gcircumflex" unicode="&#x11d;" horiz-adv-x="525" 
d="M145 538h-29l91 157h66l92 -157h-29l-97 89zM235 143q-53 0 -95 21q-43 -16 -43 -56q0 -49 85 -49q34 0 81 1.5t55 1.5q79 0 123.5 -27.5t44.5 -99.5q0 -88 -73.5 -137t-190.5 -49q-102 0 -163.5 32.5t-61.5 87.5q0 37 30.5 65t80.5 43q-75 24 -75 93q0 72 84 107
q-71 46 -71 133q0 74 56.5 122t132.5 48q56 0 100.5 -25t63.5 -79h3q3 50 24.5 73.5t51.5 23.5q22 0 36.5 -13t14.5 -35q0 -7 -2 -13.5t-4 -10.5t-6.5 -7.5t-7 -5.5t-8 -4.5t-6.5 -3.5q-12 18 -31 18q-16 0 -29 -16t-13 -46q0 -3 0.5 -13.5t0.5 -17.5q0 -72 -55.5 -117
t-132.5 -45zM165 -31q-11 0 -29 2q-60 -29 -60 -87q0 -93 149 -93q85 0 138.5 28t53.5 84q0 71 -103 71q-32 0 -83 -2.5t-66 -2.5zM235 180q53 0 78 32t25 98q0 128 -103 128q-101 0 -101 -128q0 -130 101 -130z" />
    <glyph glyph-name="Gbreve" unicode="&#x11e;" horiz-adv-x="672" 
d="M357 716q-58 0 -89.5 41t-35.5 95h33q9 -35 29.5 -52.5t62.5 -17.5t63 17.5t28 52.5h34q-4 -53 -35.5 -94.5t-89.5 -41.5zM346 -18q-141 0 -226 93.5t-85 246.5q0 150 95 249t217 99q121 0 180 -76l12 54h34v-182h-37q-22 82 -65 119.5t-119 37.5q-88 0 -148.5 -78
t-60.5 -219q0 -151 51 -224t162 -73q44 0 78.5 17.5t50.5 44.5q16 25 16 95v31l-83 7v41h244v-41l-65 -6v-108q-37 -52 -100 -90t-151 -38z" />
    <glyph glyph-name="gbreve" unicode="&#x11f;" horiz-adv-x="525" 
d="M235 143q-53 0 -95 21q-43 -16 -43 -56q0 -49 85 -49q34 0 81 1.5t55 1.5q79 0 123.5 -27.5t44.5 -99.5q0 -88 -73.5 -137t-190.5 -49q-102 0 -163.5 32.5t-61.5 87.5q0 37 30.5 65t80.5 43q-75 24 -75 93q0 72 84 107q-71 46 -71 133q0 74 56.5 122t132.5 48
q56 0 100.5 -25t63.5 -79h3q3 50 24.5 73.5t51.5 23.5q22 0 36.5 -13t14.5 -35q0 -7 -2 -13.5t-4 -10.5t-6.5 -7.5t-7 -5.5t-8 -4.5t-6.5 -3.5q-12 18 -31 18q-16 0 -29 -16t-13 -46q0 -3 0.5 -13.5t0.5 -17.5q0 -72 -55.5 -117t-132.5 -45zM165 -31q-11 0 -29 2
q-60 -29 -60 -87q0 -93 149 -93q85 0 138.5 28t53.5 84q0 71 -103 71q-32 0 -83 -2.5t-66 -2.5zM235 180q53 0 78 32t25 98q0 128 -103 128q-101 0 -101 -128q0 -130 101 -130zM243 547q-56 0 -88 47.5t-36 114.5h33q7 -47 27.5 -70t63.5 -23t63.5 23t27.5 70h33
q-4 -67 -36 -114.5t-88 -47.5z" />
    <glyph glyph-name="Gdotaccent" unicode="&#x120;" horiz-adv-x="672" 
d="M357 727q-23 0 -39 15.5t-16 38.5t16 39t39 16t39 -16t16 -39t-16 -38.5t-39 -15.5zM346 -18q-141 0 -226 93.5t-85 246.5q0 150 95 249t217 99q121 0 180 -76l12 54h34v-182h-37q-22 82 -65 119.5t-119 37.5q-88 0 -148.5 -78t-60.5 -219q0 -151 51 -224t162 -73
q44 0 78.5 17.5t50.5 44.5q16 25 16 95v31l-83 7v41h244v-41l-65 -6v-108q-37 -52 -100 -90t-151 -38z" />
    <glyph glyph-name="gdotaccent" unicode="&#x121;" horiz-adv-x="525" 
d="M235 143q-53 0 -95 21q-43 -16 -43 -56q0 -49 85 -49q34 0 81 1.5t55 1.5q79 0 123.5 -27.5t44.5 -99.5q0 -88 -73.5 -137t-190.5 -49q-102 0 -163.5 32.5t-61.5 87.5q0 37 30.5 65t80.5 43q-75 24 -75 93q0 72 84 107q-71 46 -71 133q0 74 56.5 122t132.5 48
q56 0 100.5 -25t63.5 -79h3q3 50 24.5 73.5t51.5 23.5q22 0 36.5 -13t14.5 -35q0 -7 -2 -13.5t-4 -10.5t-6.5 -7.5t-7 -5.5t-8 -4.5t-6.5 -3.5q-12 18 -31 18q-16 0 -29 -16t-13 -46q0 -3 0.5 -13.5t0.5 -17.5q0 -72 -55.5 -117t-132.5 -45zM165 -31q-11 0 -29 2
q-60 -29 -60 -87q0 -93 149 -93q85 0 138.5 28t53.5 84q0 71 -103 71q-32 0 -83 -2.5t-66 -2.5zM235 180q53 0 78 32t25 98q0 128 -103 128q-101 0 -101 -128q0 -130 101 -130zM243 572q-23 0 -39 15.5t-16 38.5q0 24 15.5 39t39.5 15t39.5 -15t15.5 -39q0 -23 -16 -38.5
t-39 -15.5z" />
    <glyph glyph-name="Gcommaaccent" unicode="&#x122;" horiz-adv-x="672" 
d="M304 -269l-11 31q81 30 81 81q0 20 -12 20q-3 0 -12.5 -7t-22.5 -7q-41 0 -41 45q0 22 17.5 36t43.5 14q36 0 58.5 -22t22.5 -60q0 -94 -124 -131zM346 -18q-141 0 -226 93.5t-85 246.5q0 150 95 249t217 99q121 0 180 -76l12 54h34v-182h-37q-22 82 -65 119.5t-119 37.5
q-88 0 -148.5 -78t-60.5 -219q0 -151 51 -224t162 -73q44 0 78.5 17.5t50.5 44.5q16 25 16 95v31l-83 7v41h244v-41l-65 -6v-108q-37 -52 -100 -90t-151 -38z" />
    <glyph glyph-name="gcommaaccent" unicode="&#x123;" horiz-adv-x="525" 
d="M296 748l11 -32q-81 -30 -81 -80q0 -22 11 -22q4 0 14 7.5t22 7.5q42 0 42 -45q0 -21 -18 -35t-44 -14q-37 0 -59.5 21.5t-22.5 59.5q0 95 125 132zM235 143q-53 0 -95 21q-43 -16 -43 -56q0 -49 85 -49q34 0 81 1.5t55 1.5q79 0 123.5 -27.5t44.5 -99.5
q0 -88 -73.5 -137t-190.5 -49q-102 0 -163.5 32.5t-61.5 87.5q0 37 30.5 65t80.5 43q-75 24 -75 93q0 72 84 107q-71 46 -71 133q0 74 56.5 122t132.5 48q56 0 100.5 -25t63.5 -79h3q3 50 24.5 73.5t51.5 23.5q22 0 36.5 -13t14.5 -35q0 -7 -2 -13.5t-4 -10.5t-6.5 -7.5
t-7 -5.5t-8 -4.5t-6.5 -3.5q-12 18 -31 18q-16 0 -29 -16t-13 -46q0 -3 0.5 -13.5t0.5 -17.5q0 -72 -55.5 -117t-132.5 -45zM165 -31q-11 0 -29 2q-60 -29 -60 -87q0 -93 149 -93q85 0 138.5 28t53.5 84q0 71 -103 71q-32 0 -83 -2.5t-66 -2.5zM235 180q53 0 78 32t25 98
q0 128 -103 128q-101 0 -101 -128q0 -130 101 -130z" />
    <glyph glyph-name="Hcircumflex" unicode="&#x124;" horiz-adv-x="672" 
d="M396 0v40l77 6v276h-274v-275l77 -7v-40h-244v40l68 7v566l-68 5v41h244v-41l-77 -5v-249h274v246l-77 8v41h244v-41l-68 -6v-568l68 -4v-40h-244zM245 718h-29l96 134h70l96 -134h-29l-103 69z" />
    <glyph glyph-name="hcircumflex" unicode="&#x125;" horiz-adv-x="534" 
d="M19 0v40l71 4v597l-74 -7v42l154 34l7 -3v-319q29 32 64 58q48 35 90 35q125 0 125 -134v-305l61 -2v-40h-214v40l65 3v301q0 66 -74 66q-52 0 -117 -48v-318l61 -4v-40h-219zM168 757h-29l96 134h70l96 -134h-29l-103 69z" />
    <glyph glyph-name="Hbar" unicode="&#x126;" horiz-adv-x="672" 
d="M10 473v38h90v103l-68 5v40h244v-40l-77 -5v-103h276v100l-79 8v40h244v-40l-67 -6v-102h88v-38h-88v-429l67 -4v-40h-244v40l79 6v274h-276v-273l77 -7v-40h-244v40l68 7v426h-90zM199 473v-112h276v112h-276z" />
    <glyph glyph-name="hbar" unicode="&#x127;" horiz-adv-x="534" 
d="M4 566v42h86v84l80 18l7 -3v-99h172v-42h-172v-178q29 32 64 58q48 35 90 35q125 0 125 -134v-305l61 -2v-40h-214v40l65 3v301q0 66 -74 66q-52 0 -117 -48v-318l61 -4v-40h-219v40l71 4v522h-86z" />
    <glyph glyph-name="Itilde" unicode="&#x128;" horiz-adv-x="299" 
d="M32 0v40l68 7v563l-68 8v41h235v-41l-68 -7v-562l68 -9v-40h-235zM214 740q-21 0 -67 14.5t-62 14.5q-34 -2 -47 -43h-34q9 46 34 79.5t63 33.5q20 0 65.5 -14.5t60.5 -14.5q32 2 45 43h36q-27 -113 -94 -113z" />
    <glyph glyph-name="itilde" unicode="&#x129;" horiz-adv-x="268" 
d="M19 0v40l75 4v359l-79 -11v42l159 39l8 -4v-425l68 -4v-40h-231zM179 569q-21 0 -61 15t-56 15q-32 -2 -47 -43h-34q11 47 35.5 79.5t60.5 32.5q20 0 60 -15t55 -15q18 2 28 11.5t17 32.5h36q-27 -113 -94 -113z" />
    <glyph glyph-name="Imacron" unicode="&#x12a;" horiz-adv-x="299" 
d="M32 0v40l68 7v563l-68 8v41h235v-41l-68 -7v-562l68 -9v-40h-235zM11 748v54h268v-54h-268z" />
    <glyph glyph-name="imacron" unicode="&#x12b;" horiz-adv-x="268" 
d="M19 0v40l75 4v359l-79 -11v42l159 39l8 -4v-425l68 -4v-40h-231zM16 593v53h221v-53h-221z" />
    <glyph glyph-name="Ibreve" unicode="&#x12c;" horiz-adv-x="299" 
d="M32 0v40l68 7v563l-68 8v41h235v-41l-68 -7v-562l68 -9v-40h-235zM145 716q-58 0 -89.5 41t-35.5 95h33q9 -35 29.5 -52.5t62.5 -17.5t63 17.5t28 52.5h34q-4 -53 -35.5 -94.5t-89.5 -41.5z" />
    <glyph glyph-name="ibreve" unicode="&#x12d;" horiz-adv-x="268" 
d="M19 0v40l75 4v359l-79 -11v42l159 39l8 -4v-425l68 -4v-40h-231zM122 547q-56 0 -88 47.5t-36 114.5h33q7 -47 27.5 -70t63.5 -23t63.5 23t27.5 70h33q-4 -67 -36 -114.5t-88 -47.5z" />
    <glyph glyph-name="Iogonek" unicode="&#x12e;" horiz-adv-x="299" 
d="M144 -248q-44 0 -73 25t-29 69q0 55 69 135l17 19h-96v40l68 7v563l-68 8v41h235v-41l-68 -7v-562l68 -9v-40h-88q-16 -25 -31 -57q-19 -41 -19 -84q0 -56 43 -56q25 0 48 26l20 -20q-35 -57 -96 -57z" />
    <glyph glyph-name="iogonek" unicode="&#x12f;" horiz-adv-x="268" 
d="M19 0v40l75 4v359l-79 -11v42l158 39l8 -4v-425l69 -4v-40h-76q-27 -35 -43 -74q-18 -40 -18 -76q0 -48 42 -48q29 0 49 25l22 -19q-37 -56 -98 -56q-45 0 -72 23t-27 62q0 55 75 134l28 29h-113zM136 571q-23 0 -39 16t-16 39t16 38.5t39 15.5q24 0 40.5 -15.5
t16.5 -38.5t-16.5 -39t-40.5 -16z" />
    <glyph glyph-name="Idot" unicode="&#x130;" horiz-adv-x="299" 
d="M32 0v40l68 7v563l-68 8v41h235v-41l-68 -7v-562l68 -9v-40h-235zM145 727q-23 0 -39 15.5t-16 38.5t16 39t39 16t39 -16t16 -39t-16 -38.5t-39 -15.5z" />
    <glyph glyph-name="dotlessi" unicode="&#x131;" horiz-adv-x="268" 
d="M19 0v40l75 4v359l-79 -11v42l159 39l8 -4v-425l68 -4v-40h-231z" />
    <glyph glyph-name="IJ" unicode="&#x132;" horiz-adv-x="695" 
d="M422 -17q-53 0 -81.5 24t-28.5 64q0 31 16.5 48t39.5 17q21 0 35.5 -12.5t14.5 -32.5q0 -18 -14 -31.5t-14 -17.5q0 -16 29 -16q79 0 79 126v458l-79 8v41h249v-41l-73 -8v-398q0 -113 -47 -171t-126 -58zM32 0v40l68 7v563l-68 8v41h235v-41l-68 -7v-562l68 -9v-40h-235
z" />
    <glyph glyph-name="ij" unicode="&#x133;" horiz-adv-x="522" 
d="M258 -250q-24 0 -40 15t-16 36q0 20 10.5 32.5t27.5 12.5q30 0 67 -30q48 25 48 122v465l-79 -11v42l158 39l8 -4v-475q0 -95 -53.5 -169.5t-130.5 -74.5zM19 0v40l75 4v359l-79 -11v42l159 39l8 -4v-425l68 -4v-40h-231zM136 571q-23 0 -39 16t-16 39t16 38.5t39 15.5
q24 0 40.5 -15.5t16.5 -38.5t-16.5 -39t-40.5 -16zM399 571q-23 0 -39 16t-16 39t16 38.5t39 15.5q24 0 40.5 -15.5t16.5 -38.5t-17 -39t-40 -16z" />
    <glyph glyph-name="Jcircumflex" unicode="&#x134;" horiz-adv-x="408" 
d="M159 718h-29l96 134h70l96 -134h-29l-103 69zM135 -62q-53 0 -81.5 23.5t-28.5 63.5q0 31 16 48t40 17q21 0 35 -12t14 -32t-13.5 -33t-13.5 -15q0 -17 29 -17q77 0 77 127v502l-79 8v41h251v-41l-73 -8v-442q0 -113 -47 -171.5t-126 -58.5z" />
    <glyph glyph-name="jcircumflex" unicode="&#x135;" horiz-adv-x="266" 
d="M1 -250q-24 0 -39.5 15t-15.5 36q0 45 37 45q29 0 66 -30q49 25 49 122v465l-79 -11v42l158 39l9 -4v-475q0 -95 -53.5 -169.5t-131.5 -74.5zM13 538h-29l91 157h66l92 -157h-29l-97 89z" />
    <glyph glyph-name="Kcommaaccent" unicode="&#x136;" horiz-adv-x="632" 
d="M276 -269l-11 31q81 30 81 81q0 20 -12 20q-3 0 -12.5 -7t-22.5 -7q-41 0 -41 45q0 22 17.5 36t43.5 14q36 0 58.5 -22t22.5 -60q0 -94 -124 -131zM32 0v40l68 7v566l-68 5v41h245v-41l-78 -5v-566l77 -7v-40h-244zM376 0v40l67 5l-219 296v14l217 244l-63 19v41h206v-41
l-85 -19l-190 -214l246 -341l52 -4v-40h-231z" />
    <glyph glyph-name="kcommaaccent" unicode="&#x137;" horiz-adv-x="516" 
d="M212 -269l-11 31q81 30 81 81q0 20 -12 20q-3 0 -12.5 -7t-22.5 -7q-41 0 -41 45q0 22 17.5 36t43.5 14q36 0 58.5 -22t22.5 -60q0 -94 -124 -131zM19 0v40l71 6v594l-71 -12v42l150 40l8 -3v-662l61 -5v-40h-219zM309 0v40l48 3l-168 199v11l160 160l-65 13v38h192v-38
l-72 -11l-139 -139l197 -234l44 -2v-40h-197z" />
    <glyph glyph-name="Lacute" unicode="&#x139;" horiz-adv-x="561" 
d="M129 718h-27l55 112q16 40 46 40q16 0 31 -13.5t15 -33.5q0 -25 -30 -44zM32 0v40l68 6v568l-68 4v41h254v-41l-87 -6v-566h189q48 0 64 18.5t24 91.5l8 64h39v-220h-491z" />
    <glyph glyph-name="lacute" unicode="&#x13a;" horiz-adv-x="274" 
d="M114 757h-27l55 112q16 40 46 40q16 0 31 -13.5t15 -33.5q0 -24 -30 -44zM19 0v40l78 5v596l-83 -11v43l162 37l8 -3v-663l72 -4v-40h-237z" />
    <glyph glyph-name="Lcommaaccent" unicode="&#x13b;" horiz-adv-x="561" 
d="M245 -269l-11 31q81 30 81 81q0 20 -12 20q-3 0 -12.5 -7t-22.5 -7q-41 0 -41 45q0 22 17.5 36t43.5 14q36 0 58.5 -22t22.5 -60q0 -94 -124 -131zM32 0v40l68 6v568l-68 4v41h254v-41l-87 -6v-566h189q48 0 64 18.5t24 91.5l8 64h39v-220h-491z" />
    <glyph glyph-name="lcommaaccent" unicode="&#x13c;" horiz-adv-x="274" 
d="M74 -269l-11 31q81 30 81 81q0 20 -12 20q-3 0 -12.5 -7t-22.5 -7q-41 0 -41 45q0 22 17.5 36t43.5 14q36 0 58.5 -22t22.5 -60q0 -94 -124 -131zM19 0v40l78 5v596l-83 -11v43l162 37l8 -3v-663l72 -4v-40h-237z" />
    <glyph glyph-name="Lcaron" unicode="&#x13d;" horiz-adv-x="561" 
d="M343 489l-21 17q30 49 30 87q0 35 -26 66q8 39 41 39q21 0 34.5 -18t13.5 -48q0 -73 -72 -143zM32 0v40l68 6v568l-68 4v41h254v-41l-87 -6v-566h189q48 0 64 18.5t24 91.5l8 64h39v-220h-491z" />
    <glyph glyph-name="lcaron" unicode="&#x13e;" horiz-adv-x="274" 
d="M256 500l-21 17q30 49 30 87q0 35 -26 66q7 39 41 39q21 0 34.5 -18.5t13.5 -47.5q0 -73 -72 -143zM19 0v40l78 5v596l-83 -11v43l162 37l8 -3v-663l72 -4v-40h-237z" />
    <glyph glyph-name="Ldot" unicode="&#x13f;" horiz-adv-x="561" 
d="M32 0v40l68 6v568l-68 4v41h254v-41l-87 -6v-566h191q46 0 62.5 17.5t24.5 80.5l7 52h39v-196h-491zM474 293q-27 0 -44.5 17.5t-17.5 44.5q0 26 17.5 43t44.5 17q26 0 43.5 -17t17.5 -43q0 -27 -17.5 -44.5t-43.5 -17.5z" />
    <glyph glyph-name="ldot" unicode="&#x140;" horiz-adv-x="332" 
d="M19 0v40l78 5v596l-83 -11v43l162 37l8 -3v-663l72 -4v-40h-237zM303 285q-26 0 -43.5 17.5t-17.5 44.5q0 26 17.5 43t43.5 17q27 0 44 -17t17 -43q0 -27 -17 -44.5t-44 -17.5z" />
    <glyph glyph-name="Lslash" unicode="&#x141;" horiz-adv-x="583" 
d="M54 0v40l68 6v189l-76 -36v42l76 36v337l-68 4v41h254v-41l-87 -6v-287l216 103v-42l-216 -103v-237h189q48 0 64 18.5t24 91.5l8 64h39v-220h-491z" />
    <glyph glyph-name="lslash" unicode="&#x142;" horiz-adv-x="274" 
d="M19 0v40l78 5v260l-80 -52v46l80 52v290l-83 -11v43l162 37l8 -3v-298l79 52v-46l-79 -52v-319l72 -4v-40h-237z" />
    <glyph glyph-name="Nacute" unicode="&#x143;" horiz-adv-x="656" 
d="M342 718h-27l55 112q16 40 46 40q16 0 31 -13.5t15 -33.5q0 -25 -30 -44zM32 0v40l68 11v561l-68 6v41h187l295 -460v404l-80 15v41h191v-41l-59 -14v-604h-41l-373 580v-523l102 -17v-40h-222z" />
    <glyph glyph-name="nacute" unicode="&#x144;" horiz-adv-x="539" 
d="M241 538l57 147q14 36 44 36q16 0 29.5 -12.5t13.5 -31.5q0 -21 -20 -40l-97 -99h-27zM19 0v40l75 5v358l-73 -13v42l152 41l8 -4v-83q29 34 63 60q48 35 90 35q125 0 125 -134v-305l61 -2v-40h-207v40l59 2v302q0 66 -75 66q-51 0 -116 -48v-318l67 -4v-40h-229z" />
    <glyph glyph-name="Ncommaaccent" unicode="&#x145;" horiz-adv-x="656" 
d="M310 -269l-11 31q81 30 81 81q0 20 -12 20q-3 0 -12.5 -7t-22.5 -7q-41 0 -41 45q0 22 17.5 36t43.5 14q36 0 58.5 -22t22.5 -60q0 -94 -124 -131zM32 0v40l68 11v561l-68 6v41h187l295 -460v404l-80 15v41h191v-41l-59 -14v-604h-41l-373 580v-523l102 -17v-40h-222z
" />
    <glyph glyph-name="ncommaaccent" unicode="&#x146;" horiz-adv-x="539" 
d="M222 -269l-11 31q81 30 81 81q0 20 -12 20q-3 0 -12.5 -7t-22.5 -7q-41 0 -41 45q0 22 17.5 36t43.5 14q36 0 58.5 -22t22.5 -60q0 -94 -124 -131zM19 0v40l75 5v358l-73 -13v42l152 41l8 -4v-83q29 34 63 60q48 35 90 35q125 0 125 -134v-305l61 -2v-40h-207v40l59 2
v302q0 66 -75 66q-51 0 -116 -48v-318l67 -4v-40h-229z" />
    <glyph glyph-name="Ncaron" unicode="&#x147;" horiz-adv-x="656" 
d="M223 852h29l102 -71l102 71h29l-96 -134h-70zM32 0v40l68 11v561l-68 6v41h187l295 -460v404l-80 15v41h191v-41l-59 -14v-604h-41l-373 580v-523l102 -17v-40h-222z" />
    <glyph glyph-name="ncaron" unicode="&#x148;" horiz-adv-x="539" 
d="M149 704h30l96 -89l94 89h30l-91 -157h-68zM19 0v40l75 5v358l-73 -13v42l152 41l8 -4v-83q29 34 63 60q48 35 90 35q125 0 125 -134v-305l61 -2v-40h-207v40l59 2v302q0 66 -75 66q-51 0 -116 -48v-318l67 -4v-40h-229z" />
    <glyph glyph-name="napostrophe" unicode="&#x149;" horiz-adv-x="539" 
d="M-31 424l-11 30q43 16 68 44.5t25 61.5q0 26 -14 26q-2 0 -13 -9t-26 -9q-21 0 -33.5 14t-12.5 37q0 25 20 41.5t49 16.5q42 0 64 -24.5t22 -69.5q0 -63 -38.5 -102t-99.5 -57zM102 0v40l75 5v358l-73 -13v42l152 41l8 -4v-83q28 34 63 60q48 35 90 35q125 0 125 -134
v-305l61 -2v-40h-207v40l59 2v302q0 66 -75 66q-51 0 -116 -48v-318l67 -4v-40h-229z" />
    <glyph glyph-name="Eng" unicode="&#x14a;" horiz-adv-x="656" 
d="M566 604v-611q0 -120 -47.5 -182t-128.5 -62q-47 0 -74.5 24.5t-27.5 64.5q0 33 16.5 50.5t41.5 17.5q21 0 34.5 -12t13.5 -33q0 -20 -13.5 -34t-13.5 -17q0 -16 26 -16q54 0 87.5 46.5t33.5 140.5v38l-362 561v-523l102 -17v-40h-222v40l68 11v561l-68 6v41h190
l292 -456v400l-80 15v41h191v-41z" />
    <glyph glyph-name="eng" unicode="&#x14b;" horiz-adv-x="533" 
d="M19 0v40l75 5v358l-73 -13v42l153 41l8 -4v-81q33 37 62 58q48 35 90 35q126 0 126 -134v-353q0 -95 -53.5 -169.5t-130.5 -74.5q-24 0 -40 15t-16 36q0 20 11 32.5t29 12.5q33 0 78 -36q34 19 34 128v406q0 66 -75 66q-52 0 -115 -47v-319l66 -4v-40h-229z" />
    <glyph glyph-name="Omacron" unicode="&#x14c;" horiz-adv-x="669" 
d="M212 748v54h268v-54h-268zM335 29q94 0 142.5 74.5t48.5 221.5t-49 222.5t-142 75.5q-92 0 -142 -76t-50 -222t50 -221t142 -75zM335 -18q-120 0 -210 96t-90 247q0 150 90.5 247.5t209.5 97.5t209 -97t90 -248t-90 -247t-209 -96z" />
    <glyph glyph-name="omacron" unicode="&#x14d;" horiz-adv-x="517" 
d="M139 593v53h244v-53h-244zM259 25q68 0 100.5 56t32.5 149q0 91 -32.5 148.5t-100.5 57.5t-101 -57.5t-33 -148.5q0 -92 33 -148.5t101 -56.5zM259 -18q-92 0 -160.5 70t-68.5 178q0 107 69 178.5t160 71.5t159.5 -71.5t68.5 -178.5q0 -108 -68.5 -178t-159.5 -70z" />
    <glyph glyph-name="Obreve" unicode="&#x14e;" horiz-adv-x="669" 
d="M346 716q-58 0 -89.5 41t-35.5 95h33q9 -35 29.5 -52.5t62.5 -17.5t63 17.5t28 52.5h34q-4 -53 -35.5 -94.5t-89.5 -41.5zM335 29q94 0 142.5 74.5t48.5 221.5t-49 222.5t-142 75.5q-92 0 -142 -76t-50 -222t50 -221t142 -75zM335 -18q-120 0 -210 96t-90 247
q0 150 90.5 247.5t209.5 97.5t209 -97t90 -248t-90 -247t-209 -96z" />
    <glyph glyph-name="obreve" unicode="&#x14f;" horiz-adv-x="517" 
d="M259 25q68 0 100.5 56t32.5 149q0 91 -32.5 148.5t-100.5 57.5t-101 -57.5t-33 -148.5q0 -92 33 -148.5t101 -56.5zM259 -18q-92 0 -160.5 70t-68.5 178q0 107 69 178.5t160 71.5t159.5 -71.5t68.5 -178.5q0 -108 -68.5 -178t-159.5 -70zM261 547q-56 0 -88 47.5
t-36 114.5h33q7 -47 27.5 -70t63.5 -23t63.5 23t27.5 70h33q-4 -67 -36 -114.5t-88 -47.5z" />
    <glyph glyph-name="Ohungarumlaut" unicode="&#x150;" horiz-adv-x="669" 
d="M437 718h-26l23 116q9 36 42 36q16 0 29 -10.5t13 -29.5q0 -14 -19 -42zM289 718h-27l24 116q9 36 42 36q16 0 28.5 -10.5t12.5 -29.5q0 -17 -19 -42zM335 29q94 0 142.5 74.5t48.5 221.5t-49 222.5t-142 75.5q-92 0 -142 -76t-50 -222t50 -221t142 -75zM335 -18
q-120 0 -210 96t-90 247q0 150 90.5 247.5t209.5 97.5t209 -97t90 -248t-90 -247t-209 -96z" />
    <glyph glyph-name="ohungarumlaut" unicode="&#x151;" horiz-adv-x="517" 
d="M175 538l35 148q9 35 42 35q16 0 28 -10t12 -29q0 -18 -18 -41l-72 -103h-27zM323 538l35 148q9 35 42 35q15 0 27 -10t12 -29q0 -16 -18 -41l-72 -103h-26zM259 25q68 0 100.5 56t32.5 149q0 91 -32.5 148.5t-100.5 57.5t-101 -57.5t-33 -148.5q0 -92 33 -148.5
t101 -56.5zM259 -18q-92 0 -160.5 70t-68.5 178q0 107 69 178.5t160 71.5t159.5 -71.5t68.5 -178.5q0 -108 -68.5 -178t-159.5 -70z" />
    <glyph glyph-name="OE" unicode="&#x152;" horiz-adv-x="892" 
d="M644 199l-7 78q-3 20 -13 26.5t-33 6.5h-82v-264h183q57 0 71 8t20 46l14 99h39v-199h-490q-49 0 -92.5 10.5t-84 35t-70 62t-47 94t-17.5 127.5q0 84 26 149t70 103.5t97 58t112 19.5h461v-180h-36l-16 90q-5 27 -17.5 35.5t-43.5 8.5h-179v-261h81q44 0 45 33l8 82h37
v-268h-36zM142 329q0 -156 55.5 -219.5t157.5 -63.5h56v567h-59q-210 0 -210 -284z" />
    <glyph glyph-name="oe" unicode="&#x153;" horiz-adv-x="828" 
d="M259 -18q-92 0 -160.5 70t-68.5 178q0 107 69 178.5t160 71.5q56 0 103 -30.5t77 -85.5q27 54 73.5 85t102.5 31q81 0 131.5 -52.5t48.5 -159.5l-5 -8h-303v-27q0 -85 39.5 -139t104.5 -54q104 0 140 102l30 -14q-45 -146 -188 -146q-126 0 -177 109q-29 -51 -76 -80
t-101 -29zM259 25q68 0 100.5 56t32.5 149q0 91 -32.5 148.5t-100.5 57.5t-100.5 -57.5t-32.5 -148.5q0 -93 32.5 -149t100.5 -56zM609 437q-48 0 -77.5 -37t-39.5 -100h212q-1 72 -23.5 104.5t-71.5 32.5z" />
    <glyph glyph-name="Racute" unicode="&#x154;" horiz-adv-x="615" 
d="M274 718h-27l55 112q16 40 46 40q16 0 31 -13.5t15 -33.5q0 -25 -30 -44zM32 0v40l68 6v567l-68 5v41h244q103 0 169.5 -42.5t66.5 -120.5q0 -66 -45.5 -109t-111.5 -59v-4q60 -8 91 -44t43 -96q18 -84 31.5 -113t46.5 -29q23 0 41 12l17 -31q-46 -31 -101 -31
q-69 0 -97 46t-42 141q-12 76 -35.5 103.5t-78.5 27.5h-72v-263l77 -7v-40h-244zM272 613h-73v-261h89q68 0 93 29t25 100q0 132 -134 132z" />
    <glyph glyph-name="racute" unicode="&#x155;" horiz-adv-x="400" 
d="M191 538l57 147q14 36 44 36q16 0 29.5 -12.5t13.5 -31.5q0 -21 -20 -40l-97 -99h-27zM19 0v40l75 5v357l-79 -16v42l158 45l8 -4v-87q35 40 74.5 69t70.5 29q28 0 44.5 -17t16.5 -47q0 -26 -15.5 -44.5t-43.5 -18.5q-25 0 -34 11q0 43 -24 43t-89 -53v-310l85 -4v-40
h-247z" />
    <glyph glyph-name="Rcommaaccent" unicode="&#x156;" horiz-adv-x="615" 
d="M285 -269l-11 31q81 30 81 81q0 20 -12 20q-3 0 -12.5 -7t-22.5 -7q-41 0 -41 45q0 22 17.5 36t43.5 14q36 0 58.5 -22t22.5 -60q0 -94 -124 -131zM32 0v40l68 6v567l-68 5v41h244q103 0 169.5 -42.5t66.5 -120.5q0 -66 -45.5 -109t-111.5 -59v-4q60 -8 91 -44t43 -96
q18 -84 31.5 -113t46.5 -29q23 0 41 12l17 -31q-46 -31 -101 -31q-69 0 -97 46t-42 141q-12 76 -35.5 103.5t-78.5 27.5h-72v-263l77 -7v-40h-244zM272 613h-73v-261h89q68 0 93 29t25 100q0 132 -134 132z" />
    <glyph glyph-name="rcommaaccent" unicode="&#x157;" horiz-adv-x="400" 
d="M69 -269l-11 31q81 30 81 81q0 20 -12 20q-3 0 -12.5 -7t-22.5 -7q-41 0 -41 45q0 22 17.5 36t43.5 14q36 0 58.5 -22t22.5 -60q0 -94 -124 -131zM19 0v40l75 5v357l-79 -16v42l158 45l8 -4v-87q35 40 74.5 69t70.5 29q28 0 44.5 -17t16.5 -47q0 -26 -15.5 -44.5
t-43.5 -18.5q-25 0 -34 11q0 43 -24 43t-89 -53v-310l85 -4v-40h-247z" />
    <glyph glyph-name="Rcaron" unicode="&#x158;" horiz-adv-x="615" 
d="M145 852h29l102 -71l102 71h29l-96 -134h-70zM32 0v40l68 6v567l-68 5v41h244q103 0 169.5 -42.5t66.5 -120.5q0 -66 -45.5 -109t-111.5 -59v-4q60 -8 91 -44t43 -96q18 -84 31.5 -113t46.5 -29q23 0 41 12l17 -31q-46 -31 -101 -31q-69 0 -97 46t-42 141
q-12 76 -35.5 103.5t-78.5 27.5h-72v-263l77 -7v-40h-244zM272 613h-73v-261h89q68 0 93 29t25 100q0 132 -134 132z" />
    <glyph glyph-name="rcaron" unicode="&#x159;" horiz-adv-x="400" 
d="M102 704h30l96 -89l94 89h30l-91 -157h-68zM19 0v40l75 5v357l-79 -16v42l158 45l8 -4v-87q35 40 74.5 69t70.5 29q28 0 44.5 -17t16.5 -47q0 -26 -15.5 -44.5t-43.5 -18.5q-25 0 -34 11q0 43 -24 43t-89 -53v-310l85 -4v-40h-247z" />
    <glyph glyph-name="Sacute" unicode="&#x15a;" horiz-adv-x="517" 
d="M271 -18q-122 0 -180 83l-16 -51h-35v203l40 -2q32 -187 180 -187q63 0 105 30t42 89q0 55 -40 87t-123 59q-96 31 -143.5 71.5t-47.5 121.5q0 87 55 135.5t135 48.5q101 0 150 -63l14 39h34v-167h-37q-16 70 -57.5 107.5t-103.5 37.5q-55 0 -88 -28t-33 -75
q0 -51 34.5 -76t122.5 -55q46 -16 78.5 -31.5t63 -40t46 -59t15.5 -79.5q0 -99 -61 -148.5t-150 -49.5zM246 718h-27l55 112q16 40 46 40q16 0 31 -13.5t15 -33.5q0 -25 -30 -44z" />
    <glyph glyph-name="sacute" unicode="&#x15b;" horiz-adv-x="383" 
d="M163 538l57 147q14 36 44 36q16 0 29.5 -12.5t13.5 -31.5q0 -21 -20 -40l-97 -99h-27zM180 -14q-66 0 -109.5 29.5t-43.5 68.5q0 49 45 49q22 0 36 -9q-6 -98 79 -98q35 0 60.5 18.5t25.5 52.5q0 37 -21.5 57t-77.5 44q-64 24 -95 55t-31 87t44.5 96t111.5 40
q61 0 98 -26t37 -61q0 -41 -42 -41q-17 0 -33 10q-4 41 -19 59.5t-51 18.5q-33 0 -54.5 -17.5t-21.5 -50.5q0 -28 21.5 -48t74.5 -42q72 -30 106 -62.5t34 -84.5q0 -67 -46 -106t-128 -39z" />
    <glyph glyph-name="Scircumflex" unicode="&#x15c;" horiz-adv-x="517" 
d="M156 718h-29l96 134h70l96 -134h-29l-103 69zM271 -18q-122 0 -180 83l-16 -51h-35v203l40 -2q32 -187 180 -187q63 0 105 30t42 89q0 55 -40 87t-123 59q-96 31 -143.5 71.5t-47.5 121.5q0 87 55 135.5t135 48.5q101 0 150 -63l14 39h34v-167h-37q-16 70 -57.5 107.5
t-103.5 37.5q-55 0 -88 -28t-33 -75q0 -51 34.5 -76t122.5 -55q46 -16 78.5 -31.5t63 -40t46 -59t15.5 -79.5q0 -99 -61 -148.5t-150 -49.5z" />
    <glyph glyph-name="scircumflex" unicode="&#x15d;" horiz-adv-x="383" 
d="M94 538h-29l91 157h66l92 -157h-29l-97 89zM180 -14q-66 0 -109.5 29.5t-43.5 68.5q0 49 45 49q22 0 36 -9q-6 -98 79 -98q35 0 60.5 18.5t25.5 52.5q0 37 -21.5 57t-77.5 44q-64 24 -95 55t-31 87t44.5 96t111.5 40q61 0 98 -26t37 -61q0 -41 -42 -41q-17 0 -33 10
q-4 41 -19 59.5t-51 18.5q-33 0 -54.5 -17.5t-21.5 -50.5q0 -28 21.5 -48t74.5 -42q72 -30 106 -62.5t34 -84.5q0 -67 -46 -106t-128 -39z" />
    <glyph glyph-name="Scedilla" unicode="&#x15e;" horiz-adv-x="517" 
d="M226 -233q-51 0 -88 17l9 31q33 -9 60 -9q25 0 39.5 11t14.5 31q0 56 -76 40v108l-17 6q-47 20 -77 63l-16 -51h-35v203l40 -2q32 -187 180 -187q63 0 105 30t42 89q0 55 -40 87t-123 59q-96 31 -143.5 71.5t-47.5 121.5q0 87 55 135.5t135 48.5q101 0 150 -63l14 39h34
v-167h-37q-16 70 -57.5 107.5t-103.5 37.5q-55 0 -88 -28t-33 -75q0 -51 34.5 -76t122.5 -55q46 -16 78.5 -31.5t63 -40t46 -59t15.5 -79.5q0 -99 -61 -148.5t-150 -49.5q-25 0 -44 4v-59q44 6 76.5 -15.5t32.5 -60.5q0 -38 -30 -61t-80 -23z" />
    <glyph glyph-name="scedilla" unicode="&#x15f;" horiz-adv-x="383" 
d="M179 -233q-51 0 -88 17l9 31q33 -9 60 -9q24 0 39 11t15 31q0 56 -76 40v102q-7 1 -21 5q-41 12 -65.5 36.5t-24.5 52.5q0 49 45 49q22 0 36 -9q-6 -98 79 -98q35 0 60.5 18.5t25.5 52.5q0 37 -21.5 57t-77.5 44q-64 24 -95 55t-31 87t44.5 96t111.5 40q61 0 98 -26
t37 -61q0 -41 -42 -41q-17 0 -33 10q-4 41 -19 59.5t-51 18.5q-33 0 -54.5 -17.5t-21.5 -50.5q0 -28 21.5 -48t74.5 -42q72 -30 106 -62.5t34 -84.5q0 -67 -46 -106t-128 -39v-59q44 6 76.5 -15.5t32.5 -60.5q0 -38 -30 -61t-80 -23z" />
    <glyph glyph-name="Scaron" unicode="&#x160;" horiz-adv-x="517" 
d="M127 852h29l102 -71l102 71h29l-96 -134h-70zM271 -18q-122 0 -180 83l-16 -51h-35v203l40 -2q32 -187 180 -187q63 0 105 30t42 89q0 55 -40 87t-123 59q-96 31 -143.5 71.5t-47.5 121.5q0 87 55 135.5t135 48.5q101 0 150 -63l14 39h34v-167h-37q-16 70 -57.5 107.5
t-103.5 37.5q-55 0 -88 -28t-33 -75q0 -51 34.5 -76t122.5 -55q46 -16 78.5 -31.5t63 -40t46 -59t15.5 -79.5q0 -99 -61 -148.5t-150 -49.5z" />
    <glyph glyph-name="scaron" unicode="&#x161;" horiz-adv-x="383" 
d="M70 704h30l96 -89l94 89h30l-91 -157h-68zM180 -14q-66 0 -109.5 29.5t-43.5 68.5q0 49 45 49q22 0 36 -9q-6 -98 79 -98q35 0 60.5 18.5t25.5 52.5q0 37 -21.5 57t-77.5 44q-64 24 -95 55t-31 87t44.5 96t111.5 40q61 0 98 -26t37 -61q0 -41 -42 -41q-17 0 -33 10
q-4 41 -19 59.5t-51 18.5q-33 0 -54.5 -17.5t-21.5 -50.5q0 -28 21.5 -48t74.5 -42q72 -30 106 -62.5t34 -84.5q0 -67 -46 -106t-128 -39z" />
    <glyph glyph-name="Tcommaaccent" unicode="&#x162;" horiz-adv-x="584" 
d="M246 -269l-11 31q81 30 81 81q0 20 -12 20q-3 0 -12.5 -7t-22.5 -7q-41 0 -41 45q0 22 17.5 36t43.5 14q36 0 58.5 -22t22.5 -60q0 -94 -124 -131zM164 0v40l79 8v565h-68q-50 0 -69.5 -15t-25.5 -71l-9 -83h-39v215h520v-215h-39l-9 83q-6 56 -25.5 71t-69.5 15h-67
v-565l79 -8v-40h-257z" />
    <glyph glyph-name="tcommaaccent" unicode="&#x163;" horiz-adv-x="338" 
d="M120 -269l-11 31q81 30 81 81q0 20 -12 20q-3 0 -12.5 -7t-22.5 -7q-41 0 -41 45q0 22 17.5 36t43.5 14q36 0 58.5 -22t22.5 -60q0 -94 -124 -131zM193 -13q-59 0 -85 25t-26 80v330l-63 -2v34q45 11 72.5 36.5t47.5 74.5l30 -1v-100h137v-44h-137v-311q0 -35 14.5 -51
t56.5 -16q31 0 79 16l7 -29q-56 -42 -133 -42z" />
    <glyph glyph-name="Tcaron" unicode="&#x164;" horiz-adv-x="584" 
d="M167 852h29l102 -71l102 71h29l-96 -134h-70zM164 0v40l79 8v565h-68q-50 0 -69.5 -15t-25.5 -71l-9 -83h-39v215h520v-215h-39l-9 83q-6 56 -25.5 71t-69.5 15h-67v-565l79 -8v-40h-257z" />
    <glyph glyph-name="tcaron" unicode="&#x165;" horiz-adv-x="338" 
d="M256 504l-21 17q30 49 30 87q0 35 -26 66q7 39 41 39q21 0 34.5 -18.5t13.5 -47.5q0 -73 -72 -143zM193 -13q-59 0 -85 25t-26 80v330l-63 -2v34q45 11 72.5 36.5t47.5 74.5l30 -1v-100h137v-44h-137v-311q0 -35 14.5 -51t56.5 -16q31 0 79 16l7 -29q-56 -42 -133 -42z
" />
    <glyph glyph-name="Tbar" unicode="&#x166;" horiz-adv-x="584" 
d="M102 328v39h377v-39h-377zM164 0v40l79 8v565h-68q-50 0 -69.5 -15t-25.5 -71l-9 -83h-39v215h520v-215h-39l-9 83q-6 56 -25.5 71t-69.5 15h-67v-565l79 -8v-40h-257z" />
    <glyph glyph-name="tbar" unicode="&#x167;" horiz-adv-x="338" 
d="M17 272v39h287v-39h-287zM193 -13q-59 0 -85 25t-26 80v330l-63 -2v34q45 11 72.5 36.5t47.5 74.5l30 -1v-100h137v-44h-137v-311q0 -35 14.5 -51t56.5 -16q31 0 79 16l7 -29q-56 -42 -133 -42z" />
    <glyph glyph-name="Utilde" unicode="&#x168;" horiz-adv-x="639" 
d="M328 -13q-117 0 -177.5 59.5t-60.5 159.5v408l-60 4v41h242v-41l-85 -6v-392q0 -89 36 -134.5t119 -45.5q81 0 117 45t36 135v384l-79 14v41h193v-41l-62 -14v-393q0 -103 -53 -163.5t-166 -60.5zM425 740q-21 0 -67 14.5t-62 14.5q-34 -2 -47 -43h-34q9 46 34 79.5
t63 33.5q20 0 65.5 -14.5t60.5 -14.5q32 2 45 43h36q-27 -113 -94 -113z" />
    <glyph glyph-name="utilde" unicode="&#x169;" horiz-adv-x="534" 
d="M211 -16q-62 0 -96.5 32t-34.5 99v306l-62 3v39h149v-345q0 -36 16.5 -54t54.5 -18q56 0 120 47v326l-59 5v39h146v-410l73 3v-38l-151 -26l-9 3l3 75q-30 -37 -61 -54q-45 -32 -89 -32zM313 569q-21 0 -61 15t-56 15q-32 -2 -47 -43h-34q11 47 35.5 79.5t60.5 32.5
q20 0 60 -15t55 -15q18 2 28 11.5t17 32.5h36q-27 -113 -94 -113z" />
    <glyph glyph-name="Umacron" unicode="&#x16a;" horiz-adv-x="639" 
d="M328 -13q-117 0 -177.5 59.5t-60.5 159.5v408l-60 4v41h242v-41l-85 -6v-392q0 -89 36 -134.5t119 -45.5q81 0 117 45t36 135v384l-79 14v41h193v-41l-62 -14v-393q0 -103 -53 -163.5t-166 -60.5zM223 748v54h268v-54h-268z" />
    <glyph glyph-name="umacron" unicode="&#x16b;" horiz-adv-x="534" 
d="M211 -16q-62 0 -96.5 32t-34.5 99v306l-62 3v39h149v-345q0 -36 16.5 -54t54.5 -18q56 0 120 47v326l-59 5v39h146v-410l73 3v-38l-151 -26l-9 3l3 75q-30 -37 -61 -54q-45 -32 -89 -32zM135 593v53h244v-53h-244z" />
    <glyph glyph-name="Ubreve" unicode="&#x16c;" horiz-adv-x="639" 
d="M328 -13q-117 0 -177.5 59.5t-60.5 159.5v408l-60 4v41h242v-41l-85 -6v-392q0 -89 36 -134.5t119 -45.5q81 0 117 45t36 135v384l-79 14v41h193v-41l-62 -14v-393q0 -103 -53 -163.5t-166 -60.5zM356 716q-58 0 -89.5 41t-35.5 95h33q9 -35 29.5 -52.5t62.5 -17.5
t63 17.5t28 52.5h34q-4 -53 -35.5 -94.5t-89.5 -41.5z" />
    <glyph glyph-name="ubreve" unicode="&#x16d;" horiz-adv-x="534" 
d="M211 -16q-62 0 -96.5 32t-34.5 99v306l-62 3v39h149v-345q0 -36 16.5 -54t54.5 -18q56 0 120 47v326l-59 5v39h146v-410l73 3v-38l-151 -26l-9 3l3 75q-30 -37 -61 -54q-45 -32 -89 -32zM257 547q-56 0 -88 47.5t-36 114.5h33q7 -47 27.5 -70t63.5 -23t63.5 23t27.5 70
h33q-4 -67 -36 -114.5t-88 -47.5z" />
    <glyph glyph-name="Uring" unicode="&#x16e;" horiz-adv-x="639" 
d="M328 -13q-117 0 -177.5 59.5t-60.5 159.5v408l-60 4v41h242v-41l-85 -6v-392q0 -89 36 -134.5t119 -45.5q81 0 117 45t36 135v384l-79 14v41h193v-41l-62 -14v-393q0 -103 -53 -163.5t-166 -60.5zM357 730q23 0 37.5 16t14.5 40t-14.5 39.5t-37.5 15.5t-37.5 -15.5
t-14.5 -39.5t14.5 -40t37.5 -16zM357 697q-38 0 -63.5 25.5t-25.5 63.5q0 37 25.5 62.5t63.5 25.5q37 0 63 -25.5t26 -62.5q0 -38 -26 -63.5t-63 -25.5z" />
    <glyph glyph-name="uring" unicode="&#x16f;" horiz-adv-x="534" 
d="M257 568q23 1 37.5 17t14.5 39q0 24 -14.5 39.5t-37.5 15.5t-37.5 -15.5t-14.5 -39.5q0 -23 14.5 -39t37.5 -17zM257 535q-38 0 -63.5 25.5t-25.5 63.5q0 37 25.5 62.5t63.5 25.5q37 0 63 -25.5t26 -62.5q0 -38 -26 -63.5t-63 -25.5zM211 -16q-62 0 -96.5 32t-34.5 99
v306l-62 3v39h149v-345q0 -36 16.5 -54t54.5 -18q56 0 120 47v326l-59 5v39h146v-410l73 3v-38l-151 -26l-9 3l3 75q-30 -37 -61 -54q-45 -32 -89 -32z" />
    <glyph glyph-name="Uhungarumlaut" unicode="&#x170;" horiz-adv-x="639" 
d="M447 718h-26l23 116q9 36 42 36q16 0 29 -10.5t13 -29.5q0 -14 -19 -42zM299 718h-27l24 116q9 36 42 36q16 0 28.5 -10.5t12.5 -29.5q0 -17 -19 -42zM328 -13q-117 0 -177.5 59.5t-60.5 159.5v408l-60 4v41h242v-41l-85 -6v-392q0 -89 36 -134.5t119 -45.5q81 0 117 45
t36 135v384l-79 14v41h193v-41l-62 -14v-393q0 -103 -53 -163.5t-166 -60.5z" />
    <glyph glyph-name="uhungarumlaut" unicode="&#x171;" horiz-adv-x="534" 
d="M211 -16q-62 0 -96.5 32t-34.5 99v306l-62 3v39h149v-345q0 -36 16.5 -54t54.5 -18q56 0 120 47v326l-59 5v39h146v-410l73 3v-38l-151 -26l-9 3l3 75q-30 -37 -61 -54q-45 -32 -89 -32zM173 538l35 148q9 35 42 35q16 0 28 -10t12 -29q0 -18 -18 -41l-72 -103h-27z
M321 538l35 148q9 35 42 35q15 0 27 -10t12 -29q0 -16 -18 -41l-72 -103h-26z" />
    <glyph glyph-name="Uogonek" unicode="&#x172;" horiz-adv-x="639" 
d="M434 -173l22 -19q-37 -56 -98 -56q-45 0 -72 23t-27 62q0 67 121 155q-23 -5 -52 -5q-117 0 -177.5 59.5t-60.5 159.5v408l-60 4v41h242v-41l-85 -6v-392q0 -89 36 -134.5t119 -45.5q81 0 117 45t36 135v384l-79 14v41h193v-41l-62 -14v-393q0 -121 -69 -179
q-39 -33 -51 -43.5t-38.5 -38t-36 -51t-9.5 -49.5q0 -48 42 -48q29 0 49 25z" />
    <glyph glyph-name="uogonek" unicode="&#x173;" horiz-adv-x="534" 
d="M210 -16q-61 0 -95.5 32.5t-34.5 98.5v304l-62 3v41h150v-345q0 -37 16 -54.5t54 -17.5q55 0 118 46v326l-61 4v41h149v-410l73 3v-38l-115 -19q-72 -87 -72 -149q0 -48 42 -48q28 0 48 25l22 -19q-32 -56 -98 -56q-45 0 -72.5 23t-27.5 62q0 62 113 159l3 74
q-27 -32 -63 -56q-43 -30 -87 -30z" />
    <glyph glyph-name="Wcircumflex" unicode="&#x174;" horiz-adv-x="875" 
d="M348 718h-29l96 134h70l96 -134h-29l-103 69zM563 -12l-116 398l-133 -398h-60l-176 626l-51 4v41h215v-41l-61 -5l129 -489h1l112 337l-47 153l-50 4v41h195v-41l-48 -4l137 -489h1l128 475l-73 18v41h182v-41l-56 -15l-169 -615h-60z" />
    <glyph glyph-name="wcircumflex" unicode="&#x175;" horiz-adv-x="711" 
d="M288 538h-29l91 157h66l92 -157h-29l-97 89zM483 -11l-119 323h-2l-134 -323h-37l-140 433l-39 3v39h198v-39l-61 -4l89 -295h2l102 244l-18 51l-47 4v39h197v-39l-58 -4l102 -294h3l89 287l-62 11v39h151v-39l-41 -7l-138 -429h-37z" />
    <glyph glyph-name="Ycircumflex" unicode="&#x176;" horiz-adv-x="585" 
d="M170 0v40l80 8v263l-183 303l-47 4v41h228v-41l-68 -5l148 -255l128 242l-70 18v41h179v-41l-58 -19l-158 -294v-258l79 -7v-40h-258zM225 718h-29l96 134h70l96 -134h-29l-103 69z" />
    <glyph glyph-name="ycircumflex" unicode="&#x177;" horiz-adv-x="492" 
d="M110 -244q-35 0 -53.5 18.5t-18.5 41.5q0 22 13.5 35t32.5 13q16 0 26 -10q0 -39 30 -39q19 0 38 29t46 102l13 37l-185 439l-43 3v39h208v-39l-63 -4l124 -320h1l111 308l-62 16v39h155v-39l-45 -14l-172 -467q-38 -106 -70 -147t-86 -41zM170 538h-29l91 157h66
l92 -157h-29l-97 89z" />
    <glyph glyph-name="Ydieresis" unicode="&#x178;" horiz-adv-x="585" 
d="M170 0v40l80 8v263l-183 303l-47 4v41h228v-41l-68 -5l148 -255l128 242l-70 18v41h179v-41l-58 -19l-158 -294v-258l79 -7v-40h-258zM229 726q-22 0 -37 15t-15 37q0 23 15 37.5t37 14.5q23 0 37.5 -14.5t14.5 -37.5q0 -22 -14.5 -37t-37.5 -15zM425 726q-21 0 -36 15
t-15 37q0 23 15 37.5t36 14.5q23 0 38 -14.5t15 -37.5q0 -22 -15 -37t-38 -15z" />
    <glyph glyph-name="Zacute" unicode="&#x179;" horiz-adv-x="571" 
d="M293 718h-27l55 112q16 40 46 40q16 0 31 -13.5t15 -33.5q0 -25 -30 -44zM76 450v209h445v-28l-356 -585h165q86 0 110 12t30 57l18 112h38v-227h-481v26l356 587h-168q-63 0 -80.5 -12t-23.5 -57l-16 -94h-37z" />
    <glyph glyph-name="zacute" unicode="&#x17a;" horiz-adv-x="447" 
d="M187 538l57 147q14 36 44 36q16 0 29.5 -12.5t13.5 -31.5q0 -21 -20 -40l-97 -99h-27zM51 335v129h347v-28l-253 -396h95q67 0 88.5 12.5t27.5 62.5l2 25h36v-140h-356v28l260 399h-78q-76 0 -99.5 -11.5t-29.5 -55.5l-4 -25h-36z" />
    <glyph glyph-name="Zdotaccent" unicode="&#x17b;" horiz-adv-x="571" 
d="M76 450v209h445v-28l-356 -585h165q86 0 110 12t30 57l18 112h38v-227h-481v26l356 587h-168q-63 0 -80.5 -12t-23.5 -57l-16 -94h-37zM305 727q-23 0 -39 15.5t-16 38.5t16 39t39 16t39 -16t16 -39t-16 -38.5t-39 -15.5z" />
    <glyph glyph-name="zdotaccent" unicode="&#x17c;" horiz-adv-x="447" 
d="M51 335v129h347v-28l-253 -396h95q67 0 88.5 12.5t27.5 62.5l2 25h36v-140h-356v28l260 399h-78q-76 0 -99.5 -11.5t-29.5 -55.5l-4 -25h-36zM224 572q-23 0 -39 15.5t-16 38.5q0 24 15.5 39t39.5 15t39.5 -15t15.5 -39q0 -23 -16 -38.5t-39 -15.5z" />
    <glyph glyph-name="florin" unicode="&#x192;" horiz-adv-x="459" 
d="M37 324v44h100l5 53q13 124 70 187t149 63q56 0 88.5 -25.5t32.5 -64.5q0 -33 -17 -50t-42 -17q-22 0 -36.5 12t-14.5 34q0 19 13.5 33.5t13.5 17.5q0 17 -36 17q-49 0 -80.5 -37.5t-42.5 -135.5l-10 -87h146v-44h-151l-42 -368q-24 -198 -169 -198q-46 0 -74 25t-28 61
q0 30 15.5 46t38.5 16q20 0 34.5 -11.5t14.5 -32.5q0 -17 -13.5 -30t-13.5 -16q0 -15 27 -15q67 0 76 110l41 413h-95z" />
    <glyph glyph-name="Aringacute" unicode="&#x1fa;" horiz-adv-x="650" 
d="M330 752q23 0 37.5 16t14.5 40t-14.5 39.5t-37.5 15.5t-37.5 -15.5t-14.5 -39.5t14.5 -40t37.5 -16zM330 719q-38 0 -63.5 25.5t-25.5 63.5q0 37 25.5 62.5t63.5 25.5q37 0 63 -25.5t26 -62.5q0 -38 -26 -63.5t-63 -25.5zM390 0v40l80 5l-63 176h-217l-56 -161l100 -20
v-40h-216v40l62 15l217 616h56l221 -627l58 -4v-40h-242zM297 529l-92 -266h187l-94 266h-1zM326 956h-27l55 112q16 40 46 40q16 0 31 -13.5t15 -33.5q0 -25 -30 -44z" />
    <glyph glyph-name="aringacute" unicode="&#x1fb;" horiz-adv-x="476" 
d="M159 -11q-56 0 -94 30.5t-38 89.5q0 67 51 104.5t129 37.5q42 0 82 -14v128q0 72 -78 72q-30 0 -58 -13q-18 -8 -18 -17q0 -4 6.5 -8.5t13.5 -14t7 -25.5q0 -20 -14.5 -32.5t-35.5 -12.5q-22 0 -36.5 15t-14.5 41q0 34 26.5 58t62.5 33.5t75 9.5q74 0 112.5 -25.5
t38.5 -86.5v-274q0 -37 33 -37q24 0 49 16l16 -22q-36 -50 -99 -50t-82 64q-61 -67 -134 -67zM200 44q52 0 89 37v124q-41 9 -76 9q-41 0 -68 -22t-27 -67q0 -38 22.5 -59.5t59.5 -21.5zM224 558q23 1 37.5 17t14.5 39q0 24 -14.5 39.5t-37.5 15.5t-37.5 -15.5t-14.5 -39.5
q0 -23 14.5 -39t37.5 -17zM224 525q-38 0 -63.5 25.5t-25.5 63.5q0 37 25.5 62.5t63.5 25.5q37 0 63 -25.5t26 -62.5q0 -38 -26 -63.5t-63 -25.5zM223 775h-27l55 112q16 40 46 40q16 0 31 -13.5t15 -33.5q0 -24 -30 -44z" />
    <glyph glyph-name="AEacute" unicode="&#x1fc;" horiz-adv-x="872" 
d="M571 718h-27l55 112q16 40 46 40q16 0 31 -13.5t15 -33.5q0 -25 -30 -44zM16 0v40l72 18l274 553l-90 7v41h518v-180h-36l-14 90q-5 27 -17.5 35.5t-44.5 8.5h-173v-264h65q44 0 45 34l7 81h38v-267h-36l-8 78q-2 19 -12.5 25.5t-32.5 6.5h-66v-261h176q58 0 71.5 8
t19.5 46l15 99h38v-199h-487v40l68 7v259h-143l-122 -248l93 -18v-40h-218zM405 593l-121 -245h122v245h-1z" />
    <glyph glyph-name="aeacute" unicode="&#x1fd;" horiz-adv-x="721" 
d="M364 538l57 147q13 36 44 36q16 0 29.5 -12.5t13.5 -31.5q0 -21 -20 -40l-97 -99h-27zM171 -11q-63 0 -105 36t-42 97q0 70 51 108.5t145 38.5h69v96q0 72 -81 72q-30 0 -58 -13q-18 -8 -18 -17q0 -4 7 -8.5t13.5 -14t6.5 -25.5q0 -20 -14.5 -32.5t-35.5 -12.5t-36 15.5
t-15 40.5q0 50 51.5 80.5t109.5 30.5q118 0 139 -83q58 82 151 82q84 0 136 -56.5t44 -185.5l-5 -8h-300q0 -86 36 -138t100 -52q104 0 140 102l31 -14q-47 -146 -188 -146q-120 0 -177 95q-63 -88 -155 -88zM503 437q-54 0 -83 -46t-35 -122h213q2 94 -21 131t-74 37z
M198 44q64 0 114 62q-23 55 -23 123h-67q-107 0 -107 -91q0 -40 23.5 -67t59.5 -27z" />
    <glyph glyph-name="Oslashacute" unicode="&#x1fe;" horiz-adv-x="669" 
d="M86 -31l-35 24l68 91q-84 99 -84 240q0 151 90.5 248.5t209.5 97.5q94 0 172 -63l60 81l35 -26l-63 -84q95 -102 95 -254q0 -151 -90 -247t-209 -96q-104 0 -186 73zM335 28q94 0 143 74.5t49 221.5q0 123 -31 196l-309 -415q45 -77 148 -77zM143 324q0 -107 23 -176
l307 413q-48 62 -138 62q-92 0 -142 -76.5t-50 -222.5zM334 718h-27l55 112q16 40 46 40q16 0 31 -13.5t15 -33.5q0 -25 -30 -44z" />
    <glyph glyph-name="oslashacute" unicode="&#x1ff;" horiz-adv-x="517" 
d="M66 -40l-33 24l59 75q-62 68 -62 171q0 107 69 178.5t160 71.5q69 0 131 -46l51 64l33 -24l-54 -68q67 -72 67 -176q0 -108 -68.5 -178t-159.5 -70q-77 0 -137 48zM259 25q68 0 100.5 56t32.5 149q0 76 -16 121l-219 -277q31 -49 102 -49zM124 230q0 -75 14 -114l218 275
q-31 46 -97 46q-68 0 -101.5 -57.5t-33.5 -149.5zM226 538l57 147q13 36 44 36q16 0 29.5 -12.5t13.5 -31.5q0 -21 -20 -40l-97 -99h-27z" />
    <glyph glyph-name="Scommaaccent" unicode="&#x218;" horiz-adv-x="517" 
d="M203 -269l-11 31q81 30 81 81q0 20 -12 20q-3 0 -12.5 -7t-22.5 -7q-41 0 -41 45q0 22 17.5 36t43.5 14q36 0 58.5 -22t22.5 -60q0 -94 -124 -131zM271 -18q-122 0 -180 83l-16 -51h-35v203l40 -2q32 -187 180 -187q63 0 105 30t42 89q0 55 -40 87t-123 59
q-96 31 -143.5 71.5t-47.5 121.5q0 87 55 135.5t135 48.5q101 0 150 -63l14 39h34v-167h-37q-16 70 -57.5 107.5t-103.5 37.5q-55 0 -88 -28t-33 -75q0 -51 34.5 -76t122.5 -55q46 -16 78.5 -31.5t63 -40t46 -59t15.5 -79.5q0 -99 -61 -148.5t-150 -49.5z" />
    <glyph glyph-name="scommaaccent" unicode="&#x219;" horiz-adv-x="383" 
d="M126 -269l-11 31q81 30 81 81q0 20 -12 20q-3 0 -12.5 -7t-22.5 -7q-41 0 -41 45q0 22 17.5 36t43.5 14q36 0 58.5 -22t22.5 -60q0 -94 -124 -131zM180 -14q-66 0 -109.5 29.5t-43.5 68.5q0 49 45 49q22 0 36 -9q-6 -98 79 -98q35 0 60.5 18.5t25.5 52.5q0 37 -21.5 57
t-77.5 44q-64 24 -95 55t-31 87t44.5 96t111.5 40q61 0 98 -26t37 -61q0 -41 -42 -41q-17 0 -33 10q-4 41 -19 59.5t-51 18.5q-33 0 -54.5 -17.5t-21.5 -50.5q0 -28 21.5 -48t74.5 -42q72 -30 106 -62.5t34 -84.5q0 -67 -46 -106t-128 -39z" />
    <glyph glyph-name="uni021A" unicode="&#x21a;" horiz-adv-x="584" 
d="M246 -269l-11 31q81 30 81 81q0 20 -12 20q-3 0 -12.5 -7t-22.5 -7q-41 0 -41 45q0 22 17.5 36t43.5 14q36 0 58.5 -22t22.5 -60q0 -94 -124 -131zM164 0v40l79 8v565h-68q-50 0 -69.5 -15t-25.5 -71l-9 -83h-39v215h520v-215h-39l-9 83q-6 56 -25.5 71t-69.5 15h-67
v-565l79 -8v-40h-257z" />
    <glyph glyph-name="uni021B" unicode="&#x21b;" horiz-adv-x="338" 
d="M120 -269l-11 31q81 30 81 81q0 20 -12 20q-3 0 -12.5 -7t-22.5 -7q-41 0 -41 45q0 22 17.5 36t43.5 14q36 0 58.5 -22t22.5 -60q0 -94 -124 -131zM193 -13q-59 0 -85 25t-26 80v330l-63 -2v34q45 11 72.5 36.5t47.5 74.5l30 -1v-100h137v-44h-137v-311q0 -35 14.5 -51
t56.5 -16q31 0 79 16l7 -29q-56 -42 -133 -42z" />
    <glyph glyph-name="uni0237" unicode="&#x237;" horiz-adv-x="267" 
d="M1 -250q-24 0 -39.5 15t-15.5 36q0 45 37 45q29 0 66 -30q49 25 49 122v465l-79 -11v42l158 39l9 -4v-475q0 -95 -53.5 -169.5t-131.5 -74.5z" />
    <glyph glyph-name="circumflex" unicode="&#x2c6;" horiz-adv-x="480" 
d="M192 538h-29l91 157h66l92 -157h-29l-97 89z" />
    <glyph glyph-name="caron" unicode="&#x2c7;" horiz-adv-x="480" 
d="M115 704h30l96 -89l94 89h30l-91 -157h-68z" />
    <glyph glyph-name="breve" unicode="&#x2d8;" horiz-adv-x="480" 
d="M240 547q-56 0 -88 47.5t-36 114.5h33q7 -47 27.5 -70t63.5 -23t63.5 23t27.5 70h33q-4 -67 -36 -114.5t-88 -47.5z" />
    <glyph glyph-name="dotaccent" unicode="&#x2d9;" horiz-adv-x="480" 
d="M240 572q-23 0 -39 15.5t-16 38.5q0 24 15.5 39t39.5 15t39.5 -15t15.5 -39q0 -23 -16 -38.5t-39 -15.5z" />
    <glyph glyph-name="ring" unicode="&#x2da;" horiz-adv-x="480" 
d="M240 568q23 1 37.5 17t14.5 39q0 24 -14.5 39.5t-37.5 15.5t-37.5 -15.5t-14.5 -39.5q0 -23 14.5 -39t37.5 -17zM240 535q-38 0 -63.5 25.5t-25.5 63.5q0 37 25.5 62.5t63.5 25.5q37 0 63 -25.5t26 -62.5q0 -38 -26 -63.5t-63 -25.5z" />
    <glyph glyph-name="ogonek" unicode="&#x2db;" horiz-adv-x="480" 
d="M224 -248q-44 0 -73 25t-29 69q0 68 109 177h45q-67 -89 -67 -164q0 -56 43 -56q25 0 48 26l20 -20q-35 -57 -96 -57z" />
    <glyph glyph-name="tilde" unicode="&#x2dc;" horiz-adv-x="480" 
d="M292 569q-21 0 -61 15t-56 15q-32 -2 -47 -43h-34q11 47 35.5 79.5t60.5 32.5q20 0 60 -15t55 -15q18 2 28 11.5t17 32.5h36q-27 -113 -94 -113z" />
    <glyph glyph-name="hungarumlaut" unicode="&#x2dd;" horiz-adv-x="480" 
d="M116 538l35 148q9 35 42 35q16 0 28 -10t12 -29q0 -18 -18 -41l-72 -103h-27zM264 538l35 148q9 35 42 35q15 0 27 -10t12 -29q0 -16 -18 -41l-72 -103h-26z" />
    <glyph glyph-name="Wgrave" unicode="&#x1e80;" horiz-adv-x="875" 
d="M486 718h-28l-90 61q-29 20 -29 44q0 21 14.5 34t31.5 13q28 0 45 -40zM563 -12l-116 398l-133 -398h-60l-176 626l-51 4v41h215v-41l-61 -5l129 -489h1l112 337l-47 153l-50 4v41h195v-41l-48 -4l137 -489h1l128 475l-73 18v41h182v-41l-56 -15l-169 -615h-60z" />
    <glyph glyph-name="wgrave" unicode="&#x1e81;" horiz-adv-x="711" 
d="M483 -11l-119 323h-2l-134 -323h-37l-140 433l-39 3v39h198v-39l-61 -4l89 -295h2l102 244l-18 51l-47 4v39h197v-39l-58 -4l102 -294h3l89 287l-62 11v39h151v-39l-41 -7l-138 -429h-37zM396 538l-96 99q-21 21 -21 40t13.5 31.5t29.5 12.5q32 0 45 -36l56 -147h-27z
" />
    <glyph glyph-name="Wacute" unicode="&#x1e82;" horiz-adv-x="875" 
d="M438 718h-27l55 112q16 40 46 40q16 0 31 -13.5t15 -33.5q0 -25 -30 -44zM563 -12l-116 398l-133 -398h-60l-176 626l-51 4v41h215v-41l-61 -5l129 -489h1l112 337l-47 153l-50 4v41h195v-41l-48 -4l137 -489h1l128 475l-73 18v41h182v-41l-56 -15l-169 -615h-60z" />
    <glyph glyph-name="wacute" unicode="&#x1e83;" horiz-adv-x="711" 
d="M357 538l57 147q14 36 44 36q16 0 29.5 -12.5t13.5 -31.5q0 -21 -20 -40l-97 -99h-27zM483 -11l-119 323h-2l-134 -323h-37l-140 433l-39 3v39h198v-39l-61 -4l89 -295h2l102 244l-18 51l-47 4v39h197v-39l-58 -4l102 -294h3l89 287l-62 11v39h151v-39l-41 -7l-138 -429
h-37z" />
    <glyph glyph-name="Wdieresis" unicode="&#x1e84;" horiz-adv-x="875" 
d="M563 -12l-116 398l-133 -398h-60l-176 626l-51 4v41h215v-41l-61 -5l129 -489h1l112 337l-47 153l-50 4v41h195v-41l-48 -4l137 -489h1l128 475l-73 18v41h182v-41l-56 -15l-169 -615h-60zM352 726q-22 0 -37 15t-15 37q0 23 15 37.5t37 14.5q23 0 37.5 -14.5t14.5 -37.5
q0 -22 -14.5 -37t-37.5 -15zM548 726q-21 0 -36 15t-15 37q0 23 15 37.5t36 14.5q23 0 38 -14.5t15 -37.5q0 -22 -15 -37t-38 -15z" />
    <glyph glyph-name="wdieresis" unicode="&#x1e85;" horiz-adv-x="711" 
d="M299 571q-22 0 -36.5 14.5t-14.5 37.5q0 22 14.5 36t36.5 14t37 -14t15 -36q0 -23 -15 -37.5t-37 -14.5zM478 571q-22 0 -37 14.5t-15 37.5q0 22 15 36t37 14t37 -14t15 -36q0 -23 -15 -37.5t-37 -14.5zM483 -11l-119 323h-2l-134 -323h-37l-140 433l-39 3v39h198v-39
l-61 -4l89 -295h2l102 244l-18 51l-47 4v39h197v-39l-58 -4l102 -294h3l89 287l-62 11v39h151v-39l-41 -7l-138 -429h-37z" />
    <glyph glyph-name="Ygrave" unicode="&#x1ef2;" horiz-adv-x="585" 
d="M170 0v40l80 8v263l-183 303l-47 4v41h228v-41l-68 -5l148 -255l128 242l-70 18v41h179v-41l-58 -19l-158 -294v-258l79 -7v-40h-258zM379 718h-28l-90 61q-29 20 -29 44q0 21 14.5 34t31.5 13q28 0 45 -40z" />
    <glyph glyph-name="ygrave" unicode="&#x1ef3;" horiz-adv-x="492" 
d="M110 -244q-35 0 -53.5 18.5t-18.5 41.5q0 22 13.5 35t32.5 13q16 0 26 -10q0 -39 30 -39q19 0 38 29t46 102l13 37l-185 439l-43 3v39h208v-39l-63 -4l124 -320h1l111 308l-62 16v39h155v-39l-45 -14l-172 -467q-38 -106 -70 -147t-86 -41zM279 538l-96 99q-21 21 -21 40
t13.5 31.5t29.5 12.5q31 0 45 -36l56 -147h-27z" />
    <glyph glyph-name="uni2009" unicode="&#x2009;" horiz-adv-x="100" 
 />
    <glyph glyph-name="endash" unicode="&#x2013;" horiz-adv-x="473" 
d="M44 230v46h385v-46h-385z" />
    <glyph glyph-name="emdash" unicode="&#x2014;" horiz-adv-x="858" 
d="M44 230v46h770v-46h-770z" />
    <glyph glyph-name="quoteleft" unicode="&#x2018;" horiz-adv-x="264" 
d="M196 677l11 -30q-92 -38 -92 -107q0 -25 13 -25q2 0 13 9t25 9q22 0 34.5 -14.5t12.5 -37.5q0 -24 -20.5 -40.5t-47.5 -16.5q-42 0 -65 25t-23 68q0 63 39 102.5t100 57.5z" />
    <glyph glyph-name="quoteright" unicode="&#x2019;" horiz-adv-x="264" 
d="M68 424l-11 30q43 16 68 44.5t25 61.5q0 26 -14 26q-2 0 -13 -9t-26 -9q-21 0 -33.5 14t-12.5 37q0 25 20 41.5t49 16.5q42 0 64 -24.5t22 -69.5q0 -63 -38.5 -102t-99.5 -57z" />
    <glyph glyph-name="quotesinglbase" unicode="&#x201a;" horiz-adv-x="264" 
d="M68 -101l-11 30q93 38 93 107q0 25 -14 25q-2 0 -13 -9t-26 -9q-21 0 -33.5 14.5t-12.5 37.5q0 24 20 40.5t49 16.5q41 0 63.5 -25t22.5 -68q0 -63 -39 -102.5t-99 -57.5z" />
    <glyph glyph-name="quotedblleft" unicode="&#x201c;" horiz-adv-x="464" 
d="M396 677l10 -30q-92 -38 -92 -107q0 -25 13 -25q3 0 14 9t25 9q21 0 33.5 -14.5t12.5 -37.5q0 -24 -20.5 -40.5t-47.5 -16.5q-42 0 -65 25t-23 68q0 63 39 102t101 58zM196 677l11 -30q-92 -38 -92 -107q0 -25 13 -25q2 0 13 9t25 9q22 0 34.5 -14.5t12.5 -37.5
q0 -24 -20.5 -40.5t-47.5 -16.5q-42 0 -65 25t-23 68q0 63 39 102.5t100 57.5z" />
    <glyph glyph-name="quotedblright" unicode="&#x201d;" horiz-adv-x="464" 
d="M68 424l-11 30q43 16 68 44.5t25 61.5q0 26 -14 26q-2 0 -13 -9t-26 -9q-21 0 -33.5 14t-12.5 37q0 25 20 41.5t49 16.5q42 0 64 -24.5t22 -69.5q0 -63 -38.5 -102t-99.5 -57zM267 424l-11 30q42 16 67.5 44.5t25.5 61.5q0 26 -15 26q-1 0 -12 -9t-26 -9q-21 0 -33.5 14
t-12.5 37q0 24 20.5 41t48.5 17q42 0 64 -24.5t22 -69.5q0 -63 -38.5 -102t-99.5 -57z" />
    <glyph glyph-name="quotedblbase" unicode="&#x201e;" horiz-adv-x="464" 
d="M68 -101l-11 30q93 38 93 107q0 25 -14 25q-2 0 -13 -9t-26 -9q-21 0 -33.5 14.5t-12.5 37.5q0 24 20 40.5t49 16.5q41 0 63.5 -25t22.5 -68q0 -63 -39 -102.5t-99 -57.5zM267 -101l-11 30q93 39 93 107q0 25 -15 25q-1 0 -12 -9t-26 -9q-21 0 -33.5 14.5t-12.5 37.5
q0 24 20.5 40.5t48.5 16.5q41 0 63.5 -25t22.5 -68q0 -63 -39 -102.5t-99 -57.5z" />
    <glyph glyph-name="dagger" unicode="&#x2020;" horiz-adv-x="429" 
d="M261 667l-35 -145l118 31q26 8 42 -4.5t16 -37.5q0 -24 -16 -36.5t-42 -5.5l-120 32q21 -101 46 -175q-34 -130 -34 -345v-174h-44v174q0 199 -34 345q25 73 45 175l-119 -32q-26 -7 -42 5.5t-16 36.5q0 25 16 37.5t42 4.5l118 -30l-36 144q-8 27 6.5 45.5t41.5 18.5
t41 -18.5t6 -45.5z" />
    <glyph glyph-name="daggerdbl" unicode="&#x2021;" horiz-adv-x="429" 
d="M268 371q-3 0 -11.5 -15.5t-17.5 -41.5t-9 -49q0 -22 9 -48t17.5 -41.5t11.5 -15.5q-27 -51 -43 -130l119 32q26 8 42 -4.5t16 -37.5t-16 -37.5t-42 -4.5l-118 31l35 -145q8 -27 -6 -45t-41 -18t-41.5 18t-6.5 45l36 145l-118 -31q-26 -8 -42 4.5t-16 37.5t16 37.5
t42 4.5l119 -32q-18 83 -43 130q3 0 12 15.5t18 41.5t9 48q0 23 -9 49t-18 41.5t-12 15.5q26 48 43 129l-119 -32q-25 -8 -41.5 5t-16.5 37q0 25 16 37.5t42 4.5l118 -31l-36 145q-8 27 6.5 45.5t41.5 18.5t41 -18.5t6 -45.5l-36 -146l119 32q26 8 42 -4.5t16 -37.5
q0 -24 -16.5 -37t-41.5 -5l-119 32q10 -67 43 -129z" />
    <glyph glyph-name="bullet" unicode="&#x2022;" horiz-adv-x="284" 
d="M142 202q-44 0 -73 28.5t-29 73.5q0 44 29 72t73 28q45 0 73 -28t28 -72q0 -45 -28 -73.5t-73 -28.5z" />
    <glyph glyph-name="ellipsis" unicode="&#x2026;" horiz-adv-x="723" 
d="M108 -17q-27 0 -44.5 18t-17.5 45t17.5 44.5t44.5 17.5t44.5 -17.5t17.5 -44.5t-17.5 -45t-44.5 -18zM361 -17q-26 0 -43.5 18t-17.5 45t17.5 44.5t43.5 17.5q27 0 44.5 -17.5t17.5 -44.5t-17.5 -45t-44.5 -18zM614 -17q-26 0 -43.5 18t-17.5 45t17.5 44.5t43.5 17.5
q27 0 44.5 -17.5t17.5 -44.5t-17.5 -45t-44.5 -18z" />
    <glyph glyph-name="perthousand" unicode="&#x2030;" horiz-adv-x="1032" 
d="M177 348q34 0 52 33.5t18 92.5t-18 93t-52 34q-33 0 -51 -34.5t-18 -92.5t18 -92t51 -34zM177 311q-59 0 -104 47t-45 116q0 68 45 116.5t104 48.5q63 0 105.5 -48t42.5 -117q0 -70 -42 -116.5t-106 -46.5zM520 25q34 0 51.5 34t17.5 93q0 126 -69 126q-33 0 -51 -34
t-18 -92t18 -92.5t51 -34.5zM520 -12q-60 0 -104 47t-44 117q0 68 44 116t104 48q63 0 105.5 -47.5t42.5 -116.5q0 -70 -42 -117t-106 -47zM855 25q34 0 52 34t18 93t-18 92.5t-52 33.5q-33 0 -50.5 -33.5t-17.5 -92.5q0 -58 18 -92.5t50 -34.5zM855 -12q-59 0 -103.5 47.5
t-44.5 116.5q0 68 45 116t103 48q64 0 106.5 -47.5t42.5 -116.5q0 -70 -42.5 -117t-106.5 -47zM72 -14l509 659l32 -24l-510 -658z" />
    <glyph glyph-name="uni2032" unicode="&#x2032;" horiz-adv-x="188" 
d="M66 431h-26l16 193q3 55 49 55t46 -43q0 -19 -11 -43z" />
    <glyph glyph-name="uni2033" unicode="&#x2033;" horiz-adv-x="341" 
d="M66 431h-26l16 193q3 55 49 55t46 -43q0 -19 -11 -43zM219 431h-26l15 193q4 55 51 55q19 0 32 -10.5t13 -32.5q0 -20 -12 -43z" />
    <glyph glyph-name="guilsinglleft" unicode="&#x2039;" horiz-adv-x="250" 
d="M191 409l19 -19l-104 -153l104 -149l-19 -20l-161 152v38z" />
    <glyph glyph-name="guilsinglright" unicode="&#x203a;" horiz-adv-x="250" 
d="M40 390l19 19l161 -151v-38l-161 -152l-19 20l103 151z" />
    <glyph glyph-name="fraction" unicode="&#x2044;" horiz-adv-x="228" 
d="M-174 -23l529 703l32 -24l-530 -703z" />
    <glyph glyph-name="Euro" unicode="&#x20ac;" horiz-adv-x="564" 
d="M26 355v39h67q24 119 94 188.5t165 69.5q68 0 119.5 -41t51.5 -101q0 -30 -16 -48t-41 -18q-23 0 -39 13.5t-16 34.5q0 20 15 36t15 20q0 25 -25.5 42t-58.5 17q-147 0 -170 -213h191v-39h-194q-1 -15 -1 -45v-27h195v-39h-193q9 -105 48.5 -156t111.5 -51q100 0 148 112
l35 -15q-52 -152 -203 -152q-99 0 -163 71t-76 191h-60v39h58v9q0 33 3 63h-61z" />
    <glyph glyph-name="trademark" unicode="&#x2122;" horiz-adv-x="725" 
d="M510 338h-21l-87 261v-226l36 -6v-29h-104v29l34 7v251l-34 4v30h107l73 -219l75 219h105v-30l-33 -2v-258l33 -2v-29h-132v29l41 3v237zM98 338v29l40 4v260h-39q-18 0 -23.5 -7t-11.5 -30l-8 -43h-24v108h272v-108h-26l-7 42q-5 24 -13 31t-29 7h-30v-260l39 -4v-29
h-140z" />
    <glyph glyph-name="onethird" unicode="&#x2153;" horiz-adv-x="681" 
d="M512 -10q-54 0 -84 22.5t-30 57.5q0 22 12.5 35t29.5 13q16 0 25.5 -9.5t9.5 -22.5q0 -12 -10 -21.5t-10 -11.5q0 -12 13 -19.5t35 -7.5q39 0 56.5 18t17.5 57q0 62 -78 62h-29v33h29q66 0 66 72q0 48 -53 48q-16 0 -27 -5.5t-11 -11.5q0 -2 7 -9.5t7 -18.5
q0 -30 -33 -30q-36 0 -36 40q0 34 32 52.5t75 18.5q53 0 83.5 -23.5t30.5 -59.5q0 -30 -23.5 -53.5t-57.5 -30.5v-3q97 -12 97 -86q0 -48 -39.5 -77t-104.5 -29zM41 -23l529 703l32 -24l-530 -703zM16 561v41l104 63h36v-312l57 -4v-36h-191v36l60 4v237z" />
    <glyph glyph-name="twothirds" unicode="&#x2154;" horiz-adv-x="722" 
d="M553 -10q-54 0 -84 22.5t-30 57.5q0 22 12.5 35t29.5 13q16 0 25.5 -9.5t9.5 -22.5q0 -12 -10 -21.5t-10 -11.5q0 -12 13 -19.5t35 -7.5q38 0 56 18t18 57q0 62 -78 62h-29v33h29q66 0 66 72q0 48 -53 48q-16 0 -27 -5.5t-11 -11.5q0 -2 7 -9.5t7 -18.5q0 -30 -33 -30
q-36 0 -36 40q0 34 32 52.5t75 18.5q53 0 83.5 -23.5t30.5 -59.5q0 -30 -23.5 -53.5t-57.5 -30.5v-3q97 -12 97 -86q0 -48 -39.5 -77t-104.5 -29zM80 -23l529 703l32 -24l-530 -703zM25 313l-2 43q99 80 125 110q44 49 44 96q0 67 -56 67q-22 0 -35 -8.5t-13 -20.5
q0 -6 10 -16t10 -21q0 -14 -10 -23.5t-26 -9.5q-43 0 -43 48q0 38 33.5 62.5t82.5 24.5q62 0 93.5 -30t31.5 -72q0 -27 -15 -53.5t-45.5 -52.5t-57 -44.5t-68.5 -44.5h106q27 0 36 5t13 24l4 16h31l-11 -100h-238z" />
    <glyph glyph-name="oneeighth" unicode="&#x215b;" horiz-adv-x="703" 
d="M542 -10q-58 0 -97 29t-39 73q0 34 21.5 56.5t55.5 31.5q-26 9 -43 30t-17 49q0 39 33 66t86 27t86 -27t33 -66q0 -28 -17 -49t-43 -30q34 -9 55.5 -31.5t21.5 -56.5q0 -44 -39 -73t-97 -29zM542 24q31 0 46.5 20t15.5 51q0 69 -62 69t-62 -69q0 -31 15.5 -51t46.5 -20z
M542 193q50 0 50 64q0 29 -13.5 45t-36.5 16t-36.5 -16t-13.5 -45q0 -64 50 -64zM46 -23l529 703l32 -24l-530 -703zM16 561v41l104 63h36v-312l57 -4v-36h-191v36l60 4v237z" />
    <glyph glyph-name="threeeighths" unicode="&#x215c;" horiz-adv-x="726" 
d="M565 -10q-58 0 -97 29t-39 73q0 34 21.5 56.5t55.5 31.5q-26 9 -43 30t-17 49q0 39 33 66t86 27t86 -27t33 -66q0 -28 -17 -49t-43 -30q34 -9 55.5 -31.5t21.5 -56.5q0 -44 -39 -73t-97 -29zM565 24q31 0 46.5 20t15.5 51q0 69 -62 69t-62 -69q0 -31 15.5 -51t46.5 -20z
M565 193q50 0 50 64q0 29 -13.5 45t-36.5 16t-36.5 -16t-13.5 -45q0 -64 50 -64zM66 -23l529 703l32 -24l-530 -703zM128 303q-54 0 -84 22.5t-30 57.5q0 22 12.5 35t29.5 13q16 0 25.5 -9.5t9.5 -22.5q0 -12 -10 -21.5t-10 -11.5q0 -12 12.5 -19.5t35.5 -7.5
q39 0 56.5 17.5t17.5 57.5q0 62 -78 62h-29v33h29q66 0 66 72q0 48 -53 48q-16 0 -27 -5.5t-11 -11.5q0 -2 7 -9.5t7 -18.5q0 -30 -33 -30q-36 0 -36 40q0 34 32 52.5t75 18.5q53 0 83.5 -23.5t30.5 -59.5q0 -30 -23.5 -53.5t-57.5 -30.5v-3q97 -12 97 -86q0 -48 -39.5 -77
t-104.5 -29z" />
    <glyph glyph-name="fiveeighths" unicode="&#x215d;" horiz-adv-x="711" 
d="M550 -10q-58 0 -97 29t-39 73q0 34 21.5 56.5t55.5 31.5q-26 9 -43 30t-17 49q0 39 33 66t86 27t86 -27t33 -66q0 -28 -17 -49t-43 -30q34 -9 55.5 -31.5t21.5 -56.5q0 -44 -39 -73t-97 -29zM550 24q31 0 46.5 20t15.5 51q0 69 -62 69t-62 -69q0 -31 15.5 -51t46.5 -20z
M550 193q50 0 50 64q0 29 -13.5 45t-36.5 16t-36.5 -16t-13.5 -45q0 -64 50 -64zM52 -23l529 703l32 -24l-530 -703zM124 303q-48 0 -78 21.5t-30 54.5q0 21 11 32.5t29 11.5q33 0 33 -30q0 -12 -8.5 -21t-8.5 -12q0 -8 13.5 -14.5t28.5 -6.5q73 0 73 90q0 65 -62 65
q-38 0 -59 -19l-20 12v172h159l11 32h29l-11 -88h-150v-88q28 15 66 15q51 0 83 -27t32 -79q0 -59 -41 -90t-100 -31z" />
    <glyph glyph-name="seveneighths" unicode="&#x215e;" horiz-adv-x="691" 
d="M530 -10q-58 0 -97 29t-39 73q0 34 21.5 56.5t55.5 31.5q-26 9 -43 30t-17 49q0 39 33 66t86 27t86 -27t33 -66q0 -28 -17 -49t-43 -30q34 -9 55.5 -31.5t21.5 -56.5q0 -44 -39 -73t-97 -29zM530 24q31 0 46.5 20t15.5 51q0 69 -62 69t-62 -69q0 -31 15.5 -51t46.5 -20z
M530 193q50 0 50 64q0 29 -13.5 45t-36.5 16t-36.5 -16t-13.5 -45q0 -64 50 -64zM23 -23l529 703l32 -24l-530 -703zM86 313l120 288h-84q-35 0 -46.5 -5t-17.5 -24l-10 -31h-33l19 118h234v-28l-129 -318h-53z" />
    <glyph glyph-name="minus" unicode="&#x2212;" horiz-adv-x="458" 
d="M40 262v50h378v-50h-378z" />
    <glyph glyph-name="approxequal" unicode="&#x2248;" horiz-adv-x="468" 
d="M148 211q-23 0 -35 -9.5t-21 -32.5h-52q15 94 103 94q40 0 98.5 -16.5t82.5 -16.5t36 10t17 34h51q-10 -95 -94 -95q-36 0 -98.5 16t-87.5 16zM148 363q-24 0 -36 -9t-20 -33h-52q15 94 103 94q40 0 98.5 -15t82.5 -15q25 0 36.5 9.5t16.5 32.5h51q-9 -94 -94 -94
q-36 0 -98.5 15t-87.5 15z" />
    <glyph glyph-name="notequal" unicode="&#x2260;" horiz-adv-x="458" 
d="M40 321v50h217l69 117h54l-69 -117h107v-50h-136l-53 -90h189v-50h-218l-68 -117h-54l68 117h-106v50h135l53 90h-188z" />
    <glyph glyph-name="lessequal" unicode="&#x2264;" horiz-adv-x="427" 
d="M387 100l-347 161v42l347 161v-57l-275 -125l275 -125v-57zM40 0v51h347v-51h-347z" />
    <glyph glyph-name="greaterequal" unicode="&#x2265;" horiz-adv-x="427" 
d="M40 100v57l274 125l-274 125v57l347 -161v-42zM387 0h-347v51h347v-51z" />
    <glyph glyph-name="uni24C5" unicode="&#x24c5;" horiz-adv-x="732" 
d="M366 -19q-133 0 -232.5 96t-99.5 247t100 248.5t232 97.5q131 0 231.5 -97.5t100.5 -248.5q0 -76 -28.5 -141.5t-75 -109t-106 -68t-122.5 -24.5zM366 22q115 0 199.5 83t84.5 219q0 135 -85 220t-199 85q-115 0 -199.5 -85t-84.5 -220q0 -136 84.5 -219t199.5 -83z
M236 138v36l36 3v295l-36 3v36h155q66 0 102 -28.5t36 -79.5q0 -55 -36.5 -83t-98.5 -28q-34 0 -45 3v-117l45 -4v-36h-158zM382 473h-33v-144q8 -1 31 -1q40 0 55.5 15.5t15.5 54.5t-16.5 57t-52.5 18z" />
    <glyph glyph-name="zero.tab" unicode="&#xe44f;" horiz-adv-x="630" 
d="M315 27q80 0 120.5 66.5t40.5 189.5t-40.5 190t-120.5 67t-120.5 -67t-40.5 -190t40.5 -189.5t120.5 -66.5zM315 -19q-106 0 -184 85t-78 217q0 131 78 216.5t184 85.5t184 -85.5t78 -216.5q0 -132 -78 -217t-184 -85z" />
    <glyph glyph-name="one.tab" unicode="&#xe450;" horiz-adv-x="630" 
d="M117 434v46l220 105h30v-537l141 -8v-40h-379v40l144 8v443z" />
    <glyph glyph-name="two.tab" unicode="&#xe451;" horiz-adv-x="630" 
d="M105 0l-5 59q34 26 88.5 62t89.5 61t72 59t55 75t18 91q0 67 -32 100.5t-91 33.5q-49 0 -80.5 -20.5t-31.5 -47.5q0 -14 18.5 -30.5t18.5 -37.5q0 -18 -16.5 -32t-40.5 -14q-27 0 -43 18.5t-16 52.5q0 65 58.5 110.5t151.5 45.5q96 0 151.5 -50t55.5 -125
q0 -32 -10.5 -62t-33 -57.5t-44.5 -49.5t-58.5 -47t-61 -40.5t-66 -40t-60.5 -36.5h234q35 0 48 7t19 25l17 58h36l-26 -168h-415z" />
    <glyph glyph-name="three.tab" unicode="&#xe452;" horiz-adv-x="630" 
d="M285 -88q-87 0 -140.5 36.5t-53.5 95.5q0 34 17 50t41 16q22 0 36.5 -13t14.5 -34q0 -16 -8 -27t-16.5 -17.5t-8.5 -10.5q0 -20 31 -35.5t82 -15.5q151 0 151 151q0 75 -39.5 106t-113.5 31h-74v46h74q56 0 90 38.5t34 106.5q0 105 -111 105q-37 0 -62.5 -10t-25.5 -21
q0 -4 7 -9.5t14 -16t7 -25.5q0 -20 -15 -33t-36 -13q-24 0 -39.5 16t-15.5 45q0 52 52 82t128 30q94 0 144.5 -42.5t50.5 -105.5q0 -60 -43.5 -104.5t-103.5 -57.5v-5q89 -9 134.5 -53t45.5 -112q0 -87 -70.5 -140.5t-177.5 -53.5z" />
    <glyph glyph-name="four.tab" unicode="&#xe453;" horiz-adv-x="630" 
d="M449 -84h-92v205h-301v22l288 458l55 1l-275 -437h233v264l92 8v-272h123v-44h-123v-205z" />
    <glyph glyph-name="five.tab" unicode="&#xe454;" horiz-adv-x="630" 
d="M264 -88q-81 0 -138.5 33.5t-57.5 92.5q0 31 17 47.5t42 16.5q20 0 35 -13t15 -33q0 -21 -16.5 -37t-16.5 -19q0 -18 35.5 -30.5t80.5 -12.5q150 0 150 159q0 84 -41 120.5t-101 36.5q-68 0 -116 -31l-24 11v320h302l15 58h34l-16 -140h-284v-191q58 25 130 25
q54 0 98 -16.5t75 -60t31 -110.5q0 -108 -71 -167t-178 -59z" />
    <glyph glyph-name="six.tab" unicode="&#xe455;" horiz-adv-x="630" 
d="M328 -18q-113 0 -180.5 72t-67.5 213q0 192 119.5 310t310.5 118v-47q-153 -10 -232.5 -86t-94.5 -221q79 64 182 64q88 0 146.5 -48t58.5 -148t-66 -163.5t-176 -63.5zM328 356q-78 0 -148 -59v-28q0 -131 38 -186.5t107 -55.5q74 0 110.5 51t36.5 124t-37.5 113.5
t-106.5 40.5z" />
    <glyph glyph-name="seven.tab" unicode="&#xe456;" horiz-adv-x="630" 
d="M304 -98q-38 0 -61 21t-23 57q0 46 34 100l234 411h-245q-53 0 -68 -8t-23 -38l-20 -63h-36l28 191h445v-22l-272 -488q-18 -34 -19 -56q-2 -30 27 -30q17 0 40 20q33 -7 33 -39q0 -26 -21.5 -41t-52.5 -15z" />
    <glyph glyph-name="eight.tab" unicode="&#xe457;" horiz-adv-x="630" 
d="M315 -18q-110 0 -176 52t-66 141q0 69 42 111.5t107 55.5q-119 42 -119 156q0 76 58 126t154 50t154 -50t58 -126q0 -114 -119 -156q65 -13 107 -55.5t42 -111.5q0 -89 -66.5 -141t-175.5 -52zM315 29q73 0 107.5 40.5t34.5 105.5q0 141 -142 141t-142 -141
q0 -65 34.5 -105.5t107.5 -40.5zM315 360q56 0 87 36.5t31 101.5q0 60 -32 96.5t-86 36.5t-86 -36.5t-32 -96.5q0 -65 31 -101.5t87 -36.5z" />
    <glyph glyph-name="nine.tab" unicode="&#xe458;" horiz-adv-x="630" 
d="M302 585q113 0 180.5 -72t67.5 -213q0 -194 -121 -305t-341 -111v47q177 10 260 80t98 214q-77 -63 -181 -63q-88 0 -146.5 48t-58.5 148t66 163.5t176 63.5zM302 211q81 0 147 59q1 9 1 28q0 131 -38 186.5t-107 55.5q-74 0 -110.5 -51t-36.5 -124t37.5 -113.5
t106.5 -40.5z" />
    <glyph glyph-name="cent.tab" unicode="&#xe459;" horiz-adv-x="630" 
d="M326 -113v96q-90 7 -142.5 69.5t-52.5 163.5q0 103 55.5 173.5t139.5 86.5v83h41v-79h2q62 0 104 -29t42 -75q0 -23 -14.5 -35t-37.5 -12q-36 0 -42 33q0 3 -2 17t-3 18.5t-4.5 14.5t-8.5 14t-14 7.5t-22 3.5v-397q89 4 126 108l31 -9q-13 -64 -53.5 -107t-103.5 -49v-96
h-41zM225 232q0 -165 101 -188v387q-48 -16 -74.5 -68t-26.5 -131z" />
    <glyph glyph-name="dollar.tab" unicode="&#xe45a;" horiz-adv-x="630" 
d="M295 -110v98q-88 4 -137.5 44t-49.5 97q0 36 17 53t41 17q21 0 35 -12.5t14 -33.5t-18 -37t-18 -19q0 -29 31 -45.5t85 -18.5v254q-88 28 -130 67.5t-42 113.5q0 82 49.5 129.5t124.5 53.5v57h41v-57q69 -4 118 -37t49 -83q0 -31 -15 -48.5t-38 -17.5q-21 0 -36 13
t-15 33q0 19 14 33t14 17q0 20 -25.5 32t-65.5 14v-231q46 -17 74 -30.5t56 -35.5t41 -53.5t13 -74.5q0 -89 -54 -137.5t-133 -55.5v-99h-40zM452 148q0 46 -29 74.5t-88 51.5v-240q54 6 85.5 34.5t31.5 79.5zM191 497q0 -40 23.5 -63t82.5 -44v216q-48 -6 -77 -33t-29 -76z
" />
    <glyph glyph-name="Euro.tab" unicode="&#xe45b;" horiz-adv-x="630" 
d="M74 355v39h67q24 119 94 188.5t165 69.5q68 0 119.5 -41t51.5 -101q0 -30 -16 -48t-41 -18q-23 0 -39 13.5t-16 34.5q0 20 15 36t15 20q0 25 -25.5 42t-58.5 17q-147 0 -170 -213h191v-39h-194q-1 -15 -1 -45v-27h195v-39h-193q9 -105 48.5 -156t111.5 -51q100 0 148 112
l35 -15q-52 -152 -203 -152q-99 0 -163 71t-76 191h-60v39h58v9q0 33 3 63h-61z" />
    <glyph glyph-name="s.alt" unicode="&#xe4d2;" horiz-adv-x="395" 
d="M198 -14q-80 0 -118 51l-13 -35h-35v147h42q10 -56 40.5 -88.5t77.5 -32.5q83 0 83 69q0 37 -22 56.5t-78 42.5q-66 27 -98.5 60t-32.5 90q0 56 38.5 94.5t102.5 38.5q67 0 100 -44l12 35h33v-130h-40q-22 49 -44 73t-61 24q-30 0 -48 -17t-18 -48q0 -29 22.5 -48.5
t75.5 -41.5q75 -31 109 -64t34 -92q0 -64 -41.5 -102t-120.5 -38z" />
    <glyph glyph-name="at.sc" unicode="&#xf60b;" horiz-adv-x="721" 
d="M311 164q41 0 78 43l53 161q-13 28 -46 28q-50 0 -86.5 -59.5t-36.5 -116.5q0 -56 38 -56zM347 -48q-137 0 -224.5 71.5t-87.5 209.5q0 154 105 255.5t263 101.5q129 0 206 -64.5t77 -183.5q0 -112 -66 -171.5t-149 -59.5q-81 0 -85 61h-2q-19 -25 -48.5 -43t-58.5 -18
q-35 0 -58 24.5t-23 74.5q0 83 59.5 154.5t133.5 71.5q48 0 71 -32l8 21h69l-77 -231q-10 -42 28 -42q51 0 98.5 50.5t47.5 140.5q0 102 -64.5 154t-172.5 52q-136 0 -219 -87t-83 -221q0 -124 71 -186t188 -62q114 0 201 61l22 -31q-92 -71 -230 -71z" />
    <glyph glyph-name="braceleft.sc" unicode="&#xf60c;" horiz-adv-x="328" 
d="M293 -11h-53q-76 0 -111.5 26t-27.5 79l16 103q6 32 -15.5 44.5t-86.5 16.5v41q65 4 86.5 16t15.5 45l-16 102q-9 55 27 80.5t112 25.5h53v-40l-37 -2q-50 -2 -64 -13.5t-12 -53.5l5 -89q2 -45 -16.5 -63t-71.5 -27v-3q52 -9 71 -27t17 -62l-5 -90q-2 -43 11.5 -54.5
t64.5 -13.5l37 -1v-40z" />
    <glyph glyph-name="braceright.sc" unicode="&#xf60d;" horiz-adv-x="328" 
d="M88 -11h-53v40l37 1q51 2 64.5 13.5t11.5 54.5l-5 90q-2 44 17 62t71 27v3q-53 9 -71.5 27t-16.5 63l5 89q2 42 -12 53.5t-64 13.5l-37 2v40h53q76 0 112 -25.5t27 -80.5l-16 -102q-6 -33 15.5 -45t86.5 -16v-41q-65 -4 -86.5 -16.5t-15.5 -44.5l16 -103q8 -53 -27.5 -79
t-111.5 -26z" />
    <glyph glyph-name="bracketleft.sc" unicode="&#xf60e;" horiz-adv-x="314" 
d="M75 0v558h194v-35l-119 -4v-479l119 -5v-35h-194z" />
    <glyph glyph-name="bracketright.sc" unicode="&#xf60f;" horiz-adv-x="315" 
d="M239 0h-194v35l119 5v479l-119 4v35h194v-558z" />
    <glyph glyph-name="plus.sc" unicode="&#xf615;" horiz-adv-x="419" 
d="M45 218v47h142v143h46v-143h141v-47h-141v-141h-46v141h-142z" />
    <glyph glyph-name="minus.sc" unicode="&#xf616;" horiz-adv-x="419" 
d="M45 218v46h329v-46h-329z" />
    <glyph glyph-name="equal.sc" unicode="&#xf617;" horiz-adv-x="419" 
d="M45 270v46h329v-46h-329zM45 149v46h329v-46h-329z" />
    <glyph glyph-name="parenleft.sc" unicode="&#xf618;" horiz-adv-x="322" 
d="M281 0l-40 -18q-38 24 -66 48t-56 59.5t-43 83.5t-15 106q0 109 49.5 177.5t130.5 120.5l40 -18q-47 -36 -75.5 -68.5t-49 -87t-20.5 -124.5q0 -104 37.5 -167.5t107.5 -111.5z" />
    <glyph glyph-name="parenright.sc" unicode="&#xf619;" horiz-adv-x="322" 
d="M81 -18l-40 18q70 48 107.5 111.5t37.5 167.5q0 70 -20.5 124.5t-49 87t-75.5 68.5l40 18q81 -52 130.5 -120.5t49.5 -177.5q0 -58 -15 -106t-43 -83.5t-56 -59.5t-66 -48z" />
    <glyph glyph-name="quotedblleft.sc" unicode="&#xf61c;" horiz-adv-x="465" 
d="M397 565l10 -30q-92 -38 -92 -107q0 -25 13 -25q3 0 14 9t25 9q21 0 33.5 -14.5t12.5 -37.5q0 -24 -20.5 -40.5t-47.5 -16.5q-42 0 -65 25t-23 68q0 63 39 102t101 58zM197 565l11 -30q-92 -38 -92 -107q0 -25 13 -25q2 0 13 9t25 9q22 0 34.5 -14.5t12.5 -37.5
q0 -24 -20.5 -40.5t-47.5 -16.5q-42 0 -65 25t-23 68q0 63 39 102.5t100 57.5z" />
    <glyph glyph-name="quotedblright.sc" unicode="&#xf61d;" horiz-adv-x="463" 
d="M68 312l-11 30q43 16 68 44.5t25 61.5q0 26 -14 26q-2 0 -13 -9t-26 -9q-21 0 -33.5 14t-12.5 37q0 25 20 41.5t49 16.5q42 0 64 -24.5t22 -69.5q0 -63 -38.5 -102t-99.5 -57zM267 312l-11 30q42 16 67.5 44.5t25.5 61.5q0 26 -15 26q-1 0 -12 -9t-26 -9q-21 0 -33.5 14
t-12.5 37q0 24 20.5 41t48.5 17q42 0 64 -24.5t22 -69.5q0 -63 -38.5 -102t-99.5 -57z" />
    <glyph glyph-name="quoteleft.sc" unicode="&#xf61f;" horiz-adv-x="265" 
d="M197 565l11 -30q-92 -38 -92 -107q0 -25 13 -25q2 0 13 9t25 9q22 0 34.5 -14.5t12.5 -37.5q0 -24 -20.5 -40.5t-47.5 -16.5q-42 0 -65 25t-23 68q0 63 39 102.5t100 57.5z" />
    <glyph glyph-name="quoteright.sc" unicode="&#xf620;" horiz-adv-x="264" 
d="M68 312l-11 30q43 16 68 44.5t25 61.5q0 26 -14 26q-2 0 -13 -9t-26 -9q-21 0 -33.5 14t-12.5 37q0 25 20 41.5t49 16.5q42 0 64 -24.5t22 -69.5q0 -63 -38.5 -102t-99.5 -57z" />
    <glyph glyph-name="AEacute.sc" unicode="&#xf624;" horiz-adv-x="786" 
d="M28 0v40l61 17l232 445l-74 5v42h456v-158h-32l-14 73q-5 26 -15 33t-40 7h-146v-212h55q38 0 39 28l7 63h32v-221h-31l-7 61q-2 18 -11 23t-29 5h-55v-206h150q50 0 62.5 7t16.5 39l13 84h35v-175h-427v40l59 6v203h-128l-100 -192l79 -17v-40h-188zM364 491l-106 -202
h107v202h-1zM483 618l57 147q14 36 44 36q16 0 29.5 -12.5t13.5 -31.5q0 -21 -20 -40l-97 -99h-27z" />
    <glyph glyph-name="Oslashacute.sc" unicode="&#xf627;" 
d="M87 -22l-31 24l56 70q-69 79 -69 197q0 127 79 208t183 81q84 0 152 -54l52 65l31 -25l-53 -66q80 -85 80 -209q0 -128 -78.5 -207.5t-183.5 -79.5q-92 0 -165 62zM305 28q79 0 121 60.5t42 180.5q0 92 -26 152l-262 -326q42 -67 125 -67zM142 269q0 -84 19 -135l259 324
q-40 54 -115 54q-79 0 -121 -61.5t-42 -181.5zM261 618l57 147q14 36 44 36q16 0 29.5 -12.5t13.5 -31.5q0 -21 -20 -40l-97 -99h-27z" />
    <glyph glyph-name="Ccircumflex.sc" unicode="&#xf628;" horiz-adv-x="570" 
d="M305 -18q-118 0 -190 78t-72 209q0 126 80.5 207.5t188.5 81.5q90 0 156 -73l14 57h30v-172h-34q-40 142 -166 142q-75 0 -122.5 -62.5t-47.5 -178.5q0 -236 181 -236q115 0 167 109l32 -15q-27 -70 -83.5 -108.5t-133.5 -38.5zM222 618h-29l91 157h66l92 -157h-29
l-97 89z" />
    <glyph glyph-name="Cdotaccent.sc" unicode="&#xf629;" horiz-adv-x="570" 
d="M305 -18q-118 0 -190 78t-72 209q0 126 80.5 207.5t188.5 81.5q90 0 156 -73l14 57h30v-172h-34q-40 142 -166 142q-75 0 -122.5 -62.5t-47.5 -178.5q0 -236 181 -236q115 0 167 109l32 -15q-27 -70 -83.5 -108.5t-133.5 -38.5zM323 629q-23 0 -39 15.5t-16 38.5
q0 24 15.5 39t39.5 15t39.5 -15t15.5 -39q0 -23 -16 -38.5t-39 -15.5z" />
    <glyph glyph-name="Ebreve.sc" unicode="&#xf62a;" horiz-adv-x="544" 
d="M429 391l-14 73q-5 26 -15.5 33t-39.5 7h-169v-206h78q38 0 39 28l7 63h32v-220h-31l-7 60q-2 18 -11 23.5t-29 5.5h-78v-213h173q49 0 61 6.5t18 39.5l13 84h35v-175h-450v40l59 6v456l-59 5v42h420v-158h-32zM282 627q-56 0 -88 47.5t-36 114.5h33q7 -47 27.5 -70
t63.5 -23t63.5 23t27.5 70h33q-4 -67 -36 -114.5t-88 -47.5z" />
    <glyph glyph-name="Eng.sc" unicode="&#xf62b;" horiz-adv-x="593" 
d="M41 0v40l58 8v454l-58 5v42h158l259 -377v323l-69 12v42h166v-42l-50 -11v-537q0 -99 -41 -149.5t-112 -50.5q-41 0 -66 23t-25 59q0 29 15.5 47t37.5 18q19 0 31.5 -12t12.5 -32q0 -19 -12.5 -31.5t-12.5 -15.5q0 -14 22 -14q46 0 74.5 35.5t28.5 109.5v71l-312 456
v-421l87 -12v-40h-192z" />
    <glyph glyph-name="Gcircumflex.sc" unicode="&#xf62c;" 
d="M314 -18q-123 0 -197 78.5t-74 207.5q0 127 82 208.5t189 81.5q101 0 156 -67l12 49h30v-160h-34q-19 68 -56 100t-101 32q-76 0 -127.5 -62t-51.5 -179q0 -124 44 -184t137 -60q74 0 108 45q14 18 14 72v35l-71 6v41h213v-41l-54 -5v-95q-87 -103 -219 -103zM222 618
h-29l91 157h66l92 -157h-29l-97 89z" />
    <glyph glyph-name="Gdotaccent.sc" unicode="&#xf62d;" 
d="M314 -18q-123 0 -197 78.5t-74 207.5q0 127 82 208.5t189 81.5q101 0 156 -67l12 49h30v-160h-34q-19 68 -56 100t-101 32q-76 0 -127.5 -62t-51.5 -179q0 -124 44 -184t137 -60q74 0 108 45q14 18 14 72v35l-71 6v41h213v-41l-54 -5v-95q-87 -103 -219 -103zM323 629
q-23 0 -39 15.5t-16 38.5q0 24 15.5 39t39.5 15t39.5 -15t15.5 -39q0 -23 -16 -38.5t-39 -15.5z" />
    <glyph glyph-name="Hbar.sc" unicode="&#xf62e;" horiz-adv-x="613" 
d="M23 391v38h77v74l-59 4v42h215v-42l-65 -4v-74h231v72l-65 6v42h215v-42l-59 -5v-73h73v-38h-73v-347l59 -4v-40h-215v40l65 5v219h-231v-219l65 -5v-40h-215v40l59 6v345h-77zM191 391v-87h231v87h-231z" />
    <glyph glyph-name="Hcircumflex.sc" unicode="&#xf62f;" horiz-adv-x="613" 
d="M357 0v40l65 5v219h-231v-219l65 -5v-40h-215v40l59 6v457l-59 4v42h215v-42l-65 -4v-199h231v197l-65 6v42h215v-42l-59 -5v-458l59 -4v-40h-215zM215 618h-29l91 157h66l92 -157h-29l-97 89z" />
    <glyph glyph-name="Ibreve.sc" unicode="&#xf630;" horiz-adv-x="291" 
d="M41 0v40l59 6v455l-59 6v42h209v-42l-59 -6v-453l59 -8v-40h-209zM141 627q-56 0 -88 47.5t-36 114.5h33q7 -47 27.5 -70t63.5 -23t63.5 23t27.5 70h33q-4 -67 -36 -114.5t-88 -47.5z" />
    <glyph glyph-name="IJ.sc" unicode="&#xf631;" horiz-adv-x="643" 
d="M389 -14q-49 0 -75 23t-26 59q0 28 15.5 45t36.5 17q19 0 31.5 -11.5t12.5 -31.5q0 -18 -12 -31t-12 -15q0 -14 25 -14q37 0 52 24t15 71v378l-68 7v42h221v-42l-62 -7v-319q0 -96 -42 -145.5t-112 -49.5zM41 0v40l59 6v455l-59 6v42h209v-42l-59 -6v-453l59 -8v-40h-209
z" />
    <glyph glyph-name="Itilde.sc" unicode="&#xf632;" horiz-adv-x="291" 
d="M41 0v40l59 6v455l-59 6v42h209v-42l-59 -6v-453l59 -8v-40h-209zM200 626q-21 0 -61 15t-56 15q-32 -2 -47 -43h-34q11 47 35.5 79.5t60.5 32.5q20 0 60 -15t55 -15q18 2 28 11.5t17 32.5h36q-27 -113 -94 -113z" />
    <glyph glyph-name="Jcircumflex.sc" unicode="&#xf633;" horiz-adv-x="389" 
d="M134 -51q-49 0 -75 23t-26 59q0 28 15.5 45.5t36.5 17.5q19 0 32 -12t13 -32q0 -18 -12.5 -31t-12.5 -15q0 -14 25 -14q37 0 52 24t15 71v415l-68 7v42h221v-42l-62 -7v-356q0 -96 -42 -145.5t-112 -49.5zM136 618h-29l91 157h66l92 -157h-29l-97 89z" />
    <glyph glyph-name="Ldot.sc" unicode="&#xf634;" horiz-adv-x="517" 
d="M41 0v40l59 5v458l-59 4v42h225v-42l-75 -5v-457h158q40 0 52.5 14t24.5 71l9 42h34v-172h-428zM427 225q-27 0 -44.5 17.5t-17.5 44.5q0 26 17.5 43t44.5 17q26 0 43.5 -17t17.5 -43q0 -27 -17.5 -44.5t-43.5 -17.5z" />
    <glyph glyph-name="Obreve.sc" unicode="&#xf635;" 
d="M305 28q79 0 121 60.5t42 180.5t-42 181.5t-121 61.5t-121 -61.5t-42 -181.5q0 -119 42 -180t121 -61zM305 -18q-105 0 -183.5 79.5t-78.5 207.5q0 127 79 208t183 81q105 0 183.5 -81t78.5 -208q0 -128 -78.5 -207.5t-183.5 -79.5zM314 627q-56 0 -88 47.5t-36 114.5h33
q7 -47 27.5 -70t63.5 -23t63.5 23t27.5 70h33q-4 -67 -36 -114.5t-88 -47.5z" />
    <glyph glyph-name="Scircumflex.sc" unicode="&#xf636;" horiz-adv-x="476" 
d="M243 -18q-99 0 -149 71l-14 -42h-32v170l35 -2q17 -84 57 -118t102 -34q52 0 83 22.5t31 64.5q0 46 -32 73.5t-101 48.5q-81 27 -123 64t-42 102q0 72 49.5 114t118.5 42q87 0 128 -57l13 37h31v-141h-34q-13 55 -47.5 85.5t-88.5 30.5q-47 0 -73.5 -22.5t-26.5 -59.5
q0 -38 28.5 -58t101.5 -44q83 -25 129 -64.5t46 -112.5q0 -82 -55.5 -126t-134.5 -44zM141 618h-29l91 157h66l92 -157h-29l-97 89z" />
    <glyph glyph-name="Tbar.sc" unicode="&#xf637;" horiz-adv-x="537" 
d="M42 364v185h453v-185h-34l-10 70q-6 47 -22.5 58.5t-59.5 11.5h-55v-201h120v-38h-120v-218l68 -7v-40h-227v40l68 7v218h-120v38h120v201h-71q-38 0 -49 -12t-17 -56l-10 -72h-34z" />
    <glyph glyph-name="Ubreve.sc" unicode="&#xf638;" horiz-adv-x="582" 
d="M299 -11q-102 0 -155 50t-53 133v331l-52 4v42h215v-42l-73 -5v-318q0 -72 30 -107.5t102 -35.5q70 0 100 35.5t30 107.5v311l-67 12v42h167v-42l-53 -12v-319q0 -84 -46 -135.5t-145 -51.5zM327 627q-56 0 -88 47.5t-36 114.5h33q7 -47 27.5 -70t63.5 -23t63.5 23
t27.5 70h33q-4 -67 -36 -114.5t-88 -47.5z" />
    <glyph glyph-name="Utilde.sc" unicode="&#xf639;" horiz-adv-x="582" 
d="M299 -11q-102 0 -155 50t-53 133v331l-52 4v42h215v-42l-73 -5v-318q0 -72 30 -107.5t102 -35.5q70 0 100 35.5t30 107.5v311l-67 12v42h167v-42l-53 -12v-319q0 -84 -46 -135.5t-145 -51.5zM385 626q-21 0 -61 15t-56 15q-32 -2 -47 -43h-34q11 47 35.5 79.5t60.5 32.5
q20 0 60 -15t55 -15q18 2 28 11.5t17 32.5h36q-27 -113 -94 -113z" />
    <glyph glyph-name="Wacute.sc" unicode="&#xf63a;" horiz-adv-x="772" 
d="M478 -8l-85 272l-103 -272h-59l-159 511l-44 4v42h189v-42l-49 -4l116 -391h1l88 218l-53 174l-45 3v42h199v-42l-58 -4l113 -391h1l118 377l-62 18v42h158v-42l-48 -15l-155 -500h-63zM356 618l57 147q13 36 44 36q16 0 29.5 -12.5t13.5 -31.5q0 -21 -20 -40l-97 -99
h-27z" />
    <glyph glyph-name="Wcircumflex.sc" unicode="&#xf63b;" horiz-adv-x="772" 
d="M478 -8l-85 272l-103 -272h-59l-159 511l-44 4v42h189v-42l-49 -4l116 -391h1l88 218l-53 174l-45 3v42h199v-42l-58 -4l113 -391h1l118 377l-62 18v42h158v-42l-48 -15l-155 -500h-63zM307 618h-29l91 157h66l92 -157h-29l-97 89z" />
    <glyph glyph-name="Wdieresis.sc" unicode="&#xf63c;" horiz-adv-x="772" 
d="M478 -8l-85 272l-103 -272h-59l-159 511l-44 4v42h189v-42l-49 -4l116 -391h1l88 218l-53 174l-45 3v42h199v-42l-58 -4l113 -391h1l118 377l-62 18v42h158v-42l-48 -15l-155 -500h-63zM319 628q-22 0 -36.5 14.5t-14.5 37.5q0 22 14.5 36t36.5 14t37 -14t15 -36
q0 -23 -15 -37.5t-37 -14.5zM498 628q-22 0 -37 14.5t-15 37.5q0 22 15 36t37 14t37 -14t15 -36q0 -23 -15 -37.5t-37 -14.5z" />
    <glyph glyph-name="Wgrave.sc" unicode="&#xf63d;" horiz-adv-x="772" 
d="M478 -8l-85 272l-103 -272h-59l-159 511l-44 4v42h189v-42l-49 -4l116 -391h1l88 218l-53 174l-45 3v42h199v-42l-58 -4l113 -391h1l118 377l-62 18v42h158v-42l-48 -15l-155 -500h-63zM427 618l-96 99q-21 21 -21 40t13.5 31.5t29.5 12.5q31 0 45 -36l56 -147h-27z" />
    <glyph glyph-name="Ycircumflex.sc" unicode="&#xf63e;" horiz-adv-x="530" 
d="M157 0v40l68 7v213l-157 244l-40 3v42h202v-42l-60 -4l126 -203l110 190l-59 17v42h155v-42l-51 -19l-135 -232v-210l68 -6v-40h-227zM194 618h-29l91 157h66l92 -157h-29l-97 89z" />
    <glyph glyph-name="Ygrave.sc" unicode="&#xf63f;" horiz-adv-x="530" 
d="M157 0v40l68 7v213l-157 244l-40 3v42h202v-42l-60 -4l126 -203l110 190l-59 17v42h155v-42l-51 -19l-135 -232v-210l68 -6v-40h-227zM315 618l-96 99q-21 21 -21 40t13.5 31.5t29.5 12.5q31 0 45 -36l56 -147h-27z" />
    <glyph glyph-name="Abreve.sc" unicode="&#xf640;" horiz-adv-x="576" 
d="M342 0v40l65 4l-50 136h-187l-45 -122l84 -18v-40h-186v40l53 15l185 501h54l189 -513l49 -3v-40h-211zM262 427l-77 -207h157l-76 207h-4zM295 627q-56 0 -88 47.5t-36 114.5h33q7 -47 27.5 -70t63.5 -23t63.5 23t27.5 70h33q-4 -67 -36 -114.5t-88 -47.5z" />
    <glyph glyph-name="Amacron.sc" unicode="&#xf641;" horiz-adv-x="576" 
d="M342 0v40l65 4l-50 136h-187l-45 -122l84 -18v-40h-186v40l53 15l185 501h54l189 -513l49 -3v-40h-211zM262 427l-77 -207h157l-76 207h-4zM173 633v53h244v-53h-244z" />
    <glyph glyph-name="Aogonek.sc" unicode="&#xf642;" horiz-adv-x="576" 
d="M381 -293q-44 0 -73 25t-29 69q0 23 10 47.5t33.5 55.5t41 51t54.5 59l-61 166h-187l-45 -122l84 -18v-40h-186v40l53 15l185 501h54l189 -513l49 -3v-40h-103q-84 -110 -84 -186q0 -56 43 -56q25 0 48 26l20 -20q-35 -57 -96 -57zM262 427l-77 -207h157l-76 207h-4z" />
    <glyph glyph-name="Cacute.sc" unicode="&#xf643;" horiz-adv-x="570" 
d="M305 -18q-118 0 -190 78t-72 209q0 126 80.5 207.5t188.5 81.5q90 0 156 -73l14 57h30v-172h-34q-40 142 -166 142q-75 0 -122.5 -62.5t-47.5 -178.5q0 -236 181 -236q115 0 167 109l32 -15q-27 -70 -83.5 -108.5t-133.5 -38.5zM271 618l57 147q14 36 44 36
q16 0 29.5 -12.5t13.5 -31.5q0 -21 -20 -40l-97 -99h-27z" />
    <glyph glyph-name="Ccaron.sc" unicode="&#xf644;" horiz-adv-x="570" 
d="M305 -18q-118 0 -190 78t-72 209q0 126 80.5 207.5t188.5 81.5q90 0 156 -73l14 57h30v-172h-34q-40 142 -166 142q-75 0 -122.5 -62.5t-47.5 -178.5q0 -236 181 -236q115 0 167 109l32 -15q-27 -70 -83.5 -108.5t-133.5 -38.5zM198 784h30l96 -89l94 89h30l-91 -157h-68
z" />
    <glyph glyph-name="Dcaron.sc" unicode="&#xf645;" horiz-adv-x="587" 
d="M41 0v40l59 5v458l-59 4v42h231q54 0 100.5 -15t86 -45.5t62.5 -85.5t23 -128q0 -137 -78 -206t-189 -69h-236zM266 504h-75v-459h76q178 0 178 230q0 127 -46.5 178t-132.5 51zM179 784h30l96 -89l94 89h30l-91 -157h-68z" />
    <glyph glyph-name="Dcroat.sc" unicode="&#xf646;" horiz-adv-x="587" 
d="M41 507v42h231q54 0 100.5 -15t86 -45.5t62.5 -85.5t23 -128q0 -137 -78 -206t-189 -69h-236v40l59 5v216h-69v38h69v204zM266 504h-75v-205h136v-38h-136v-216h76q178 0 178 230q0 127 -46.5 178t-132.5 51z" />
    <glyph glyph-name="Ecaron.sc" unicode="&#xf647;" horiz-adv-x="544" 
d="M429 391l-14 73q-5 26 -15.5 33t-39.5 7h-169v-206h78q38 0 39 28l7 63h32v-220h-31l-7 60q-2 18 -11 23.5t-29 5.5h-78v-213h173q49 0 61 6.5t18 39.5l13 84h35v-175h-450v40l59 6v456l-59 5v42h420v-158h-32zM157 784h30l96 -89l94 89h30l-91 -157h-68z" />
    <glyph glyph-name="Edotaccent.sc" unicode="&#xf648;" horiz-adv-x="544" 
d="M429 391l-14 73q-5 26 -15.5 33t-39.5 7h-169v-206h78q38 0 39 28l7 63h32v-220h-31l-7 60q-2 18 -11 23.5t-29 5.5h-78v-213h173q49 0 61 6.5t18 39.5l13 84h35v-175h-450v40l59 6v456l-59 5v42h420v-158h-32zM282 629q-23 0 -39 15.5t-16 38.5q0 24 15.5 39t39.5 15
t39.5 -15t15.5 -39q0 -23 -16 -38.5t-39 -15.5z" />
    <glyph glyph-name="Emacron.sc" unicode="&#xf649;" horiz-adv-x="544" 
d="M429 391l-14 73q-5 26 -15.5 33t-39.5 7h-169v-206h78q38 0 39 28l7 63h32v-220h-31l-7 60q-2 18 -11 23.5t-29 5.5h-78v-213h173q49 0 61 6.5t18 39.5l13 84h35v-175h-450v40l59 6v456l-59 5v42h420v-158h-32zM160 633v53h244v-53h-244z" />
    <glyph glyph-name="Eogonek.sc" unicode="&#xf64a;" horiz-adv-x="544" 
d="M429 391l-14 73q-5 26 -15.5 33t-39.5 7h-169v-206h78q38 0 39 28l7 63h32v-220h-31l-7 60q-2 18 -11 23.5t-29 5.5h-78v-213h173q49 0 61 6.5t18 39.5l13 84h35v-175h-450v40l59 6v456l-59 5v42h420v-158h-32zM385 -248q-44 0 -73 25t-29 69q0 68 109 177h45
q-67 -89 -67 -164q0 -56 43 -56q25 0 48 26l20 -20q-35 -57 -96 -57z" />
    <glyph glyph-name="Gbreve.sc" unicode="&#xf64b;" 
d="M314 -18q-123 0 -197 78.5t-74 207.5q0 127 82 208.5t189 81.5q101 0 156 -67l12 49h30v-160h-34q-19 68 -56 100t-101 32q-76 0 -127.5 -62t-51.5 -179q0 -124 44 -184t137 -60q74 0 108 45q14 18 14 72v35l-71 6v41h213v-41l-54 -5v-95q-87 -103 -219 -103zM323 627
q-56 0 -88 47.5t-36 114.5h33q7 -47 27.5 -70t63.5 -23t63.5 23t27.5 70h33q-4 -67 -36 -114.5t-88 -47.5z" />
    <glyph glyph-name="Gcommaaccent.sc" unicode="&#xf64c;" 
d="M314 -18q-123 0 -197 78.5t-74 207.5q0 127 82 208.5t189 81.5q101 0 156 -67l12 49h30v-160h-34q-19 68 -56 100t-101 32q-76 0 -127.5 -62t-51.5 -179q0 -124 44 -184t137 -60q74 0 108 45q14 18 14 72v35l-71 6v41h213v-41l-54 -5v-95q-87 -103 -219 -103zM270 -269
l-11 31q81 30 81 81q0 20 -12 20q-3 0 -12.5 -7t-22.5 -7q-41 0 -41 45q0 22 17.5 36t43.5 14q36 0 58.5 -22t22.5 -60q0 -94 -124 -131z" />
    <glyph glyph-name="Imacron.sc" unicode="&#xf64d;" horiz-adv-x="291" 
d="M41 0v40l59 6v455l-59 6v42h209v-42l-59 -6v-453l59 -8v-40h-209zM19 633v53h244v-53h-244z" />
    <glyph glyph-name="Iogonek.sc" unicode="&#xf64e;" horiz-adv-x="291" 
d="M41 0v40l59 6v455l-59 6v42h209v-42l-59 -6v-453l59 -8v-40h-209zM125 -248q-44 0 -73 25t-29 69q0 68 109 177h45q-67 -89 -67 -164q0 -56 43 -56q25 0 48 26l20 -20q-35 -57 -96 -57z" />
    <glyph glyph-name="Kcommaaccent.sc" unicode="&#xf64f;" horiz-adv-x="578" 
d="M41 0v40l59 6v457l-59 4v42h216v-42l-66 -4v-457l65 -6v-40h-215zM341 0v40l54 5l-183 234v16l186 198l-54 14v42h180v-42l-73 -14l-157 -169l208 -280l43 -4v-40h-204zM251 -269l-11 31q81 30 81 81q0 20 -12 20q-3 0 -12.5 -7t-22.5 -7q-41 0 -41 45q0 22 17.5 36
t43.5 14q36 0 58.5 -22t22.5 -60q0 -94 -124 -131z" />
    <glyph glyph-name="Lacute.sc" unicode="&#xf650;" horiz-adv-x="517" 
d="M41 0v40l59 5v458l-59 4v42h225v-42l-75 -5v-457h158q42 0 56.5 14.5t20.5 70.5l9 62h34v-192h-428zM79 617l57 147q14 36 44 36q16 0 29.5 -12.5t13.5 -31.5q0 -21 -20 -40l-97 -99h-27z" />
    <glyph glyph-name="Lcaron.sc" unicode="&#xf651;" horiz-adv-x="517" 
d="M325 379l-21 17q30 49 30 87q0 35 -26 66q8 39 41 39q21 0 34.5 -18t13.5 -48q0 -73 -72 -143zM41 0v40l59 5v458l-59 4v42h225v-42l-75 -5v-457h158q42 0 56.5 14.5t20.5 70.5l9 62h34v-192h-428z" />
    <glyph glyph-name="Lcommaaccent.sc" unicode="&#xf652;" horiz-adv-x="517" 
d="M41 0v40l59 5v458l-59 4v42h225v-42l-75 -5v-457h158q42 0 56.5 14.5t20.5 70.5l9 62h34v-192h-428zM224 -269l-11 31q81 30 81 81q0 20 -12 20q-3 0 -12.5 -7t-22.5 -7q-41 0 -41 45q0 22 17.5 36t43.5 14q36 0 58.5 -22t22.5 -60q0 -94 -124 -131z" />
    <glyph glyph-name="Nacute.sc" unicode="&#xf653;" horiz-adv-x="593" 
d="M41 0v40l58 8v454l-58 5v42h158l259 -377v323l-69 12v42h166v-42l-50 -11v-496h-35l-324 473v-421l87 -12v-40h-192zM289 595l57 147q14 36 44 36q16 0 29.5 -12.5t13.5 -31.5q0 -21 -20 -40l-97 -99h-27z" />
    <glyph glyph-name="Ncaron.sc" unicode="&#xf654;" horiz-adv-x="593" 
d="M41 0v40l58 8v454l-58 5v42h158l259 -377v323l-69 12v42h166v-42l-50 -11v-496h-35l-324 473v-421l87 -12v-40h-192zM197 784h30l96 -89l94 89h30l-91 -157h-68z" />
    <glyph glyph-name="Ncommaaccent.sc" unicode="&#xf655;" horiz-adv-x="593" 
d="M41 0v40l58 8v454l-58 5v42h158l259 -377v323l-69 12v42h166v-42l-50 -11v-496h-35l-324 473v-421l87 -12v-40h-192zM280 -269l-11 31q81 30 81 81q0 20 -12 20q-3 0 -12.5 -7t-22.5 -7q-41 0 -41 45q0 22 17.5 36t43.5 14q36 0 58.5 -22t22.5 -60q0 -94 -124 -131z" />
    <glyph glyph-name="Ohungarumlaut.sc" unicode="&#xf656;" 
d="M305 28q79 0 121 60.5t42 180.5t-42 181.5t-121 61.5t-121 -61.5t-42 -181.5q0 -119 42 -180t121 -61zM305 -18q-105 0 -183.5 79.5t-78.5 207.5q0 127 79 208t183 81q105 0 183.5 -81t78.5 -208q0 -128 -78.5 -207.5t-183.5 -79.5zM225 618l35 148q9 35 42 35
q16 0 28 -10t12 -29q0 -18 -18 -41l-72 -103h-27zM373 618l35 148q9 35 42 35q15 0 27 -10t12 -29q0 -16 -18 -41l-72 -103h-26z" />
    <glyph glyph-name="Omacron.sc" unicode="&#xf657;" 
d="M305 28q79 0 121 60.5t42 180.5t-42 181.5t-121 61.5t-121 -61.5t-42 -181.5q0 -119 42 -180t121 -61zM305 -18q-105 0 -183.5 79.5t-78.5 207.5q0 127 79 208t183 81q105 0 183.5 -81t78.5 -208q0 -128 -78.5 -207.5t-183.5 -79.5zM192 633v53h244v-53h-244z" />
    <glyph glyph-name="Racute.sc" unicode="&#xf658;" horiz-adv-x="561" 
d="M543 51l15 -29q-38 -30 -89 -30q-33 0 -55 10.5t-35 34t-19.5 47.5t-13.5 65q-10 64 -29 85.5t-67 21.5h-59v-209l66 -7v-40h-216v40l59 6v457l-59 4v42h215q90 0 148 -36t58 -102q0 -54 -39 -89t-98 -48v-3q54 -8 80.5 -37t38.5 -85q13 -61 25 -83.5t40 -22.5q20 0 34 8
zM252 504h-61v-208h73q57 0 79 23t22 80q0 105 -113 105zM222 618l57 147q13 36 44 36q16 0 29.5 -12.5t13.5 -31.5q0 -21 -20 -40l-97 -99h-27z" />
    <glyph glyph-name="Rcaron.sc" unicode="&#xf659;" horiz-adv-x="561" 
d="M543 51l15 -29q-38 -30 -89 -30q-33 0 -55 10.5t-35 34t-19.5 47.5t-13.5 65q-10 64 -29 85.5t-67 21.5h-59v-209l66 -7v-40h-216v40l59 6v457l-59 4v42h215q90 0 148 -36t58 -102q0 -54 -39 -89t-98 -48v-3q54 -8 80.5 -37t38.5 -85q13 -61 25 -83.5t40 -22.5q20 0 34 8
zM252 504h-61v-208h73q57 0 79 23t22 80q0 105 -113 105zM149 784h30l96 -89l94 89h30l-91 -157h-68z" />
    <glyph glyph-name="Rcommaaccent.sc" unicode="&#xf65a;" horiz-adv-x="561" 
d="M543 51l15 -29q-38 -30 -89 -30q-33 0 -55 10.5t-35 34t-19.5 47.5t-13.5 65q-10 64 -29 85.5t-67 21.5h-59v-209l66 -7v-40h-216v40l59 6v457l-59 4v42h215q90 0 148 -36t58 -102q0 -54 -39 -89t-98 -48v-3q54 -8 80.5 -37t38.5 -85q13 -61 25 -83.5t40 -22.5q20 0 34 8
zM252 504h-61v-208h73q57 0 79 23t22 80q0 105 -113 105zM244 -269l-11 31q81 30 81 81q0 20 -12 20q-3 0 -12.5 -7t-22.5 -7q-41 0 -41 45q0 22 17.5 36t43.5 14q36 0 58.5 -22t22.5 -60q0 -94 -124 -131z" />
    <glyph glyph-name="Sacute.sc" unicode="&#xf65b;" horiz-adv-x="476" 
d="M243 -18q-99 0 -149 71l-14 -42h-32v170l35 -2q17 -84 57 -118t102 -34q52 0 83 22.5t31 64.5q0 46 -32 73.5t-101 48.5q-81 27 -123 64t-42 102q0 72 49.5 114t118.5 42q87 0 128 -57l13 37h31v-141h-34q-13 55 -47.5 85.5t-88.5 30.5q-47 0 -73.5 -22.5t-26.5 -59.5
q0 -38 28.5 -58t101.5 -44q83 -25 129 -64.5t46 -112.5q0 -82 -55.5 -126t-134.5 -44zM189 618l57 147q14 36 44 36q16 0 29.5 -12.5t13.5 -31.5q0 -21 -20 -40l-97 -99h-27z" />
    <glyph glyph-name="Scedilla.sc" unicode="&#xf65c;" horiz-adv-x="476" 
d="M243 -18q-99 0 -149 71l-14 -42h-32v170l35 -2q17 -84 57 -118t102 -34q52 0 83 22.5t31 64.5q0 46 -32 73.5t-101 48.5q-81 27 -123 64t-42 102q0 72 49.5 114t118.5 42q87 0 128 -57l13 37h31v-141h-34q-13 55 -47.5 85.5t-88.5 30.5q-47 0 -73.5 -22.5t-26.5 -59.5
q0 -38 28.5 -58t101.5 -44q83 -25 129 -64.5t46 -112.5q0 -82 -55.5 -126t-134.5 -44zM209 -233q-51 0 -88 17l9 31q33 -9 60 -9q24 0 39 11t15 31q0 56 -76 40v131h42v-92q44 6 76.5 -15.5t32.5 -60.5q0 -38 -30 -61t-80 -23z" />
    <glyph glyph-name="Scommaaccent.sc" unicode="&#xf65d;" horiz-adv-x="476" 
d="M243 -18q-99 0 -149 71l-14 -42h-32v170l35 -2q17 -84 57 -118t102 -34q52 0 83 22.5t31 64.5q0 46 -32 73.5t-101 48.5q-81 27 -123 64t-42 102q0 72 49.5 114t118.5 42q87 0 128 -57l13 37h31v-141h-34q-13 55 -47.5 85.5t-88.5 30.5q-47 0 -73.5 -22.5t-26.5 -59.5
q0 -38 28.5 -58t101.5 -44q83 -25 129 -64.5t46 -112.5q0 -82 -55.5 -126t-134.5 -44zM189 -269l-11 31q81 30 81 81q0 20 -12 20q-3 0 -12.5 -7t-22.5 -7q-41 0 -41 45q0 22 17.5 36t43.5 14q36 0 58.5 -22t22.5 -60q0 -94 -124 -131z" />
    <glyph glyph-name="Tcaron.sc" unicode="&#xf65e;" horiz-adv-x="537" 
d="M155 0v40l68 7v457h-71q-38 0 -49 -12t-17 -56l-10 -72h-34v185h453v-185h-34l-10 70q-6 47 -22.5 58.5t-59.5 11.5h-55v-457l68 -7v-40h-227zM148 784h30l96 -89l94 89h30l-91 -157h-68z" />
    <glyph glyph-name="Tcommaaccent.sc" unicode="&#xf65f;" horiz-adv-x="537" 
d="M155 0v40l68 7v457h-71q-38 0 -49 -12t-17 -56l-10 -72h-34v185h453v-185h-34l-10 70q-6 47 -22.5 58.5t-59.5 11.5h-55v-457l68 -7v-40h-227zM220 -269l-11 31q81 30 81 81q0 20 -12 20q-3 0 -12.5 -7t-22.5 -7q-41 0 -41 45q0 22 17.5 36t43.5 14q36 0 58.5 -22
t22.5 -60q0 -94 -124 -131z" />
    <glyph glyph-name="Uhungarumlaut.sc" unicode="&#xf660;" horiz-adv-x="582" 
d="M299 -11q-102 0 -155 50t-53 133v331l-52 4v42h215v-42l-73 -5v-318q0 -72 30 -107.5t102 -35.5q70 0 100 35.5t30 107.5v311l-67 12v42h167v-42l-53 -12v-319q0 -84 -46 -135.5t-145 -51.5zM227 618l35 148q9 35 42 35q16 0 28 -10t12 -29q0 -18 -18 -41l-72 -103h-27z
M375 618l35 148q9 35 42 35q15 0 27 -10t12 -29q0 -16 -18 -41l-72 -103h-26z" />
    <glyph glyph-name="Umacron.sc" unicode="&#xf661;" horiz-adv-x="582" 
d="M299 -11q-102 0 -155 50t-53 133v331l-52 4v42h215v-42l-73 -5v-318q0 -72 30 -107.5t102 -35.5q70 0 100 35.5t30 107.5v311l-67 12v42h167v-42l-53 -12v-319q0 -84 -46 -135.5t-145 -51.5zM205 633v53h244v-53h-244z" />
    <glyph glyph-name="Uogonek.sc" unicode="&#xf662;" horiz-adv-x="582" 
d="M395 -215l20 -20q-35 -57 -96 -57q-45 0 -73 25t-28 68q0 85 126 192q-17 -4 -45 -4q-102 0 -155 50t-53 133v331l-52 4v42h215v-42l-73 -5v-318q0 -72 30 -107.5t102 -35.5q70 0 100 35.5t30 107.5v311l-67 12v42h167v-42l-53 -12v-319q0 -55 -19.5 -95.5t-67.5 -82.5
q-99 -85 -99 -180q0 -59 43 -59q25 0 48 26z" />
    <glyph glyph-name="Uring.sc" unicode="&#xf663;" horiz-adv-x="582" 
d="M299 -11q-102 0 -155 50t-53 133v331l-52 4v42h215v-42l-73 -5v-318q0 -72 30 -107.5t102 -35.5q70 0 100 35.5t30 107.5v311l-67 12v42h167v-42l-53 -12v-319q0 -84 -46 -135.5t-145 -51.5zM327 648q23 1 37.5 17t14.5 39q0 24 -14.5 39.5t-37.5 15.5t-37.5 -15.5
t-14.5 -39.5q0 -23 14.5 -39t37.5 -17zM327 615q-38 0 -63.5 25.5t-25.5 63.5q0 37 25.5 62.5t63.5 25.5q37 0 63 -25.5t26 -62.5q0 -38 -26 -63.5t-63 -25.5z" />
    <glyph glyph-name="Zacute.sc" unicode="&#xf664;" horiz-adv-x="491" 
d="M61 369v180h391v-28l-306 -476h141q72 0 92 10t26 47l16 93h35v-195h-421v27l306 477h-141q-55 0 -70 -9.5t-21 -50.5l-14 -75h-34zM204 618l57 147q13 36 44 36q16 0 29.5 -12.5t13.5 -31.5q0 -21 -20 -40l-97 -99h-27z" />
    <glyph glyph-name="Zdotaccent.sc" unicode="&#xf665;" horiz-adv-x="491" 
d="M61 369v180h391v-28l-306 -476h141q72 0 92 10t26 47l16 93h35v-195h-421v27l306 477h-141q-55 0 -70 -9.5t-21 -50.5l-14 -75h-34zM257 629q-23 0 -39 15.5t-16 38.5q0 24 15.5 39t39.5 15t39.5 -15t15.5 -39q0 -23 -16 -38.5t-39 -15.5z" />
    <glyph glyph-name="Idotaccent.sc" unicode="&#xf666;" horiz-adv-x="291" 
d="M41 0v40l59 6v455l-59 6v42h209v-42l-59 -6v-453l59 -8v-40h-209zM141 629q-23 0 -39 15.5t-16 38.5q0 24 15.5 39t39.5 15t39.5 -15t15.5 -39q0 -23 -16 -38.5t-39 -15.5z" />
    <glyph glyph-name="germandbls.sc" unicode="&#xf667;" horiz-adv-x="924" 
d="M691 -18q-99 0 -149 71l-14 -42h-32v170l35 -2q17 -84 57 -118t102 -34q52 0 83 22.5t31 64.5q0 46 -32 73.5t-101 48.5q-81 27 -123 64t-42 102q0 72 49.5 114t118.5 42q87 0 128 -57l13 37h31v-141h-34q-13 55 -47.5 85.5t-88.5 30.5q-47 0 -73.5 -22.5t-26.5 -59.5
q0 -38 28.5 -58t101.5 -44q83 -25 129 -64.5t46 -112.5q0 -82 -55.5 -126t-134.5 -44zM243 -18q-99 0 -149 71l-14 -42h-32v170l35 -2q17 -84 57 -118t102 -34q52 0 83 22.5t31 64.5q0 46 -32 73.5t-101 48.5q-81 27 -123 64t-42 102q0 72 49.5 114t118.5 42q87 0 128 -57
l13 37h31v-141h-34q-13 55 -47.5 85.5t-88.5 30.5q-47 0 -73.5 -22.5t-26.5 -59.5q0 -38 28.5 -58t101.5 -44q83 -25 129 -64.5t46 -112.5q0 -82 -55.5 -126t-134.5 -44z" />
    <glyph glyph-name="Lslash.sc" unicode="&#xf6f9;" horiz-adv-x="517" 
d="M41 162v43l326 156v-43zM41 0v40l59 5v458l-59 4v42h225v-42l-75 -5v-457h158q42 0 56.5 14.5t20.5 70.5l9 62h34v-192h-428z" />
    <glyph glyph-name="OE.sc" unicode="&#xf6fa;" horiz-adv-x="794" 
d="M574 169l-7 60q-2 18 -11 23.5t-29 5.5h-67v-213h154q49 0 61.5 7t16.5 39l14 84h35v-175h-426q-54 0 -100.5 14.5t-86 45.5t-62.5 85.5t-23 128.5q0 137 78 206t189 69h401v-158h-33l-13 73q-5 26 -15 33t-40 7h-150v-206h67q36 0 39 28l7 63h32v-220h-31zM142 274
q0 -127 46.5 -178t132.5 -51h48v459h-49q-178 0 -178 -230z" />
    <glyph glyph-name="Scaron.sc" unicode="&#xf6fd;" horiz-adv-x="476" 
d="M243 -18q-99 0 -149 71l-14 -42h-32v170l35 -2q17 -84 57 -118t102 -34q52 0 83 22.5t31 64.5q0 46 -32 73.5t-101 48.5q-81 27 -123 64t-42 102q0 72 49.5 114t118.5 42q87 0 128 -57l13 37h31v-141h-34q-13 55 -47.5 85.5t-88.5 30.5q-47 0 -73.5 -22.5t-26.5 -59.5
q0 -38 28.5 -58t101.5 -44q83 -25 129 -64.5t46 -112.5q0 -82 -55.5 -126t-134.5 -44zM106 784h30l96 -89l94 89h30l-91 -157h-68z" />
    <glyph glyph-name="Zcaron.sc" unicode="&#xf6ff;" horiz-adv-x="491" 
d="M61 369v180h391v-28l-306 -476h141q72 0 92 10t26 47l16 93h35v-195h-421v27l306 477h-141q-55 0 -70 -9.5t-21 -50.5l-14 -75h-34zM132 784h30l96 -89l94 89h30l-91 -157h-68z" />
    <glyph glyph-name="exclam.sc" unicode="&#xf721;" horiz-adv-x="225" 
d="M98 173l-39 312q-5 34 11 55t43 21q26 0 42 -21t11 -55l-39 -312h-29zM113 -13q-24 0 -40 16.5t-16 42.5t16 42.5t40 16.5t39.5 -16.5t15.5 -42.5t-15.5 -42.5t-39.5 -16.5z" />
    <glyph glyph-name="ampersand.sc" unicode="&#xf726;" horiz-adv-x="652" 
d="M635 58l10 -29q-43 -47 -103 -47q-32 0 -62.5 17t-43.5 31t-37 44l-3.5 3.5t-2.5 3.5q-82 -99 -187 -99q-75 0 -120.5 41.5t-45.5 107.5q0 123 142 172q-37 35 -52 60t-15 65q0 52 39 91t106 39q55 0 89 -29.5t34 -84.5q0 -74 -99 -118q67 -62 143 -144q29 47 71 128
l-52 8v40h154v-40l-54 -8q-16 -23 -46.5 -75.5t-49.5 -78.5q8 -9 25 -31.5t26 -32.5t23.5 -23.5t28.5 -19t30 -5.5q18 0 33 5t19 9zM242 43q72 0 130 63q-98 112 -170 179q-84 -41 -84 -118q0 -50 31.5 -87t92.5 -37zM191 453q0 -20 8 -36t17.5 -26.5t36.5 -36.5l10 -10
q64 40 64 103q0 31 -17.5 49.5t-48.5 18.5q-32 0 -51 -17.5t-19 -44.5z" />
    <glyph glyph-name="question.sc" unicode="&#xf73f;" horiz-adv-x="371" 
d="M153 -13q-24 0 -40 16.5t-16 42.5t16 42.5t40 16.5t39.5 -16.5t15.5 -42.5t-15.5 -42.5t-39.5 -16.5zM166 173h-39q-9 36 0.5 67.5t29.5 54.5t41 44.5t37 47.5t16 54q0 71 -83 71q-67 0 -67 -45q0 -23 26 -28q9 -16 9 -27q0 -17 -11.5 -28.5t-30.5 -11.5q-26 0 -43 19
t-17 50q0 51 41 84t104 33q68 0 111.5 -36t43.5 -98q0 -39 -19.5 -70.5t-46 -51t-52 -37.5t-40.5 -41t-10 -51z" />
    <glyph glyph-name="A.sc" unicode="&#xf761;" horiz-adv-x="576" 
d="M342 0v40l65 4l-50 136h-187l-45 -122l84 -18v-40h-186v40l53 15l185 501h54l189 -513l49 -3v-40h-211zM262 427l-77 -207h157l-76 207h-4z" />
    <glyph glyph-name="B.sc" unicode="&#xf762;" horiz-adv-x="516" 
d="M41 0v40l59 6v457l-59 4v42h221q90 0 139 -34.5t49 -95.5q0 -102 -116 -132v-2q68 -12 103.5 -47t35.5 -88q0 -70 -50.5 -110t-143.5 -40h-238zM263 263h-72v-218h71q68 0 94 24.5t26 83.5t-30.5 84.5t-88.5 25.5zM254 504h-63v-201h67q55 0 79 24.5t24 82.5
q0 53 -26 73.5t-81 20.5z" />
    <glyph glyph-name="C.sc" unicode="&#xf763;" horiz-adv-x="570" 
d="M305 -18q-118 0 -190 78t-72 209q0 126 80.5 207.5t188.5 81.5q90 0 156 -73l14 57h30v-172h-34q-40 142 -166 142q-75 0 -122.5 -62.5t-47.5 -178.5q0 -236 181 -236q115 0 167 109l32 -15q-27 -70 -83.5 -108.5t-133.5 -38.5z" />
    <glyph glyph-name="D.sc" unicode="&#xf764;" horiz-adv-x="587" 
d="M41 0v40l59 5v458l-59 4v42h231q54 0 100.5 -15t86 -45.5t62.5 -85.5t23 -128q0 -137 -78 -206t-189 -69h-236zM266 504h-75v-459h76q178 0 178 230q0 127 -46.5 178t-132.5 51z" />
    <glyph glyph-name="E.sc" unicode="&#xf765;" horiz-adv-x="544" 
d="M429 391l-14 73q-5 26 -15.5 33t-39.5 7h-169v-206h78q38 0 39 28l7 63h32v-220h-31l-7 60q-2 18 -11 23.5t-29 5.5h-78v-213h173q49 0 61 6.5t18 39.5l13 84h35v-175h-450v40l59 6v456l-59 5v42h420v-158h-32z" />
    <glyph glyph-name="F.sc" unicode="&#xf766;" horiz-adv-x="493" 
d="M427 376l-11 70q-6 38 -21 48t-63 10h-141v-203h73q21 0 27.5 6t9.5 31l6 55h32v-221h-31l-7 57q-3 21 -9 26.5t-29 5.5h-72v-216l75 -5v-40h-225v40l59 6v456l-59 5v42h419v-173h-33z" />
    <glyph glyph-name="G.sc" unicode="&#xf767;" 
d="M314 -18q-123 0 -197 78.5t-74 207.5q0 127 82 208.5t189 81.5q101 0 156 -67l12 49h30v-160h-34q-19 68 -56 100t-101 32q-76 0 -127.5 -62t-51.5 -179q0 -124 44 -184t137 -60q74 0 108 45q14 18 14 72v35l-71 6v41h213v-41l-54 -5v-95q-87 -103 -219 -103z" />
    <glyph glyph-name="H.sc" unicode="&#xf768;" horiz-adv-x="613" 
d="M357 0v40l65 5v219h-231v-219l65 -5v-40h-215v40l59 6v457l-59 4v42h215v-42l-65 -4v-199h231v197l-65 6v42h215v-42l-59 -5v-458l59 -4v-40h-215z" />
    <glyph glyph-name="I.sc" unicode="&#xf769;" horiz-adv-x="291" 
d="M41 0v40l59 6v455l-59 6v42h209v-42l-59 -6v-453l59 -8v-40h-209z" />
    <glyph glyph-name="J.sc" unicode="&#xf76a;" horiz-adv-x="389" 
d="M134 -51q-49 0 -75 23t-26 59q0 28 15.5 45.5t36.5 17.5q19 0 32 -12t13 -32q0 -18 -12.5 -31t-12.5 -15q0 -14 25 -14q37 0 52 24t15 71v415l-68 7v42h221v-42l-62 -7v-356q0 -96 -42 -145.5t-112 -49.5z" />
    <glyph glyph-name="K.sc" unicode="&#xf76b;" horiz-adv-x="578" 
d="M41 0v40l59 6v457l-59 4v42h216v-42l-66 -4v-457l65 -6v-40h-215zM341 0v40l54 5l-183 234v16l186 198l-54 14v42h180v-42l-73 -14l-157 -169l208 -280l43 -4v-40h-204z" />
    <glyph glyph-name="L.sc" unicode="&#xf76c;" horiz-adv-x="517" 
d="M41 0v40l59 5v458l-59 4v42h225v-42l-75 -5v-457h158q42 0 56.5 14.5t20.5 70.5l9 62h34v-192h-428z" />
    <glyph glyph-name="M.sc" unicode="&#xf76d;" horiz-adv-x="683" 
d="M332 0h-18l-169 464v-410l67 -14v-40h-171v40l59 14v446l-59 7v42h161l137 -380l136 380h167v-42l-57 -4v-460l57 -3v-40h-216v40l70 6v430z" />
    <glyph glyph-name="N.sc" unicode="&#xf76e;" horiz-adv-x="593" 
d="M41 0v40l58 8v454l-58 5v42h158l259 -377v323l-69 12v42h166v-42l-50 -11v-496h-35l-324 473v-421l87 -12v-40h-192z" />
    <glyph glyph-name="O.sc" unicode="&#xf76f;" 
d="M305 28q79 0 121 60.5t42 180.5t-42 181.5t-121 61.5t-121 -61.5t-42 -181.5q0 -119 42 -180t121 -61zM305 -18q-105 0 -183.5 79.5t-78.5 207.5q0 127 79 208t183 81q105 0 183.5 -81t78.5 -208q0 -128 -78.5 -207.5t-183.5 -79.5z" />
    <glyph glyph-name="P.sc" unicode="&#xf770;" horiz-adv-x="495" 
d="M41 0v40l59 5v458l-59 4v42h215q102 0 156.5 -41t54.5 -116q0 -80 -55.5 -121t-150.5 -41q-42 0 -70 5v-189l70 -6v-40h-220zM251 504h-60v-230q30 -2 55 -2q70 0 97 25t27 91q0 62 -28 89t-91 27z" />
    <glyph glyph-name="Q.sc" unicode="&#xf771;" horiz-adv-x="608" 
d="M438 -165q-72 0 -116.5 36.5t-70.5 116.5q-89 19 -148.5 94.5t-59.5 186.5q0 127 79 208t183 81q105 0 183.5 -81t78.5 -208q0 -111 -61.5 -187t-151.5 -95q32 -102 113 -102q32 0 69 13l10 -38q-57 -25 -108 -25zM305 28q79 0 121 60.5t42 180.5t-42 181.5t-121 61.5
t-121 -61.5t-42 -181.5q0 -119 42 -180t121 -61z" />
    <glyph glyph-name="R.sc" unicode="&#xf772;" horiz-adv-x="561" 
d="M543 51l15 -29q-38 -30 -89 -30q-33 0 -55 10.5t-35 34t-19.5 47.5t-13.5 65q-10 64 -29 85.5t-67 21.5h-59v-209l66 -7v-40h-216v40l59 6v457l-59 4v42h215q90 0 148 -36t58 -102q0 -54 -39 -89t-98 -48v-3q54 -8 80.5 -37t38.5 -85q13 -61 25 -83.5t40 -22.5q20 0 34 8
zM252 504h-61v-208h73q57 0 79 23t22 80q0 105 -113 105z" />
    <glyph glyph-name="S.sc" unicode="&#xf773;" horiz-adv-x="476" 
d="M243 -18q-99 0 -149 71l-14 -42h-32v170l35 -2q17 -84 57 -118t102 -34q52 0 83 22.5t31 64.5q0 46 -32 73.5t-101 48.5q-81 27 -123 64t-42 102q0 72 49.5 114t118.5 42q87 0 128 -57l13 37h31v-141h-34q-13 55 -47.5 85.5t-88.5 30.5q-47 0 -73.5 -22.5t-26.5 -59.5
q0 -38 28.5 -58t101.5 -44q83 -25 129 -64.5t46 -112.5q0 -82 -55.5 -126t-134.5 -44z" />
    <glyph glyph-name="T.sc" unicode="&#xf774;" horiz-adv-x="537" 
d="M155 0v40l68 7v457h-71q-38 0 -49 -12t-17 -56l-10 -72h-34v185h453v-185h-34l-10 70q-6 47 -22.5 58.5t-59.5 11.5h-55v-457l68 -7v-40h-227z" />
    <glyph glyph-name="U.sc" unicode="&#xf775;" horiz-adv-x="582" 
d="M299 -11q-102 0 -155 50t-53 133v331l-52 4v42h215v-42l-73 -5v-318q0 -72 30 -107.5t102 -35.5q70 0 100 35.5t30 107.5v311l-67 12v42h167v-42l-53 -12v-319q0 -84 -46 -135.5t-145 -51.5z" />
    <glyph glyph-name="V.sc" unicode="&#xf776;" horiz-adv-x="565" 
d="M254 -8l-178 511l-48 4v42h206v-42l-63 -4l134 -388h1l130 375l-70 17v42h171v-42l-52 -15l-174 -500h-57z" />
    <glyph glyph-name="W.sc" unicode="&#xf777;" horiz-adv-x="772" 
d="M478 -8l-85 272l-103 -272h-59l-159 511l-44 4v42h189v-42l-49 -4l116 -391h1l88 218l-53 174l-45 3v42h199v-42l-58 -4l113 -391h1l118 377l-62 18v42h158v-42l-48 -15l-155 -500h-63z" />
    <glyph glyph-name="X.sc" unicode="&#xf778;" horiz-adv-x="566" 
d="M326 0v40l53 4l-120 194l-114 -182l68 -16v-40h-182v40l65 18l138 219l-140 226l-47 4v42h207v-42l-55 -3l104 -168l99 155l-60 16v42h169v-42l-62 -18l-123 -191l157 -253l52 -5v-40h-209z" />
    <glyph glyph-name="Y.sc" unicode="&#xf779;" horiz-adv-x="530" 
d="M157 0v40l68 7v213l-157 244l-40 3v42h202v-42l-60 -4l126 -203l110 190l-59 17v42h155v-42l-51 -19l-135 -232v-210l68 -6v-40h-227z" />
    <glyph glyph-name="Z.sc" unicode="&#xf77a;" horiz-adv-x="491" 
d="M61 369v180h391v-28l-306 -476h141q72 0 92 10t26 47l16 93h35v-195h-421v27l306 477h-141q-55 0 -70 -9.5t-21 -50.5l-14 -75h-34z" />
    <glyph glyph-name="exclamdown.sc" unicode="&#xf7a1;" horiz-adv-x="225" 
d="M127 375l39 -312q5 -34 -11 -55t-43 -21q-26 0 -42 21t-11 55l39 312h29zM112 561q24 0 40 -16.5t16 -42.5t-16 -42.5t-40 -16.5t-39.5 16.5t-15.5 42.5t15.5 42.5t39.5 16.5z" />
    <glyph glyph-name="questiondown.sc" unicode="&#xf7bf;" horiz-adv-x="371" 
d="M215 558q24 0 40 -16.5t16 -42.5t-16 -42.5t-40 -16.5t-39.5 16.5t-15.5 42.5t15.5 42.5t39.5 16.5zM202 372h39q9 -36 -0.5 -67.5t-29.5 -54.5t-41 -44.5t-37 -47.5t-16 -54q0 -71 83 -71q67 0 67 45q0 23 -26 28q-9 16 -9 27q0 17 11.5 28.5t30.5 11.5q26 0 43 -19
t17 -50q0 -51 -41 -84t-104 -33q-68 0 -111.5 36t-43.5 98q0 39 19.5 70.5t46 51t52 37.5t40.5 41t10 51z" />
    <glyph glyph-name="Agrave.sc" unicode="&#xf7e0;" horiz-adv-x="576" 
d="M342 0v40l65 4l-50 136h-187l-45 -122l84 -18v-40h-186v40l53 15l185 501h54l189 -513l49 -3v-40h-211zM262 427l-77 -207h157l-76 207h-4zM313 618l-96 99q-21 21 -21 40t13.5 31.5t29.5 12.5q31 0 45 -36l56 -147h-27z" />
    <glyph glyph-name="Aacute.sc" unicode="&#xf7e1;" horiz-adv-x="576" 
d="M342 0v40l65 4l-50 136h-187l-45 -122l84 -18v-40h-186v40l53 15l185 501h54l189 -513l49 -3v-40h-211zM262 427l-77 -207h157l-76 207h-4zM242 618l57 147q13 36 44 36q16 0 29.5 -12.5t13.5 -31.5q0 -21 -20 -40l-97 -99h-27z" />
    <glyph glyph-name="Acircumflex.sc" unicode="&#xf7e2;" horiz-adv-x="576" 
d="M342 0v40l65 4l-50 136h-187l-45 -122l84 -18v-40h-186v40l53 15l185 501h54l189 -513l49 -3v-40h-211zM262 427l-77 -207h157l-76 207h-4zM193 618h-29l91 157h66l92 -157h-29l-97 89z" />
    <glyph glyph-name="Atilde.sc" unicode="&#xf7e3;" horiz-adv-x="576" 
d="M342 0v40l65 4l-50 136h-187l-45 -122l84 -18v-40h-186v40l53 15l185 501h54l189 -513l49 -3v-40h-211zM262 427l-77 -207h157l-76 207h-4zM354 626q-21 0 -61 15t-56 15q-32 -2 -47 -43h-34q11 47 35.5 79.5t60.5 32.5q20 0 60 -15t55 -15q18 2 28 11.5t17 32.5h36
q-27 -113 -94 -113z" />
    <glyph glyph-name="Adieresis.sc" unicode="&#xf7e4;" horiz-adv-x="576" 
d="M342 0v40l65 4l-50 136h-187l-45 -122l84 -18v-40h-186v40l53 15l185 501h54l189 -513l49 -3v-40h-211zM262 427l-77 -207h157l-76 207h-4zM205 628q-22 0 -36.5 14.5t-14.5 37.5q0 22 14.5 36t36.5 14t37 -14t15 -36q0 -23 -15 -37.5t-37 -14.5zM384 628q-22 0 -37 14.5
t-15 37.5q0 22 15 36t37 14t37 -14t15 -36q0 -23 -15 -37.5t-37 -14.5z" />
    <glyph glyph-name="Aring.sc" unicode="&#xf7e5;" horiz-adv-x="576" 
d="M342 0v40l65 4l-50 136h-187l-45 -122l84 -18v-40h-186v40l53 15l185 501h54l189 -513l49 -3v-40h-211zM262 427l-77 -207h157l-76 207h-4zM295 648q23 1 37.5 17t14.5 39q0 24 -14.5 39.5t-37.5 15.5t-37.5 -15.5t-14.5 -39.5q0 -23 14.5 -39t37.5 -17zM295 615
q-38 0 -63.5 25.5t-25.5 63.5q0 37 25.5 62.5t63.5 25.5q37 0 63 -25.5t26 -62.5q0 -38 -26 -63.5t-63 -25.5z" />
    <glyph glyph-name="AE.sc" unicode="&#xf7e6;" horiz-adv-x="786" 
d="M28 0v40l61 17l232 445l-74 5v42h456v-158h-32l-14 73q-5 26 -15 33t-40 7h-146v-212h55q38 0 39 28l7 63h32v-221h-31l-7 61q-2 18 -11 23t-29 5h-55v-206h150q50 0 62.5 7t16.5 39l13 84h35v-175h-427v40l59 6v203h-128l-100 -192l79 -17v-40h-188zM364 491l-106 -202
h107v202h-1z" />
    <glyph glyph-name="Ccedilla.sc" unicode="&#xf7e7;" horiz-adv-x="570" 
d="M305 -18q-118 0 -190 78t-72 209q0 126 80.5 207.5t188.5 81.5q90 0 156 -73l14 57h30v-172h-34q-40 142 -166 142q-75 0 -122.5 -62.5t-47.5 -178.5q0 -236 181 -236q115 0 167 109l32 -15q-27 -70 -83.5 -108.5t-133.5 -38.5zM302 -233q-51 0 -88 17l9 31q33 -9 60 -9
q25 0 39.5 11t14.5 31q0 56 -76 40v131h42v-92q44 6 76.5 -15.5t32.5 -60.5q0 -38 -30 -61t-80 -23z" />
    <glyph glyph-name="Egrave.sc" unicode="&#xf7e8;" horiz-adv-x="544" 
d="M429 391l-14 73q-5 26 -15.5 33t-39.5 7h-169v-206h78q38 0 39 28l7 63h32v-220h-31l-7 60q-2 18 -11 23.5t-29 5.5h-78v-213h173q49 0 61 6.5t18 39.5l13 84h35v-175h-450v40l59 6v456l-59 5v42h420v-158h-32zM301 618l-96 99q-21 21 -21 40t13.5 31.5t29.5 12.5
q31 0 45 -36l56 -147h-27z" />
    <glyph glyph-name="Eacute.sc" unicode="&#xf7e9;" horiz-adv-x="544" 
d="M429 391l-14 73q-5 26 -15.5 33t-39.5 7h-169v-206h78q38 0 39 28l7 63h32v-220h-31l-7 60q-2 18 -11 23.5t-29 5.5h-78v-213h173q49 0 61 6.5t18 39.5l13 84h35v-175h-450v40l59 6v456l-59 5v42h420v-158h-32zM230 618l57 147q13 36 44 36q16 0 29.5 -12.5t13.5 -31.5
q0 -21 -20 -40l-97 -99h-27z" />
    <glyph glyph-name="Ecircumflex.sc" unicode="&#xf7ea;" horiz-adv-x="544" 
d="M429 391l-14 73q-5 26 -15.5 33t-39.5 7h-169v-206h78q38 0 39 28l7 63h32v-220h-31l-7 60q-2 18 -11 23.5t-29 5.5h-78v-213h173q49 0 61 6.5t18 39.5l13 84h35v-175h-450v40l59 6v456l-59 5v42h420v-158h-32zM182 618h-29l91 157h66l92 -157h-29l-97 89z" />
    <glyph glyph-name="Edieresis.sc" unicode="&#xf7eb;" horiz-adv-x="544" 
d="M429 391l-14 73q-5 26 -15.5 33t-39.5 7h-169v-206h78q38 0 39 28l7 63h32v-220h-31l-7 60q-2 18 -11 23.5t-29 5.5h-78v-213h173q49 0 61 6.5t18 39.5l13 84h35v-175h-450v40l59 6v456l-59 5v42h420v-158h-32zM192 628q-22 0 -36.5 14.5t-14.5 37.5q0 22 14.5 36
t36.5 14t37 -14t15 -36q0 -23 -15 -37.5t-37 -14.5zM371 628q-22 0 -37 14.5t-15 37.5q0 22 15 36t37 14t37 -14t15 -36q0 -23 -15 -37.5t-37 -14.5z" />
    <glyph glyph-name="Igrave.sc" unicode="&#xf7ec;" horiz-adv-x="291" 
d="M41 0v40l59 6v455l-59 6v42h209v-42l-59 -6v-453l59 -8v-40h-209zM159 618l-96 99q-21 21 -21 40t13.5 31.5t29.5 12.5q31 0 45 -36l56 -147h-27z" />
    <glyph glyph-name="Iacute.sc" unicode="&#xf7ed;" horiz-adv-x="291" 
d="M41 0v40l59 6v455l-59 6v42h209v-42l-59 -6v-453l59 -8v-40h-209zM88 618l57 147q13 36 44 36q16 0 29.5 -12.5t13.5 -31.5q0 -21 -20 -40l-97 -99h-27z" />
    <glyph glyph-name="Icircumflex.sc" unicode="&#xf7ee;" horiz-adv-x="291" 
d="M41 0v40l59 6v455l-59 6v42h209v-42l-59 -6v-453l59 -8v-40h-209zM39 618h-29l91 157h66l92 -157h-29l-97 89z" />
    <glyph glyph-name="Idieresis.sc" unicode="&#xf7ef;" horiz-adv-x="291" 
d="M41 0v40l59 6v455l-59 6v42h209v-42l-59 -6v-453l59 -8v-40h-209zM51 628q-22 0 -36.5 14.5t-14.5 37.5q0 22 14.5 36t36.5 14t37 -14t15 -36q0 -23 -15 -37.5t-37 -14.5zM230 628q-22 0 -37 14.5t-15 37.5q0 22 15 36t37 14t37 -14t15 -36q0 -23 -15 -37.5t-37 -14.5z
" />
    <glyph glyph-name="Eth.sc" unicode="&#xf7f0;" horiz-adv-x="587" 
d="M41 507v42h231q54 0 100.5 -15t86 -45.5t62.5 -85.5t23 -128q0 -137 -78 -206t-189 -69h-236v40l59 5v216h-69v38h69v204zM266 504h-75v-205h136v-38h-136v-216h76q178 0 178 230q0 127 -46.5 178t-132.5 51z" />
    <glyph glyph-name="Ntilde.sc" unicode="&#xf7f1;" horiz-adv-x="593" 
d="M41 0v40l58 8v454l-58 5v42h158l259 -377v323l-69 12v42h166v-42l-50 -11v-496h-35l-324 473v-421l87 -12v-40h-192zM381 626q-21 0 -61 15t-56 15q-32 -2 -47 -43h-34q11 47 35.5 79.5t60.5 32.5q20 0 60 -15t55 -15q18 2 28 11.5t17 32.5h36q-27 -113 -94 -113z" />
    <glyph glyph-name="Ograve.sc" unicode="&#xf7f2;" 
d="M305 28q79 0 121 60.5t42 180.5t-42 181.5t-121 61.5t-121 -61.5t-42 -181.5q0 -119 42 -180t121 -61zM305 -18q-105 0 -183.5 79.5t-78.5 207.5q0 127 79 208t183 81q105 0 183.5 -81t78.5 -208q0 -128 -78.5 -207.5t-183.5 -79.5zM333 618l-96 99q-21 21 -21 40
t13.5 31.5t29.5 12.5q31 0 45 -36l56 -147h-27z" />
    <glyph glyph-name="Oacute.sc" unicode="&#xf7f3;" 
d="M305 28q79 0 121 60.5t42 180.5t-42 181.5t-121 61.5t-121 -61.5t-42 -181.5q0 -119 42 -180t121 -61zM305 -18q-105 0 -183.5 79.5t-78.5 207.5q0 127 79 208t183 81q105 0 183.5 -81t78.5 -208q0 -128 -78.5 -207.5t-183.5 -79.5zM250 618l57 147q13 36 44 36
q16 0 29.5 -12.5t13.5 -31.5q0 -21 -20 -40l-97 -99h-27z" />
    <glyph glyph-name="Ocircumflex.sc" unicode="&#xf7f4;" 
d="M305 28q79 0 121 60.5t42 180.5t-42 181.5t-121 61.5t-121 -61.5t-42 -181.5q0 -119 42 -180t121 -61zM305 -18q-105 0 -183.5 79.5t-78.5 207.5q0 127 79 208t183 81q105 0 183.5 -81t78.5 -208q0 -128 -78.5 -207.5t-183.5 -79.5zM213 618h-29l91 157h66l92 -157h-29
l-97 89z" />
    <glyph glyph-name="Otilde.sc" unicode="&#xf7f5;" 
d="M305 28q79 0 121 60.5t42 180.5t-42 181.5t-121 61.5t-121 -61.5t-42 -181.5q0 -119 42 -180t121 -61zM305 -18q-105 0 -183.5 79.5t-78.5 207.5q0 127 79 208t183 81q105 0 183.5 -81t78.5 -208q0 -128 -78.5 -207.5t-183.5 -79.5zM373 626q-21 0 -61 15t-56 15
q-32 -2 -47 -43h-34q11 47 35.5 79.5t60.5 32.5q20 0 60 -15t55 -15q18 2 28 11.5t17 32.5h36q-27 -113 -94 -113z" />
    <glyph glyph-name="Odieresis.sc" unicode="&#xf7f6;" 
d="M305 28q79 0 121 60.5t42 180.5t-42 181.5t-121 61.5t-121 -61.5t-42 -181.5q0 -119 42 -180t121 -61zM305 -18q-105 0 -183.5 79.5t-78.5 207.5q0 127 79 208t183 81q105 0 183.5 -81t78.5 -208q0 -128 -78.5 -207.5t-183.5 -79.5zM224 628q-22 0 -36.5 14.5t-14.5 37.5
q0 22 14.5 36t36.5 14t37 -14t15 -36q0 -23 -15 -37.5t-37 -14.5zM403 628q-22 0 -37 14.5t-15 37.5q0 22 15 36t37 14t37 -14t15 -36q0 -23 -15 -37.5t-37 -14.5z" />
    <glyph glyph-name="Oslash.sc" unicode="&#xf7f8;" 
d="M87 -22l-31 24l56 70q-69 79 -69 197q0 127 79 208t183 81q84 0 152 -54l52 65l31 -25l-53 -66q80 -85 80 -209q0 -128 -78.5 -207.5t-183.5 -79.5q-92 0 -165 62zM305 28q79 0 121 60.5t42 180.5q0 92 -26 152l-262 -326q42 -67 125 -67zM142 269q0 -84 19 -135l259 324
q-40 54 -115 54q-79 0 -121 -61.5t-42 -181.5z" />
    <glyph glyph-name="Ugrave.sc" unicode="&#xf7f9;" horiz-adv-x="582" 
d="M299 -11q-102 0 -155 50t-53 133v331l-52 4v42h215v-42l-73 -5v-318q0 -72 30 -107.5t102 -35.5q70 0 100 35.5t30 107.5v311l-67 12v42h167v-42l-53 -12v-319q0 -84 -46 -135.5t-145 -51.5zM345 618l-96 99q-21 21 -21 40t13.5 31.5t29.5 12.5q31 0 45 -36l56 -147h-27z
" />
    <glyph glyph-name="Uacute.sc" unicode="&#xf7fa;" horiz-adv-x="582" 
d="M299 -11q-102 0 -155 50t-53 133v331l-52 4v42h215v-42l-73 -5v-318q0 -72 30 -107.5t102 -35.5q70 0 100 35.5t30 107.5v311l-67 12v42h167v-42l-53 -12v-319q0 -84 -46 -135.5t-145 -51.5zM285 618l57 147q14 36 44 36q16 0 29.5 -12.5t13.5 -31.5q0 -21 -20 -40
l-97 -99h-27z" />
    <glyph glyph-name="Ucircumflex.sc" unicode="&#xf7fb;" horiz-adv-x="582" 
d="M299 -11q-102 0 -155 50t-53 133v331l-52 4v42h215v-42l-73 -5v-318q0 -72 30 -107.5t102 -35.5q70 0 100 35.5t30 107.5v311l-67 12v42h167v-42l-53 -12v-319q0 -84 -46 -135.5t-145 -51.5zM225 618h-29l91 157h66l92 -157h-29l-97 89z" />
    <glyph glyph-name="Udieresis.sc" unicode="&#xf7fc;" horiz-adv-x="582" 
d="M299 -11q-102 0 -155 50t-53 133v331l-52 4v42h215v-42l-73 -5v-318q0 -72 30 -107.5t102 -35.5q70 0 100 35.5t30 107.5v311l-67 12v42h167v-42l-53 -12v-319q0 -84 -46 -135.5t-145 -51.5zM236 628q-22 0 -36.5 14.5t-14.5 37.5q0 22 14.5 36t36.5 14t37 -14t15 -36
q0 -23 -15 -37.5t-37 -14.5zM415 628q-22 0 -37 14.5t-15 37.5q0 22 15 36t37 14t37 -14t15 -36q0 -23 -15 -37.5t-37 -14.5z" />
    <glyph glyph-name="Yacute.sc" unicode="&#xf7fd;" horiz-adv-x="530" 
d="M157 0v40l68 7v213l-157 244l-40 3v42h202v-42l-60 -4l126 -203l110 190l-59 17v42h155v-42l-51 -19l-135 -232v-210l68 -6v-40h-227zM243 618l57 147q14 36 44 36q16 0 29.5 -12.5t13.5 -31.5q0 -21 -20 -40l-97 -99h-27z" />
    <glyph glyph-name="Thorn.sc" unicode="&#xf7fe;" horiz-adv-x="490" 
d="M264 133q-41 0 -73 6v-91l59 -8v-40h-209v40l59 6v455l-59 6v42h209v-42l-59 -6v-75h68q101 0 155 -38t54 -107q0 -70 -54.5 -109t-149.5 -39zM252 384h-61v-207q15 -3 56 -3q68 0 96 24t28 79q0 57 -28 82t-91 25z" />
    <glyph glyph-name="Ydieresis.sc" unicode="&#xf7ff;" horiz-adv-x="530" 
d="M157 0v40l68 7v213l-157 244l-40 3v42h202v-42l-60 -4l126 -203l110 190l-59 17v42h155v-42l-51 -19l-135 -232v-210l68 -6v-40h-227zM206 628q-22 0 -36.5 14.5t-14.5 37.5q0 22 14.5 36t36.5 14t37 -14t15 -36q0 -23 -15 -37.5t-37 -14.5zM385 628q-22 0 -37 14.5
t-15 37.5q0 22 15 36t37 14t37 -14t15 -36q0 -23 -15 -37.5t-37 -14.5z" />
    <glyph glyph-name="_1" horiz-adv-x="0" 
 />
    <glyph glyph-name="caron.uc" horiz-adv-x="480" 
d="M109 852h29l102 -71l102 71h29l-96 -134h-70z" />
    <glyph glyph-name="acute.uc" horiz-adv-x="480" 
d="M202 718h-27l55 112q16 40 46 40q16 0 31 -13.5t15 -33.5q0 -25 -30 -44z" />
    <glyph glyph-name="one.num" horiz-adv-x="220" 
d="M11 561v41l104 63h36v-312l57 -4v-36h-191v36l60 4v237z" />
    <glyph glyph-name="two.den" horiz-adv-x="291" 
d="M20 0l-2 43q99 80 125 110q44 49 44 96q0 67 -56 67q-22 0 -35 -8.5t-13 -20.5q0 -6 10 -16t10 -21q0 -14 -10 -23.5t-26 -9.5q-43 0 -43 48q0 38 33.5 62.5t82.5 24.5q62 0 93.5 -30t31.5 -72q0 -27 -15 -53.5t-45.5 -52.5t-57 -44.5t-68.5 -44.5h106q27 0 36 5t13 24
l4 16h31l-11 -100h-238z" />
    <glyph glyph-name="four.den" horiz-adv-x="303" 
d="M160 0v84h-146v19l135 243h44l-130 -229h97v123l72 5v-128h56v-33h-56v-84h-72z" />
    <glyph glyph-name="three.num" horiz-adv-x="287" 
d="M123 303q-54 0 -84 22.5t-30 57.5q0 22 12.5 35t29.5 13q16 0 25.5 -9.5t9.5 -22.5q0 -12 -10 -21.5t-10 -11.5q0 -12 13 -19.5t35 -7.5q38 0 56 17.5t18 57.5q0 62 -78 62h-29v33h29q66 0 66 72q0 48 -53 48q-16 0 -27 -5.5t-11 -11.5q0 -2 7 -9.5t7 -18.5
q0 -30 -33 -30q-36 0 -36 40q0 34 32 52.5t75 18.5q53 0 83.5 -23.5t30.5 -59.5q0 -30 -23.5 -53.5t-57.5 -30.5v-3q97 -12 97 -86q0 -48 -39.5 -77t-104.5 -29z" />
    <glyph glyph-name="dieresis.uc" horiz-adv-x="480" 
d="M142 726q-22 0 -37 15t-15 37q0 23 15 37.5t37 14.5q23 0 37.5 -14.5t14.5 -37.5q0 -22 -14.5 -37t-37.5 -15zM338 726q-21 0 -36 15t-15 37q0 23 15 37.5t36 14.5q23 0 38 -14.5t15 -37.5q0 -22 -15 -37t-38 -15z" />
    <glyph glyph-name="ring.uc" horiz-adv-x="480" 
d="M240 752q23 0 37.5 16t14.5 40t-14.5 39.5t-37.5 15.5t-37.5 -15.5t-14.5 -39.5t14.5 -40t37.5 -16zM240 719q-38 0 -63.5 25.5t-25.5 63.5q0 37 25.5 62.5t63.5 25.5q37 0 63 -25.5t26 -62.5q0 -38 -26 -63.5t-63 -25.5z" />
    <glyph glyph-name="tilde.uc" horiz-adv-x="480" 
d="M298 740q-21 0 -67 14.5t-62 14.5q-34 -2 -47 -43h-34q9 46 34 79.5t63 33.5q20 0 65.5 -14.5t60.5 -14.5q32 2 45 43h36q-27 -113 -94 -113z" />
    <glyph glyph-name="grave.uc" horiz-adv-x="480" 
d="M304 718h-28l-90 61q-29 20 -29 44q0 21 14.5 34t31.5 13q28 0 45 -40z" />
    <glyph glyph-name="circumflex.uc" horiz-adv-x="480" 
d="M138 718h-29l96 134h70l96 -134h-29l-103 69z" />
    <glyph glyph-name="space_uni0326" horiz-adv-x="484" 
d="M189 -269l-11 31q81 30 81 81q0 20 -12 20q-3 0 -12.5 -7t-22.5 -7q-41 0 -41 45q0 22 17.5 36t43.5 14q36 0 58.5 -22t22.5 -60q0 -94 -124 -131z" />
    <glyph glyph-name="caron.alt" horiz-adv-x="480" 
d="M184 500l-21 17q30 49 30 87q0 35 -26 66q7 39 41 39q21 0 34.5 -18.5t13.5 -47.5q0 -73 -72 -143z" />
    <glyph glyph-name="space_uni0326.alt" horiz-adv-x="484" 
d="M296 748l11 -32q-81 -30 -81 -80q0 -22 11 -22q4 0 14 7.5t22 7.5q42 0 42 -45q0 -21 -18 -35t-44 -14q-37 0 -59.5 21.5t-22.5 59.5q0 95 125 132z" />
    <glyph glyph-name="macron.uc" horiz-adv-x="480" 
d="M106 748v54h268v-54h-268z" />
    <glyph glyph-name="breve.uc" horiz-adv-x="480" 
d="M240 716q-58 0 -89.5 41t-35.5 95h33q9 -35 29.5 -52.5t62.5 -17.5t63 17.5t28 52.5h34q-4 -53 -35.5 -94.5t-89.5 -41.5z" />
    <glyph glyph-name="dotaccent.uc" horiz-adv-x="480" 
d="M240 727q-23 0 -39 15.5t-16 38.5t16 39t39 16t39 -16t16 -39t-16 -38.5t-39 -15.5z" />
    <glyph glyph-name="hungarumlaut.uc" horiz-adv-x="480" 
d="M302 718h-26l23 116q9 36 42 36q16 0 29 -10.5t13 -29.5q0 -14 -19 -42zM154 718h-27l24 116q9 36 42 36q16 0 28.5 -10.5t12.5 -29.5q0 -17 -19 -42z" />
    <glyph glyph-name="idotaccent" horiz-adv-x="268" 
d="M19 0v40l75 4v359l-79 -11v42l158 39l8 -4v-425l69 -4v-40h-231zM136 571q-23 0 -39 16t-16 39t16 38.5t39 15.5q24 0 40.5 -15.5t16.5 -38.5t-16.5 -39t-40.5 -16z" />
    <glyph glyph-name="eight.den" horiz-adv-x="312" 
d="M156 -10q-58 0 -97 29t-39 73q0 34 21.5 56.5t55.5 31.5q-26 9 -43 30t-17 49q0 39 33 66t86 27t86 -27t33 -66q0 -28 -17 -49t-43 -30q34 -9 55.5 -31.5t21.5 -56.5q0 -44 -39 -73t-97 -29zM156 24q31 0 46.5 20t15.5 51q0 69 -62 69t-62 -69q0 -31 15.5 -51t46.5 -20z
M156 193q50 0 50 64q0 29 -13.5 45t-36.5 16t-36.5 -16t-13.5 -45q0 -64 50 -64z" />
    <glyph glyph-name="three.den" horiz-adv-x="287" 
d="M123 -10q-54 0 -84 22.5t-30 57.5q0 22 12.5 35t29.5 13q16 0 25.5 -9.5t9.5 -22.5q0 -12 -10 -21.5t-10 -11.5q0 -12 13 -19.5t35 -7.5q38 0 56 18t18 57q0 62 -78 62h-29v33h29q66 0 66 72q0 48 -53 48q-16 0 -27 -5.5t-11 -11.5q0 -2 7 -9.5t7 -18.5q0 -30 -33 -30
q-36 0 -36 40q0 34 32 52.5t75 18.5q53 0 83.5 -23.5t30.5 -59.5q0 -30 -23.5 -53.5t-57.5 -30.5v-3q97 -12 97 -86q0 -48 -39.5 -77t-104.5 -29z" />
    <glyph glyph-name="five.num" horiz-adv-x="279" 
d="M119 303q-48 0 -78 21.5t-30 54.5q0 21 11 32.5t29 11.5q33 0 33 -30q0 -12 -8.5 -21t-8.5 -12q0 -8 13.5 -14.5t28.5 -6.5q73 0 73 90q0 65 -62 65q-38 0 -59 -19l-20 12v172h159l11 32h29l-11 -88h-150v-88q28 15 66 15q51 0 83 -27t32 -79q0 -59 -41 -90t-100 -31z
" />
    <glyph glyph-name="two.num" horiz-adv-x="291" 
d="M20 313l-2 43q99 80 125 110q44 49 44 96q0 67 -56 67q-22 0 -35 -8.5t-13 -20.5q0 -6 10 -16t10 -21q0 -14 -10 -23.5t-26 -9.5q-43 0 -43 48q0 38 33.5 62.5t82.5 24.5q62 0 93.5 -30t31.5 -72q0 -27 -15 -53.5t-45.5 -52.5t-57 -44.5t-68.5 -44.5h106q27 0 36 5t13 24
l4 16h31l-11 -100h-238z" />
    <glyph glyph-name="seven.num" horiz-adv-x="258" 
d="M81 313l120 288h-84q-35 0 -46.5 -5t-17.5 -24l-10 -31h-33l19 118h234v-28l-129 -318h-53z" />
    <glyph glyph-name="registered.alt" horiz-adv-x="732" 
d="M366 -19q-133 0 -232.5 96t-99.5 247t100 248.5t232 97.5q131 0 231.5 -97.5t100.5 -248.5q0 -76 -28.5 -141.5t-75 -109t-106 -68t-122.5 -24.5zM366 22q115 0 199.5 83t84.5 219q0 135 -85 220t-199 85q-115 0 -199.5 -85t-84.5 -220q0 -136 84.5 -219t199.5 -83z
M210 143v36l37 3v295l-37 3v36h154q61 0 99.5 -25t38.5 -71q0 -35 -25 -59t-61 -33v-3q34 -5 51 -23t23 -52q10 -43 17 -57t23 -14q12 0 20 5l11 -26q-25 -20 -62 -20q-43 0 -60.5 25t-27.5 79q-6 43 -17 57t-39 14h-33v-130l41 -4v-36h-153zM357 479h-35v-133h42
q34 0 46.5 15t12.5 51q0 67 -66 67z" />
    <glyph glyph-name="dollar.old" horiz-adv-x="485" 
d="M218 -106v96q-87 4 -134.5 41.5t-47.5 93.5q0 34 16 50.5t40 16.5q21 0 34.5 -12t13.5 -32t-17.5 -36t-17.5 -18q0 -58 113 -63v247q-86 29 -124.5 66.5t-38.5 113.5q0 77 47 121.5t118 50.5v55h39v-55q66 -4 113.5 -36t47.5 -80q0 -29 -14.5 -46.5t-36.5 -17.5
q-20 0 -34.5 12.5t-14.5 31.5t13 32t13 16q0 19 -24.5 31.5t-62.5 14.5v-226q44 -15 71 -28t54 -34.5t39.5 -51.5t12.5 -72q0 -88 -52 -133.5t-128 -52.5v-96h-38zM369 145q0 43 -28.5 70.5t-84.5 49.5v-233q50 6 81.5 34t31.5 79zM117 491q0 -47 22 -70.5t81 -44.5v212
q-46 -5 -74.5 -31.5t-28.5 -65.5z" />
    <glyph glyph-name="Euro.old" horiz-adv-x="545" 
d="M25 343v39h65q22 114 90.5 181.5t159.5 67.5q65 0 115.5 -39.5t50.5 -98.5q0 -29 -15.5 -46t-39.5 -17q-22 0 -37.5 13t-15.5 33t14.5 35t14.5 19q0 25 -24.5 41.5t-57.5 16.5q-142 0 -165 -206h186v-39h-189q-1 -15 -1 -43v-25h190v-40h-188q18 -200 156 -200
q96 0 143 109l34 -16q-52 -146 -196 -146q-96 0 -158 68t-74 185h-58v40h56v8q0 30 3 60h-59z" />
    <glyph glyph-name="sterling.old" horiz-adv-x="500" 
d="M63 270v38h72q-27 79 -27 124q0 90 53.5 144.5t141.5 54.5q70 0 115 -37t45 -97q0 -34 -17 -53t-44 -19q-22 0 -37.5 13t-15.5 30q0 19 18.5 36.5t18.5 33.5t-23.5 33t-53.5 17q-46 0 -75 -34t-29 -92t22 -154h157v-38h-149q12 -60 12 -104q0 -34 -7 -71q78 -30 129 -30
q39 0 57 20t27 64l31 -6q-7 -76 -34.5 -118t-87.5 -42q-28 0 -56.5 10t-44.5 20t-42 28q-36 -59 -109 -59q-41 0 -63.5 20t-22.5 53q0 38 24.5 58t62.5 20q34 0 78 -18q-3 54 -40 155h-86zM112 20q52 0 72 45q-40 27 -75 27q-41 0 -41 -37q0 -35 44 -35z" />
    <glyph glyph-name="yen.old" horiz-adv-x="506" 
d="M64 301v37h139l-140 241l-44 4v37h210v-37l-67 -6l123 -217l104 205l-68 18v37h165v-37l-50 -18l-117 -227h133v-37h-146v-69h146v-38h-146v-150l74 -7v-37h-240v37l74 8v149h-150v38h150v69h-150z" />
    <glyph glyph-name="zero.old" horiz-adv-x="520" 
d="M276 29q75 0 115.5 53.5t40.5 150.5q0 96 -40.5 149.5t-115.5 53.5q-150 0 -150 -203q0 -204 150 -204zM265 -18q-101 0 -168 72.5t-67 178.5q0 105 67 178t168 73q107 0 165.5 -71.5t58.5 -179.5q0 -110 -58 -180.5t-166 -70.5z" />
    <glyph glyph-name="one.old" horiz-adv-x="326" 
d="M31 0v40l87 4v379l-87 5v40h264v-40l-89 -5v-378l89 -5v-40h-264z" />
    <glyph glyph-name="two.old" horiz-adv-x="476" 
d="M43 0l-4 56q122 64 167 99q102 78 102 175q0 55 -26.5 82.5t-70.5 27.5q-46 0 -70 -20t-24 -44q0 -16 17 -33t17 -38q0 -17 -15.5 -31t-36.5 -14q-27 0 -43 18t-16 52q0 64 52 109t131 45q92 0 137.5 -41t45.5 -114q0 -48 -42.5 -100t-99 -90.5t-117.5 -64.5h169
q35 0 48 7t22 27l23 58h36l-33 -166h-369z" />
    <glyph glyph-name="three.old" horiz-adv-x="453" 
d="M183 -176q-72 0 -123.5 33.5t-51.5 90.5q0 30 17 46t41 16q21 0 35.5 -13t14.5 -33q0 -16 -8 -27t-15.5 -17t-7.5 -10q0 -18 26.5 -30.5t58.5 -12.5q76 0 112.5 35t36.5 118q0 65 -41 98t-112 33h-55v45h55q54 0 86.5 38.5t32.5 101.5q0 104 -95 104q-29 0 -52 -11
t-23 -21q0 -2 13 -15t13 -34q0 -20 -14 -33t-35 -13q-24 0 -39 15.5t-15 41.5q0 51 51.5 82.5t112.5 31.5q85 0 132.5 -42.5t47.5 -104.5q0 -50 -43.5 -97t-98.5 -59v-5q86 -9 131.5 -53t45.5 -109q0 -86 -67.5 -138t-166.5 -52z" />
    <glyph glyph-name="four.old" horiz-adv-x="569" 
d="M313 -186v220h-285v22l272 474l54 3l-256 -455h215v294l89 6v-300h142v-44h-142v-220h-89z" />
    <glyph glyph-name="five.old" horiz-adv-x="455" 
d="M181 -176q-71 0 -122 33t-51 91q0 29 17 44.5t41 15.5q20 0 34.5 -12.5t14.5 -32.5q0 -16 -7.5 -27t-15.5 -17t-8 -10q0 -17 27 -29.5t58 -12.5q67 0 107 43.5t40 130.5q0 72 -31.5 99t-90.5 27q-62 0 -98 -31l-24 10v322h261l16 71h35l-17 -150h-244v-197q43 23 97 23
q94 0 144.5 -43.5t50.5 -127.5q0 -104 -71 -162t-163 -58z" />
    <glyph glyph-name="six.old" horiz-adv-x="534" 
d="M272 -18q-107 0 -168.5 78t-61.5 204q0 216 115.5 341.5t296.5 125.5v-46q-140 -9 -215.5 -84t-94.5 -219q73 45 156 45q89 0 145.5 -49.5t56.5 -156.5q0 -92 -62.5 -165.5t-167.5 -73.5zM270 378q-71 0 -130 -42q-2 -13 -2 -62q0 -248 133 -248q72 0 103.5 54t31.5 138
q0 77 -35.5 118.5t-100.5 41.5z" />
    <glyph glyph-name="seven.old" horiz-adv-x="460" 
d="M218 -206q-37 0 -59.5 21t-22.5 57q0 49 34 100l204 416h-209q-41 0 -53.5 -8.5t-21.5 -37.5l-22 -65h-36l28 191h393v-19l-243 -499q-20 -42 -20 -65t26 -23q9 0 16.5 3.5t15.5 10t10 8.5q34 -7 34 -36q0 -25 -21.5 -39.5t-52.5 -14.5z" />
    <glyph glyph-name="eight.old" horiz-adv-x="508" 
d="M254 -18q-98 0 -158 54t-60 138q0 64 38.5 108t96.5 59q-52 22 -81 63.5t-29 94.5q0 71 53 124t140 53q86 0 137 -52.5t51 -124.5q0 -53 -31 -98t-75 -60q59 -14 97.5 -58.5t38.5 -108.5q0 -84 -60 -138t-158 -54zM254 24q63 0 92.5 41.5t29.5 109.5q0 145 -122 145
t-122 -145q0 -68 29 -109.5t93 -41.5zM254 359q48 0 74 37t26 103q0 62 -26 98.5t-74 36.5q-49 0 -75.5 -36.5t-26.5 -98.5q0 -66 27 -103t75 -37z" />
    <glyph glyph-name="nine.old" horiz-adv-x="534" 
d="M79 -247v45q141 10 216 78t95 204q-73 -45 -155 -45q-89 0 -146 50.5t-57 156.5q0 92 62.5 167t167.5 75q109 0 170 -80t61 -216q0 -206 -114.5 -320.5t-299.5 -114.5zM265 84q74 0 129 42q3 30 3 64q0 249 -133 249q-73 0 -104.5 -54.5t-31.5 -139.5q0 -77 35.5 -119
t101.5 -42z" />
    <glyph glyph-name="percent.old" horiz-adv-x="663" 
d="M64 -1l497 601l31 -24l-498 -600zM171 341q34 0 51.5 30.5t17.5 80.5q0 52 -17.5 82t-51.5 30q-32 0 -49.5 -30.5t-17.5 -81.5q0 -49 18 -80t49 -31zM171 307q-58 0 -101 42t-43 103t43.5 104.5t100.5 43.5q62 0 103 -42.5t41 -105.5q0 -61 -41 -103t-103 -42zM492 24
q32 0 49.5 30.5t17.5 79.5q0 52 -17.5 82.5t-49.5 30.5t-50.5 -31t-18.5 -82q0 -49 18.5 -79.5t50.5 -30.5zM492 -11q-59 0 -101.5 42t-42.5 103q0 62 43 105t101 43q60 0 101 -43t41 -105q0 -60 -41 -102.5t-101 -42.5z" />
    <glyph glyph-name="perthousand.old" horiz-adv-x="990" 
d="M171 341q34 0 51.5 30.5t17.5 80.5q0 52 -17.5 82t-51.5 30q-32 0 -49.5 -30.5t-17.5 -81.5q0 -49 18 -80t49 -31zM171 307q-58 0 -101 42t-43 103t43.5 104.5t100.5 43.5q62 0 103 -42.5t41 -105.5q0 -61 -41 -103t-103 -42zM492 24q32 0 49.5 30.5t17.5 79.5
q0 52 -17.5 82.5t-49.5 30.5t-50.5 -31t-18.5 -82q0 -49 18.5 -79.5t50.5 -30.5zM492 -11q-59 0 -101.5 42t-42.5 103q0 62 43 105t101 43q60 0 101 -43t41 -105q0 -60 -41 -102.5t-101 -42.5zM819 24q34 0 50.5 30t16.5 80q0 113 -67 113q-32 0 -50 -31t-18 -82
q0 -48 18 -79t50 -31zM819 -11q-58 0 -101 42t-43 103t43.5 104.5t100.5 43.5q61 0 102.5 -43t41.5 -105q0 -60 -41.5 -102.5t-102.5 -42.5zM64 -1l497 601l31 -24l-498 -600z" />
    <glyph glyph-name="plus.old" horiz-adv-x="459" 
d="M40 217v51h164v170h52v-170h162v-51h-162v-169h-52v169h-164z" />
    <glyph glyph-name="minus.old" horiz-adv-x="459" 
d="M40 217v50h378v-50h-378z" />
    <glyph glyph-name="multiply.old" horiz-adv-x="433" 
d="M80 61l-35 35l136 137l-136 137l35 34l136 -136l136 136l36 -34l-137 -137l137 -137l-36 -35l-136 137z" />
    <glyph glyph-name="divide.old" horiz-adv-x="459" 
d="M40 217v50h378v-50h-378zM229 24q-26 0 -43 17.5t-17 43.5t17 43t43 17t43.5 -17t17.5 -43t-17.5 -43.5t-43.5 -17.5zM229 339q-26 0 -43 17t-17 43t17 43.5t43 17.5t43.5 -17.5t17.5 -43.5t-17.5 -43t-43.5 -17z" />
    <glyph glyph-name="equal.old" horiz-adv-x="459" 
d="M40 276v50h378v-50h-378zM40 136v50h378v-50h-378z" />
    <glyph glyph-name="less.old" horiz-adv-x="428" 
d="M384 55l-347 161v42l347 161v-57l-275 -125l275 -125v-57z" />
    <glyph glyph-name="greater.old" horiz-adv-x="428" 
d="M44 55v57l274 125l-274 125v57l347 -161v-42z" />
    <glyph glyph-name="numbersign.old" horiz-adv-x="458" 
d="M219 0l32 163h-95l-32 -163h-48l32 163h-86l15 71h85l23 113h-85l13 71h86l30 150h48l-30 -150h95l30 150h48l-30 -150h86l-13 -71h-87l-23 -113h86l-13 -71h-87l-32 -163h-48zM193 347l-23 -113h95l23 113h-95z" />
    <glyph glyph-name="dollar.lin" horiz-adv-x="514" 
d="M232 -113v102q-90 4 -141 45t-51 98q0 37 17 54.5t43 17.5q22 0 36 -13t14 -34q0 -16 -9 -27.5t-18.5 -18.5t-9.5 -11q0 -60 119 -66v260q-90 30 -131 71.5t-41 121.5q0 79 50 127t124 54v59h42v-58q70 -4 121 -38t51 -86q0 -31 -15 -49t-39 -18q-21 0 -36.5 13t-15.5 33
t14 34t14 18q0 20 -26.5 32.5t-67.5 14.5v-237q48 -17 76.5 -30.5t57.5 -36.5t42.5 -55.5t13.5 -76.5q0 -93 -55.5 -142t-136.5 -56v-102h-42zM393 155q0 45 -29 73.5t-90 51.5v-245q52 4 85.5 34.5t33.5 85.5zM129 521q0 -49 22.5 -73t82.5 -47v221q-47 -6 -76 -33t-29 -68
z" />
    <glyph glyph-name="Euro.lin" horiz-adv-x="579" 
d="M37 364v40h69q24 122 96.5 194t170.5 72q69 0 121.5 -42.5t52.5 -104.5q0 -31 -16.5 -49.5t-41.5 -18.5q-24 0 -40 14t-16 36q0 21 15.5 37t15.5 21q0 26 -26 43t-60 17q-151 0 -174 -219h194v-40h-197q-1 -15 -1 -45v-29h198v-39h-196q18 -214 163 -214q102 0 152 114
l36 -14q-55 -156 -208 -156q-102 0 -168 73t-78 197h-62v39h60v10q0 32 3 64h-63z" />
    <glyph glyph-name="sterling.lin" horiz-adv-x="530" 
d="M59 288v41h76q-28 79 -28 129q0 96 57 154t150 58q73 0 120.5 -39.5t47.5 -103.5q0 -36 -17.5 -56t-45.5 -20q-23 0 -40 14t-17 32q0 21 20 39.5t20 34.5q0 18 -25 35.5t-57 17.5q-46 0 -76.5 -36.5t-30.5 -96.5q0 -65 21 -162h165v-41h-157q12 -62 12 -113q0 -35 -7 -72
q83 -31 136 -31q44 0 62.5 19t27.5 66l33 -6q-7 -80 -36 -124.5t-93 -44.5q-30 0 -60 10t-47.5 21t-45.5 31q-38 -63 -115 -63q-44 0 -68 21t-24 57q0 40 26.5 61.5t66.5 21.5q37 0 83 -18q-4 52 -44 164h-90zM111 22q57 0 76 48q-44 28 -79 28q-45 0 -45 -39q0 -37 48 -37z
" />
    <glyph glyph-name="yen.lin" horiz-adv-x="536" 
d="M67 319v41h145l-146 254l-46 4v41h226v-41l-73 -5l130 -230l109 216l-72 19v41h174v-41l-52 -19l-123 -239h142v-41h-156v-73h156v-41h-156v-158l79 -7v-40h-257v40l81 8v157h-161v41h161v73h-161z" />
    <glyph glyph-name="zero.lin" horiz-adv-x="586" 
d="M293 28q151 0 151 296q0 299 -151 299t-151 -299q0 -296 151 -296zM293 -19q-104 0 -181 96t-77 247q0 152 77 249t181 97q103 0 180.5 -97.5t77.5 -248.5t-77.5 -247t-180.5 -96z" />
    <glyph glyph-name="one.lin" horiz-adv-x="352" 
d="M24 503v45l180 122h31v-622l92 -8v-40h-291v40l100 10v511z" />
    <glyph glyph-name="two.lin" horiz-adv-x="480" 
d="M26 0l-5 61q26 24 81.5 74t78 71t60 61.5t52.5 67.5t28 65t13 76q0 147 -115 147q-47 0 -74.5 -19t-27.5 -44q0 -17 20 -34.5t20 -38.5q0 -19 -17 -33t-38 -14q-30 0 -47.5 19t-17.5 55q0 64 56 110t136 46q103 0 157.5 -56t54.5 -136q0 -50 -25 -99t-82.5 -104t-95 -86
t-117.5 -91q-14 -11 -21 -16h233q34 0 46.5 6.5t16.5 23.5l13 58h36l-21 -170h-398z" />
    <glyph glyph-name="three.lin" horiz-adv-x="490" 
d="M214 -19q-86 0 -139 41t-53 107q0 30 17 46.5t41 16.5q23 0 38 -13t15 -35q0 -21 -17.5 -37t-17.5 -19q0 -21 29 -40.5t74 -19.5q77 0 113 37.5t36 123.5q0 133 -154 133h-52v46h52q60 0 94.5 37t34.5 112q0 52 -28.5 79t-77.5 27q-32 0 -56 -10t-24 -20q0 -3 14.5 -17.5
t14.5 -34.5t-15.5 -33.5t-36.5 -13.5q-24 0 -40 16.5t-16 42.5q0 54 53.5 85.5t117.5 31.5q90 0 141.5 -43t51.5 -107q0 -60 -45.5 -107t-105.5 -60v-4q91 -9 137.5 -54.5t46.5 -113.5q0 -88 -71 -144t-172 -56z" />
    <glyph glyph-name="four.lin" horiz-adv-x="530" 
d="M219 0v40l83 9v145h-275v23l169 303q21 34 21 58q0 26 -21 26q-22 0 -27 -26q-35 7 -35 46q0 22 21 37.5t46 15.5q34 0 51.5 -19t17.5 -48q0 -40 -41 -111l-139 -261h212v225l99 9v-234h104v-44h-104v-146l80 -8v-40h-262z" />
    </font>
</defs>
</svg>
